<?xml version="1.0" encoding="iso-8859-1"?>
<!-- Generator: Adobe Illustrator 19.0.0, SVG Export Plug-In . SVG Version: 6.00 Build 0)  -->
<svg version="1.1" id="Capa_1" xmlns="http://www.w3.org/2000/svg" xmlns:xlink="http://www.w3.org/1999/xlink" x="0px" y="0px"
	 viewBox="0 0 512 512" style="enable-background:new 0 0 512 512;" xml:space="preserve">
<rect id="SVGCleanerId_0" x="448" y="119.467" width="17.067" height="17.067"/>
<rect id="SVGCleanerId_1" x="388.267" y="119.467" width="42.667" height="17.067"/>
<rect id="SVGCleanerId_2" x="439.467" y="221.867" width="25.6" height="17.067"/>
<rect id="SVGCleanerId_3" x="422.4" y="315.733" width="34.133" height="17.067"/>
<rect id="SVGCleanerId_4" x="388.267" y="358.4" width="42.667" height="17.067"/>
<rect id="SVGCleanerId_5" x="448" y="358.4" width="17.067" height="17.067"/>
<path style="fill:#FE7C26;" d="M362.667,140.971c58.871,47.061,68.437,132.932,21.376,191.804
	c-42.163,52.736-116.548,66.714-174.976,32.879v-41.899c42.129,37.726,106.871,34.15,144.597-7.979s34.15-106.871-7.979-144.597
	c-38.886-34.816-97.732-34.816-136.619,0V129.28c36.395-21.086,80.486-24.166,119.467-8.363
	C340.813,125.926,352.307,132.685,362.667,140.971z"/>
<path style="fill:#454545;" d="M362.667,353.963v123.904c0,14.14-11.46,25.6-25.6,25.6l0,0h-256c-14.14,0-25.6-11.46-25.6-25.6l0,0
	V34.133c0-14.14,11.46-25.6,25.6-25.6h256c14.14,0,25.6,11.46,25.6,25.6v106.837c-10.359-8.286-21.854-15.044-34.133-20.053V51.2
	H89.6v384h238.933v-59.733l-0.512-1.28C340.514,369.203,352.188,362.394,362.667,353.963z"/>
<path style="fill:#FFD173;" d="M297.984,147.115c55.424,11.443,91.076,65.647,79.633,121.071
	c-8.269,40.064-39.578,71.364-79.633,79.633l-3.584-23.552v-25.6c14.14,0,25.6-11.46,25.6-25.6s-11.46-25.6-25.6-25.6
	c14.14,0,25.6-11.46,25.6-25.6c0-14.14-11.46-25.6-25.6-25.6v-25.6L297.984,147.115z"/>
<path style="fill:#168DE2;" d="M209.067,129.28v236.373c36.224,21.001,80.102,24.149,118.955,8.533l0.512,1.28V435.2H89.6v-384
	h238.933v69.717C289.553,105.114,245.461,108.194,209.067,129.28z"/>
<g>
	<path style="fill:#FFD173;" d="M294.4,196.267c14.14,0,25.6,11.46,25.6,25.6c0,14.14-11.46,25.6-25.6,25.6h-42.667v-51.2H294.4z"/>
	<path style="fill:#FFD173;" d="M294.4,247.467c14.14,0,25.6,11.46,25.6,25.6c0,14.14-11.46,25.6-25.6,25.6h-42.667v-51.2H294.4z"/>
	<path style="fill:#FFD173;" d="M260.267,196.267h-8.533v102.4H294.4v25.6l3.584,23.552c-31.778,6.434-64.725-2.483-88.917-24.064
		V171.179c24.192-21.581,57.139-30.498,88.917-24.064l-3.584,23.552v25.6H260.267z"/>
</g>
<g>
	<path style="fill:#FE7C26;" d="M294.4,256v-17.067c9.429,0,17.067-7.637,17.067-17.067c0-9.429-7.637-17.067-17.067-17.067h-34.133
		v42.667H243.2v-51.2c0-4.71,3.823-8.533,8.533-8.533H294.4c18.85,0,34.133,15.283,34.133,34.133S313.25,256,294.4,256z"/>
	<path style="fill:#FE7C26;" d="M294.4,307.2h-42.667c-4.71,0-8.533-3.823-8.533-8.533v-51.2c0-4.71,3.823-8.533,8.533-8.533H294.4
		c18.85,0,34.133,15.283,34.133,34.133S313.25,307.2,294.4,307.2z M260.267,290.133H294.4c9.429,0,17.067-7.637,17.067-17.067
		S303.829,256,294.4,256h-34.133V290.133z"/>
	<rect x="251.733" y="170.667" style="fill:#FE7C26;" width="17.067" height="25.6"/>
	<rect x="251.733" y="298.667" style="fill:#FE7C26;" width="17.067" height="25.6"/>
	<rect x="285.867" y="170.667" style="fill:#FE7C26;" width="17.067" height="25.6"/>
	<rect x="285.867" y="298.667" style="fill:#FE7C26;" width="17.067" height="25.6"/>
	<rect x="234.667" y="187.733" style="fill:#FE7C26;" width="17.067" height="17.067"/>
	<rect x="234.667" y="290.133" style="fill:#FE7C26;" width="17.067" height="17.067"/>
</g>
<rect x="200.533" y="85.333" style="fill:#3AA2EB;" width="17.067" height="315.733"/>
<path d="M81.067,512h256c18.85,0,34.133-15.283,34.133-34.133V357.871c60.971-51.601,68.574-142.857,16.973-203.836
	c-5.18-6.118-10.854-11.793-16.973-16.973V34.133C371.2,15.283,355.917,0,337.067,0h-256c-18.85,0-34.133,15.283-34.133,34.133
	v443.733C46.933,496.717,62.217,512,81.067,512z M405.333,247.467c0.077,70.613-57.097,127.915-127.71,128
	c-20.924,0.026-41.532-5.086-60.023-14.891v-19.721c51.575,33.067,120.192,18.065,153.259-33.519s18.065-120.192-33.519-153.259
	c-36.489-23.39-83.26-23.39-119.748,0v-19.721c62.387-33.067,139.776-9.301,172.843,53.086
	C400.247,205.935,405.359,226.543,405.333,247.467z M200.533,85.333v315.733H217.6v-21.504c32.179,14.643,68.617,16.973,102.4,6.545
	v40.559H98.133V59.733H320v49.092c-33.783-10.428-70.221-8.107-102.4,6.537V85.333H200.533z M217.6,175.181
	c39.919-33.075,99.098-27.52,132.164,12.407s27.52,99.098-12.407,132.164c-34.739,28.774-85.026,28.774-119.765,0V175.181H217.6z
	 M64,34.133c0-9.429,7.637-17.067,17.067-17.067h256c9.429,0,17.067,7.637,17.067,17.067v90.453
	c-5.478-3.447-11.179-6.519-17.067-9.199V51.2c0-4.71-3.823-8.533-8.533-8.533H89.6c-4.71,0-8.533,3.823-8.533,8.533v384
	c0,4.71,3.823,8.533,8.533,8.533h238.933c4.71,0,8.533-3.823,8.533-8.533v-55.689c5.888-2.671,11.588-5.734,17.067-9.165v107.52
	c0,9.429-7.637,17.067-17.067,17.067h-256c-9.429,0-17.067-7.637-17.067-17.067V34.133z"/>
<path d="M285.867,324.267h17.067v-18.278c18.133-4.557,29.141-22.963,24.576-41.097c-1.707-6.784-5.47-12.868-10.769-17.425
	c14.182-12.186,15.804-33.562,3.618-47.753c-4.557-5.308-10.641-9.071-17.425-10.769v-18.278h-17.067v17.067H268.8v-17.067h-17.067
	v17.067h-17.067V204.8h8.533v85.333h-8.533V307.2h17.067v17.067H268.8V307.2h17.067V324.267z M260.267,204.8H294.4
	c9.429,0,17.067,7.637,17.067,17.067c0,9.429-7.637,17.067-17.067,17.067h-34.133V204.8z M260.267,290.133V256H294.4
	c9.429,0,17.067,7.637,17.067,17.067s-7.637,17.067-17.067,17.067H260.267z"/>
<g>
	<rect id="SVGCleanerId_0_1_" x="448" y="119.467" width="17.067" height="17.067"/>
</g>
<g>
	<rect id="SVGCleanerId_1_1_" x="388.267" y="119.467" width="42.667" height="17.067"/>
</g>
<g>
	<rect id="SVGCleanerId_2_1_" x="439.467" y="221.867" width="25.6" height="17.067"/>
</g>
<g>
	<rect id="SVGCleanerId_3_1_" x="422.4" y="315.733" width="34.133" height="17.067"/>
</g>
<g>
	<rect id="SVGCleanerId_4_1_" x="388.267" y="358.4" width="42.667" height="17.067"/>
</g>
<g>
	<rect id="SVGCleanerId_5_1_" x="448" y="358.4" width="17.067" height="17.067"/>
</g>
<g>
</g>
<g>
</g>
<g>
</g>
<g>
</g>
<g>
</g>
<g>
</g>
<g>
</g>
<g>
</g>
<g>
</g>
<g>
</g>
<g>
</g>
<g>
</g>
<g>
</g>
<g>
</g>
<g>
</g>
</svg>
