<?xml version="1.0" encoding="iso-8859-1"?>
<!-- Generator: Adobe Illustrator 19.0.0, SVG Export Plug-In . SVG Version: 6.00 Build 0)  -->
<svg version="1.1" id="Capa_1" xmlns="http://www.w3.org/2000/svg" xmlns:xlink="http://www.w3.org/1999/xlink" x="0px" y="0px"
	 viewBox="0 0 512 512" style="enable-background:new 0 0 512 512;" xml:space="preserve">
<g>
	<path style="fill:#FFD173;" d="M273.067,238.933c9.412,0.026,17.041,7.654,17.067,17.067c-0.068,9.395-7.671,16.998-17.067,17.067
		h-34.133v-34.133H273.067z"/>
	<path style="fill:#FFD173;" d="M273.067,204.8c9.412,0.026,17.041,7.654,17.067,17.067c-0.068,9.395-7.671,16.998-17.067,17.067
		h-34.133V204.8H273.067z"/>
	<path style="fill:#FFD173;" d="M273.067,273.067c9.395-0.068,16.998-7.671,17.067-17.067c-0.026-9.412-7.654-17.041-17.067-17.067
		c9.395-0.068,16.998-7.671,17.067-17.067c-0.026-9.412-7.654-17.041-17.067-17.067h-34.133v68.267H273.067z M256,153.6
		c47.13,0,85.333,38.204,85.333,85.333S303.13,324.267,256,324.267s-85.333-38.204-85.333-85.333S208.87,153.6,256,153.6z"/>
</g>
<path style="fill:#168DE2;" d="M136.533,435.2v-384h238.933v384H136.533z M341.333,238.933c0-47.13-38.204-85.333-85.333-85.333
	s-85.333,38.204-85.333,85.333S208.87,324.267,256,324.267S341.333,286.063,341.333,238.933z"/>
<path style="fill:#454545;" d="M409.6,353.963v123.904c0,14.14-11.46,25.6-25.6,25.6l0,0H128c-14.14,0-25.6-11.46-25.6-25.6l0,0
	V34.133c0-14.14,11.46-25.6,25.6-25.6h256c14.14,0,25.6,11.46,25.6,25.6V353.963z M375.467,435.2v-384H136.533v384H375.467z"/>
<g>
	<path style="fill:#FE7C26;" d="M273.067,247.467V230.4c2.227,0.026,4.369-0.862,5.922-2.458c1.673-1.579,2.611-3.78,2.611-6.076
		c0-4.71-3.823-8.533-8.533-8.533h-25.6v25.6H230.4V204.8c0-4.71,3.823-8.533,8.533-8.533h34.133c14.14,0,25.6,11.46,25.6,25.6
		C298.59,235.972,287.172,247.39,273.067,247.467z"/>
	<path style="fill:#FE7C26;" d="M273.067,281.6h-34.133c-4.71,0-8.533-3.823-8.533-8.533v-34.133c0-4.71,3.823-8.533,8.533-8.533
		h34.133c14.14,0,25.6,11.46,25.6,25.6C298.59,270.106,287.172,281.523,273.067,281.6z M247.467,264.533h25.6
		c2.227,0.026,4.369-0.862,5.922-2.458c1.673-1.579,2.611-3.78,2.611-6.076c0-4.71-3.823-8.533-8.533-8.533h-25.6V264.533z"/>
	<path style="fill:#FE7C26;" d="M247.467,290.133H230.4V281.6h-8.533v-17.067h17.067c4.71,0,8.533,3.823,8.533,8.533V290.133z"/>
	<path style="fill:#FE7C26;" d="M238.933,213.333h-17.067v-17.067h8.533v-8.533h17.067V204.8
		C247.467,209.51,243.644,213.333,238.933,213.333z"/>
	<rect x="264.533" y="187.733" style="fill:#FE7C26;" width="17.067" height="17.067"/>
	<rect x="264.533" y="273.067" style="fill:#FE7C26;" width="17.067" height="17.067"/>
	<path style="fill:#FE7C26;" d="M256,332.8c-51.84,0-93.867-42.027-93.867-93.867S204.16,145.067,256,145.067
		s93.867,42.027,93.867,93.867C349.807,290.748,307.814,332.74,256,332.8z M256,162.133c-42.419,0-76.8,34.381-76.8,76.8
		s34.381,76.8,76.8,76.8s76.8-34.381,76.8-76.8C332.749,196.54,298.394,162.185,256,162.133z"/>
</g>
<g>
	<rect x="298.667" y="93.867" style="fill:#FFD173;" width="25.6" height="17.067"/>
	<rect x="264.533" y="93.867" style="fill:#FFD173;" width="17.067" height="17.067"/>
	<rect x="307.2" y="392.533" style="fill:#FFD173;" width="42.667" height="17.067"/>
	<rect x="162.133" y="128" style="fill:#FFD173;" width="42.667" height="17.067"/>
	<rect x="170.667" y="366.933" style="fill:#FFD173;" width="42.667" height="17.067"/>
	<rect x="264.533" y="392.533" style="fill:#FFD173;" width="25.6" height="17.067"/>
	<rect x="315.733" y="332.8" style="fill:#FFD173;" width="17.067" height="17.067"/>
</g>
<path d="M93.867,34.133v443.733C93.867,496.717,109.15,512,128,512h256c18.85,0,34.133-15.283,34.133-34.133V34.133
	C418.133,15.283,402.85,0,384,0H128C109.15,0,93.867,15.283,93.867,34.133z M110.933,34.133c0-9.429,7.637-17.067,17.067-17.067h256
	c9.429,0,17.067,7.637,17.067,17.067v443.733c0,9.429-7.637,17.067-17.067,17.067H128c-9.429,0-17.067-7.637-17.067-17.067V34.133z"
	/>
<path d="M136.533,443.733h238.933c4.71,0,8.533-3.823,8.533-8.533v-384c0-4.71-3.823-8.533-8.533-8.533H136.533
	c-4.71,0-8.533,3.823-8.533,8.533v384C128,439.91,131.823,443.733,136.533,443.733z M145.067,59.733h221.867v366.933H145.067V59.733
	z"/>
<path d="M281.6,197.837v-10.103h-17.067v8.533h-17.067v-8.533H230.4v8.533h-8.533v17.067h8.533v51.2h-8.533V281.6h8.533v8.533
	h17.067V281.6h17.067v8.533H281.6V280.03c13.235-4.582,20.258-19.021,15.676-32.256c-1.135-3.277-2.927-6.281-5.265-8.841
	c9.464-10.325,8.755-26.368-1.57-35.831C287.881,200.764,284.877,198.972,281.6,197.837z M273.067,264.533h-25.6v-17.067h25.6
	c4.71,0,8.533,3.823,8.533,8.533C281.6,260.71,277.777,264.533,273.067,264.533z M273.067,230.4h-25.6v-17.067h25.6
	c4.71,0,8.533,3.823,8.533,8.533C281.6,226.577,277.777,230.4,273.067,230.4z"/>
<path d="M256,145.067c-51.84,0-93.867,42.027-93.867,93.867S204.16,332.8,256,332.8s93.867-42.027,93.867-93.867
	C349.807,187.119,307.814,145.126,256,145.067z M256,315.733c-42.419,0-76.8-34.381-76.8-76.8s34.381-76.8,76.8-76.8
	s76.8,34.381,76.8,76.8C332.749,281.327,298.394,315.682,256,315.733z"/>
<rect x="298.667" y="93.867" width="25.6" height="17.067"/>
<rect x="264.533" y="93.867" width="17.067" height="17.067"/>
<rect x="307.2" y="392.533" width="42.667" height="17.067"/>
<rect x="162.133" y="128" width="42.667" height="17.067"/>
<rect x="170.667" y="366.933" width="42.667" height="17.067"/>
<rect x="264.533" y="392.533" width="25.6" height="17.067"/>
<rect x="315.733" y="332.8" width="17.067" height="17.067"/>
<g>
</g>
<g>
</g>
<g>
</g>
<g>
</g>
<g>
</g>
<g>
</g>
<g>
</g>
<g>
</g>
<g>
</g>
<g>
</g>
<g>
</g>
<g>
</g>
<g>
</g>
<g>
</g>
<g>
</g>
</svg>
