<?xml version="1.0" encoding="iso-8859-1"?>
<!-- Generator: Adobe Illustrator 19.0.0, SVG Export Plug-In . SVG Version: 6.00 Build 0)  -->
<svg version="1.1" id="Capa_1" xmlns="http://www.w3.org/2000/svg" xmlns:xlink="http://www.w3.org/1999/xlink" x="0px" y="0px"
	 viewBox="0 0 512 512" style="enable-background:new 0 0 512 512;" xml:space="preserve">
<path style="fill:#168DE2;" d="M153.6,230.4h281.6v238.933h-384V230.4h13.653v-4.693c20.983,25.463,58.624,29.09,84.087,8.115
	c1.476-1.212,2.884-2.492,4.233-3.849L153.6,230.4z M178.688,418.133h137.557c18.876-37.982,3.379-84.079-34.603-102.955
	s-84.079-3.379-102.955,34.603C167.996,371.319,167.996,396.604,178.688,418.133z M384,290.133c0-14.14-11.46-25.6-25.6-25.6
	s-25.6,11.46-25.6,25.6c0,14.14,11.46,25.6,25.6,25.6S384,304.273,384,290.133z"/>
<path style="fill:#454545;" d="M153.173,229.973c9.173-9.105,15.087-20.983,16.811-33.792l0.683,0.085h307.2
	c14.14,0,25.6,11.46,25.6,25.6v256c0,14.14-11.46,25.6-25.6,25.6l0,0H34.133c-14.14,0-25.6-11.46-25.6-25.6l0,0v-256
	c0-14.14,11.46-25.6,25.6-25.6H51.2l0.683-0.085c1.434,10.871,5.931,21.111,12.971,29.525v4.693H51.2v238.933h384V230.4H153.6
	L153.173,229.973z"/>
<g>
	<path style="fill:#FFD173;" d="M115.2,187.733c7.066,0,12.8,5.734,12.8,12.8c0,7.066-5.734,12.8-12.8,12.8H93.867v-25.6H115.2z"/>
	<path style="fill:#FFD173;" d="M128,174.933c0,7.066-5.734,12.8-12.8,12.8H93.867v-25.6H115.2
		C122.266,162.133,128,167.868,128,174.933z"/>
	<path style="fill:#FFD173;" d="M375.467,89.6c0,7.066-5.734,12.8-12.8,12.8h-21.333V76.8h21.333
		C369.732,76.8,375.467,82.534,375.467,89.6z"/>
	<path style="fill:#FFD173;" d="M362.667,102.4c7.066,0,12.8,5.734,12.8,12.8c0,7.066-5.734,12.8-12.8,12.8h-21.333v-25.6H362.667z"
		/>
	<path style="fill:#FFD173;" d="M264.533,349.867c9.412,0.026,17.041,7.654,17.067,17.067c-0.068,9.395-7.671,16.998-17.067,17.067
		H230.4v-34.133H264.533z"/>
	<path style="fill:#FFD173;" d="M264.533,384c9.412,0.026,17.041,7.654,17.067,17.067c-0.068,9.395-7.671,16.998-17.067,17.067
		H230.4V384H264.533z"/>
	<path style="fill:#FFD173;" d="M230.4,349.867v68.267h-51.712c-18.876-37.982-3.379-84.079,34.603-102.955
		s84.079-3.379,102.955,34.603c10.692,21.53,10.692,46.814,0,68.343h-51.712c9.395-0.068,16.998-7.671,17.067-17.067
		c-0.026-9.412-7.654-17.041-17.067-17.067c9.395-0.068,16.998-7.671,17.067-17.067c-0.026-9.412-7.654-17.041-17.067-17.067H230.4
		V349.867z"/>
	<path style="fill:#FFD173;" d="M93.867,187.733v25.6H115.2c7.066,0,12.8-5.734,12.8-12.8c0-7.066-5.734-12.8-12.8-12.8
		c7.066,0,12.8-5.734,12.8-12.8c0-7.066-5.734-12.8-12.8-12.8H93.867V187.733z M170.667,187.733
		c0.034,2.833-0.196,5.658-0.683,8.448c-1.724,12.809-7.637,24.687-16.811,33.792c-23.339,23.322-61.158,23.305-84.471-0.034
		c-1.357-1.348-2.637-2.756-3.849-4.233c-7.04-8.414-11.537-18.654-12.971-29.525c-0.486-2.79-0.717-5.615-0.683-8.448
		c0-32.99,26.743-59.733,59.733-59.733S170.667,154.743,170.667,187.733z"/>
	<path style="fill:#FFD173;" d="M136.533,0H204.8c0,18.85-15.283,34.133-34.133,34.133S136.533,18.85,136.533,0z"/>
	<path style="fill:#FFD173;" d="M341.333,102.4V128h21.333c7.066,0,12.8-5.734,12.8-12.8c0-7.066-5.734-12.8-12.8-12.8
		c7.066,0,12.8-5.734,12.8-12.8c0-7.066-5.734-12.8-12.8-12.8h-21.333V102.4z M358.4,42.667c32.99,0,59.733,26.743,59.733,59.733
		s-26.743,59.733-59.733,59.733s-59.733-26.743-59.733-59.733c-0.026-32.964,26.684-59.708,59.648-59.733
		C358.34,42.667,358.374,42.667,358.4,42.667z"/>
	<circle style="fill:#FFD173;" cx="358.4" cy="290.133" r="25.6"/>
</g>
<g>
	<path style="fill:#FE7C26;" d="M323.891,421.922l-15.292-7.578c16.777-33.766,3.012-74.735-30.754-91.511
		c-33.766-16.777-74.735-3.012-91.511,30.754c-9.515,19.14-9.515,41.626,0,60.766l-15.292,7.578
		c-20.966-42.206-3.746-93.423,38.46-114.389s93.423-3.746,114.389,38.46C335.77,369.911,335.77,398.012,323.891,421.922z"/>
	<path style="fill:#FE7C26;" d="M358.4,170.667c-37.7,0-68.267-30.566-68.267-68.267S320.7,34.133,358.4,34.133
		S426.667,64.7,426.667,102.4C426.624,140.083,396.083,170.624,358.4,170.667z M358.4,51.2c-28.279,0-51.2,22.921-51.2,51.2
		s22.921,51.2,51.2,51.2c28.279,0,51.2-22.921,51.2-51.2C409.574,74.138,386.662,51.226,358.4,51.2z"/>
</g>
<g>
	<rect x="273.067" style="fill:#168DE2;" width="17.067" height="59.733"/>
	<rect x="401.067" style="fill:#168DE2;" width="17.067" height="25.6"/>
</g>
<rect x="247.467" y="238.933" style="fill:#AFE9F9;" width="17.067" height="42.667"/>
<g>
	<rect x="230.4" y="59.733" style="fill:#168DE2;" width="17.067" height="76.8"/>
	<rect x="76.8" style="fill:#168DE2;" width="17.067" height="25.6"/>
</g>
<g>
	<path style="fill:#FE7C26;" d="M264.533,392.533v-17.067c2.227,0.026,4.369-0.862,5.922-2.458c1.673-1.579,2.62-3.78,2.611-6.076
		c0-4.71-3.823-8.533-8.533-8.533h-25.6V384h-17.067v-34.133c0-4.71,3.823-8.533,8.533-8.533h34.133c14.14,0,25.6,11.46,25.6,25.6
		C290.065,381.039,278.639,392.465,264.533,392.533z"/>
	<path style="fill:#FE7C26;" d="M264.533,426.667V409.6c2.227,0.026,4.369-0.862,5.922-2.458c1.673-1.579,2.62-3.78,2.611-6.076
		c0-4.71-3.823-8.533-8.533-8.533h-25.6v25.6h-17.067V384c0-4.71,3.823-8.533,8.533-8.533h34.133c14.14,0,25.6,11.46,25.6,25.6
		C290.065,415.172,278.639,426.598,264.533,426.667z"/>
	<path style="fill:#FE7C26;" d="M230.4,358.4h-17.067v-17.067h8.533V332.8h17.067v17.067C238.933,354.577,235.11,358.4,230.4,358.4z
		"/>
	<rect x="256" y="332.8" style="fill:#FE7C26;" width="17.067" height="17.067"/>
	<path style="fill:#FE7C26;" d="M362.667,110.933V93.867c2.355,0,4.267-1.911,4.267-4.267s-1.911-4.267-4.267-4.267h-12.8V102.4
		H332.8V76.8c0-4.71,3.823-8.533,8.533-8.533h21.333C374.451,68.267,384,77.815,384,89.6S374.451,110.933,362.667,110.933z"/>
	<path style="fill:#FE7C26;" d="M362.667,136.533h-21.333c-4.71,0-8.533-3.823-8.533-8.533v-25.6c0-4.71,3.823-8.533,8.533-8.533
		h21.333c11.785,0,21.333,9.549,21.333,21.333S374.451,136.533,362.667,136.533z M349.867,119.467h12.8
		c2.355,0,4.267-1.911,4.267-4.267s-1.911-4.267-4.267-4.267h-12.8V119.467z"/>
</g>
<rect x="145.067" y="409.6" style="fill:#AFE9F9;" width="213.333" height="17.067"/>
<rect x="273.067" y="145.067" style="fill:#168DE2;" width="17.067" height="17.067"/>
<g>
	<rect x="136.533" y="256" style="fill:#AFE9F9;" width="17.067" height="17.067"/>
	<rect x="136.533" y="290.133" style="fill:#AFE9F9;" width="17.067" height="51.2"/>
</g>
<g>
	<rect x="102.4" y="34.133" style="fill:#168DE2;" width="17.067" height="17.067"/>
	<rect x="102.4" y="68.267" style="fill:#168DE2;" width="17.067" height="34.133"/>
	<rect x="230.4" y="25.6" style="fill:#168DE2;" width="17.067" height="17.067"/>
</g>
<g>
	<path style="fill:#FE7C26;" d="M358.4,324.267c-18.85,0-34.133-15.283-34.133-34.133c0-18.85,15.283-34.133,34.133-34.133
		s34.133,15.283,34.133,34.133C392.533,308.983,377.25,324.267,358.4,324.267z M358.4,273.067c-9.429,0-17.067,7.637-17.067,17.067
		c0,9.429,7.637,17.067,17.067,17.067s17.067-7.637,17.067-17.067C375.467,280.704,367.829,273.067,358.4,273.067z"/>
	<path style="fill:#FE7C26;" d="M110.933,256c-20.403,0.043-39.748-9.088-52.676-24.883c-8.013-9.574-13.141-21.231-14.805-33.604
		c-0.563-3.226-0.819-6.502-0.785-9.779c0-37.7,30.566-68.267,68.267-68.267s68.267,30.566,68.267,68.267
		c0.034,3.362-0.256,6.716-0.853,10.018C173.474,231.228,144.759,256.043,110.933,256z M110.933,136.533
		c-28.262,0.026-51.174,22.938-51.2,51.2c-0.034,2.304,0.145,4.608,0.538,6.878l0.077,0.469c1.229,9.276,5.077,18.005,11.093,25.165
		c17.869,21.837,50.057,25.045,71.893,7.177c9.924-8.124,16.435-19.686,18.227-32.393c0.418-2.406,0.614-4.855,0.572-7.296
		C162.108,159.471,139.196,136.559,110.933,136.533z"/>
	<path style="fill:#FE7C26;" d="M115.2,196.267V179.2c2.355,0,4.267-1.911,4.267-4.267c0-2.355-1.911-4.267-4.267-4.267h-12.8
		v17.067H85.333v-25.6c0-4.71,3.823-8.533,8.533-8.533H115.2c11.785,0,21.333,9.549,21.333,21.333
		C136.533,186.718,126.985,196.267,115.2,196.267z"/>
	<path style="fill:#FE7C26;" d="M115.2,221.867H93.867c-4.71,0-8.533-3.823-8.533-8.533v-25.6c0-4.71,3.823-8.533,8.533-8.533H115.2
		c11.785,0,21.333,9.549,21.333,21.333C136.533,212.318,126.985,221.867,115.2,221.867z M102.4,204.8h12.8
		c2.355,0,4.267-1.911,4.267-4.267s-1.911-4.267-4.267-4.267h-12.8V204.8z"/>
</g>
<path d="M512,477.867v-256c0-18.85-15.283-34.133-34.133-34.133H179.2c0-37.7-30.566-68.267-68.267-68.267
	s-68.267,30.566-68.267,68.267h-8.533C15.283,187.733,0,203.017,0,221.867v256C0,496.717,15.283,512,34.133,512h443.733
	C496.717,512,512,496.717,512,477.867z M110.933,136.533c28.279,0,51.2,22.921,51.2,51.2s-22.921,51.2-51.2,51.2
	s-51.2-22.921-51.2-51.2C59.759,159.471,82.671,136.559,110.933,136.533z M59.733,238.933h6.195
	c25.685,22.758,64.324,22.758,90.01,0h91.529V281.6h17.067v-42.667h162.133V460.8H59.733V238.933z M494.933,477.867
	c0,9.429-7.637,17.067-17.067,17.067H34.133c-9.429,0-17.067-7.637-17.067-17.067v-256c0-9.429,7.637-17.067,17.067-17.067h10.778
	c1.545,5.982,3.891,11.725,6.989,17.067h-0.7c-4.71,0-8.533,3.823-8.533,8.533v238.933c0,4.71,3.823,8.533,8.533,8.533h384
	c4.71,0,8.533-3.823,8.533-8.533V230.4c0-4.71-3.823-8.533-8.533-8.533H169.967c3.098-5.342,5.444-11.085,6.989-17.067h300.911
	c9.429,0,17.067,7.637,17.067,17.067V477.867z"/>
<path d="M332.8,384c0.179-47.13-37.871-85.478-85.001-85.666c-47.13-0.179-85.478,37.871-85.666,85.001
	c-0.034,8.909,1.323,17.775,4.036,26.266h-21.103v17.067H358.4V409.6h-29.636C331.418,401.323,332.774,392.687,332.8,384z
	 M264.533,409.6h-25.6v-17.067h25.6c4.71,0,8.533,3.823,8.533,8.533S269.244,409.6,264.533,409.6z M264.533,375.467h-25.6V358.4
	h25.6c4.71,0,8.533,3.823,8.533,8.533S269.244,375.467,264.533,375.467z M310.665,409.6h-22.101c3.285-8.815,1.297-18.731-5.12-25.6
	c9.463-10.325,8.772-26.368-1.553-35.831c-2.551-2.338-5.555-4.13-8.823-5.265V332.8H256v8.533h-17.067V332.8h-17.067v8.533h-8.533
	V358.4h8.533v51.2h-37.598c-3.337-8.124-5.06-16.819-5.069-25.6c0-37.7,30.566-68.267,68.267-68.267S315.733,346.3,315.733,384
	C315.725,392.781,314.001,401.476,310.665,409.6z"/>
<path d="M290.133,102.4c0,37.7,30.566,68.267,68.267,68.267s68.267-30.566,68.267-68.267S396.1,34.133,358.4,34.133
	C320.717,34.176,290.176,64.717,290.133,102.4z M409.6,102.4c0,28.279-22.921,51.2-51.2,51.2c-28.279,0-51.2-22.921-51.2-51.2
	s22.921-51.2,51.2-51.2C386.662,51.226,409.574,74.138,409.6,102.4z"/>
<rect x="273.067" width="17.067" height="59.733"/>
<rect x="401.067" width="17.067" height="25.6"/>
<rect x="230.4" y="59.733" width="17.067" height="76.8"/>
<rect x="76.8" width="17.067" height="25.6"/>
<path d="M332.8,76.8V128c0,4.71,3.823,8.533,8.533,8.533h21.333c11.785,0,21.333-9.549,21.333-21.333
	c-0.017-4.634-1.553-9.131-4.378-12.8c2.825-3.669,4.361-8.166,4.378-12.8c0-11.785-9.549-21.333-21.333-21.333h-21.333
	C336.623,68.267,332.8,72.09,332.8,76.8z M349.867,85.333h12.8c2.355,0,4.267,1.911,4.267,4.267s-1.911,4.267-4.267,4.267h-12.8
	V85.333z M349.867,110.933h12.8c2.355,0,4.267,1.911,4.267,4.267s-1.911,4.267-4.267,4.267h-12.8V110.933z"/>
<rect x="273.067" y="145.067" width="17.067" height="17.067"/>
<rect x="136.533" y="256" width="17.067" height="17.067"/>
<rect x="136.533" y="290.133" width="17.067" height="51.2"/>
<path d="M170.667,25.6c-14.14,0-25.6-11.46-25.6-25.6H128c0,23.561,19.106,42.667,42.667,42.667S213.333,23.561,213.333,0h-17.067
	C196.267,14.14,184.806,25.6,170.667,25.6z"/>
<rect x="102.4" y="34.133" width="17.067" height="17.067"/>
<rect x="102.4" y="68.267" width="17.067" height="34.133"/>
<rect x="230.4" y="25.6" width="17.067" height="17.067"/>
<path d="M358.4,256c-18.85,0-34.133,15.283-34.133,34.133c0,18.85,15.283,34.133,34.133,34.133s34.133-15.283,34.133-34.133
	C392.533,271.283,377.25,256,358.4,256z M358.4,307.2c-9.429,0-17.067-7.637-17.067-17.067c0-9.429,7.637-17.067,17.067-17.067
	s17.067,7.637,17.067,17.067C375.467,299.563,367.829,307.2,358.4,307.2z"/>
<path d="M93.867,221.867H115.2c11.785,0,21.333-9.549,21.333-21.333c-0.017-4.634-1.553-9.131-4.378-12.8
	c2.825-3.669,4.361-8.166,4.378-12.8c0-11.785-9.549-21.333-21.333-21.333H93.867c-4.71,0-8.533,3.823-8.533,8.533v51.2
	C85.333,218.044,89.156,221.867,93.867,221.867z M102.4,170.667h12.8c2.355,0,4.267,1.911,4.267,4.267
	c0,2.355-1.911,4.267-4.267,4.267h-12.8V170.667z M102.4,196.267h12.8c2.355,0,4.267,1.911,4.267,4.267s-1.911,4.267-4.267,4.267
	h-12.8V196.267z"/>
<g>
</g>
<g>
</g>
<g>
</g>
<g>
</g>
<g>
</g>
<g>
</g>
<g>
</g>
<g>
</g>
<g>
</g>
<g>
</g>
<g>
</g>
<g>
</g>
<g>
</g>
<g>
</g>
<g>
</g>
</svg>
