<?xml version="1.0" encoding="iso-8859-1"?>
<!-- Generator: Adobe Illustrator 19.0.0, SVG Export Plug-In . SVG Version: 6.00 Build 0)  -->
<svg version="1.1" id="Capa_1" xmlns="http://www.w3.org/2000/svg" xmlns:xlink="http://www.w3.org/1999/xlink" x="0px" y="0px"
	 viewBox="0 0 512 512" style="enable-background:new 0 0 512 512;" xml:space="preserve">
<circle style="fill:#2E448F;" cx="324.267" cy="358.4" r="17.067"/>
<g>
	<path style="fill:#FFD173;" d="M238.933,68.267h34.133c14.14,0,25.6,11.46,25.6,25.6s-11.46,25.6-25.6,25.6H230.4v-51.2H238.933z"
		/>
	<path style="fill:#FFD173;" d="M273.067,119.467c14.14,0,25.6,11.46,25.6,25.6c0,14.14-11.46,25.6-25.6,25.6H230.4v-51.2H273.067z"
		/>
	<path style="fill:#FFD173;" d="M273.067,170.667c14.14,0,25.6-11.46,25.6-25.6c0-14.14-11.46-25.6-25.6-25.6
		c14.14,0,25.6-11.46,25.6-25.6s-11.46-25.6-25.6-25.6H230.4v102.4H273.067z M354.475,170.667
		c-6.861,13.073-16.23,24.67-27.563,34.133H185.088c-47.036-39.194-53.402-109.099-14.208-156.143S279.979-4.745,327.023,34.449
		C367.027,67.78,378.445,124.45,354.475,170.667z"/>
</g>
<g>
	<path style="fill:#EC9821;" d="M326.912,204.8c20.881-17.28,34.671-41.643,38.741-68.437l1.28,0.171h85.333v102.4l-392.533,0.512
		v-0.512c-28.279,0-51.2-22.921-51.2-51.2s22.921-51.2,51.2-51.2h85.333l1.28-0.171c4.122,26.778,17.903,51.123,38.741,68.437
		H326.912z"/>
	<path style="fill:#EC9821;" d="M503.467,256c0,28.279-22.921,51.2-51.2,51.2V204.8C480.546,204.8,503.467,227.721,503.467,256z"/>
</g>
<path style="fill:#FFBD49;" d="M503.467,256v102.4c0,28.279-22.921,51.2-51.2,51.2h-128c-28.279,0-51.2-22.921-51.2-51.2
	c0-28.279,22.921-51.2,51.2-51.2h128C480.546,307.2,503.467,284.279,503.467,256z M341.333,358.4
	c0-9.429-7.637-17.067-17.067-17.067c-9.429,0-17.067,7.637-17.067,17.067s7.637,17.067,17.067,17.067
	C333.679,375.441,341.308,367.812,341.333,358.4z"/>
<path style="fill:#84171D;" d="M452.267,409.6v93.867H59.733c-28.279,0-51.2-22.921-51.2-51.2l0,0V187.733
	c0,28.279,22.921,51.2,51.2,51.2v0.512l392.533-0.512V307.2h-128c-28.279,0-51.2,22.921-51.2,51.2c0,28.279,22.921,51.2,51.2,51.2
	H452.267z"/>
<g>
	<rect x="392.533" y="264.533" style="fill:#FFBD49;" width="25.6" height="17.067"/>
	<rect x="349.867" y="264.533" style="fill:#FFBD49;" width="25.6" height="17.067"/>
	<rect x="307.2" y="264.533" style="fill:#FFBD49;" width="25.6" height="17.067"/>
	<rect x="264.533" y="264.533" style="fill:#FFBD49;" width="25.6" height="17.067"/>
	<rect x="221.867" y="264.533" style="fill:#FFBD49;" width="25.6" height="17.067"/>
	<rect x="179.2" y="264.533" style="fill:#FFBD49;" width="25.6" height="17.067"/>
	<rect x="136.533" y="264.533" style="fill:#FFBD49;" width="25.6" height="17.067"/>
	<rect x="93.867" y="264.533" style="fill:#FFBD49;" width="25.6" height="17.067"/>
	<rect x="51.2" y="264.533" style="fill:#FFBD49;" width="25.6" height="17.067"/>
	<rect x="392.533" y="460.8" style="fill:#FFBD49;" width="25.6" height="17.067"/>
	<rect x="349.867" y="460.8" style="fill:#FFBD49;" width="25.6" height="17.067"/>
	<rect x="307.2" y="460.8" style="fill:#FFBD49;" width="25.6" height="17.067"/>
	<rect x="264.533" y="460.8" style="fill:#FFBD49;" width="25.6" height="17.067"/>
	<rect x="221.867" y="460.8" style="fill:#FFBD49;" width="25.6" height="17.067"/>
	<rect x="179.2" y="460.8" style="fill:#FFBD49;" width="25.6" height="17.067"/>
	<rect x="136.533" y="460.8" style="fill:#FFBD49;" width="25.6" height="17.067"/>
	<rect x="93.867" y="460.8" style="fill:#FFBD49;" width="25.6" height="17.067"/>
	<rect x="51.2" y="460.8" style="fill:#FFBD49;" width="25.6" height="17.067"/>
</g>
<g>
	<rect x="349.867" y="162.133" style="fill:#84171D;" width="76.8" height="17.067"/>
	<rect x="51.2" y="162.133" style="fill:#84171D;" width="102.4" height="17.067"/>
</g>
<path style="fill:#FE7C26;" d="M179.627,211.362c-50.671-42.206-57.523-117.504-15.317-168.175S281.813-14.336,332.484,27.87
	c43.085,35.891,55.39,96.922,29.585,146.705c-7.373,14.097-17.468,26.598-29.687,36.779l-10.923-13.107
	c19.277-15.94,32.009-38.417,35.772-63.147c0.785-5.171,1.178-10.402,1.169-15.633c0-56.55-45.85-102.4-102.4-102.4
	s-102.4,45.85-102.4,102.4c-0.009,5.214,0.384,10.428,1.178,15.582c3.789,24.73,16.512,47.215,35.772,63.189L179.627,211.362z"/>
<g>
	<path style="fill:#FF8030;" d="M273.067,128v-17.067c9.429,0,17.067-7.637,17.067-17.067S282.496,76.8,273.067,76.8h-34.133v42.667
		h-17.067v-51.2c0-4.71,3.823-8.533,8.533-8.533h42.667c18.85,0,34.133,15.283,34.133,34.133S291.917,128,273.067,128z"/>
	<path style="fill:#FF8030;" d="M273.067,179.2H230.4c-4.71,0-8.533-3.823-8.533-8.533v-51.2c0-4.71,3.823-8.533,8.533-8.533h42.667
		c18.85,0,34.133,15.283,34.133,34.133S291.917,179.2,273.067,179.2z M238.933,162.133h34.133c9.429,0,17.067-7.637,17.067-17.067
		c0-9.429-7.637-17.067-17.067-17.067h-34.133V162.133z"/>
	<rect x="230.4" y="42.667" style="fill:#FF8030;" width="17.067" height="25.6"/>
	<rect x="230.4" y="170.667" style="fill:#FF8030;" width="17.067" height="25.6"/>
	<rect x="264.533" y="42.667" style="fill:#FF8030;" width="17.067" height="25.6"/>
	<rect x="264.533" y="170.667" style="fill:#FF8030;" width="17.067" height="25.6"/>
	<rect x="213.333" y="59.733" style="fill:#FF8030;" width="17.067" height="17.067"/>
	<rect x="213.333" y="162.133" style="fill:#FF8030;" width="17.067" height="17.067"/>
</g>
<rect x="51.2" y="196.267" style="fill:#84171D;" width="375.467" height="17.067"/>
<path d="M59.733,512h392.533c4.71,0,8.533-3.823,8.533-8.533v-86.016c29.363-4.241,51.166-29.38,51.2-59.051V256
	c-0.034-29.67-21.837-54.81-51.2-59.051v-60.416c0-4.71-3.823-8.533-8.533-8.533h-77.124c0.196-2.816,0.324-5.658,0.324-8.533
	C375.467,53.487,321.98,0,256,0S136.533,53.487,136.533,119.467c0,2.876,0.128,5.717,0.324,8.533H59.733
	C26.761,128.034,0.034,154.761,0,187.733v264.533C0.034,485.239,26.761,511.966,59.733,512z M460.8,238.933v-24.747
	c23.091,4.693,38.016,27.213,33.323,50.304c-3.413,16.794-16.529,29.909-33.323,33.323V238.933z M494.933,297.728V358.4
	c-0.026,23.552-19.115,42.641-42.667,42.667h-128c-23.561,0-42.667-19.106-42.667-42.667s19.106-42.667,42.667-42.667h128
	C468.335,315.733,483.721,309.239,494.933,297.728z M256,17.067c56.525,0.06,102.34,45.875,102.4,102.4
	c0.009,5.222-0.384,10.436-1.178,15.599c-3.575,23.748-15.497,45.449-33.621,61.201H281.6v-18.278
	c18.133-4.565,29.133-22.963,24.568-41.097c-1.707-6.784-5.47-12.868-10.769-17.425c0.589-0.512,1.237-0.922,1.792-1.476
	c13.303-13.252,13.355-34.782,0.102-48.094c-4.326-4.343-9.754-7.433-15.693-8.951V42.667h-17.067v17.067h-17.067V42.667H230.4
	v17.067h-17.067V76.8h8.533v85.333h-8.533V179.2H230.4v17.067h-42.018c-18.048-15.821-29.943-37.495-33.604-61.218
	c-0.794-5.154-1.186-10.368-1.178-15.582C153.66,62.942,199.475,17.126,256,17.067z M238.933,162.133V128h34.133
	c9.429,0,17.067,7.637,17.067,17.067c0,9.429-7.637,17.067-17.067,17.067H238.933z M264.533,179.2v17.067h-17.067V179.2H264.533z
	 M238.933,110.933V76.8h34.133c9.429,0,17.067,7.637,17.067,17.067s-7.637,17.067-17.067,17.067H238.933z M59.733,145.067h79.659
	c1.271,5.811,2.987,11.511,5.12,17.067H51.2V179.2h101.35c3.482,6.025,7.475,11.733,11.947,17.067H51.2v17.067h375.467v-17.067
	h-79.266c4.463-5.333,8.465-11.042,11.947-17.067h67.319v-17.067h-59.145c2.125-5.555,3.84-11.255,5.12-17.067h71.091V230.4
	l-384,0.512V230.4c-23.561,0-42.667-19.106-42.667-42.667S36.173,145.067,59.733,145.067z M17.067,229.461
	c11.213,11.511,26.598,18.005,42.667,18.005v0.512l384-0.512v51.2H324.267c-32.99,0-59.733,26.743-59.733,59.733
	s26.743,59.733,59.733,59.733h119.467v76.8h-384c-23.552-0.026-42.641-19.115-42.667-42.667V229.461z"/>
<path d="M298.667,358.4c0,14.14,11.46,25.6,25.6,25.6c14.14,0,25.6-11.46,25.6-25.6s-11.46-25.6-25.6-25.6
	C310.127,332.8,298.667,344.26,298.667,358.4z M332.8,358.4c0,4.71-3.823,8.533-8.533,8.533s-8.533-3.823-8.533-8.533
	s3.823-8.533,8.533-8.533S332.8,353.69,332.8,358.4z"/>
<rect x="392.533" y="264.533" width="25.6" height="17.067"/>
<rect x="349.867" y="264.533" width="25.6" height="17.067"/>
<rect x="307.2" y="264.533" width="25.6" height="17.067"/>
<rect x="264.533" y="264.533" width="25.6" height="17.067"/>
<rect x="221.867" y="264.533" width="25.6" height="17.067"/>
<rect x="179.2" y="264.533" width="25.6" height="17.067"/>
<rect x="136.533" y="264.533" width="25.6" height="17.067"/>
<rect x="93.867" y="264.533" width="25.6" height="17.067"/>
<rect x="51.2" y="264.533" width="25.6" height="17.067"/>
<rect x="392.533" y="460.8" width="25.6" height="17.067"/>
<rect x="349.867" y="460.8" width="25.6" height="17.067"/>
<rect x="307.2" y="460.8" width="25.6" height="17.067"/>
<rect x="264.533" y="460.8" width="25.6" height="17.067"/>
<rect x="221.867" y="460.8" width="25.6" height="17.067"/>
<rect x="179.2" y="460.8" width="25.6" height="17.067"/>
<rect x="136.533" y="460.8" width="25.6" height="17.067"/>
<rect x="93.867" y="460.8" width="25.6" height="17.067"/>
<rect x="51.2" y="460.8" width="25.6" height="17.067"/>
<g>
</g>
<g>
</g>
<g>
</g>
<g>
</g>
<g>
</g>
<g>
</g>
<g>
</g>
<g>
</g>
<g>
</g>
<g>
</g>
<g>
</g>
<g>
</g>
<g>
</g>
<g>
</g>
<g>
</g>
</svg>
