<?xml version="1.0" encoding="iso-8859-1"?>
<!-- Generator: Adobe Illustrator 19.0.0, SVG Export Plug-In . SVG Version: 6.00 Build 0)  -->
<svg version="1.1" id="Capa_1" xmlns="http://www.w3.org/2000/svg" xmlns:xlink="http://www.w3.org/1999/xlink" x="0px" y="0px"
	 viewBox="0 0 512 512" style="enable-background:new 0 0 512 512;" xml:space="preserve">
<circle style="fill:#002874;" cx="324.267" cy="307.2" r="17.067"/>
<g>
	<path style="fill:#FFBD49;" d="M170.667,273.067c9.412,0.026,17.041,7.654,17.067,17.067c-0.068,9.395-7.671,16.998-17.067,17.067
		h-34.133v-34.133H170.667z"/>
	<path style="fill:#FFBD49;" d="M170.667,307.2c9.412,0.026,17.041,7.654,17.067,17.067c-0.068,9.395-7.671,16.998-17.067,17.067
		h-34.133V307.2H170.667z"/>
	<path style="fill:#FFBD49;" d="M170.667,341.333c9.395-0.068,16.998-7.671,17.067-17.067c-0.026-9.412-7.654-17.041-17.067-17.067
		c9.395-0.068,16.998-7.671,17.067-17.067c-0.026-9.412-7.654-17.041-17.067-17.067h-34.133v68.267H170.667z M153.6,221.867
		c47.13,0,85.333,38.204,85.333,85.333s-38.204,85.333-85.333,85.333S68.267,354.33,68.267,307.2S106.47,221.867,153.6,221.867z"/>
	<path style="fill:#FFBD49;" d="M452.267,256c28.279,0,51.2-22.921,51.2-51.2v102.4c0,28.279-22.921,51.2-51.2,51.2h-128
		c-28.279,0-51.2-22.921-51.2-51.2c0-28.279,22.921-51.2,51.2-51.2H452.267z M341.333,307.2c0-9.429-7.637-17.067-17.067-17.067
		c-9.429,0-17.067,7.637-17.067,17.067s7.637,17.067,17.067,17.067C333.679,324.241,341.308,316.612,341.333,307.2z"/>
</g>
<g>
	<path style="fill:#EC9821;" d="M452.267,153.6c28.279,0,51.2,22.921,51.2,51.2s-22.921,51.2-51.2,51.2l0,0V153.6z"/>
	<path style="fill:#EC9821;" d="M452.267,51.2v102.4l-392.533,0.512V153.6c-28.279,0-51.2-22.921-51.2-51.2s22.921-51.2,51.2-51.2
		H452.267z"/>
</g>
<g>
	<path style="fill:#84171D;" d="M8.533,409.6V102.4c0,28.279,22.921,51.2,51.2,51.2v0.512l392.533-0.512V256h-128
		c-28.279,0-51.2,22.921-51.2,51.2c0,28.279,22.921,51.2,51.2,51.2h128v102.4H59.733C31.454,460.8,8.533,437.879,8.533,409.6z
		 M238.933,307.2c0-47.13-38.204-85.333-85.333-85.333S68.267,260.07,68.267,307.2s38.204,85.333,85.333,85.333
		S238.933,354.33,238.933,307.2z"/>
	<rect x="51.2" y="110.933" style="fill:#84171D;" width="375.467" height="17.067"/>
</g>
<g>
	<rect x="392.533" y="179.2" style="fill:#FFBD49;" width="25.6" height="17.067"/>
	<rect x="349.867" y="179.2" style="fill:#FFBD49;" width="25.6" height="17.067"/>
	<rect x="307.2" y="179.2" style="fill:#FFBD49;" width="25.6" height="17.067"/>
	<rect x="264.533" y="179.2" style="fill:#FFBD49;" width="25.6" height="17.067"/>
	<rect x="221.867" y="179.2" style="fill:#FFBD49;" width="25.6" height="17.067"/>
	<rect x="179.2" y="179.2" style="fill:#FFBD49;" width="25.6" height="17.067"/>
	<rect x="136.533" y="179.2" style="fill:#FFBD49;" width="25.6" height="17.067"/>
	<rect x="93.867" y="179.2" style="fill:#FFBD49;" width="25.6" height="17.067"/>
	<rect x="51.2" y="179.2" style="fill:#FFBD49;" width="25.6" height="17.067"/>
	<rect x="392.533" y="418.133" style="fill:#FFBD49;" width="25.6" height="17.067"/>
	<rect x="349.867" y="418.133" style="fill:#FFBD49;" width="25.6" height="17.067"/>
	<rect x="307.2" y="418.133" style="fill:#FFBD49;" width="25.6" height="17.067"/>
	<rect x="264.533" y="418.133" style="fill:#FFBD49;" width="25.6" height="17.067"/>
	<rect x="221.867" y="418.133" style="fill:#FFBD49;" width="25.6" height="17.067"/>
	<rect x="179.2" y="418.133" style="fill:#FFBD49;" width="25.6" height="17.067"/>
	<rect x="136.533" y="418.133" style="fill:#FFBD49;" width="25.6" height="17.067"/>
	<rect x="93.867" y="418.133" style="fill:#FFBD49;" width="25.6" height="17.067"/>
	<rect x="51.2" y="418.133" style="fill:#FFBD49;" width="25.6" height="17.067"/>
</g>
<rect x="51.2" y="76.8" style="fill:#84171D;" width="375.467" height="17.067"/>
<g>
	<path style="fill:#FE7C26;" d="M196.267,290.133c-0.043-10.812-6.878-20.429-17.067-24.03V256h-17.067v8.533h-17.067V256H128v8.533
		h-8.533V281.6H128v51.2h-8.533v17.067H128v8.533h17.067v-8.533h17.067v8.533H179.2v-10.078c3.567-1.212,6.801-3.243,9.446-5.914
		c4.907-4.753,7.663-11.307,7.62-18.142c-0.026-6.323-2.406-12.407-6.682-17.067C193.886,302.558,196.275,296.465,196.267,290.133z
		 M145.067,281.6h25.6c4.71,0,8.533,3.823,8.533,8.533c0,2.295-0.939,4.497-2.611,6.076c-1.553,1.596-3.695,2.483-5.922,2.458h-25.6
		V281.6z M176.589,330.342c-1.553,1.596-3.695,2.483-5.922,2.458h-25.6v-17.067h25.6c4.71,0,8.533,3.823,8.533,8.533
		C179.2,326.562,178.261,328.764,176.589,330.342z"/>
	<path style="fill:#FE7C26;" d="M153.6,401.067c-51.84,0-93.867-42.027-93.867-93.867s42.027-93.867,93.867-93.867
		s93.867,42.027,93.867,93.867C247.407,359.014,205.414,401.007,153.6,401.067z M153.6,230.4c-42.419,0-76.8,34.381-76.8,76.8
		s34.381,76.8,76.8,76.8s76.8-34.381,76.8-76.8C230.349,264.806,195.994,230.451,153.6,230.4z"/>
</g>
<path d="M512,307.2V204.8c-0.06-29.662-21.845-54.793-51.2-59.051V51.2c0-4.71-3.823-8.533-8.533-8.533H59.733
	C26.761,42.701,0.034,69.427,0,102.4v307.2c0.034,32.973,26.761,59.699,59.733,59.733h392.533c4.71,0,8.533-3.823,8.533-8.533
	v-93.867h-8.533C485.239,366.899,511.966,340.173,512,307.2z M460.8,162.987c23.091,4.693,38.016,27.213,33.323,50.304
	c-3.413,16.794-16.529,29.909-33.323,33.323V162.987z M59.733,59.733h384v85.333l-384,0.546v-0.546
	c-23.561,0-42.667-19.106-42.667-42.667S36.173,59.733,59.733,59.733z M443.733,452.267h-384
	c-23.552-0.026-42.641-19.115-42.667-42.667V144.119c11.204,11.52,26.598,18.014,42.667,18.014v0.546l384-0.546v85.333H324.267
	c-32.99,0-59.733,26.743-59.733,59.733s26.743,59.733,59.733,59.733h119.467V452.267z M452.267,349.867h-128
	c-23.561,0-42.667-19.106-42.667-42.667s19.106-42.667,42.667-42.667H460.8v-0.683c12.979-1.86,24.977-7.953,34.133-17.331V307.2
	C494.908,330.752,475.819,349.841,452.267,349.867z"/>
<path d="M324.267,281.6c-14.14,0-25.6,11.46-25.6,25.6s11.46,25.6,25.6,25.6c14.14,0,25.6-11.46,25.6-25.6
	S338.406,281.6,324.267,281.6z M324.267,315.733c-4.71,0-8.533-3.823-8.533-8.533s3.823-8.533,8.533-8.533s8.533,3.823,8.533,8.533
	S328.977,315.733,324.267,315.733z"/>
<rect x="51.2" y="110.933" width="375.467" height="17.067"/>
<rect x="392.533" y="179.2" width="25.6" height="17.067"/>
<rect x="349.867" y="179.2" width="25.6" height="17.067"/>
<rect x="307.2" y="179.2" width="25.6" height="17.067"/>
<rect x="264.533" y="179.2" width="25.6" height="17.067"/>
<rect x="221.867" y="179.2" width="25.6" height="17.067"/>
<rect x="179.2" y="179.2" width="25.6" height="17.067"/>
<rect x="136.533" y="179.2" width="25.6" height="17.067"/>
<rect x="93.867" y="179.2" width="25.6" height="17.067"/>
<rect x="51.2" y="179.2" width="25.6" height="17.067"/>
<rect x="392.533" y="418.133" width="25.6" height="17.067"/>
<rect x="349.867" y="418.133" width="25.6" height="17.067"/>
<rect x="307.2" y="418.133" width="25.6" height="17.067"/>
<rect x="264.533" y="418.133" width="25.6" height="17.067"/>
<rect x="221.867" y="418.133" width="25.6" height="17.067"/>
<rect x="179.2" y="418.133" width="25.6" height="17.067"/>
<rect x="136.533" y="418.133" width="25.6" height="17.067"/>
<rect x="93.867" y="418.133" width="25.6" height="17.067"/>
<rect x="51.2" y="418.133" width="25.6" height="17.067"/>
<rect x="51.2" y="76.8" width="375.467" height="17.067"/>
<path d="M179.2,266.103V256h-17.067v8.533h-17.067V256H128v8.533h-8.533V281.6H128v51.2h-8.533v17.067H128v8.533h17.067v-8.533
	h17.067v8.533H179.2v-10.103c13.235-4.582,20.258-19.021,15.676-32.256c-1.135-3.277-2.927-6.281-5.265-8.841
	c9.463-10.325,8.755-26.368-1.57-35.831C185.481,269.03,182.477,267.238,179.2,266.103z M170.667,332.8h-25.6v-17.067h25.6
	c4.71,0,8.533,3.823,8.533,8.533S175.377,332.8,170.667,332.8z M170.667,298.667h-25.6V281.6h25.6c4.71,0,8.533,3.823,8.533,8.533
	C179.2,294.844,175.377,298.667,170.667,298.667z"/>
<path d="M153.6,213.333c-51.84,0-93.867,42.027-93.867,93.867s42.027,93.867,93.867,93.867s93.867-42.027,93.867-93.867
	C247.407,255.386,205.414,213.393,153.6,213.333z M153.6,384c-42.419,0-76.8-34.381-76.8-76.8s34.381-76.8,76.8-76.8
	s76.8,34.381,76.8,76.8C230.349,349.594,195.994,383.949,153.6,384z"/>
<g>
</g>
<g>
</g>
<g>
</g>
<g>
</g>
<g>
</g>
<g>
</g>
<g>
</g>
<g>
</g>
<g>
</g>
<g>
</g>
<g>
</g>
<g>
</g>
<g>
</g>
<g>
</g>
<g>
</g>
</svg>
