<?xml version="1.0" encoding="iso-8859-1"?>
<!-- Generator: Adobe Illustrator 19.0.0, SVG Export Plug-In . SVG Version: 6.00 Build 0)  -->
<svg version="1.1" id="Capa_1" xmlns="http://www.w3.org/2000/svg" xmlns:xlink="http://www.w3.org/1999/xlink" x="0px" y="0px"
	 viewBox="0 0 512 512" style="enable-background:new 0 0 512 512;" xml:space="preserve">
<path style="fill:#B3B3B3;" d="M289.56,386.098v16.787c-0.067,9.241-7.546,16.72-16.787,16.787v50.361h-33.574v-50.361
	c-9.258-0.025-16.762-7.529-16.787-16.787v-16.787c0.025-9.258,7.529-16.762,16.787-16.787h33.574
	C282.031,369.337,289.535,376.84,289.56,386.098z"/>
<path style="fill:#454545;" d="M322.874,386.098v16.787c-0.067,9.241-7.546,16.72-16.787,16.787v50.361h-33.574v-50.361
	c-9.258-0.025-16.762-7.529-16.787-16.787v-16.787c0.025-9.258,7.529-16.762,16.787-16.787h33.574
	C315.345,369.337,322.848,376.84,322.874,386.098z"/>
<path style="fill:#5B5B5B;" d="M222.412,344.131h134.295v159.475H155.265V344.131H222.412z M272.773,369.312h-33.574
	c-9.258,0.025-16.762,7.529-16.787,16.787v16.787c0.025,9.258,7.529,16.762,16.787,16.787v50.361h33.574v-50.361
	c9.241-0.067,16.72-7.546,16.787-16.787v-16.787C289.535,376.84,282.031,369.337,272.773,369.312z"/>
<g>
	<path style="fill:#454545;" d="M222.496,272.703l-0.084,4.281v67.148h-33.574v-67.148c0.008-5.657,0.713-11.298,2.098-16.787
		l0.084-0.084C200.917,265.678,211.501,269.916,222.496,272.703z"/>
	<path style="fill:#454545;" d="M263.456,243.41c-4.608-2.795-7.437-7.789-7.47-13.178v-2.098c0.017-8.704,7.076-15.763,15.78-15.78
		c1.653,0.008,3.29,0.26,4.868,0.755c27.656,9.031,46.399,34.782,46.5,63.874v67.148H289.56v-67.148
		c0-1.402-0.084-2.803-0.252-4.197c-1.62-12.54-10.106-23.132-21.991-27.447C265.958,244.87,264.657,244.216,263.456,243.41z"/>
</g>
<path style="fill:#FE7C26;" d="M320.951,260.197c-2.77-11.021-8.385-21.126-16.283-29.293l0.084-0.084
	c48.64-26.918,66.249-88.182,39.323-136.822c-26.918-48.64-88.182-66.249-136.822-39.323s-66.241,88.182-39.315,136.822
	c17.727,32.029,51.443,51.905,88.056,51.913h7.47c1.2,0.806,2.493,1.46,3.861,1.93c11.885,4.314,20.371,14.907,21.991,27.447
	c-21.915,5.624-44.905,5.598-66.812-0.084c-11.004-2.787-21.588-7.025-31.475-12.59c-64.806-35.941-88.198-117.617-52.258-182.423
	S256.389-10.5,321.186,25.441s88.198,117.617,52.258,182.423c-12.212,22.016-30.376,40.154-52.409,52.341h-0.084V260.197z"/>
<g>
	<path style="fill:#FFD200;" d="M272.773,193.049c13.908,0,25.18-11.272,25.18-25.18s-11.272-25.18-25.18-25.18
		c13.908,0,25.18-11.272,25.18-25.18s-11.272-25.18-25.18-25.18v-25.18l3.525-23.166c54.49,11.18,89.608,64.411,78.428,118.902
		c-5.917,28.865-24.182,53.693-49.975,67.937l-0.084,0.084c-7.646-8.259-17.307-14.386-28.034-17.794
		c-1.578-0.495-3.215-0.747-4.868-0.755v-19.305H272.773z"/>
	<path style="fill:#FFD200;" d="M272.773,142.689c13.908,0,25.18,11.272,25.18,25.18s-11.272,25.18-25.18,25.18h-41.967v-50.361
		H272.773z"/>
	<path style="fill:#FFD200;" d="M239.199,92.328h33.574c13.908,0,25.18,11.272,25.18,25.18s-11.272,25.18-25.18,25.18h-41.967
		V92.328H239.199z"/>
	<path style="fill:#FFD200;" d="M230.806,92.328v100.721h40.96v19.305c-8.704,0.017-15.763,7.076-15.78,15.78v2.098
		c0.034,5.389,2.862,10.383,7.47,13.178h-7.47c-55.623-0.151-100.604-45.367-100.453-100.99
		C155.685,86.797,200.9,41.816,256.532,41.967c6.639,0.017,13.262,0.688,19.775,2.014l-3.534,23.166v25.18H230.806z"/>
</g>
<path style="fill:#FE7C26;" d="M294.747,142.689c0.571-0.504,1.209-0.906,1.754-1.452c13.085-13.035,13.136-34.212,0.101-47.305
	c-4.255-4.272-9.585-7.319-15.436-8.805V67.148H264.38v16.787h-16.787V67.148h-16.787v16.787h-16.787v16.787h8.393v83.934h-8.393
	v16.787h58.754c18.466,0.084,33.498-14.823,33.582-33.28C306.397,158.384,302.159,149.076,294.747,142.689z M289.56,117.508
	c0,9.275-7.512,16.787-16.787,16.787h-33.574v-33.574h33.574C282.048,100.721,289.56,108.234,289.56,117.508z M284.633,179.729
	c-3.139,3.164-7.411,4.935-11.86,4.927h-33.574v-33.574h33.574c9.275,0.008,16.778,7.537,16.77,16.804
	C289.535,172.326,287.772,176.59,284.633,179.729z"/>
<path d="M272.773,360.918h-33.574c-13.908,0-25.18,11.272-25.18,25.18v16.787c0.017,10.668,6.732,20.178,16.787,23.745v43.402
	c0,4.633,3.76,8.393,8.393,8.393h33.574c4.633,0,8.393-3.76,8.393-8.393V426.63c10.055-3.567,16.77-13.077,16.787-23.745v-16.787
	C297.953,372.19,286.681,360.918,272.773,360.918z M281.167,402.885c0,4.633-3.76,8.393-8.393,8.393
	c-4.633,0-8.393,3.76-8.393,8.393v41.967h-16.787v-41.967c0-4.633-3.76-8.393-8.393-8.393s-8.393-3.76-8.393-8.393v-16.787
	c0-4.633,3.76-8.393,8.393-8.393h33.574c4.633,0,8.393,3.76,8.393,8.393V402.885z"/>
<path d="M255.986,0c-78.722-0.084-142.605,63.664-142.689,142.386c-0.05,49.773,25.86,95.962,68.356,121.864
	c-0.764,4.205-1.167,8.461-1.209,12.733v58.754h-25.18c-4.633,0-8.393,3.76-8.393,8.393v159.475c0,4.633,3.76,8.393,8.393,8.393
	h201.443c4.633,0,8.393-3.76,8.393-8.393V344.131c0-4.633-3.76-8.393-8.393-8.393h-25.18v-58.754
	c-0.008-4.255-0.369-8.503-1.083-12.699c67.198-41.069,88.383-128.839,47.314-196.046C351.839,25.827,305.701-0.033,255.986,0z
	 M348.314,352.525v142.689H163.658V352.525H348.314z M197.232,335.738v-58.754c0-1.435,0.168-2.854,0.269-4.281
	c5.372,2.459,10.886,4.583,16.518,6.354v56.681H197.232z M248.054,234.656c-51.041-4.155-89.054-48.909-84.891-99.958
	c4.155-51.041,48.909-89.054,99.957-84.891s89.054,48.909,84.891,99.958c-2.342,28.756-17.937,54.784-42.194,70.413
	c-7.73-6.799-16.779-11.944-26.574-15.108c-12.741-4.096-26.389,2.904-30.485,15.645c-0.772,2.409-1.167,4.927-1.167,7.462v2.048
	C247.61,231.709,247.761,233.195,248.054,234.656z M264.38,228.176c0.008-4.121,3.349-7.462,7.47-7.453
	c0.755,0,1.511,0.118,2.233,0.344c24.282,7.806,40.717,30.418,40.658,55.917v58.754h-16.787v-58.754
	c-0.034-17.71-11.155-33.507-27.816-39.516c-3.265-0.948-5.573-3.853-5.758-7.244V228.176L264.38,228.176z M230.806,335.738v-52.719
	c16.636,3.114,33.708,3.148,50.361,0.092v52.627H230.806z M325.576,247.514c-2.182-5.179-4.944-10.089-8.217-14.655
	c49.74-33.918,62.565-101.729,28.655-151.468S244.286,18.827,194.546,52.736s-62.565,101.729-28.655,151.468
	c20.312,29.788,54.045,47.608,90.095,47.599h5.162c1.074,0.562,2.182,1.049,3.315,1.469c6.362,2.3,11.533,7.067,14.344,13.22
	c-68.507,12.758-134.387-32.441-147.145-100.948S164.103,31.157,232.611,18.399s134.387,32.441,147.145,100.948
	C389.014,169.069,367.695,219.514,325.576,247.514z"/>
<path d="M306.347,167.869c-0.034-9.678-4.264-18.868-11.6-25.18c13.95-11.986,15.545-33.011,3.559-46.97
	c-4.482-5.221-10.467-8.922-17.139-10.593V67.148H264.38v16.787h-16.787V67.148h-16.787v16.787h-16.787v16.787h8.393v83.934h-8.393
	v16.787h58.754C291.314,201.443,306.347,186.41,306.347,167.869z M239.199,100.721h33.574c9.275,0,16.787,7.512,16.787,16.787
	s-7.512,16.787-16.787,16.787h-33.574L239.199,100.721L239.199,100.721z M239.199,151.082h33.574
	c9.275,0,16.787,7.512,16.787,16.787s-7.512,16.787-16.787,16.787h-33.574L239.199,151.082L239.199,151.082z"/>
<g>
</g>
<g>
</g>
<g>
</g>
<g>
</g>
<g>
</g>
<g>
</g>
<g>
</g>
<g>
</g>
<g>
</g>
<g>
</g>
<g>
</g>
<g>
</g>
<g>
</g>
<g>
</g>
<g>
</g>
</svg>
