<?xml version="1.0" encoding="iso-8859-1"?>
<!-- Generator: Adobe Illustrator 19.0.0, SVG Export Plug-In . SVG Version: 6.00 Build 0)  -->
<svg version="1.1" id="Capa_1" xmlns="http://www.w3.org/2000/svg" xmlns:xlink="http://www.w3.org/1999/xlink" x="0px" y="0px"
	 viewBox="0 0 512 512" style="enable-background:new 0 0 512 512;" xml:space="preserve">
<g>
	<path style="fill:#84171D;" d="M168.337,451.621l17.768-22.147l16.842,2.442l0.168-1.432c7.798-7.68,14.029-16.808,18.358-26.863
		v-0.084l65.684-24.59l58.947,42.105h67.368L464,446.316L472.421,480l33.684,25.263H85.053v-74.021h0.589
		c21.836,20.968,53.238,28.615,82.274,20.042L168.337,451.621z"/>
	<path style="fill:#84171D;" d="M68.211,261.053l25.263,42.105c-21.213,15.899-33.693,40.859-33.684,67.368l-2.442,3.116
		l-14.4-11.537l-16.842-33.684H0.842V235.79h16.842l16.842,25.263H68.211z"/>
</g>
<polygon style="fill:#454545;" points="421.895,8.421 497.684,84.884 472.421,109.474 421.895,109.474 396.632,84.211 
	396.632,33.684 "/>
<rect x="195.794" y="167.413" transform="matrix(-0.7071 0.7071 -0.7071 -0.7071 678.7138 89.4235)" style="fill:#B5B5B5;" width="250.086" height="35.73"/>
<path style="fill:#D3D3D3;" d="M287.158,328.421l-58.947,58.947l-1.6-0.253c1.053-5.465,1.583-11.023,1.6-16.589
	c-0.025-46.509-37.743-84.194-84.253-84.168c-18.131,0.008-35.781,5.869-50.316,16.716l84.042-84.126l42.105,42.105l25.263,25.263
	L287.158,328.421z"/>
<g>
	<path style="fill:#FFD173;" d="M221.474,403.621c-4.328,10.055-10.56,19.183-18.358,26.863l-0.168,1.432l-16.842-2.442
		l-17.768,22.147l-0.421-0.337c-29.036,8.573-60.438,0.926-82.274-20.042h-0.589V395.79l-27.705-22.147l2.442-3.116
		c-0.008-26.509,12.472-51.469,33.684-67.368c0.042-0.042,0.101-0.076,0.168-0.084c37.28-27.815,90.038-20.143,117.853,17.137
		c10.846,14.535,16.707,32.185,16.716,50.316c-0.017,5.566-0.547,11.124-1.6,16.589c-1.145,5.634-2.872,11.133-5.137,16.421
		L221.474,403.621z M160.842,404.211c9.272-0.067,16.775-7.571,16.842-16.842c-0.025-9.288-7.554-16.817-16.842-16.842
		c9.272-0.067,16.775-7.571,16.842-16.842c-0.025-9.288-7.554-16.817-16.842-16.842h-33.684v67.368H160.842z"/>
	<path style="fill:#FFD173;" d="M160.842,336.842c9.288,0.025,16.817,7.554,16.842,16.842c-0.067,9.272-7.571,16.775-16.842,16.842
		h-33.684v-33.684H160.842z"/>
	<path style="fill:#FFD173;" d="M160.842,370.526c9.288,0.025,16.817,7.554,16.842,16.842c-0.067,9.272-7.571,16.775-16.842,16.842
		h-33.684v-33.684H160.842z"/>
</g>
<polygon style="fill:#84171D;" points="85.053,488.421 85.053,505.263 0.842,505.263 0.842,328.421 26.105,328.421 42.947,362.105 
	57.347,373.642 85.053,395.79 85.053,431.242 "/>
<g>
	<path style="fill:#611016;" d="M480.842,496.842l-13.474-10.105c-1.549-1.162-2.644-2.821-3.116-4.699l-7.478-29.928
		l-45.288-22.636h-65.381c-1.752,0-3.469-0.547-4.893-1.575l-55.301-39.495l-60.463,22.644c-0.387,0.202-0.783,0.371-1.187,0.514
		l-1.684,0.589l-2.989-8.531h-6.535c0.008-2.939,1.507-5.667,3.992-7.242v-0.109l0.64-0.236c0.286-0.135,0.573-0.27,0.884-0.387
		l65.684-24.589c2.627-0.977,5.566-0.589,7.848,1.044l56.699,40.531h64.674c1.305-0.017,2.594,0.278,3.764,0.842l50.526,25.263
		c2.198,1.103,3.806,3.107,4.404,5.499l7.697,30.779l26.24,19.722v10.526c0,0-9.709,0.177-13.331,0.177L480.842,496.842z"/>
	<path style="fill:#611016;" d="M0.842,227.368h16.842c2.813,0,5.44,1.406,7.006,3.747l14.341,21.516h29.179
		c2.956,0,5.693,1.549,7.217,4.084l25.263,42.105l-14.434,8.674l-22.813-38.021H34.526c-2.813,0-5.44-1.406-7.006-3.747
		l-14.341-21.516H0.842V227.368z"/>
</g>
<rect id="SVGCleanerId_0" x="426.097" y="53.725" transform="matrix(-0.7071 0.7071 -0.7071 -0.7071 792.3914 -185.0386)" width="16.842" height="35.73"/>
<g>
	<path style="fill:#FE7C26;" d="M186.105,353.684c-0.042-10.669-6.787-20.16-16.842-23.714V320h-16.842v8.421h-16.842V320h-16.842
		v8.421h-8.421v16.842h8.421v50.526h-8.421v16.842h8.421v8.421h16.842v-8.421h16.842v8.421h16.842v-9.945
		c3.52-1.196,6.712-3.192,9.322-5.827c4.842-4.699,7.562-11.166,7.52-17.912c-0.025-6.24-2.375-12.244-6.594-16.842
		C183.756,365.945,186.114,359.933,186.105,353.684z M135.579,345.263h25.263c4.648,0,8.421,3.773,8.421,8.421
		c0.008,2.274-0.935,4.446-2.585,6.004c-1.533,1.566-3.646,2.434-5.836,2.417h-25.263V345.263z M166.678,393.373
		c-1.533,1.566-3.646,2.434-5.836,2.417h-25.263v-16.842h25.263c4.648,0,8.421,3.773,8.421,8.421
		C169.272,389.642,168.328,391.815,166.678,393.373z"/>
	<path style="fill:#FE7C26;" d="M144,463.158c-23.958,0.076-46.998-9.204-64.211-25.861l11.714-12.109
		c19.638,18.855,47.874,25.735,73.987,18.029l4.851,16.135C161.794,461.895,152.918,463.183,144,463.158z"/>
	<path style="fill:#FE7C26;" d="M197.221,424.463l11.789,12.042c8.598-8.438,15.461-18.476,20.211-29.541l-15.444-6.737
		C209.895,409.314,204.269,417.541,197.221,424.463z"/>
	<path style="fill:#FE7C26;" d="M144,277.895c-19.798-0.042-39.082,6.307-54.973,18.114c-0.219,0.135-0.421,0.278-0.623,0.421
		c-23.385,17.44-37.12,44.926-37.036,74.097h16.842c-0.076-23.688,10.998-46.029,29.895-60.312c0.194-0.126,0.387-0.253,0.573-0.396
		c33.549-25.027,81.036-18.122,106.063,15.419c9.76,13.078,15.04,28.96,15.048,45.288c-0.017,4.994-0.488,9.97-1.423,14.872
		c-1.036,5.069-2.577,10.021-4.615,14.779l15.444,6.737c2.518-5.861,4.421-11.966,5.684-18.223
		c1.154-5.987,1.743-12.067,1.752-18.164C236.573,319.394,195.133,277.954,144,277.895z"/>
</g>
<g>
	<path style="fill:#611016;" d="M93.474,488.421H76.632v-88.59l-38.947-31.158c-0.952-0.758-1.726-1.718-2.274-2.804l-14.509-29.027
		H0.842V320h25.263c3.192,0,6.114,1.802,7.537,4.657l16,32l40.657,32.531c2.013,1.6,3.183,4.034,3.175,6.602
		C93.474,395.79,93.474,488.421,93.474,488.421z"/>
	<path style="fill:#611016;" d="M159.006,476.825l-13.171-10.493l33.684-42.105c1.853-2.349,4.825-3.512,7.781-3.057l57.263,8.177
		l32.093-8.017l4.076,16.337l-33.684,8.421c-1.053,0.269-2.147,0.328-3.225,0.168l-54.206-7.739L159.006,476.825z"/>
	<path style="fill:#611016;" d="M430.316,496.842h-33.684c-1.305,0.017-2.594-0.278-3.764-0.842l-46.762-23.427L299.343,496
		l-7.528-15.074l50.526-25.263c2.366-1.187,5.162-1.187,7.528,0L398.619,480h31.697V496.842z"/>
</g>
<g>
	
		<rect id="SVGCleanerId_0_1_" x="426.097" y="53.725" transform="matrix(-0.7071 0.7071 -0.7071 -0.7071 792.3914 -185.0386)" width="16.842" height="35.73"/>
</g>
<path d="M169.263,329.971V320h-16.842v8.421h-16.842V320h-16.842v8.421h-8.421v16.842h8.421v50.526h-8.421v16.842h8.421v8.421
	h16.842v-8.421h16.842v8.421h16.842v-9.971c13.061-4.522,19.992-18.771,15.469-31.832c-1.12-3.234-2.888-6.198-5.196-8.724
	c9.339-10.189,8.64-26.021-1.549-35.36C175.461,332.859,172.497,331.091,169.263,329.971z M160.842,395.79h-25.263v-16.842h25.263
	c4.648,0,8.421,3.773,8.421,8.421S165.491,395.79,160.842,395.79z M160.842,362.105h-25.263v-16.842h25.263
	c4.648,0,8.421,3.773,8.421,8.421C169.263,358.333,165.491,362.105,160.842,362.105z"/>
<path d="M472.168,444.278c-0.598-2.392-2.206-4.396-4.404-5.499l-50.526-25.263c-1.171-0.581-2.459-0.884-3.764-0.884H348.8
	l-56.749-40.531c-2.282-1.634-5.229-2.029-7.857-1.044l-44.43,16.665l53.347-53.347c3.284-3.284,3.284-8.623,0-11.907
	l-36.152-36.152l168.421-168.421h47.04c2.198,0.008,4.32-0.851,5.895-2.383l25.263-24.589c3.335-3.242,3.41-8.573,0.168-11.907
	c-0.017-0.017-0.042-0.042-0.059-0.059L427.899,2.493c-1.583-1.6-3.747-2.501-6.004-2.493l0,0c-2.232,0-4.379,0.884-5.954,2.467
	l-25.263,25.263c-1.583,1.575-2.467,3.722-2.467,5.954v47.04L219.789,249.145l-36.152-36.152c-3.284-3.284-8.623-3.284-11.907,0
	l-76.573,76.581l-19.722-32.842c-1.516-2.543-4.261-4.101-7.225-4.101H39.032l-14.316-21.516c-1.566-2.349-4.211-3.756-7.032-3.747
	H0.842v16.842h12.337l14.316,21.516c1.566,2.349,4.211,3.756,7.032,3.747h28.918l19.141,31.899
	c-16.724,14.821-27.52,35.2-30.375,57.364l-2.526-2.046l-16-32c-1.423-2.88-4.362-4.699-7.579-4.691H0.842v16.842h20.059
	l14.509,29.027c0.556,1.086,1.331,2.046,2.274,2.813l38.947,31.149v88.59h16.842v-40.253c15.023,9.811,32.581,15.023,50.526,14.989
	c1.558,0,3.082-0.253,4.632-0.328l-2.787,3.486l13.154,10.526l30.678-38.358l54.181,7.747c1.078,0.16,2.181,0.101,3.234-0.168
	l33.684-8.421l-4.076-16.337l-32.093,8.017l-26.223-3.747c3.579-4.783,6.686-9.912,9.263-15.301l58.316-21.895l55.293,39.495
	c1.415,1.027,3.107,1.583,4.851,1.6h65.381l45.288,22.636l7.478,29.928c0.472,1.878,1.566,3.537,3.116,4.699L501.053,512
	l10.105-13.474l-31.293-23.469L472.168,444.278z M405.053,37.171l16.842-16.842l63.848,64.421l-16.741,16.303h-43.621
	l-20.328-20.328V37.171z M396.632,96.118l13.356,13.356L245.053,274.408l-13.356-13.356L396.632,96.118z M198.796,422.779
	l-11.495-1.684c-2.956-0.438-5.92,0.733-7.773,3.074l-15.461,19.368c-24.817,6.964-51.469,0.699-70.594-16.589V395.79
	c0-2.56-1.162-4.977-3.158-6.577l-23.36-18.686h1.255c-0.084-41.861,33.785-75.857,75.638-75.941s75.857,33.785,75.941,75.638
	c0.042,19.554-7.486,38.366-20.994,52.505V422.779z M144,277.895c-4.901,0.034-9.794,0.463-14.627,1.272l48.312-48.312
	l36.152,36.152l25.263,25.263l36.152,36.152l-38.787,38.787C234.661,317.423,193.819,277.979,144,277.895z"/>
<path d="M392.867,496c1.171,0.564,2.459,0.859,3.764,0.842h33.684V480h-31.697l-48.749-24.421c-2.366-1.187-5.162-1.187-7.528,0
	l-50.526,25.263l7.528,15.074l46.762-23.343L392.867,496z"/>
<g>
</g>
<g>
</g>
<g>
</g>
<g>
</g>
<g>
</g>
<g>
</g>
<g>
</g>
<g>
</g>
<g>
</g>
<g>
</g>
<g>
</g>
<g>
</g>
<g>
</g>
<g>
</g>
<g>
</g>
</svg>
