<?xml version="1.0" encoding="iso-8859-1"?>
<!-- Generator: Adobe Illustrator 19.0.0, SVG Export Plug-In . SVG Version: 6.00 Build 0)  -->
<svg version="1.1" id="Capa_1" xmlns="http://www.w3.org/2000/svg" xmlns:xlink="http://www.w3.org/1999/xlink" x="0px" y="0px"
	 viewBox="0 0 511.998 511.998" style="enable-background:new 0 0 511.998 511.998;" xml:space="preserve">
<path style="fill:#F5D0C7;" d="M68.269,511.991V196.263c0-103.678,84.052-187.73,187.73-187.73s187.73,84.052,187.73,187.73v315.728
	H68.269z"/>
<g>
	<path style="fill:#EDB4A5;" d="M410.1,368.907l-13.406-10.573c5.128-6.494,9.805-13.337,13.977-20.48l14.737,8.593
		C420.834,354.281,415.715,361.782,410.1,368.907z"/>
	<path style="fill:#EDB4A5;" d="M255.999,511.991c-60.859,0.41-119.934-20.522-166.952-59.161l10.794-13.201
		c43.989,36.121,99.241,55.688,156.157,55.295c57.147,0.265,112.57-19.532,156.618-55.935l10.837,13.192
		C376.359,491.102,317.096,512.273,255.999,511.991z"/>
	<path style="fill:#EDB4A5;" d="M255.999,477.859c-63.598,0.367-124.44-25.915-167.771-72.464l12.467-11.665
		c80.733,85.741,215.693,89.812,301.435,9.071c1.246-1.169,2.475-2.364,3.695-3.558l11.946,12.143
		C374.772,454.077,316.602,477.978,255.999,477.859z"/>
	<path style="fill:#EDB4A5;" d="M255.999,443.726c-68.479,0.196-132.06-35.515-167.524-94.095l14.549-8.909
		c51.43,84.462,161.585,111.247,246.055,59.818c11.878-7.228,22.869-15.821,32.75-25.591l11.946,12.151
		C357.151,423.46,307.608,443.82,255.999,443.726z"/>
	<path style="fill:#EDB4A5;" d="M255.999,409.593c-89.505-0.102-162.028-72.626-162.131-162.131v-51.199
		c0-89.539,72.592-162.131,162.131-162.131s162.131,72.592,162.131,162.131v51.199c0.119,36.411-12.16,71.781-34.824,100.291
		l-13.397-10.573c20.275-25.506,31.257-57.138,31.155-89.718v-51.199c0-80.118-64.946-145.064-145.064-145.064
		s-145.064,64.946-145.064,145.064v51.199c-0.034,80.075,64.844,145.03,144.928,145.064c38.186,0.017,74.836-15.027,101.997-41.872
		l11.946,12.151C339.556,392.842,298.631,409.67,255.999,409.593z"/>
	<path style="fill:#EDB4A5;" d="M145.067,247.463h-17.066v-51.199c0.034-70.689,57.369-127.972,128.066-127.93
		c45.678,0.026,87.883,24.388,110.744,63.931l-14.762,8.533c-30.651-53.051-98.507-71.201-151.549-40.55
		c-34.286,19.814-55.415,56.413-55.432,96.015V247.463z"/>
	<path style="fill:#EDB4A5;" d="M201.13,363.096c-38.758-18.355-65.731-54.911-71.832-97.355l16.904-2.423
		c5.291,36.795,28.689,68.479,62.292,84.368L201.13,363.096z"/>
	<path style="fill:#EDB4A5;" d="M255.999,375.46c-12.33,0.009-24.601-1.775-36.428-5.282l4.872-16.358
		c58.734,17.425,120.48-16.059,137.905-74.793c3.046-10.248,4.582-20.881,4.582-31.564v-51.199
		c0.017-13.542-2.458-26.965-7.304-39.611l15.931-6.11c5.598,14.592,8.456,30.088,8.439,45.721v51.199
		C383.92,318.117,326.662,375.384,255.999,375.46z"/>
	<path style="fill:#EDB4A5;" d="M255.999,341.328c-51.814-0.06-93.805-42.052-93.865-93.865v-51.199
		c-0.051-20.326,6.562-40.106,18.824-56.319l13.653,10.24c-10.035,13.261-15.454,29.448-15.411,46.079v51.199
		c0,42.419,34.38,76.799,76.799,76.799s76.799-34.38,76.799-76.799v-51.199c-0.051-42.393-34.406-76.748-76.799-76.799
		c-16.623-0.06-32.81,5.333-46.079,15.36l-10.24-13.653c16.222-12.245,36.002-18.833,56.319-18.773
		c51.814,0.06,93.805,42.052,93.865,93.865v51.199C349.804,299.276,307.821,341.268,255.999,341.328z"/>
</g>
<g>
	<path style="fill:#FE7C26;" d="M273.065,230.396h-42.666c-4.71,0-8.533-3.823-8.533-8.533v-51.199c0-4.71,3.823-8.533,8.533-8.533
		h42.666c18.85,0,34.133,15.283,34.133,34.133S291.915,230.396,273.065,230.396z M238.932,213.33h34.133
		c9.429,0,17.066-7.637,17.066-17.066c0-9.429-7.637-17.066-17.066-17.066h-34.133V213.33z"/>
	<path style="fill:#FE7C26;" d="M273.065,281.595h-42.666c-4.71,0-8.533-3.823-8.533-8.533v-51.199c0-4.71,3.823-8.533,8.533-8.533
		h42.666c18.85,0,34.133,15.283,34.133,34.133S291.915,281.595,273.065,281.595z M238.932,264.529h34.133
		c9.429,0,17.066-7.637,17.066-17.066s-7.637-17.066-17.066-17.066h-34.133V264.529z"/>
	<rect x="230.399" y="145.064" style="fill:#FE7C26;" width="17.066" height="25.6"/>
	<rect x="230.399" y="273.062" style="fill:#FE7C26;" width="17.066" height="25.6"/>
	<rect x="264.532" y="145.064" style="fill:#FE7C26;" width="17.066" height="25.6"/>
	<rect x="264.532" y="273.062" style="fill:#FE7C26;" width="17.066" height="25.6"/>
	<rect x="213.333" y="162.131" style="fill:#FE7C26;" width="17.066" height="17.066"/>
	<rect x="213.333" y="264.529" style="fill:#FE7C26;" width="17.066" height="17.066"/>
</g>
<path d="M59.735,511.991h17.066V196.263c0-98.968,80.229-179.197,179.197-179.197s179.197,80.229,179.197,179.197v315.728h17.066
	V196.263C452.262,87.866,364.396,0,255.999,0S59.735,87.866,59.735,196.263V511.991z"/>
<path d="M410.671,337.829c-4.173,7.142-8.849,13.986-13.977,20.48l13.406,10.573c5.615-7.117,10.726-14.609,15.309-22.434
	L410.671,337.829z"/>
<path d="M412.617,438.99c-44.048,36.403-99.471,56.2-156.618,55.935c-56.916,0.393-112.169-19.174-156.157-55.295L89.03,452.831
	c47.026,38.638,106.11,59.579,166.969,59.161c61.098,0.282,120.361-20.889,167.455-59.809L412.617,438.99z"/>
<path d="M255.999,477.859c60.603,0.128,118.782-23.782,161.789-66.474l-11.946-12.143c-83.77,82.78-218.791,81.97-301.572-1.8
	c-1.212-1.22-2.398-2.458-3.575-3.712l-12.45,11.665C131.576,451.943,192.409,478.217,255.999,477.859z"/>
<path d="M255.999,443.726c51.617,0.102,101.178-20.258,137.811-56.626l-11.947-12.151c-70.331,69.52-183.694,68.854-253.214-1.476
	c-9.771-9.89-18.363-20.881-25.591-32.75l-14.506,8.909C124.007,408.185,187.546,443.897,255.999,443.726z"/>
<path d="M418.129,247.463v-51.199c0-89.539-72.592-162.131-162.131-162.131S93.868,106.725,93.868,196.263v51.199
	c-0.034,89.505,72.489,162.088,161.994,162.131c42.666,0.017,83.625-16.793,113.978-46.787l-11.946-12.151
	c-56.933,56.311-148.742,55.807-205.053-1.126c-26.871-27.17-41.932-63.854-41.906-102.065v-51.199
	c0-80.118,64.946-145.064,145.064-145.064s145.064,64.946,145.064,145.064v51.199c0.102,32.58-10.888,64.212-31.155,89.718
	l13.397,10.573C405.97,319.244,418.249,283.874,418.129,247.463z"/>
<path d="M255.999,85.332c39.594,0.111,76.167,21.222,96.05,55.466l14.762-8.533c-35.379-61.2-113.679-82.132-174.879-46.745
	c-39.543,22.86-63.905,65.066-63.931,110.744v51.199h17.066v-51.199C145.144,135.029,194.765,85.4,255.999,85.332z"/>
<path d="M201.13,363.096l7.339-15.411c-33.604-15.889-57.002-47.573-62.292-84.368l-16.904,2.423
	C135.382,308.193,162.364,344.749,201.13,363.096z"/>
<path d="M383.997,247.463v-51.199c0.017-15.633-2.842-31.129-8.439-45.721l-15.931,6.11c4.847,12.646,7.321,26.069,7.304,39.611
	v51.199c0.009,61.268-49.655,110.94-110.914,110.949c-10.692,0-21.333-1.544-31.59-4.591l-4.872,16.358
	c67.762,20.13,139.014-18.491,159.144-86.253C382.213,272.089,384.005,259.81,383.997,247.463z"/>
<path d="M349.864,247.463v-51.199c-0.06-51.814-42.052-93.805-93.865-93.865c-20.326-0.051-40.106,6.562-56.319,18.824l10.24,13.653
	c13.261-10.044,29.448-15.454,46.079-15.411c42.393,0.051,76.748,34.406,76.799,76.799v51.199c0,42.419-34.38,76.799-76.799,76.799
	s-76.799-34.38-76.799-76.799v-51.199c-0.06-16.623,5.333-32.81,15.36-46.079l-13.653-10.24
	c-12.245,16.222-18.833,36.002-18.773,56.319v51.199c0,51.839,42.026,93.865,93.865,93.865S349.864,299.302,349.864,247.463z"/>
<path d="M221.866,264.529h-8.533v17.066h17.066v17.066h17.066v-17.066h17.066v17.066h17.066v-18.278
	c18.133-4.557,29.141-22.963,24.576-41.096c-1.707-6.784-5.47-12.868-10.769-17.425c14.182-12.185,15.803-33.561,3.618-47.752
	c-4.557-5.308-10.641-9.071-17.425-10.769v-18.278h-17.066v17.066h-17.066v-17.066h-17.066v17.066h-17.066v17.066h8.533V264.529z
	 M238.932,179.197h34.133c9.429,0,17.066,7.637,17.066,17.066c0,9.429-7.637,17.066-17.066,17.066h-34.133V179.197z
	 M238.932,230.396h34.133c9.429,0,17.066,7.637,17.066,17.066s-7.637,17.066-17.066,17.066h-34.133V230.396z"/>
<g>
</g>
<g>
</g>
<g>
</g>
<g>
</g>
<g>
</g>
<g>
</g>
<g>
</g>
<g>
</g>
<g>
</g>
<g>
</g>
<g>
</g>
<g>
</g>
<g>
</g>
<g>
</g>
<g>
</g>
</svg>
