<?xml version="1.0" encoding="iso-8859-1"?>
<!-- Generator: Adobe Illustrator 19.0.0, SVG Export Plug-In . SVG Version: 6.00 Build 0)  -->
<svg version="1.1" id="Capa_1" xmlns="http://www.w3.org/2000/svg" xmlns:xlink="http://www.w3.org/1999/xlink" x="0px" y="0px"
	 viewBox="0 0 512 512" style="enable-background:new 0 0 512 512;" xml:space="preserve">
<g>
	<path style="fill:#03AA6F;" d="M416.053,165.382l-1.879,1.11l-38.433,12.811l-38.433-6.406l-12.811-19.217h-38.433l-19.217,19.217
		l12.811,15.971l38.433,48.084l25.622-6.406l19.217,12.811v25.622l12.811,25.622l12.811,25.622v25.622l17.252,17.252
		c9.48-13.289,17.124-27.792,22.718-43.131C447.107,269.084,442.555,212.629,416.053,165.382z"/>
	<path style="fill:#03AA6F;" d="M388.467,128.059l-19.131,12.811l-32.028-6.406l-19.217-6.406l-25.622,6.406l-19.217-6.406
		l12.811-25.622h25.622l25.11-12.555C356.123,99.482,373.614,112.404,388.467,128.059z"/>
</g>
<path style="fill:#FFDB6F;" d="M307.586,346.873c-0.231-13.58,10.591-24.768,24.17-24.999c12.017-0.205,22.419,8.31,24.597,20.131
	c0.273,1.324,0.418,2.665,0.427,4.014c0.265,13.58-10.531,24.802-24.119,25.067c-12.657,0.248-23.436-9.164-24.905-21.736
	C307.654,348.53,307.595,347.701,307.586,346.873z"/>
<g>
	<path style="fill:#86DAF1;" d="M272.911,211.331c9.42,0.026,17.056,7.661,17.082,17.081c-0.068,9.403-7.678,17.013-17.081,17.081
		h-34.163v-34.163H272.911z"/>
	<path style="fill:#86DAF1;" d="M272.911,245.494c9.42,0.026,17.056,7.661,17.082,17.081c-0.068,9.403-7.678,17.013-17.081,17.081
		h-34.163v-34.163H272.911z"/>
	<path style="fill:#86DAF1;" d="M356.354,342.004c-2.46-13.358-15.279-22.189-28.637-19.729
		c-11.82,2.178-20.336,12.581-20.131,24.597c0.009,0.828,0.068,1.657,0.171,2.477l-1.879,0.342
		c-15.63,1.623-31.772,2.562-48.341,2.818c-5.039,0.085-9.993,0.085-14.946,0.085c-6.406-0.085-12.811-0.256-19.131-0.512
		c-0.487,0.017-0.974-0.017-1.452-0.085v-12.555l25.622-25.622l-19.729-34.163h45.01c9.403-0.068,17.013-7.678,17.082-17.081
		c-0.026-9.42-7.661-17.056-17.081-17.081c9.403-0.068,17.013-7.678,17.081-17.081c-0.026-9.42-7.661-17.056-17.081-17.081V194.25
		l6.747-5.381l38.433,48.084l25.622-6.406l19.217,12.811v25.622l12.811,25.622l12.811,25.622v13.921
		c-9.395,2.733-19.302,5.21-29.551,7.345L356.354,342.004z"/>
</g>
<g>
	<path style="fill:#03AA6F;" d="M119.519,256.17l12.811-12.811l19.217-19.217l12.811,25.622l40.227-4.27l8.541,8.541l14.775,25.622
		l19.729,34.163l-25.622,25.622v12.555c-19.311-0.803-38.561-2.716-57.65-5.722v-38.86l-32.028-6.406l-12.811-25.622L119.519,256.17
		z"/>
	<path style="fill:#03AA6F;" d="M119.519,204.926l12.811,12.811v25.622l-19.217-12.811l-19.217-12.811l-11.188-33.48
		c1.708-4.014,3.587-8.028,5.637-11.957c20.293-40.167,54.507-71.588,96.254-88.397l18.192,12.128l38.433,6.406l-6.406,19.217
		l-19.217,6.406l-19.217,32.028l-32.028,19.217l-44.839,6.406C119.519,185.709,119.519,204.926,119.519,204.926z"/>
</g>
<path style="fill:#86DAF1;" d="M369.336,140.87l19.131-12.811c10.257,10.676,19.148,22.582,26.476,35.444
	c0.461,0.564,0.837,1.204,1.11,1.879l-1.879,1.11l-38.433,12.811l-38.433-6.406l-12.811-19.217h-38.433l-19.217,19.217
	l12.811,15.971l-6.747,5.381v17.081h-34.163v68.326h-10.847l-14.775-25.622l-8.541-8.541l-40.227,4.27l-12.811-25.622
	l-19.217,19.217v-25.622l-12.811-12.811v-19.217l44.839-6.406l32.028-19.217l19.217-32.028l19.217-6.406l6.406-19.217l-38.433-6.406
	l-18.192-12.128c49.246-19.883,104.658-17.713,152.196,5.979l-25.11,12.555h-25.622l-12.811,25.622l19.217,6.406l25.622-6.406
	l19.217,6.406L369.336,140.87z"/>
<path style="fill:#03AA6F;" d="M196.386,377.876v32.028l-19.217-6.406l-12.811-32.028v-25.195
	c19.089,3.006,38.339,4.919,57.65,5.722v6.662L196.386,377.876z"/>
<g>
	<path style="fill:#86DAF1;" d="M257.537,352.51c16.569-0.256,32.711-1.196,48.341-2.818l1.879-0.342
		c1.58,13.494,13.793,23.154,27.288,21.574c12.581-1.469,21.984-12.247,21.736-24.905c-0.009-1.349-0.154-2.69-0.427-4.014
		l2.648-0.512c10.249-2.135,20.156-4.612,29.551-7.345v11.701l17.252,17.252c-58.999,83.861-174.803,104.018-258.656,45.018
		c-29.867-21.01-52.876-50.365-66.148-84.391c21.745,8.805,44.326,15.416,67.386,19.729c5.21,1.025,10.591,1.964,15.971,2.818
		v25.195l12.811,32.028l19.217,6.406v-32.028l25.622-19.217v-6.662c0.478,0.068,0.965,0.102,1.452,0.085
		c6.32,0.256,12.726,0.427,19.131,0.512C247.545,352.595,252.498,352.595,257.537,352.51z"/>
	<path style="fill:#86DAF1;" d="M132.33,243.359l-12.811,12.811v19.217l12.811,25.622l32.028,6.406v38.86
		c-5.381-0.854-10.761-1.794-15.971-2.818c-23.06-4.313-45.642-10.924-67.386-19.729c-17.543-44.95-16.928-94.964,1.708-139.47
		l11.188,33.48l19.217,12.811L132.33,243.359z"/>
</g>
<g>
	<path style="fill:#FE7C26;" d="M242.591,361.136c-6.593-0.085-13.084-0.256-19.473-0.521c-0.641,0.009-1.281-0.026-1.922-0.103
		c-3.245-0.145-6.465-0.316-9.668-0.512l1.042-17.081c3.245,0.205,6.508,0.367,9.805,0.512c0.384,0.017,0.76,0.06,1.136,0.12
		c6.534,0.214,12.862,0.384,19.191,0.47c4.791,0,9.702,0,14.699-0.085c16.227-0.248,32.258-1.179,47.598-2.776l1.759,16.996
		c-15.835,1.64-32.344,2.562-49.084,2.861C252.592,361.136,247.587,361.136,242.591,361.136z M185.582,357.762
		c-7.678-0.863-15.194-1.888-22.565-3.058c-5.475-0.854-10.966-1.828-16.279-2.87c-18.559-3.519-36.836-8.43-54.661-14.69
		l5.731-16.091c17.013,5.97,34.453,10.65,52.167,14.015c5.124,1.008,10.411,1.939,15.681,2.776
		c7.114,1.119,14.374,2.11,21.787,2.929L185.582,357.762z M67.643,327.169C26.758,308.055,3.365,283.364,0,255.743l16.962-2.067
		c2.562,21.164,23.145,41.764,57.906,58.009L67.643,327.169z M20.062,233.008l-15.741-6.636
		c10.138-24.017,36.281-45.701,75.568-62.732l6.833,15.681C51.987,194.344,28.338,213.415,20.062,233.008z"/>
	<path style="fill:#FE7C26;" d="M360.744,349.853l-3.485-16.714c9.856-2.058,19.575-4.484,28.902-7.191
		c13.17-3.69,26.083-8.259,38.647-13.665l6.833,15.664c-13.247,5.705-26.852,10.531-40.739,14.434
		C381.19,345.19,371.027,347.718,360.744,349.853z M455.392,316.211l-8.413-14.861c30.9-17.466,47.914-38.348,47.914-58.829
		c0-1.52-0.094-3.041-0.273-4.552l16.97-2.016c0.222,1.87,0.35,3.758,0.376,5.645v0.922
		C511.974,269.818,492.408,295.295,455.392,316.211z M486.882,217.993c-12.136-18.209-38.058-35.077-73.006-47.495l5.722-16.099
		c38.946,13.845,67.13,32.557,81.496,54.123L486.882,217.993z"/>
	<path style="fill:#FE7C26;" d="M332.329,379.584c-16.859,0.094-31.088-12.504-33.053-29.243c-0.145-1.153-0.222-2.306-0.231-3.468
		c-0.231-18.294,14.417-33.309,32.711-33.539c16.125-0.205,30.055,11.24,32.993,27.1c0.367,1.836,0.564,3.707,0.572,5.586
		c0.231,18.234-14.314,33.241-32.549,33.565L332.329,379.584L332.329,379.584z M332.269,330.381h-0.333
		c-8.805,0.068-15.877,7.26-15.817,16.057c0,0.094,0,0.179,0.009,0.273c0,0.572,0.043,1.144,0.12,1.708
		c0.999,8.08,7.892,14.135,16.031,14.084h0.222c8.848-0.179,15.886-7.482,15.741-16.33c0-0.846-0.094-1.682-0.265-2.511v-0.171
		C346.574,335.906,339.981,330.398,332.269,330.381z"/>
	<path style="fill:#FE7C26;" d="M298.533,228.413c-0.043-10.821-6.884-20.447-17.081-24.051V194.25H264.37v8.541h-17.081v-8.541
		h-17.081v8.541h-8.541v17.081h8.541v51.244h-8.541v17.081h8.541v8.541h17.081v-8.541h17.081v8.541h17.081v-10.087
		c3.57-1.213,6.807-3.237,9.463-5.919c4.902-4.766,7.652-11.325,7.618-18.158c-0.026-6.329-2.408-12.418-6.687-17.081
		C296.15,240.848,298.541,234.741,298.533,228.413z M247.288,219.872h25.622c4.715,0,8.541,3.826,8.541,8.541
		c0.009,2.306-0.939,4.51-2.613,6.09c-1.563,1.58-3.698,2.468-5.927,2.451h-25.622L247.288,219.872L247.288,219.872z
		 M278.838,268.665c-1.563,1.58-3.698,2.468-5.927,2.451h-25.622v-17.081h25.622c4.714,0,8.541,3.826,8.541,8.541
		C281.46,264.873,280.512,267.077,278.838,268.665z"/>
</g>
<path d="M70.743,320.525C106.46,421.69,217.43,474.745,318.595,439.027s154.22-146.687,118.503-247.852
	c-1.606-4.552-3.382-9.053-5.329-13.469c25.87,11.419,45.215,25.409,55.165,40.329l14.212-9.472
	c-14.374-21.557-42.559-40.27-81.513-54.123v0.102c-56.044-91.42-175.589-120.091-267-64.047
	c-30.294,18.568-54.908,45.104-71.17,76.696l-1.52-3.527c-39.287,16.962-65.388,38.647-75.543,62.723l15.706,6.636
	c7.14-16.936,25.75-33.428,52.953-47.239c-15.16,38.852-17.372,81.555-6.303,121.765c-29.713-15.57-47.358-34.47-49.716-53.807
	l-16.953,2.05c3.348,27.587,26.724,52.278,67.6,71.418L70.743,320.525z M254.044,433.39c-65.653-0.06-125.899-36.401-156.586-94.435
	c16.125,5.364,32.591,9.668,49.28,12.879c2.955,0.581,6.055,1.051,9.087,1.58v18.055c0,1.085,0.205,2.161,0.606,3.169l12.811,32.028
	c0.931,2.332,2.844,4.134,5.227,4.928L193.687,418c2.596,0.871,5.458,0.436,7.687-1.162c2.229-1.606,3.553-4.185,3.553-6.935
	v-27.757l22.206-16.654c1.469-1.187,2.494-2.836,2.904-4.68c4.142,0.12,8.267,0.282,12.444,0.316h5.697c3.152,0,6.32,0,9.497-0.085
	c14.699-0.239,29.363-1.119,43.763-2.443c4.945,12.657,17.158,20.976,30.747,20.933h0.512c17.116-0.333,31.148-13.674,32.352-30.747
	c5.039-1.11,10.078-2.238,14.938-3.493v0.487c0,2.263,0.897,4.433,2.494,6.038l11.957,11.957
	C361.042,407.58,309.132,433.322,254.044,433.39z M316.135,346.693c-0.154-8.857,6.892-16.168,15.749-16.321
	c0.017,0,0.026,0,0.043,0h0.273c8.874,0,16.065,7.191,16.065,16.065s-7.191,16.065-16.065,16.065
	C323.421,362.502,316.272,355.465,316.135,346.693z M404.361,349.58l-7.26-7.268v-1.776c5.21-1.597,10.249-3.305,15.203-5.065
	C409.87,340.296,407.214,345.002,404.361,349.58z M374.887,126.906l-7.337,4.894l-28.022-5.611l-18.73-6.243
	c-1.537-0.53-3.203-0.589-4.774-0.188l-23.205,5.799l-7.516-2.502l6.047-12.094h20.344c1.324,0,2.631-0.307,3.818-0.897
	L336.65,99.49C350.554,106.895,363.408,116.111,374.887,126.906z M254.044,78.95c21.335,0.034,42.49,3.954,62.424,11.564
	l-6.764,3.416h-23.632c-3.237,0-6.201,1.828-7.644,4.723l-12.811,25.622c-2.11,4.219-0.393,9.352,3.826,11.453
	c0.359,0.179,0.726,0.333,1.11,0.461l19.217,6.406c1.537,0.521,3.194,0.581,4.774,0.188l23.205-5.799l16.859,5.611
	c0.333,0.12,0.675,0.214,1.025,0.273l32.028,6.406c0.564,0.111,1.136,0.171,1.708,0.171c1.683,0,3.331-0.504,4.732-1.435
	l12.905-8.601c6.004,6.816,11.479,14.075,16.373,21.728l-28.295,9.395l-32.694-5.449l-10.778-16.099
	c-1.589-2.374-4.253-3.801-7.106-3.801h-38.433c-2.272,0-4.441,0.897-6.047,2.502l-19.217,19.217l12.102,12.034l16.714-16.714h30.32
	l10.249,15.373c1.315,1.964,3.374,3.297,5.705,3.681l38.433,6.406c1.375,0.231,2.784,0.12,4.108-0.325l33.539-11.18
	c21.847,42.584,25.298,92.257,9.54,137.446c-7.721,3.211-15.86,6.192-24.418,8.951v-2.349c0-1.324-0.307-2.631-0.905-3.818
	l-24.717-49.442v-23.607c0-2.853-1.435-5.526-3.809-7.106l-19.217-12.811c-2.007-1.341-4.492-1.768-6.833-1.179l-25.622,6.406
	l4.142,16.569l21.958-5.492l12.273,8.182v21.053c0,1.324,0.307,2.631,0.897,3.818l24.725,49.442v5.372
	c-5.867,1.589-11.889,3.066-18.064,4.433c-1.674-3.502-3.946-6.679-6.713-9.395c-6.346-6.072-14.818-9.412-23.598-9.318
	c-16.253,0.222-29.91,12.264-32.164,28.364c-13.845,1.273-27.945,2.11-42.072,2.34c-3.092,0.051-6.166,0.085-9.224,0.085h-5.5
	c-4.091,0-8.105-0.188-12.128-0.307v-0.76l23.12-23.12l-12.085-12.077l-25.622,25.622c-1.597,1.606-2.494,3.775-2.494,6.038v3.57
	c-0.29,0-0.589,0-0.854-0.051l-0.811,12.632l-20.498,15.373c-2.152,1.614-3.416,4.142-3.416,6.833v20.173l-4.219-1.401
	l-10.727-26.818V356.08c4.202,0.581,8.387,1.196,12.666,1.708l1.913-17.022c-4.919-0.547-9.754-1.23-14.57-1.913v-31.438
	c0-4.057-2.853-7.559-6.833-8.37l-27.937-5.594l-10.035-20.079v-13.665l21.147-21.147l7.507,15.023
	c1.597,3.186,4.996,5.048,8.541,4.672l36.17-3.835l5.654,5.654l12.077-12.077l-8.541-8.541c-1.819-1.819-4.373-2.725-6.935-2.451
	l-34.334,3.647l-10.163-20.327c-2.118-4.219-7.243-5.919-11.462-3.809c-0.811,0.41-1.554,0.948-2.204,1.589l-4.629,4.638v-5.005
	c0-2.263-0.897-4.441-2.502-6.038l-10.309-10.309v-8.276l37.502-5.355c1.127-0.162,2.212-0.547,3.186-1.136l32.028-19.217
	c1.204-0.717,2.204-1.725,2.929-2.921l17.594-29.32l16.227-5.415c2.554-0.846,4.552-2.844,5.398-5.398l6.406-19.217
	c1.478-4.475-0.948-9.309-5.432-10.787c-0.41-0.137-0.837-0.239-1.264-0.316l-36.623-6.107l-2.349-1.563
	C220.069,81.478,237.005,78.984,254.044,78.95z M183.72,93.58l14.34,9.557c1.008,0.666,2.144,1.119,3.331,1.315l28.577,4.766
	l-1.896,5.68l-15.168,5.065c-1.93,0.641-3.57,1.956-4.621,3.698l-18.115,30.2l-28.723,17.235l-43.131,6.158
	c-4.202,0.606-7.328,4.211-7.328,8.455v19.217c0,2.263,0.897,4.433,2.494,6.038l10.317,10.309v6.132l-22.718-15.151l-9.139-27.399
	C110.005,143.996,142.767,111.422,183.72,93.58z M82.777,211.374l3.023,9.062c0.598,1.802,1.785,3.357,3.365,4.407l29.764,19.84
	l-5.449,5.449c-1.597,1.606-2.494,3.775-2.494,6.038v19.217c0,1.324,0.307,2.631,0.897,3.818l12.811,25.622
	c1.179,2.357,3.391,4.04,5.979,4.552l25.17,5.03v21.668c-1.93-0.35-3.929-0.632-5.816-1.008
	c-17.722-3.365-35.171-8.037-52.201-13.99l-3.818,10.676c-18.047-37.502-22.035-80.232-11.231-120.424L82.777,211.374z"/>
<path d="M511.607,235.954l-16.962,1.999c0.171,1.512,0.265,3.032,0.273,4.552c0,20.447-17.013,41.337-47.888,58.829l8.413,14.861
	C492.442,295.244,512,269.767,512,242.505v-0.922C511.966,239.704,511.829,237.825,511.607,235.954z"/>
<path d="M247.288,194.25h-17.081v8.541h-8.541v17.081h8.541v51.244h-8.541v17.081h8.541v8.541h17.081v-8.541h17.081v8.541h17.081
	v-10.112c13.247-4.586,20.276-19.037,15.689-32.284c-1.136-3.28-2.929-6.286-5.27-8.848c9.472-10.334,8.763-26.391-1.571-35.863
	c-2.554-2.34-5.569-4.134-8.848-5.27V194.25H264.37v8.541h-17.081L247.288,194.25L247.288,194.25z M272.911,271.116h-25.622v-17.081
	h25.622c4.715,0,8.541,3.826,8.541,8.541C281.451,267.29,277.625,271.116,272.911,271.116z M272.911,219.872
	c4.715,0,8.541,3.826,8.541,8.541c0,4.714-3.826,8.541-8.541,8.541h-25.622v-17.081H272.911z"/>
<g>
</g>
<g>
</g>
<g>
</g>
<g>
</g>
<g>
</g>
<g>
</g>
<g>
</g>
<g>
</g>
<g>
</g>
<g>
</g>
<g>
</g>
<g>
</g>
<g>
</g>
<g>
</g>
<g>
</g>
</svg>
