<?xml version="1.0" encoding="iso-8859-1"?>
<!-- Generator: Adobe Illustrator 19.0.0, SVG Export Plug-In . SVG Version: 6.00 Build 0)  -->
<svg version="1.1" id="Capa_1" xmlns="http://www.w3.org/2000/svg" xmlns:xlink="http://www.w3.org/1999/xlink" x="0px" y="0px"
	 viewBox="0 0 512 512" style="enable-background:new 0 0 512 512;" xml:space="preserve">
<g>
	<path style="fill:#FFD200;" d="M170.669,106.667c0,2.355-1.911,4.267-4.267,4.267h-12.8V102.4h12.8
		C168.757,102.4,170.669,104.311,170.669,106.667z"/>
	<path style="fill:#FFD200;" d="M170.669,132.267c0,2.355-1.911,4.267-4.267,4.267h-12.8V128h12.8
		C168.757,128,170.669,129.911,170.669,132.267z"/>
	<path style="fill:#FFD200;" d="M392.535,55.467c0,2.355-1.911,4.267-4.267,4.267h-12.8V51.2h12.8
		C390.624,51.2,392.535,53.111,392.535,55.467z"/>
	<path style="fill:#FFD200;" d="M392.535,81.067c0,2.355-1.911,4.267-4.267,4.267h-12.8V76.8h12.8
		C390.624,76.8,392.535,78.711,392.535,81.067z"/>
</g>
<path style="fill:#F5D0C7;" d="M503.469,358.4l-179.2,145.067h-51.2l-162.133-59.733H0.002v-93.867h110.933l59.733-25.6
	l85.333,8.533h59.733c0.068,23.492-18.918,42.598-42.411,42.667c-0.085,0-0.171,0-0.256,0h-68.267l85.333,51.2h34.133
	l109.227-70.656C455.016,342.05,482.955,343.006,503.469,358.4z"/>
<g>
	<rect x="443.735" y="179.2" style="fill:#EC9821;" width="17.067" height="59.733"/>
	<rect x="443.735" y="145.067" style="fill:#EC9821;" width="17.067" height="17.067"/>
	<rect x="409.602" y="256" style="fill:#EC9821;" width="17.067" height="42.667"/>
</g>
<g>
	<path style="fill:#FE7C26;" d="M375.469,59.733h12.8c2.355,0,4.267-1.911,4.267-4.267c0-2.355-1.911-4.267-4.267-4.267h-12.8
		V59.733z M375.469,85.333h12.8c2.355,0,4.267-1.911,4.267-4.267s-1.911-4.267-4.267-4.267h-12.8V85.333z M388.269,43.947
		c7.066,0,12.8,5.734,12.791,12.809c0,7.066-5.726,12.791-12.791,12.791c7.066,0,12.8,5.734,12.8,12.8c0,7.066-5.734,12.8-12.8,12.8
		h-21.333v-51.2L388.269,43.947z"/>
	<path style="fill:#FE7C26;" d="M409.602,81.067c0,11.785-9.549,21.333-21.333,21.333h-21.333c-4.71,0-8.533-3.823-8.533-8.533
		v-51.2c0-4.71,3.823-8.533,8.533-8.533h21.333c11.785,0,21.333,9.549,21.333,21.333c0,4.617-1.493,9.105-4.267,12.8
		C408.092,71.97,409.585,76.45,409.602,81.067z M401.069,56.747c0-7.066-5.734-12.8-12.8-12.8h-21.333v51.2h21.333
		c7.066,0,12.8-5.734,12.8-12.8c0-7.066-5.734-12.8-12.8-12.8C395.343,69.547,401.069,63.812,401.069,56.747z"/>
</g>
<g>
	<path style="fill:#FFD200;" d="M388.269,34.133h-21.333c-4.71,0-8.533,3.823-8.533,8.533v51.2c0,4.71,3.823,8.533,8.533,8.533
		h21.333c11.785,0,21.333-9.549,21.333-21.333c0-4.617-1.493-9.105-4.267-12.8c7.066-9.429,5.163-22.801-4.267-29.867
		C397.374,35.627,392.885,34.133,388.269,34.133z M435.202,68.267c0,28.279-22.921,51.2-51.2,51.2s-51.2-22.921-51.2-51.2
		s22.921-51.2,51.2-51.2S435.202,39.987,435.202,68.267z"/>
	<path style="fill:#FFD200;" d="M324.269,196.267c4.71,0,8.533,3.823,8.533,8.533c0.017,2.304-0.939,4.506-2.645,6.059
		c-1.527,1.613-3.661,2.509-5.888,2.475h-25.6v-17.067H324.269z"/>
	<path style="fill:#FFD200;" d="M324.269,230.4c4.71,0,8.533,3.823,8.533,8.533c0.017,2.304-0.939,4.506-2.645,6.059
		c-1.527,1.613-3.661,2.509-5.888,2.475h-25.6V230.4H324.269z"/>
</g>
<g>
	<path style="fill:#FE7C26;" d="M384.002,0c-37.7,0-68.267,30.566-68.267,68.267s30.566,68.267,68.267,68.267
		s68.267-30.566,68.267-68.267C452.218,30.583,421.685,0.051,384.002,0z M384.002,119.467c-28.279,0-51.2-22.921-51.2-51.2
		s22.921-51.2,51.2-51.2s51.2,22.921,51.2,51.2S412.282,119.467,384.002,119.467z"/>
	<path style="fill:#FE7C26;" d="M332.802,204.8c0-4.71-3.823-8.533-8.533-8.533h-25.6v17.067h25.6
		c2.227,0.034,4.361-0.862,5.888-2.475C331.863,209.306,332.819,207.104,332.802,204.8z M324.269,221.867h-34.133v-34.133h34.133
		c9.412,0.026,17.041,7.654,17.067,17.067c-0.068,9.233-7.415,16.768-16.64,17.067H324.269z"/>
	<path style="fill:#FE7C26;" d="M298.669,247.467h25.6c2.227,0.034,4.361-0.862,5.888-2.475c1.707-1.553,2.662-3.755,2.645-6.059
		c0-4.71-3.823-8.533-8.533-8.533h-25.6V247.467z M324.269,256h-34.133v-34.133h34.56c9.242,0.273,16.606,7.825,16.64,17.067
		C341.267,248.329,333.664,255.932,324.269,256z"/>
	<path style="fill:#FE7C26;" d="M281.602,170.667h17.067v8.533h17.067v-8.533h17.067v10.069
		c10.189,3.627,17.007,13.252,17.067,24.064c0,6.323-2.372,12.416-6.656,17.067c9.464,10.368,8.73,26.436-1.638,35.9
		c-2.543,2.321-5.53,4.096-8.772,5.231v10.069h-17.067v-8.533h-17.067v8.533h-17.067v-8.533h-8.533v-17.067h8.533v-51.2h-8.533
		V179.2h8.533V170.667z M290.135,256h34.133c9.395-0.068,16.998-7.671,17.067-17.067c-0.034-9.242-7.398-16.794-16.64-17.067
		c9.225-0.299,16.572-7.834,16.64-17.067c-0.026-9.412-7.654-17.041-17.067-17.067h-34.133V256z"/>
</g>
<rect x="264.535" y="34.133" style="fill:#EC9821;" width="17.067" height="76.8"/>
<path style="fill:#FFD200;" d="M298.669,170.667h-17.067v8.533h-8.533v17.067h8.533v51.2h-8.533v17.067h8.533v8.533h17.067v-8.533
	h17.067v8.533h17.067v-10.069c13.252-4.599,20.258-19.072,15.659-32.316c-1.126-3.268-2.918-6.263-5.248-8.815
	c4.284-4.651,6.656-10.743,6.656-17.067c-0.06-10.812-6.878-20.437-17.067-24.064v-10.069h-17.067v8.533h-17.067V170.667z
	 M307.202,153.6c37.7,0,68.267,30.566,68.267,68.267s-30.566,68.267-68.267,68.267s-68.267-30.566-68.267-68.267
	C238.987,184.183,269.519,153.651,307.202,153.6z"/>
<path style="fill:#FE7C26;" d="M307.202,136.533c-47.13,0-85.333,38.204-85.333,85.333s38.204,85.333,85.333,85.333
	s85.333-38.204,85.333-85.333C392.459,174.771,354.298,136.61,307.202,136.533z M307.202,290.133
	c-37.7,0-68.267-30.566-68.267-68.267s30.566-68.267,68.267-68.267s68.267,30.566,68.267,68.267
	C375.418,259.55,344.885,290.082,307.202,290.133z"/>
<g>
	<rect x="145.069" y="238.933" style="fill:#EC9821;" width="17.067" height="59.733"/>
	<rect x="145.069" y="204.8" style="fill:#EC9821;" width="17.067" height="17.067"/>
</g>
<g>
	<path style="fill:#FE7C26;" d="M170.669,106.667c0-2.355-1.911-4.267-4.267-4.267h-12.8v8.533h12.8
		C168.757,110.933,170.669,109.022,170.669,106.667z M166.402,136.533c2.355,0,4.267-1.911,4.267-4.267
		c0-2.355-1.911-4.267-4.267-4.267h-12.8v8.533H166.402z M145.069,145.067v-51.2h21.333c7.066,0,12.8,5.734,12.8,12.8
		c0,7.066-5.726,12.8-12.8,12.8c7.066,0,12.8,5.734,12.8,12.8c0,7.066-5.726,12.8-12.8,12.8H145.069z"/>
	<path style="fill:#FE7C26;" d="M166.402,145.067c7.066,0,12.8-5.734,12.8-12.8c0-7.066-5.726-12.8-12.8-12.8
		c7.066,0,12.8-5.734,12.8-12.8c0-7.066-5.726-12.8-12.8-12.8h-21.333v51.2H166.402z M136.535,93.867
		c0-4.71,3.823-8.533,8.533-8.533h21.333c11.785,0,21.333,9.549,21.333,21.333c0,4.617-1.493,9.105-4.267,12.8
		c7.066,9.429,5.163,22.801-4.267,29.867c-3.695,2.773-8.183,4.267-12.8,4.267h-21.333c-4.71,0-8.533-3.823-8.533-8.533V93.867z"/>
</g>
<rect x="128.002" style="fill:#EC9821;" width="17.067" height="25.6"/>
<path style="fill:#FFD200;" d="M110.935,119.467c0-28.279,22.921-51.2,51.2-51.2c28.279,0,51.2,22.921,51.2,51.2
	s-22.921,51.2-51.2,51.2S110.935,147.746,110.935,119.467z M145.069,153.6h21.333c11.785,0,21.333-9.549,21.333-21.333
	c0-4.617-1.493-9.105-4.267-12.8c7.066-9.429,5.163-22.801-4.267-29.867c-3.695-2.773-8.183-4.267-12.8-4.267h-21.333
	c-4.71,0-8.533,3.823-8.533,8.533v51.2C136.535,149.777,140.358,153.6,145.069,153.6z"/>
<path style="fill:#FE7C26;" d="M162.135,51.2c-37.7,0-68.267,30.566-68.267,68.267s30.566,68.267,68.267,68.267
	s68.267-30.566,68.267-68.267C230.351,81.783,199.819,51.251,162.135,51.2z M162.135,170.667c-28.279,0-51.2-22.921-51.2-51.2
	s22.921-51.2,51.2-51.2c28.279,0,51.2,22.921,51.2,51.2S190.415,170.667,162.135,170.667z"/>
<path d="M307.202,307.2c47.13,0,85.333-38.204,85.333-85.333s-38.204-85.333-85.333-85.333s-85.333,38.204-85.333,85.333
	C221.92,268.971,260.098,307.149,307.202,307.2z M307.202,153.6c37.7,0,68.267,30.566,68.267,68.267s-30.566,68.267-68.267,68.267
	s-68.267-30.566-68.267-68.267C238.978,184.183,269.519,153.643,307.202,153.6z"/>
<path d="M230.402,119.467c0-37.7-30.566-68.267-68.267-68.267s-68.267,30.566-68.267,68.267s30.566,68.267,68.267,68.267
	C199.819,187.691,230.359,157.15,230.402,119.467z M110.935,119.467c0-28.279,22.921-51.2,51.2-51.2c28.279,0,51.2,22.921,51.2,51.2
	s-22.921,51.2-51.2,51.2C133.873,170.641,110.961,147.729,110.935,119.467z"/>
<path d="M452.269,68.267c0-37.7-30.566-68.267-68.267-68.267s-68.267,30.566-68.267,68.267s30.566,68.267,68.267,68.267
	C421.685,136.491,452.226,105.95,452.269,68.267z M384.002,119.467c-28.279,0-51.2-22.921-51.2-51.2s22.921-51.2,51.2-51.2
	s51.2,22.921,51.2,51.2C435.176,96.529,412.264,119.441,384.002,119.467z"/>
<rect x="443.735" y="179.2" width="17.067" height="59.733"/>
<rect x="443.735" y="145.067" width="17.067" height="17.067"/>
<rect x="145.069" y="238.933" width="17.067" height="59.733"/>
<rect x="145.069" y="204.8" width="17.067" height="17.067"/>
<rect x="409.602" y="256" width="17.067" height="42.667"/>
<rect x="264.535" y="34.133" width="17.067" height="76.8"/>
<rect x="128.002" width="17.067" height="25.6"/>
<path d="M329.636,510.097l179.2-145.067c3.661-2.97,4.224-8.337,1.263-11.998c-0.444-0.546-0.947-1.033-1.51-1.459
	c-23.39-17.459-55.168-18.56-79.71-2.765l-107.127,69.325h-29.252L235.607,384h37.461c28.262-0.026,51.174-22.938,51.2-51.2
	c0-4.71-3.823-8.533-8.533-8.533l-58.88,0.043l-85.333-8.533c-1.434-0.145-2.884,0.085-4.215,0.649l-58.078,24.909H0.002V358.4
	h110.933c1.152,0,2.304-0.23,3.362-0.691l57.711-24.747l83.994,8.371h50.125c-3.917,15.061-17.502,25.583-33.058,25.6h-68.267
	c-4.71,0-8.533,3.823-8.533,8.533c0,2.995,1.57,5.769,4.139,7.313l85.333,51.2c1.331,0.802,2.85,1.22,4.395,1.22h34.133
	c1.647,0,3.251-0.469,4.634-1.365l109.227-70.69c15.104-9.711,34.099-11.102,50.449-3.695l-167.33,135.484h-46.66l-160.7-59.204
	c-0.947-0.35-1.946-0.529-2.953-0.529H0.002v17.067h109.414l160.7,59.204c0.947,0.35,1.946,0.529,2.953,0.529h51.2
	C326.223,512,328.117,511.326,329.636,510.097z"/>
<path d="M281.602,273.067h17.067v-8.533h17.067v8.533h17.067v-10.103c13.235-4.582,20.258-19.021,15.676-32.256
	c-1.135-3.277-2.927-6.281-5.265-8.841c9.464-10.325,8.755-26.368-1.57-35.831c-2.551-2.338-5.564-4.13-8.841-5.265v-10.103h-17.067
	v8.533h-17.067v-8.533h-17.067v8.533h-8.533v17.067h8.533v51.2h-8.533v17.067h8.533L281.602,273.067L281.602,273.067z
	 M298.669,196.267h25.6c4.71,0,8.533,3.823,8.533,8.533c0,4.71-3.823,8.533-8.533,8.533h-25.6V196.267z M298.669,230.4h25.6
	c4.71,0,8.533,3.823,8.533,8.533s-3.823,8.533-8.533,8.533h-25.6V230.4z"/>
<path d="M187.735,132.267c0.009-4.617-1.493-9.114-4.267-12.8c7.066-9.429,5.163-22.801-4.267-29.867
	c-3.695-2.773-8.183-4.267-12.8-4.267h-21.333c-4.71,0-8.533,3.823-8.533,8.533v51.2c0,4.71,3.823,8.533,8.533,8.533h21.333
	C178.187,153.6,187.735,144.051,187.735,132.267z M153.602,102.4h12.8c2.355,0,4.267,1.911,4.267,4.267s-1.911,4.267-4.267,4.267
	h-12.8V102.4z M153.602,128h12.8c2.355,0,4.267,1.911,4.267,4.267c0,2.355-1.911,4.267-4.267,4.267h-12.8V128z"/>
<path d="M388.269,34.133h-21.333c-4.71,0-8.533,3.823-8.533,8.533v51.2c0,4.71,3.823,8.533,8.533,8.533h21.333
	c11.785,0,21.333-9.549,21.333-21.333c0-4.617-1.493-9.105-4.267-12.8c7.066-9.429,5.163-22.801-4.267-29.867
	C397.374,35.627,392.885,34.133,388.269,34.133z M388.269,85.333h-12.8V76.8h12.8c2.355,0,4.267,1.911,4.267,4.267
	S390.624,85.333,388.269,85.333z M388.269,59.733h-12.8V51.2h12.8c2.355,0,4.267,1.911,4.267,4.267
	C392.535,57.822,390.624,59.733,388.269,59.733z"/>
<g>
</g>
<g>
</g>
<g>
</g>
<g>
</g>
<g>
</g>
<g>
</g>
<g>
</g>
<g>
</g>
<g>
</g>
<g>
</g>
<g>
</g>
<g>
</g>
<g>
</g>
<g>
</g>
<g>
</g>
</svg>
