<?xml version="1.0" encoding="iso-8859-1"?>
<!-- Generator: Adobe Illustrator 19.0.0, SVG Export Plug-In . SVG Version: 6.00 Build 0)  -->
<svg version="1.1" id="Capa_1" xmlns="http://www.w3.org/2000/svg" xmlns:xlink="http://www.w3.org/1999/xlink" x="0px" y="0px"
	 viewBox="0 0 511.995 511.995" style="enable-background:new 0 0 511.995 511.995;" xml:space="preserve">
<g>
	<rect x="17.142" y="213.327" style="fill:#D3D3D3;" width="34.119" height="17.059"/>
	<rect x="460.683" y="342.722" style="fill:#D3D3D3;" width="34.119" height="17.059"/>
	<rect x="486.272" y="170.679" style="fill:#D3D3D3;" width="25.589" height="17.059"/>
</g>
<path style="fill:#FE7C26;" d="M511.887,364.327c-9.425,0-17.059-7.634-17.059-17.059c0-9.425,7.634-17.059,17.059-17.059V364.327z"
	/>
<path style="fill:#D3D3D3;" d="M486.298,347.268c0-14.134,11.455-25.589,25.589-25.589v51.178
	C497.753,372.857,486.298,361.402,486.298,347.268z M511.887,338.738c-4.708,0-8.53,3.821-8.53,8.53s3.821,8.53,8.53,8.53V338.738z"
	/>
<path style="fill:#FE7C26;" d="M469.238,162.175c9.425,0,17.059,7.634,17.059,17.059s-7.634,17.059-17.059,17.059V162.175z"/>
<path style="fill:#D3D3D3;" d="M494.827,179.234c0,14.134-11.455,25.589-25.589,25.589v-51.178
	C483.372,153.645,494.827,165.1,494.827,179.234z M469.238,187.764c4.708,0,8.53-3.821,8.53-8.53s-3.821-8.53-8.53-8.53V187.764z"/>
<path style="fill:#FE7C26;" d="M0.108,207.638c9.425,0,17.059,7.634,17.059,17.059s-7.634,17.059-17.059,17.059
	C0.108,241.756,0.108,207.638,0.108,207.638z"/>
<g>
	<path style="fill:#D3D3D3;" d="M25.697,224.697c0,14.134-11.455,25.589-25.589,25.589l0,0v-51.178
		C14.242,199.108,25.697,210.563,25.697,224.697z M0.108,233.227c4.708,0,8.53-3.821,8.53-8.53s-3.821-8.53-8.53-8.53
		C0.108,216.167,0.108,233.227,0.108,233.227z"/>
	<rect x="298.62" y="17.145" style="fill:#D3D3D3;" width="17.059" height="59.707"/>
</g>
<path style="fill:#FE7C26;" d="M324.235,0.112c0,9.425-7.634,17.059-17.059,17.059c-9.425,0-17.059-7.634-17.059-17.059
	C290.116,0.112,324.235,0.112,324.235,0.112z"/>
<path style="fill:#D3D3D3;" d="M307.175,25.701c-14.134,0-25.589-11.455-25.589-25.589h51.178
	C332.764,14.245,321.309,25.701,307.175,25.701z M298.646,0.112c0,4.708,3.821,8.53,8.53,8.53s8.53-3.821,8.53-8.53
	C315.705,0.112,298.646,0.112,298.646,0.112z"/>
<g>
	<circle style="fill:#FE7C26;" cx="486.272" cy="25.675" r="17.059"/>
	<circle style="fill:#FE7C26;" cx="93.909" cy="25.675" r="17.059"/>
	<circle style="fill:#FE7C26;" cx="25.672" cy="486.275" r="17.059"/>
	<circle style="fill:#FE7C26;" cx="255.972" cy="486.275" r="17.059"/>
	<circle style="fill:#FE7C26;" cx="486.272" cy="486.275" r="17.059"/>
</g>
<g>
	<polygon style="fill:#D3D3D3;" points="460.709,351.277 460.709,366.886 435.12,366.886 418.061,366.886 401.001,366.886 
		383.942,366.886 366.883,366.886 349.824,366.886 332.764,366.886 315.705,366.886 298.646,366.886 281.586,366.886 
		264.527,366.886 247.468,366.886 230.409,366.886 213.349,366.886 196.29,366.886 179.231,366.886 162.172,366.886 
		145.112,366.886 128.053,366.886 110.994,366.886 93.934,366.886 76.875,366.886 51.286,366.886 51.286,332.768 460.709,332.768 	
		"/>
	<polygon style="fill:#D3D3D3;" points="460.709,366.886 460.709,435.123 255.998,435.123 145.112,435.123 51.286,435.123 
		51.286,366.886 76.875,366.886 93.934,366.886 110.994,366.886 128.053,366.886 145.112,366.886 162.172,366.886 179.231,366.886 
		196.29,366.886 213.349,366.886 230.409,366.886 247.468,366.886 264.527,366.886 281.586,366.886 298.646,366.886 
		315.705,366.886 332.764,366.886 349.824,366.886 366.883,366.886 383.942,366.886 401.001,366.886 418.061,366.886 
		435.12,366.886 	"/>
</g>
<g>
	<path style="fill:#FFD173;" d="M273.057,170.704c9.408,0.026,17.034,7.651,17.059,17.059c-0.068,9.391-7.668,16.991-17.059,17.059
		h-34.119v-34.119H273.057z"/>
	<path style="fill:#FFD173;" d="M273.057,204.823c9.408,0.026,17.034,7.651,17.059,17.059c-0.068,9.391-7.668,16.991-17.059,17.059
		h-34.119v-34.119H273.057z"/>
	<path style="fill:#FFD173;" d="M238.938,170.704v68.237h34.119c9.391-0.068,16.991-7.668,17.059-17.059
		c-0.026-9.408-7.651-17.034-17.059-17.059c9.391-0.068,16.991-7.668,17.059-17.059c-0.026-9.408-7.651-17.034-17.059-17.059
		H238.938z M255.998,119.527c47.109,0,85.296,38.187,85.296,85.296s-38.187,85.296-85.296,85.296s-85.296-38.187-85.296-85.296
		S208.888,119.527,255.998,119.527z"/>
</g>
<path style="fill:#168DE2;" d="M460.709,76.878v255.889H51.286V76.878C51.286,76.878,460.709,76.878,460.709,76.878z
	 M341.294,204.823c0-47.109-38.187-85.296-85.296-85.296s-85.296,38.187-85.296,85.296s38.187,85.296,85.296,85.296
	S341.294,251.932,341.294,204.823z"/>
<g>
	<rect x="0.108" y="17.145" style="fill:#D3D3D3;" width="76.767" height="17.059"/>
	<path style="fill:#D3D3D3;" d="M247.468,76.878h-17.059V34.23H110.994V17.171h127.945c4.708,0,8.53,3.821,8.53,8.53V76.878z"/>
	<path style="fill:#D3D3D3;" d="M375.412,76.878h-17.059V25.701c0-4.708,3.821-8.53,8.53-8.53h102.356V34.23h-93.826V76.878z"/>
	<path style="fill:#D3D3D3;" d="M17.168,409.534H0.108v-17.059h8.53v-85.296c0-4.708,3.821-8.53,8.53-8.53h34.119v17.059H25.697
		v85.296C25.697,405.722,21.885,409.534,17.168,409.534z"/>
	<rect x="0.108" y="110.971" style="fill:#D3D3D3;" width="51.178" height="17.059"/>
	<rect x="247.442" y="435.098" style="fill:#D3D3D3;" width="17.059" height="34.119"/>
	<rect x="273.031" y="477.746" style="fill:#D3D3D3;" width="196.182" height="17.059"/>
	<path style="fill:#D3D3D3;" d="M145.112,494.831H42.757v-17.059h93.826v-42.648h17.059v51.178
		C153.642,491.018,149.829,494.831,145.112,494.831z"/>
</g>
<g>
	<path style="fill:#454545;" d="M469.238,332.768h-17.059V85.408H59.816v247.359H42.757V76.878c0-4.708,3.821-8.53,8.53-8.53
		h409.423c4.708,0,8.53,3.821,8.53,8.53V332.768z"/>
	<path style="fill:#454545;" d="M460.709,443.653H51.286c-4.708,0-8.53-3.821-8.53-8.53V332.768c0-4.708,3.821-8.53,8.53-8.53
		h409.423c4.708,0,8.53,3.821,8.53,8.53v102.356C469.238,439.84,465.426,443.653,460.709,443.653z M59.816,426.594h392.363v-85.296
		H59.816C59.816,341.297,59.816,426.594,59.816,426.594z"/>
</g>
<g>
	<path style="fill:#FE7C26;" d="M273.057,213.353v-17.059c2.226,0.017,4.359-0.87,5.92-2.448c1.672-1.578,2.619-3.779,2.61-6.082
		c0-4.708-3.821-8.53-8.53-8.53h-25.589v25.589h-17.059v-34.119c0-4.708,3.821-8.53,8.53-8.53h34.119
		c14.134,0,25.589,11.455,25.589,25.589C298.578,201.872,287.165,213.284,273.057,213.353z"/>
	<path style="fill:#FE7C26;" d="M273.057,247.471h-34.119c-4.708,0-8.53-3.821-8.53-8.53v-34.119c0-4.708,3.821-8.53,8.53-8.53
		h34.119c14.134,0,25.589,11.455,25.589,25.589C298.578,235.99,287.165,247.403,273.057,247.471z M247.468,230.412h25.589
		c2.226,0.017,4.359-0.87,5.92-2.448c1.672-1.578,2.619-3.779,2.61-6.082c0-4.708-3.821-8.53-8.53-8.53h-25.589V230.412z"/>
	<path style="fill:#FE7C26;" d="M247.468,256.001h-17.059v-8.53h-8.53v-17.059h17.059c4.708,0,8.53,3.821,8.53,8.53V256.001z"/>
	<path style="fill:#FE7C26;" d="M238.938,179.234h-17.059v-17.059h8.53v-8.53h17.059v17.059
		C247.468,175.421,243.655,179.234,238.938,179.234z"/>
	<rect x="264.502" y="153.62" style="fill:#FE7C26;" width="17.059" height="17.059"/>
	<rect x="264.502" y="238.916" style="fill:#FE7C26;" width="17.059" height="17.059"/>
	<path style="fill:#FE7C26;" d="M255.998,298.649c-51.818,0-93.826-42.008-93.826-93.826s42.008-93.826,93.826-93.826
		s93.826,42.008,93.826,93.826C349.764,256.624,307.789,298.589,255.998,298.649z M255.998,128.056
		c-42.401,0-76.767,34.366-76.767,76.767s34.366,76.767,76.767,76.767s76.767-34.366,76.767-76.767
		C332.722,162.448,298.381,128.107,255.998,128.056z"/>
</g>
<g>
	<rect x="76.85" y="358.331" style="fill:#454545;" width="17.059" height="17.059"/>
	<rect x="110.968" y="358.331" style="fill:#454545;" width="17.059" height="17.059"/>
	<rect x="145.087" y="358.331" style="fill:#454545;" width="17.059" height="17.059"/>
	<rect x="179.205" y="358.331" style="fill:#454545;" width="17.059" height="17.059"/>
	<rect x="213.324" y="358.331" style="fill:#454545;" width="17.059" height="17.059"/>
	<rect x="247.442" y="358.331" style="fill:#454545;" width="17.059" height="17.059"/>
	<rect x="281.561" y="358.331" style="fill:#454545;" width="17.059" height="17.059"/>
	<rect x="315.679" y="358.331" style="fill:#454545;" width="17.059" height="17.059"/>
	<rect x="349.798" y="358.331" style="fill:#454545;" width="17.059" height="17.059"/>
	<rect x="383.917" y="358.331" style="fill:#454545;" width="17.059" height="17.059"/>
	<rect x="418.035" y="358.331" style="fill:#454545;" width="17.059" height="17.059"/>
	<rect x="179.205" y="392.449" style="fill:#454545;" width="153.533" height="17.059"/>
</g>
<g>
	<path style="fill:#D3D3D3;" d="M486.298,511.89c-14.134,0-25.589-11.455-25.589-25.589c0-14.134,11.455-25.589,25.589-25.589
		s25.589,11.455,25.589,25.589C511.887,500.435,500.431,511.89,486.298,511.89z M486.298,477.771c-4.708,0-8.53,3.821-8.53,8.53
		s3.821,8.53,8.53,8.53s8.53-3.821,8.53-8.53S491.015,477.771,486.298,477.771z"/>
	<path style="fill:#D3D3D3;" d="M255.998,511.89c-14.134,0-25.589-11.455-25.589-25.589c0-14.134,11.455-25.589,25.589-25.589
		s25.589,11.455,25.589,25.589C281.586,500.435,270.131,511.89,255.998,511.89z M255.998,477.771c-4.708,0-8.53,3.821-8.53,8.53
		s3.821,8.53,8.53,8.53c4.708,0,8.53-3.821,8.53-8.53S260.714,477.771,255.998,477.771z"/>
	<path style="fill:#D3D3D3;" d="M25.697,511.89c-14.134,0-25.589-11.455-25.589-25.589c0-14.134,11.455-25.589,25.589-25.589
		s25.589,11.455,25.589,25.589C51.286,500.435,39.831,511.89,25.697,511.89z M25.697,477.771c-4.708,0-8.53,3.821-8.53,8.53
		s3.821,8.53,8.53,8.53s8.53-3.821,8.53-8.53S30.414,477.771,25.697,477.771z"/>
	<path style="fill:#D3D3D3;" d="M486.298,51.29c-14.134,0-25.589-11.455-25.589-25.589s11.455-25.589,25.589-25.589
		s25.589,11.455,25.589,25.589S500.431,51.29,486.298,51.29z M486.298,17.171c-4.708,0-8.53,3.821-8.53,8.53s3.821,8.53,8.53,8.53
		s8.53-3.821,8.53-8.53S491.015,17.171,486.298,17.171z"/>
	<path style="fill:#D3D3D3;" d="M93.934,51.29c-14.134,0-25.589-11.455-25.589-25.589S79.801,0.112,93.934,0.112
		s25.589,11.455,25.589,25.589S108.068,51.29,93.934,51.29z M93.934,17.171c-4.708,0-8.53,3.821-8.53,8.53s3.821,8.53,8.53,8.53
		s8.53-3.821,8.53-8.53S98.651,17.171,93.934,17.171z"/>
</g>
<path d="M230.409,256.001h17.059v-8.53h17.059v8.53h17.059v-10.099c13.229-4.58,20.249-19.013,15.669-32.242
	c-1.134-3.275-2.926-6.278-5.263-8.837c9.459-10.321,8.751-26.357-1.569-35.816c-2.55-2.337-5.561-4.128-8.837-5.263v-10.099
	h-17.059v8.53h-17.059v-8.53h-17.059v8.53h-8.53v17.059h8.53v51.178h-8.53v17.059h8.53L230.409,256.001L230.409,256.001z
	 M247.468,179.234h25.589c4.708,0,8.53,3.821,8.53,8.53s-3.821,8.53-8.53,8.53h-25.589V179.234z M247.468,213.353h25.589
	c4.708,0,8.53,3.821,8.53,8.53s-3.821,8.53-8.53,8.53h-25.589V213.353z"/>
<path d="M255.998,298.649c51.818,0,93.826-42.008,93.826-93.826s-42.008-93.826-93.826-93.826s-93.826,42.008-93.826,93.826
	C162.231,256.624,204.206,298.589,255.998,298.649z M255.998,128.056c42.401,0,76.767,34.366,76.767,76.767
	s-34.366,76.767-76.767,76.767s-76.767-34.366-76.767-76.767C179.282,162.448,213.622,128.107,255.998,128.056z"/>
<rect x="76.85" y="358.331" width="17.059" height="17.059"/>
<rect x="110.968" y="358.331" width="17.059" height="17.059"/>
<rect x="145.087" y="358.331" width="17.059" height="17.059"/>
<rect x="179.205" y="358.331" width="17.059" height="17.059"/>
<rect x="213.324" y="358.331" width="17.059" height="17.059"/>
<rect x="247.442" y="358.331" width="17.059" height="17.059"/>
<rect x="281.561" y="358.331" width="17.059" height="17.059"/>
<rect x="315.679" y="358.331" width="17.059" height="17.059"/>
<rect x="349.798" y="358.331" width="17.059" height="17.059"/>
<rect x="383.917" y="358.331" width="17.059" height="17.059"/>
<rect x="418.035" y="358.331" width="17.059" height="17.059"/>
<rect x="179.205" y="392.449" width="153.533" height="17.059"/>
<path d="M462.278,34.23c4.708,13.323,19.328,20.309,32.651,15.592c13.323-4.708,20.309-19.328,15.592-32.651
	C505.814,3.848,491.194-3.138,477.87,1.579c-7.284,2.576-13.016,8.308-15.592,15.592h-95.395c-4.708,0-8.53,3.821-8.53,8.53v42.648
	h-42.648V24.131c10.184-3.6,17.017-13.212,17.059-24.019h-17.059c0,4.708-3.821,8.53-8.53,8.53s-8.53-3.821-8.53-8.53h-17.059
	c0.043,10.807,6.875,20.42,17.059,24.019v44.218h-51.178V25.701c0-4.708-3.821-8.53-8.53-8.53H117.954
	C113.331,3.907,98.83-3.104,85.567,1.519c-7.335,2.55-13.093,8.316-15.652,15.652H0.108V34.23h69.807
	c4.623,13.264,19.123,20.275,32.387,15.652c7.335-2.55,13.093-8.316,15.652-15.652h112.455v34.119H51.286
	c-4.708,0-8.53,3.821-8.53,8.53v34.119H0.108v17.059h42.648v85.296h-19.84c-4.29-8.683-13.127-14.185-22.808-14.219v17.059
	c4.708,0,8.53,3.821,8.53,8.53c0,4.708-3.821,8.53-8.53,8.53v17.059c11.924-0.026,22.245-8.274,24.898-19.9h17.75v68.237H17.168
	c-4.708,0-8.53,3.821-8.53,8.53v85.296h-8.53v17.059h17.059c4.708,0,8.53-3.821,8.53-8.53v-85.296h17.059v119.415
	c0,4.708,3.821,8.53,8.53,8.53h85.296v34.119H49.717c-4.708-13.323-19.328-20.309-32.651-15.592
	c-13.323,4.717-20.309,19.328-15.592,32.651s19.328,20.309,32.651,15.592c7.284-2.576,13.016-8.308,15.592-15.592h95.395
	c4.708,0,8.53-3.821,8.53-8.53v-42.648h93.826v18.629c-13.306,4.674-20.292,19.251-15.618,32.549
	c4.674,13.298,19.251,20.292,32.549,15.618c7.31-2.567,13.05-8.316,15.618-15.618h182.261c4.708,13.323,19.328,20.309,32.651,15.592
	c13.323-4.708,20.309-19.328,15.592-32.651c-4.708-13.323-19.328-20.309-32.651-15.592c-7.284,2.576-13.016,8.308-15.592,15.592
	H280.017c-2.585-7.225-8.265-12.905-15.49-15.49v-18.629h196.182c4.708,0,8.53-3.821,8.53-8.53v-75.342h20.471
	c4.487,8.043,12.965,13.042,22.177,13.076v-17.059c-4.708,0-8.53-3.821-8.53-8.53s3.821-8.53,8.53-8.53v-17.059
	c-12.359,0.026-22.936,8.879-25.128,21.043h-17.52V204.823c10.807-0.043,20.42-6.875,24.019-17.059h18.629v-17.059h-18.629
	c-3.6-10.184-13.212-17.017-24.019-17.059V76.878c0-4.708-3.821-8.53-8.53-8.53h-85.296V34.23
	C375.412,34.23,462.278,34.23,462.278,34.23z M486.298,17.171c4.708,0,8.53,3.821,8.53,8.53s-3.821,8.53-8.53,8.53
	s-8.53-3.821-8.53-8.53S481.589,17.171,486.298,17.171z M93.934,34.23c-4.708,0-8.53-3.821-8.53-8.53s3.821-8.53,8.53-8.53
	s8.53,3.821,8.53,8.53S98.651,34.23,93.934,34.23z M25.697,494.831c-4.708,0-8.53-3.821-8.53-8.53s3.821-8.53,8.53-8.53
	s8.53,3.821,8.53,8.53S30.414,494.831,25.697,494.831z M486.298,477.771c4.708,0,8.53,3.821,8.53,8.53s-3.821,8.53-8.53,8.53
	s-8.53-3.821-8.53-8.53S481.589,477.771,486.298,477.771z M469.238,170.704c4.708,0,8.53,3.821,8.53,8.53s-3.821,8.53-8.53,8.53
	V170.704z M255.998,494.831c-4.708,0-8.53-3.821-8.53-8.53s3.821-8.53,8.53-8.53c4.708,0,8.53,3.821,8.53,8.53
	S260.714,494.831,255.998,494.831z M452.179,426.594H59.816v-85.296h392.363V426.594z M452.179,85.408v238.83H59.816V85.408
	C59.816,85.408,452.179,85.408,452.179,85.408z"/>
<g>
</g>
<g>
</g>
<g>
</g>
<g>
</g>
<g>
</g>
<g>
</g>
<g>
</g>
<g>
</g>
<g>
</g>
<g>
</g>
<g>
</g>
<g>
</g>
<g>
</g>
<g>
</g>
<g>
</g>
</svg>
