<?xml version="1.0" encoding="iso-8859-1"?>
<!-- Generator: Adobe Illustrator 19.0.0, SVG Export Plug-In . SVG Version: 6.00 Build 0)  -->
<svg version="1.1" id="Capa_1" xmlns="http://www.w3.org/2000/svg" xmlns:xlink="http://www.w3.org/1999/xlink" x="0px" y="0px"
	 viewBox="0 0 512 512" style="enable-background:new 0 0 512 512;" xml:space="preserve">
<g>
	<circle style="fill:#EBEBEB;" cx="25.588" cy="358.317" r="17.058"/>
	<circle style="fill:#EBEBEB;" cx="93.821" cy="358.317" r="17.058"/>
	<circle style="fill:#EBEBEB;" cx="162.055" cy="358.317" r="17.058"/>
	<circle style="fill:#EBEBEB;" cx="349.698" cy="358.317" r="17.058"/>
	<path style="fill:#EBEBEB;" d="M434.99,357.327c0.546,9.408-6.636,17.476-16.035,18.022s-17.476-6.636-18.022-16.035
		c-0.546-9.382,6.602-17.434,15.975-18.014C426.316,340.763,434.393,347.919,434.99,357.327z"/>
	<circle style="fill:#EBEBEB;" cx="486.165" cy="358.317" r="17.058"/>
</g>
<rect x="179.113" y="102.44" style="fill:#E5E5E5;" width="153.526" height="204.701"/>
<g>
	<path style="fill:#B5B5B5;" d="M8.529,358.351c0,9.425,7.634,17.058,17.058,17.058s17.058-7.634,17.058-17.058
		s-7.634-17.058-17.058-17.058C16.18,341.326,8.555,348.943,8.529,358.351z M0,409.526V307.175h179.113v51.175
		c0-9.425-7.634-17.058-17.058-17.058s-17.058,7.634-17.058,17.058s7.634,17.058,17.058,17.058
		c9.408-0.026,17.033-7.651,17.058-17.058v51.175H0z M110.88,358.351c0-9.425-7.634-17.058-17.058-17.058
		s-17.058,7.634-17.058,17.058s7.634,17.058,17.058,17.058C103.229,375.384,110.854,367.758,110.88,358.351z"/>
	<path style="fill:#B5B5B5;" d="M503.223,358.351c0-9.425-7.634-17.058-17.058-17.058s-17.058,7.634-17.058,17.058
		s7.634,17.058,17.058,17.058C495.573,375.384,503.198,367.758,503.223,358.351z M332.639,358.351v-51.175h179.113v102.351H332.639
		V358.351c0,9.425,7.634,17.058,17.058,17.058s17.058-7.634,17.058-17.058s-7.634-17.058-17.058-17.058
		C340.29,341.326,332.665,348.943,332.639,358.351z M418.955,375.409c9.399-0.58,16.555-8.674,15.975-18.082
		c-0.58-9.408-8.674-16.555-18.082-15.975c-9.382,0.58-16.521,8.632-15.975,18.014C401.47,368.782,409.547,375.946,418.955,375.409z
		"/>
</g>
<polygon style="fill:#454545;" points="332.639,358.351 332.639,409.526 179.113,409.526 179.113,358.351 179.113,307.175 
	332.639,307.175 "/>
<g>
	<path style="fill:#FFD173;" d="M85.292,204.825c9.408,0.026,17.033,7.651,17.058,17.058c-0.068,9.391-7.668,16.99-17.058,17.058
		H59.704v-34.117H85.292z"/>
	<path style="fill:#FFD173;" d="M85.292,170.708c9.408,0.026,17.033,7.651,17.058,17.058c-0.068,9.391-7.668,16.99-17.058,17.058
		H59.704v-34.117H85.292z"/>
	<path style="fill:#FFD173;" d="M434.99,238.942V256l-0.426,17.058c-37.682-0.119-68.14-30.765-68.02-68.447
		c0.119-37.682,30.765-68.14,68.447-68.02h0.426l-0.426,17.058v17.058c-9.425,0-17.058,7.634-17.058,17.058
		s7.634,17.058,17.058,17.058s17.058,7.634,17.058,17.058S444.415,238.942,434.99,238.942z"/>
	<path style="fill:#FFD173;" d="M434.99,256v-17.058c9.425,0,17.058-7.634,17.058-17.058s-7.634-17.058-17.058-17.058
		s-17.058-7.634-17.058-17.058s7.634-17.058,17.058-17.058V153.65l0.426-17.058c37.682,0.119,68.14,30.765,68.02,68.447
		c-0.119,37.682-30.765,68.14-68.447,68.02h-0.426L434.99,256z"/>
	<path style="fill:#FFD173;" d="M59.704,238.942h25.588c9.391-0.068,16.99-7.668,17.058-17.058
		c-0.026-9.408-7.651-17.033-17.058-17.058c9.391-0.068,16.99-7.668,17.058-17.058c-0.026-9.408-7.651-17.033-17.058-17.058H59.704
		V238.942z M76.763,273.059c-37.682,0-68.234-30.552-68.234-68.234s30.552-68.234,68.234-68.234s68.234,30.552,68.234,68.234
		S114.445,273.059,76.763,273.059z"/>
</g>
<g>
	<rect x="204.701" y="196.262" style="fill:#168DE2;" width="89.557" height="17.058"/>
	<path style="fill:#168DE2;" d="M274.163,244.648l-12.683-11.412l25.588-28.411l-25.588-28.411l12.683-11.412l30.705,34.117
		c2.917,3.241,2.917,8.171,0,11.412L274.163,244.648z"/>
</g>
<g>
	<path style="fill:#FE7C26;" d="M76.763,281.588C34.364,281.588,0,247.224,0,204.825s34.364-76.763,76.763-76.763
		s76.763,34.364,76.763,76.763C153.475,247.207,119.136,281.545,76.763,281.588z M76.763,145.12
		c-32.974,0-59.704,26.731-59.704,59.704s26.731,59.704,59.704,59.704s59.704-26.731,59.704-59.704
		C136.433,171.868,109.72,145.163,76.763,145.12z"/>
	<path style="fill:#FE7C26;" d="M434.99,281.588c-42.399,0-76.763-34.364-76.763-76.763s34.364-76.763,76.763-76.763h0.486
		c42.399,0.136,76.652,34.612,76.524,77.002S477.388,281.724,434.99,281.588L434.99,281.588z M434.99,145.12
		c-32.863,0.111-59.423,26.841-59.312,59.704s26.841,59.423,59.704,59.312s59.423-26.841,59.312-59.704
		c-0.111-32.71-26.603-59.201-59.312-59.312H434.99z"/>
	<path style="fill:#FE7C26;" d="M434.99,247.471c-14.099-0.068-25.519-11.489-25.588-25.588h17.058
		c-0.017,2.226,0.87,4.358,2.448,5.919c3.258,3.352,8.623,3.437,11.975,0.179c0.009-0.009,0.017-0.017,0.026-0.026
		c1.672-1.578,2.61-3.77,2.61-6.073c0.017-2.226-0.87-4.358-2.448-5.919c-1.578-1.672-3.778-2.618-6.081-2.61
		c-14.133,0-25.588-11.455-25.588-25.588s11.455-25.588,25.588-25.588c14.133,0,25.588,11.455,25.588,25.588h-17.058
		c0-4.708-3.821-8.529-8.529-8.529c-2.226-0.026-4.367,0.861-5.919,2.456c-1.672,1.578-2.61,3.778-2.61,6.073
		c-0.017,2.226,0.87,4.358,2.448,5.919c1.578,1.672,3.778,2.618,6.081,2.61c14.133,0,25.588,11.455,25.588,25.588
		C460.577,236.016,449.123,247.471,434.99,247.471z"/>
	<rect x="426.461" y="153.616" style="fill:#FE7C26;" width="17.058" height="17.058"/>
	<rect x="426.461" y="238.908" style="fill:#FE7C26;" width="17.058" height="17.058"/>
	<path style="fill:#FE7C26;" d="M85.292,213.354v-17.058c2.226,0.026,4.367-0.861,5.919-2.456c1.672-1.578,2.61-3.77,2.61-6.073
		c0-4.708-3.821-8.529-8.529-8.529H68.234v25.588H51.175v-34.117c0-4.708,3.821-8.529,8.529-8.529h25.588
		c14.133,0,25.588,11.455,25.588,25.588C110.803,201.865,99.391,213.277,85.292,213.354z"/>
	<path style="fill:#FE7C26;" d="M85.292,247.471H59.704c-4.708,0-8.529-3.821-8.529-8.529v-34.117c0-4.708,3.821-8.529,8.529-8.529
		h25.588c14.133,0,25.588,11.455,25.588,25.588C110.803,235.982,99.391,247.394,85.292,247.471z M68.234,230.413h17.058
		c2.226,0.026,4.367-0.861,5.919-2.456c1.672-1.578,2.61-3.77,2.61-6.073c0-4.708-3.821-8.529-8.529-8.529H68.234V230.413z"/>
	<rect x="42.646" y="230.378" style="fill:#FE7C26;" width="17.058" height="17.058"/>
	<rect x="42.646" y="162.145" style="fill:#FE7C26;" width="17.058" height="17.058"/>
</g>
<g>
	<rect x="213.23" y="128.028" style="fill:#454545;" width="17.058" height="17.058"/>
	<rect x="247.347" y="128.028" style="fill:#454545;" width="17.058" height="17.058"/>
	<rect x="281.464" y="128.028" style="fill:#454545;" width="17.058" height="17.058"/>
	<rect x="213.23" y="264.495" style="fill:#454545;" width="17.058" height="17.058"/>
	<rect x="247.347" y="264.495" style="fill:#454545;" width="17.058" height="17.058"/>
	<rect x="281.464" y="264.495" style="fill:#454545;" width="17.058" height="17.058"/>
</g>
<path d="M274.163,165.002l-12.683,11.412l17.894,19.882h-74.673v17.058h74.673l-17.911,19.882l12.683,11.412l30.705-34.117
	c2.917-3.241,2.917-8.171,0-11.412L274.163,165.002z"/>
<path d="M51.175,358.351c0-14.133-11.455-25.588-25.588-25.588S0,344.218,0,358.351c0,14.133,11.455,25.588,25.588,25.588
	S51.175,372.484,51.175,358.351z M17.058,358.351c0-4.708,3.821-8.529,8.529-8.529s8.529,3.821,8.529,8.529
	s-3.821,8.529-8.529,8.529S17.058,363.067,17.058,358.351z"/>
<path d="M119.409,358.351c0-14.133-11.455-25.588-25.588-25.588s-25.588,11.455-25.588,25.588c0,14.133,11.455,25.588,25.588,25.588
	S119.409,372.484,119.409,358.351z M85.292,358.351c0-4.708,3.821-8.529,8.529-8.529c4.708,0,8.529,3.821,8.529,8.529
	s-3.821,8.529-8.529,8.529C89.113,366.88,85.292,363.067,85.292,358.351z"/>
<path d="M398.809,341.352c-9.391,10.559-8.435,26.739,2.124,36.121c4.683,4.162,10.73,6.465,16.999,6.465
	c0.512,0,1.015,0,1.535-0.043c14.107-0.827,24.871-12.939,24.044-27.046c-0.827-14.107-12.939-24.871-27.046-24.044
	c-6.772,0.401-13.118,3.471-17.621,8.546L398.809,341.352L398.809,341.352z M417.931,349.822c4.52-0.009,8.265,3.514,8.529,8.026
	l0,0c0.145,2.26-0.631,4.486-2.141,6.175c-3.113,3.531-8.504,3.881-12.035,0.768c-1.714-1.51-2.755-3.651-2.883-5.936
	c-0.145-2.26,0.631-4.486,2.141-6.175c1.501-1.697,3.625-2.721,5.885-2.857L417.931,349.822L417.931,349.822z"/>
<path d="M460.577,358.351c0,14.133,11.455,25.588,25.588,25.588c14.133,0,25.588-11.455,25.588-25.588
	c0-14.133-11.455-25.588-25.588-25.588C472.032,332.763,460.577,344.218,460.577,358.351z M494.694,358.351
	c0,4.708-3.821,8.529-8.529,8.529c-4.708,0-8.529-3.821-8.529-8.529s3.821-8.529,8.529-8.529
	C490.873,349.822,494.694,353.643,494.694,358.351z"/>
<path d="M332.639,418.055h179.113v-17.058H341.168v-18.628c2.729,1.006,5.621,1.544,8.529,1.569
	c14.133,0,25.588-11.455,25.588-25.588c0-14.133-11.455-25.588-25.588-25.588c-2.908,0.026-5.8,0.563-8.529,1.569v-18.628h170.584
	v-17.058H341.168V102.474c0-4.708-3.821-8.529-8.529-8.529H179.113c-4.708,0-8.529,3.821-8.529,8.529v196.172H0v17.058h170.584
	v18.628c-2.729-1.006-5.621-1.544-8.529-1.569c-14.133,0-25.588,11.455-25.588,25.588c0,14.133,11.455,25.588,25.588,25.588
	c2.908-0.026,5.8-0.563,8.529-1.569v18.628H0v17.058H332.639z M349.698,349.822c4.708,0,8.529,3.821,8.529,8.529
	s-3.821,8.529-8.529,8.529c-4.708,0-8.529-3.821-8.529-8.529S344.99,349.822,349.698,349.822z M187.643,111.004H324.11v187.643
	H187.643V111.004z M187.643,315.705H324.11v85.292H187.643V315.705z M162.055,366.88c-4.708,0-8.529-3.821-8.529-8.529
	s3.821-8.529,8.529-8.529s8.529,3.821,8.529,8.529S166.763,366.88,162.055,366.88z"/>
<path d="M76.763,281.588c42.399,0,76.763-34.364,76.763-76.763s-34.364-76.763-76.763-76.763S0,162.426,0,204.825
	C0.051,247.207,34.39,281.545,76.763,281.588z M76.763,145.12c32.974,0,59.704,26.731,59.704,59.704s-26.731,59.704-59.704,59.704
	s-59.704-26.731-59.704-59.704C17.093,171.868,43.806,145.163,76.763,145.12z"/>
<path d="M434.99,281.588c42.399,0,76.763-34.364,76.763-76.763s-34.364-76.763-76.763-76.763s-76.763,34.364-76.763,76.763
	C358.278,247.207,392.617,281.545,434.99,281.588z M434.99,145.12c32.974,0,59.704,26.731,59.704,59.704
	s-26.731,59.704-59.704,59.704s-59.704-26.731-59.704-59.704C375.319,171.868,402.033,145.163,434.99,145.12z"/>
<path d="M434.99,230.413c-4.708,0-8.529-3.821-8.529-8.529h-17.058c0.043,10.807,6.875,20.419,17.058,24.018V256h17.058v-10.099
	c13.297-4.683,20.282-19.259,15.6-32.556c-3.608-10.235-13.28-17.067-24.129-17.05c-4.708,0-8.529-3.821-8.529-8.529
	s3.821-8.529,8.529-8.529c4.708,0,8.529,3.821,8.529,8.529h17.058c-0.043-10.807-6.875-20.419-17.058-24.018V153.65h-17.058v10.099
	c-13.297,4.683-20.282,19.259-15.6,32.556c3.608,10.235,13.28,17.067,24.129,17.05c4.708,0,8.529,3.821,8.529,8.529
	C443.519,226.591,439.698,230.413,434.99,230.413z"/>
<path d="M85.292,247.471c14.073,0.06,25.528-11.293,25.588-25.366c0.026-6.388-2.346-12.564-6.653-17.28
	c9.484-10.397,8.742-26.509-1.655-35.993c-4.725-4.307-10.892-6.687-17.28-6.653H42.646v17.058h8.529v51.175h-8.529v17.058H85.292z
	 M68.234,179.237h17.058c4.708,0,8.529,3.821,8.529,8.529s-3.821,8.529-8.529,8.529H68.234V179.237z M68.234,213.354h17.058
	c4.708,0,8.529,3.821,8.529,8.529c0,4.708-3.821,8.529-8.529,8.529H68.234V213.354z"/>
<rect x="213.23" y="128.028" width="17.058" height="17.058"/>
<rect x="247.347" y="128.028" width="17.058" height="17.058"/>
<rect x="281.464" y="128.028" width="17.058" height="17.058"/>
<rect x="213.23" y="264.495" width="17.058" height="17.058"/>
<rect x="247.347" y="264.495" width="17.058" height="17.058"/>
<rect x="281.464" y="264.495" width="17.058" height="17.058"/>
<g>
</g>
<g>
</g>
<g>
</g>
<g>
</g>
<g>
</g>
<g>
</g>
<g>
</g>
<g>
</g>
<g>
</g>
<g>
</g>
<g>
</g>
<g>
</g>
<g>
</g>
<g>
</g>
<g>
</g>
</svg>
