<?xml version="1.0" encoding="iso-8859-1"?>
<!-- Generator: Adobe Illustrator 19.0.0, SVG Export Plug-In . SVG Version: 6.00 Build 0)  -->
<svg version="1.1" id="Capa_1" xmlns="http://www.w3.org/2000/svg" xmlns:xlink="http://www.w3.org/1999/xlink" x="0px" y="0px"
	 viewBox="0 0 512 512" style="enable-background:new 0 0 512 512;" xml:space="preserve">
<path style="fill:#5B5B5B;" d="M230.4,426.667v42.667h51.2V342.955c24.491-14.14,32.879-45.449,18.739-69.939
	s-45.449-32.879-69.939-18.739s-32.879,45.449-18.739,69.939c4.497,7.782,10.957,14.251,18.739,18.739V426.667z M102.4,435.2
	V213.333h307.2v290.133H102.4V435.2z"/>
<g>
	<path style="fill:#B3B3B3;" d="M366.933,119.467v93.867h-42.667v-93.867c0-37.7-30.566-68.267-68.267-68.267
		s-68.267,30.566-68.267,68.267v93.867h-42.667v-93.867C145.067,58.197,194.731,8.533,256,8.533S366.933,58.197,366.933,119.467z"/>
	<path style="fill:#B3B3B3;" d="M307.2,298.667c-0.017,18.27-9.771,35.149-25.6,44.288V358.4h-51.2v-15.445
		c-24.491-14.14-32.879-45.449-18.739-69.939s45.449-32.879,69.939-18.739C297.455,263.433,307.217,280.354,307.2,298.667z"/>
	<rect x="230.4" y="426.667" style="fill:#B3B3B3;" width="51.2" height="42.667"/>
	<polygon style="fill:#B3B3B3;" points="230.4,392.533 230.4,358.4 281.6,358.4 281.6,426.667 230.4,426.667 	"/>
</g>
<g>
	<rect x="162.133" y="281.6" style="fill:#EBEBEB;" width="17.067" height="17.067"/>
	<rect x="136.533" y="392.533" style="fill:#EBEBEB;" width="51.2" height="17.067"/>
	<rect x="196.267" y="349.867" style="fill:#EBEBEB;" width="85.333" height="17.067"/>
	<rect x="179.2" y="418.133" style="fill:#EBEBEB;" width="102.4" height="17.067"/>
	<rect x="230.4" y="307.2" style="fill:#EBEBEB;" width="68.267" height="17.067"/>
	<rect x="247.467" y="273.067" style="fill:#EBEBEB;" width="34.133" height="17.067"/>
	<rect x="68.267" y="281.6" style="fill:#EBEBEB;" width="76.8" height="17.067"/>
	<rect x="162.133" y="324.267" style="fill:#EBEBEB;" width="34.133" height="17.067"/>
	<rect x="128" y="332.8" style="fill:#EBEBEB;" width="17.067" height="17.067"/>
	<rect x="76.8" y="426.667" style="fill:#EBEBEB;" width="68.267" height="17.067"/>
	<rect x="179.2" y="460.8" style="fill:#EBEBEB;" width="51.2" height="17.067"/>
	<rect y="418.133" style="fill:#EBEBEB;" width="25.6" height="17.067"/>
	<rect y="358.4" style="fill:#EBEBEB;" width="34.133" height="17.067"/>
	<rect x="51.2" y="238.933" style="fill:#EBEBEB;" width="34.133" height="17.067"/>
	<rect x="17.067" y="315.733" style="fill:#EBEBEB;" width="51.2" height="17.067"/>
	<rect y="281.6" style="fill:#EBEBEB;" width="17.067" height="17.067"/>
	<rect x="187.733" y="238.933" style="fill:#EBEBEB;" width="68.267" height="17.067"/>
	<rect y="247.467" style="fill:#EBEBEB;" width="17.067" height="17.067"/>
	<rect x="59.733" y="460.8" style="fill:#EBEBEB;" width="42.667" height="17.067"/>
	<rect x="25.6" y="460.8" style="fill:#EBEBEB;" width="17.067" height="17.067"/>
	<rect x="51.2" y="358.4" style="fill:#EBEBEB;" width="17.067" height="17.067"/>
	<rect x="85.333" y="358.4" style="fill:#EBEBEB;" width="76.8" height="17.067"/>
	<rect x="42.667" y="392.533" style="fill:#EBEBEB;" width="34.133" height="17.067"/>
	<rect x="204.8" y="384" style="fill:#EBEBEB;" width="51.2" height="17.067"/>
	<rect x="477.867" y="273.067" style="fill:#EBEBEB;" width="34.133" height="17.067"/>
	<rect x="477.867" y="418.133" style="fill:#EBEBEB;" width="34.133" height="17.067"/>
	<rect x="409.6" y="392.533" style="fill:#EBEBEB;" width="17.067" height="17.067"/>
	<rect x="409.6" y="349.867" style="fill:#EBEBEB;" width="34.133" height="17.067"/>
	<rect x="477.867" y="238.933" style="fill:#EBEBEB;" width="17.067" height="17.067"/>
	<rect x="426.667" y="307.2" style="fill:#EBEBEB;" width="51.2" height="17.067"/>
	<rect x="409.6" y="273.067" style="fill:#EBEBEB;" width="42.667" height="17.067"/>
	<rect x="435.2" y="238.933" style="fill:#EBEBEB;" width="42.667" height="17.067"/>
	<rect x="409.6" y="238.933" style="fill:#EBEBEB;" width="17.067" height="17.067"/>
	<rect x="469.333" y="452.267" style="fill:#EBEBEB;" width="42.667" height="17.067"/>
	<rect x="435.2" y="452.267" style="fill:#EBEBEB;" width="17.067" height="17.067"/>
	<rect x="460.8" y="349.867" style="fill:#EBEBEB;" width="51.2" height="17.067"/>
	<rect x="452.267" y="384" style="fill:#EBEBEB;" width="34.133" height="17.067"/>
	<rect x="443.733" y="418.133" style="fill:#EBEBEB;" width="17.067" height="17.067"/>
	<rect x="128" y="247.467" style="fill:#EBEBEB;" width="25.6" height="17.067"/>
</g>
<path d="M418.133,503.467V409.6h8.533v-17.067h-8.533v-25.6h25.6v-17.067h-25.6v-59.733h34.133v-17.067h-34.133V256h8.533v-17.067
	h-8.533v-25.6c0-4.71-3.823-8.533-8.533-8.533h-34.133v-85.333C375.467,53.487,321.98,0,256,0S136.533,53.487,136.533,119.467V204.8
	H102.4c-4.71,0-8.533,3.823-8.533,8.533V281.6h-25.6v17.067h25.6V358.4h-8.533v17.067h8.533v51.2H76.8v17.067h17.067V460.8H59.733
	v17.067h34.133v25.6c0,4.71,3.823,8.533,8.533,8.533h307.2C414.31,512,418.133,508.177,418.133,503.467z M153.6,119.467
	c0-56.55,45.85-102.4,102.4-102.4s102.4,45.85,102.4,102.4V204.8h-25.6v-85.333c0-42.419-34.381-76.8-76.8-76.8
	s-76.8,34.381-76.8,76.8V204.8h-25.6V119.467z M315.733,119.467V204.8H196.267v-85.333c0-32.99,26.743-59.733,59.733-59.733
	S315.733,86.477,315.733,119.467z M401.067,494.933H110.933v-51.2h34.133v-17.067h-34.133v-51.2h51.2V358.4h-51.2v-59.733h34.133
	V281.6h-34.133v-59.733h290.133V494.933z"/>
<path d="M196.267,298.667c0.051,19.516,9.6,37.786,25.6,48.964v2.236h-25.6v17.067h25.6V384H204.8v17.067h17.067v17.067H179.2V435.2
	h42.667v25.6H179.2v17.067h102.4c4.71,0,8.533-3.823,8.533-8.533V347.631c27.042-18.893,33.647-56.132,14.754-83.174
	c-11.162-15.974-29.406-25.498-48.887-25.523h-68.267V256h26.547C202.761,267.204,196.267,282.598,196.267,298.667z M273.067,460.8
	h-34.133v-25.6h34.133V460.8z M273.067,418.133h-34.133v-17.067H256V384h-17.067v-17.067h34.133V418.133z M256,256
	c23.322-0.247,42.419,18.458,42.667,41.779c0.034,3.166-0.29,6.332-0.964,9.421H230.4v17.067h59.648
	c-3.439,4.582-7.765,8.431-12.715,11.315c-2.637,1.519-4.267,4.335-4.267,7.381v6.903h-34.133v-6.903
	c0-3.046-1.63-5.862-4.267-7.381c-20.386-11.819-27.341-37.922-15.522-58.308C226.765,264.124,240.802,256.026,256,256z"/>
<rect x="162.133" y="281.6" width="17.067" height="17.067"/>
<rect x="136.533" y="392.533" width="51.2" height="17.067"/>
<rect x="247.467" y="273.067" width="34.133" height="17.067"/>
<rect x="162.133" y="324.267" width="34.133" height="17.067"/>
<rect x="128" y="332.8" width="17.067" height="17.067"/>
<rect y="418.133" width="25.6" height="17.067"/>
<rect y="358.4" width="34.133" height="17.067"/>
<rect x="51.2" y="238.933" width="34.133" height="17.067"/>
<rect x="17.067" y="315.733" width="51.2" height="17.067"/>
<rect y="281.6" width="17.067" height="17.067"/>
<rect y="247.467" width="17.067" height="17.067"/>
<rect x="25.6" y="460.8" width="17.067" height="17.067"/>
<rect x="51.2" y="358.4" width="17.067" height="17.067"/>
<rect x="42.667" y="392.533" width="34.133" height="17.067"/>
<rect x="477.867" y="273.067" width="34.133" height="17.067"/>
<rect x="477.867" y="418.133" width="34.133" height="17.067"/>
<polygon points="494.933,256 494.933,238.933 477.867,238.933 460.8,238.933 435.2,238.933 435.2,256 460.8,256 477.867,256 "/>
<rect x="426.667" y="307.2" width="51.2" height="17.067"/>
<rect x="469.333" y="452.267" width="42.667" height="17.067"/>
<rect x="435.2" y="452.267" width="17.067" height="17.067"/>
<rect x="460.8" y="349.867" width="51.2" height="17.067"/>
<rect x="452.267" y="384" width="34.133" height="17.067"/>
<rect x="443.733" y="418.133" width="17.067" height="17.067"/>
<rect x="128" y="247.467" width="25.6" height="17.067"/>
<g>
</g>
<g>
</g>
<g>
</g>
<g>
</g>
<g>
</g>
<g>
</g>
<g>
</g>
<g>
</g>
<g>
</g>
<g>
</g>
<g>
</g>
<g>
</g>
<g>
</g>
<g>
</g>
<g>
</g>
</svg>
