<?xml version="1.0" encoding="iso-8859-1"?>
<!-- Generator: Adobe Illustrator 19.0.0, SVG Export Plug-In . SVG Version: 6.00 Build 0)  -->
<svg version="1.1" id="Capa_1" xmlns="http://www.w3.org/2000/svg" xmlns:xlink="http://www.w3.org/1999/xlink" x="0px" y="0px"
	 viewBox="0 0 512.002 512.002" style="enable-background:new 0 0 512.002 512.002;" xml:space="preserve">
<path style="fill:#FE7C26;" d="M375.468,166.562c0,65.98-53.487,119.467-119.467,119.467s-119.467-53.487-119.467-119.467
	S190.022,47.095,256.002,47.095c65.476-0.503,118.963,52.173,119.467,117.649C375.477,165.35,375.477,165.956,375.468,166.562z
	 M341.335,166.562c0-47.13-38.204-85.333-85.333-85.333s-85.333,38.204-85.333,85.333s38.204,85.333,85.333,85.333
	S341.335,213.683,341.335,166.562z"/>
<g>
	<path style="fill:#FFD173;" d="M273.068,132.429c9.412,0.026,17.041,7.654,17.067,17.067c-0.068,9.395-7.671,16.998-17.067,17.067
		h-34.133v-34.133C238.935,132.429,273.068,132.429,273.068,132.429z"/>
	<path style="fill:#FFD173;" d="M273.068,166.562c9.412,0.026,17.041,7.654,17.067,17.067c-0.068,9.395-7.671,16.998-17.067,17.067
		h-34.133v-34.133H273.068z"/>
	<path style="fill:#FFD173;" d="M273.068,200.695c9.395-0.068,16.998-7.671,17.067-17.067c-0.026-9.412-7.654-17.041-17.067-17.067
		c9.395-0.068,16.998-7.671,17.067-17.067c-0.026-9.412-7.654-17.041-17.067-17.067h-34.133v68.267H273.068z M256.002,81.229
		c47.13,0,85.333,38.204,85.333,85.333s-38.204,85.333-85.333,85.333s-85.333-38.204-85.333-85.333S208.872,81.229,256.002,81.229z"
		/>
</g>
<g>
	<path style="fill:#168DE2;" d="M85.335,379.895h-76.8l145.067-145.067l3.328-1.536c22.195,32.964,59.332,52.727,99.072,52.736
		v8.533L85.335,465.229V379.895z"/>
	<path style="fill:#168DE2;" d="M418.135,379.895v76.8L256.002,294.562v-8.533c39.74-0.009,76.877-19.772,99.072-52.736l3.328,1.536
		l145.067,145.067H418.135z"/>
</g>
<g>
	<path style="fill:#FE7C26;" d="M273.068,175.095v-17.067c2.227,0.026,4.369-0.862,5.922-2.458c1.673-1.579,2.611-3.78,2.611-6.076
		c0-4.71-3.823-8.533-8.533-8.533h-25.6v25.6h-17.067v-34.133c0-4.71,3.823-8.533,8.533-8.533h34.133c14.14,0,25.6,11.46,25.6,25.6
		C298.591,163.601,287.174,175.01,273.068,175.095z"/>
	<path style="fill:#FE7C26;" d="M273.068,209.229h-34.133c-4.71,0-8.533-3.823-8.533-8.533v-34.133c0-4.71,3.823-8.533,8.533-8.533
		h34.133c14.14,0,25.6,11.46,25.6,25.6C298.591,197.734,287.174,209.143,273.068,209.229z M247.468,192.162h25.6
		c2.227,0.026,4.369-0.862,5.922-2.458c1.673-1.579,2.611-3.78,2.611-6.076c0-4.71-3.823-8.533-8.533-8.533h-25.6V192.162z"/>
	<path style="fill:#FE7C26;" d="M247.468,217.762h-17.067v-8.533h-8.533v-17.067h17.067c4.71,0,8.533,3.823,8.533,8.533V217.762z"/>
	<path style="fill:#FE7C26;" d="M238.935,140.962h-17.067v-17.067h8.533v-8.533h17.067v17.067
		C247.468,137.139,243.645,140.962,238.935,140.962z"/>
	<rect x="264.535" y="115.362" style="fill:#FE7C26;" width="17.067" height="17.067"/>
	<rect x="264.535" y="200.695" style="fill:#FE7C26;" width="17.067" height="17.067"/>
</g>
<g>
	
		<rect x="358.394" y="280.427" transform="matrix(-0.7071 0.7071 -0.7071 -0.7071 858.8093 301.6682)" style="fill:#002874;" width="17.067" height="96.545"/>
	
		<rect x="88.257" y="320.164" transform="matrix(-0.7071 0.7071 -0.7071 -0.7071 465.4945 464.5794)" style="fill:#002874;" width="96.545" height="17.067"/>
</g>
<path d="M230.402,217.762h17.067v-8.533h17.067v8.533h17.067v-10.103c13.235-4.582,20.258-19.021,15.676-32.256
	c-1.135-3.277-2.927-6.281-5.265-8.841c9.464-10.325,8.755-26.368-1.57-35.831c-2.551-2.338-5.564-4.13-8.841-5.265v-10.103h-17.067
	v8.533h-17.067v-8.533h-17.067v8.533h-8.533v17.067h8.533v51.2h-8.533v17.067h8.533L230.402,217.762L230.402,217.762z
	 M247.468,140.962h25.6c4.71,0,8.533,3.823,8.533,8.533c0,4.71-3.823,8.533-8.533,8.533h-25.6V140.962z M247.468,175.095h25.6
	c4.71,0,8.533,3.823,8.533,8.533s-3.823,8.533-8.533,8.533h-25.6V175.095z"/>
<path d="M256.002,260.429c51.84,0,93.867-42.027,93.867-93.867s-42.027-93.867-93.867-93.867s-93.867,42.027-93.867,93.867
	C162.195,218.376,204.187,260.36,256.002,260.429z M256.002,89.762c42.419,0,76.8,34.381,76.8,76.8s-34.381,76.8-76.8,76.8
	s-76.8-34.381-76.8-76.8C179.253,124.16,213.608,89.805,256.002,89.762z"/>
<path d="M0.65,383.163c1.323,3.191,4.437,5.265,7.885,5.265h68.267v76.8c0,4.71,3.823,8.533,8.533,8.533
	c2.261,0,4.429-0.896,6.033-2.5l164.634-164.634l156.1,156.1c3.337,3.328,8.738,3.328,12.066,0c1.604-1.604,2.5-3.772,2.5-6.033
	v-68.267h76.8c4.71,0,8.533-3.823,8.533-8.533c0-2.261-0.896-4.429-2.5-6.033L366.5,230.861
	c35.678-61.03,15.121-139.426-45.909-175.104s-139.426-15.121-175.104,45.909c-23.322,39.902-23.322,89.284,0,129.186L2.502,373.862
	C0.061,376.303-0.673,379.972,0.65,383.163z M482.869,371.362h-64.734c-4.71,0-8.533,3.823-8.533,8.533v56.201L267.487,293.982
	c35.217-3.2,67.533-20.847,89.267-48.734L482.869,371.362z M145.068,166.562c0-61.269,49.664-110.933,110.933-110.933
	s110.933,49.664,110.933,110.933s-49.664,110.933-110.933,110.933C194.766,277.418,145.137,227.797,145.068,166.562z
	 M155.249,245.248c21.734,27.887,54.05,45.534,89.267,48.734L93.868,444.629v-64.734c0-4.71-3.823-8.533-8.533-8.533H29.134
	L155.249,245.248z"/>
<rect x="358.394" y="280.427" transform="matrix(-0.7071 0.7071 -0.7071 -0.7071 858.8093 301.6682)" width="17.067" height="96.545"/>
<rect x="88.257" y="320.164" transform="matrix(-0.7071 0.7071 -0.7071 -0.7071 465.4945 464.5794)" width="96.545" height="17.067"/>
<g>
</g>
<g>
</g>
<g>
</g>
<g>
</g>
<g>
</g>
<g>
</g>
<g>
</g>
<g>
</g>
<g>
</g>
<g>
</g>
<g>
</g>
<g>
</g>
<g>
</g>
<g>
</g>
<g>
</g>
</svg>
