<?xml version="1.0" encoding="iso-8859-1"?>
<!-- Generator: Adobe Illustrator 19.0.0, SVG Export Plug-In . SVG Version: 6.00 Build 0)  -->
<svg version="1.1" id="Capa_1" xmlns="http://www.w3.org/2000/svg" xmlns:xlink="http://www.w3.org/1999/xlink" x="0px" y="0px"
	 viewBox="0 0 512 512" style="enable-background:new 0 0 512 512;" xml:space="preserve">
<path style="fill:#454545;" d="M443.733,8.533v460.8H68.267V8.533H443.733z M392.533,426.667V51.2H119.467v68.267H102.4v42.667
	h17.067v136.533H102.4v42.667h17.067v85.333H392.533z"/>
<g>
	<rect x="366.933" y="469.333" style="fill:#B5B5B5;" width="42.667" height="34.133"/>
	<path style="fill:#B5B5B5;" d="M392.533,51.2v375.467H119.467v-85.333h17.067v-42.667h-17.067V162.133h17.067v-42.667h-17.067V51.2
		H392.533z M341.333,238.933c0-47.13-38.204-85.333-85.333-85.333s-85.333,38.204-85.333,85.333S208.87,324.267,256,324.267
		S341.333,286.063,341.333,238.933z"/>
</g>
<g>
	<path style="fill:#FFD173;" d="M273.067,273.067c9.395-0.068,16.998-7.671,17.067-17.067c-0.026-9.412-7.654-17.041-17.067-17.067
		c9.395-0.068,16.998-7.671,17.067-17.067c-0.026-9.412-7.654-17.041-17.067-17.067h-34.133v68.267H273.067z M256,153.6
		c47.13,0,85.333,38.204,85.333,85.333S303.13,324.267,256,324.267s-85.333-38.204-85.333-85.333S208.87,153.6,256,153.6z"/>
	<path style="fill:#FFD173;" d="M273.067,204.8c9.412,0.026,17.041,7.654,17.067,17.067c-0.068,9.395-7.671,16.998-17.067,17.067
		h-34.133V204.8H273.067z"/>
	<path style="fill:#FFD173;" d="M273.067,238.933c9.412,0.026,17.041,7.654,17.067,17.067c-0.068,9.395-7.671,16.998-17.067,17.067
		h-34.133v-34.133H273.067z"/>
</g>
<rect x="102.4" y="469.333" style="fill:#B5B5B5;" width="42.667" height="34.133"/>
<g>
	<polygon style="fill:#D3D3D3;" points="136.533,298.667 136.533,341.333 119.467,341.333 102.4,341.333 102.4,298.667 
		119.467,298.667 	"/>
	<polygon style="fill:#D3D3D3;" points="136.533,119.467 136.533,162.133 119.467,162.133 102.4,162.133 102.4,119.467 
		119.467,119.467 	"/>
</g>
<g>
	<path style="fill:#454545;" d="M145.067,512H102.4c-4.71,0-8.533-3.823-8.533-8.533v-34.133c0-4.71,3.823-8.533,8.533-8.533h42.667
		c4.71,0,8.533,3.823,8.533,8.533v34.133C153.6,508.177,149.777,512,145.067,512z M110.933,494.933h25.6v-17.067h-25.6V494.933z"/>
	<path style="fill:#454545;" d="M409.6,512h-42.667c-4.71,0-8.533-3.823-8.533-8.533v-34.133c0-4.71,3.823-8.533,8.533-8.533H409.6
		c4.71,0,8.533,3.823,8.533,8.533v34.133C418.133,508.177,414.31,512,409.6,512z M375.467,494.933h25.6v-17.067h-25.6V494.933z"/>
</g>
<g>
	<path style="fill:#FE7C26;" d="M298.667,221.867c-0.043-10.812-6.878-20.429-17.067-24.03v-10.103h-17.067v8.533h-17.067v-8.533
		H230.4v8.533h-8.533v17.067h8.533v51.2h-8.533V281.6h8.533v8.533h17.067V281.6h17.067v8.533H281.6v-10.078
		c3.567-1.212,6.801-3.234,9.455-5.914c4.898-4.762,7.646-11.315,7.612-18.142c-0.026-6.323-2.406-12.407-6.682-17.067
		C296.286,234.291,298.675,228.198,298.667,221.867z M247.467,213.333h25.6c4.71,0,8.533,3.823,8.533,8.533
		c0.009,2.304-0.939,4.506-2.611,6.084c-1.562,1.579-3.695,2.466-5.922,2.449h-25.6V213.333z M278.989,262.084
		c-1.562,1.579-3.695,2.466-5.922,2.449h-25.6v-17.067h25.6c4.71,0,8.533,3.823,8.533,8.533
		C281.609,258.304,280.661,260.506,278.989,262.084z"/>
	<path style="fill:#FE7C26;" d="M256,332.8c-51.84,0-93.867-42.027-93.867-93.867S204.16,145.067,256,145.067
		s93.867,42.027,93.867,93.867C349.807,290.748,307.814,332.74,256,332.8z M256,162.133c-42.419,0-76.8,34.381-76.8,76.8
		s34.381,76.8,76.8,76.8s76.8-34.381,76.8-76.8C332.749,196.54,298.394,162.185,256,162.133z"/>
</g>
<path d="M443.733,0H68.267c-4.71,0-8.533,3.823-8.533,8.533v460.8c0,4.71,3.823,8.533,8.533,8.533h25.6v25.6
	c0,4.71,3.823,8.533,8.533,8.533h42.667c4.71,0,8.533-3.823,8.533-8.533v-25.6h204.8v25.6c0,4.71,3.823,8.533,8.533,8.533H409.6
	c4.71,0,8.533-3.823,8.533-8.533v-25.6h25.6c4.71,0,8.533-3.823,8.533-8.533V8.533C452.267,3.823,448.444,0,443.733,0z
	 M136.533,494.933h-25.6v-17.067h25.6V494.933z M401.067,494.933h-25.6v-17.067h25.6V494.933z M435.2,460.8H76.8V17.067h358.4V460.8
	z"/>
<path d="M102.4,349.867h8.533v76.8c0,4.71,3.823,8.533,8.533,8.533h273.067c4.71,0,8.533-3.823,8.533-8.533V51.2
	c0-4.71-3.823-8.533-8.533-8.533H119.467c-4.71,0-8.533,3.823-8.533,8.533v59.733H102.4c-4.71,0-8.533,3.823-8.533,8.533v42.667
	c0,4.71,3.823,8.533,8.533,8.533h8.533v119.467H102.4c-4.71,0-8.533,3.823-8.533,8.533v42.667
	C93.867,346.044,97.69,349.867,102.4,349.867z M128,59.733h256v358.4H128v-68.267h8.533c4.71,0,8.533-3.823,8.533-8.533v-42.667
	c0-4.71-3.823-8.533-8.533-8.533H128V170.667h8.533c4.71,0,8.533-3.823,8.533-8.533v-42.667c0-4.71-3.823-8.533-8.533-8.533H128
	V59.733z M110.933,128H128v25.6h-17.067V128z M110.933,307.2H128v25.6h-17.067V307.2z"/>
<path d="M230.4,290.133h17.067V281.6h17.067v8.533H281.6V280.03c13.235-4.582,20.258-19.021,15.676-32.256
	c-1.135-3.277-2.927-6.281-5.265-8.841c9.464-10.325,8.755-26.368-1.57-35.831c-2.551-2.338-5.564-4.13-8.841-5.265v-10.103h-17.067
	v8.533h-17.067v-8.533H230.4v8.533h-8.533v17.067h8.533v51.2h-8.533V281.6h8.533L230.4,290.133L230.4,290.133z M247.467,213.333
	h25.6c4.71,0,8.533,3.823,8.533,8.533c0,4.71-3.823,8.533-8.533,8.533h-25.6V213.333z M247.467,247.467h25.6
	c4.71,0,8.533,3.823,8.533,8.533c0,4.71-3.823,8.533-8.533,8.533h-25.6V247.467z"/>
<path d="M256,332.8c51.84,0,93.867-42.027,93.867-93.867S307.84,145.067,256,145.067s-93.867,42.027-93.867,93.867
	C162.193,290.748,204.186,332.74,256,332.8z M256,162.133c42.419,0,76.8,34.381,76.8,76.8s-34.381,76.8-76.8,76.8
	s-76.8-34.381-76.8-76.8C179.251,196.54,213.606,162.185,256,162.133z"/>
<g>
</g>
<g>
</g>
<g>
</g>
<g>
</g>
<g>
</g>
<g>
</g>
<g>
</g>
<g>
</g>
<g>
</g>
<g>
</g>
<g>
</g>
<g>
</g>
<g>
</g>
<g>
</g>
<g>
</g>
</svg>
