<?xml version="1.0" encoding="iso-8859-1"?>
<!-- Generator: Adobe Illustrator 19.0.0, SVG Export Plug-In . SVG Version: 6.00 Build 0)  -->
<svg version="1.1" id="Capa_1" xmlns="http://www.w3.org/2000/svg" xmlns:xlink="http://www.w3.org/1999/xlink" x="0px" y="0px"
	 viewBox="0 0 512 512" style="enable-background:new 0 0 512 512;" xml:space="preserve">
<g>
	<path style="fill:#FFD173;" d="M272.787,159.475c9.258,0.025,16.762,7.529,16.787,16.787c-0.067,9.241-7.546,16.72-16.787,16.787
		h-33.574v-33.574H272.787z"/>
	<path style="fill:#FFD173;" d="M272.787,193.049c9.258,0.025,16.762,7.529,16.787,16.787c-0.067,9.241-7.546,16.72-16.787,16.787
		h-33.574v-33.574H272.787z"/>
</g>
<polygon style="fill:#F5D0C7;" points="256,251.803 222.426,285.377 214.033,285.377 214.033,251.803 "/>
<g>
	<polygon style="fill:#EDB4A5;" points="297.967,251.803 297.967,285.377 289.574,285.377 256,251.803 	"/>
	
		<rect x="232.236" y="261.632" transform="matrix(-0.7071 0.7071 -0.7071 -0.7071 638.7685 306.158)" style="fill:#EDB4A5;" width="47.481" height="47.481"/>
</g>
<path style="fill:#F5D0C7;" d="M356.721,142.689l-25.18,25.18l-7.386-7.386c-10.047-20.933-29.125-36.125-51.788-41.212l0.42-1.763
	h58.754l16.787,16.787L356.721,142.689z"/>
<path style="fill:#168DE2;" d="M499.41,151.082v167.869h-92.328v-58.754l-1.091-1.091c18.298-17.542,41.296-39.869,55.397-53.55
	c6.95-6.857,7.025-18.063,0.168-25.012c-6.857-6.95-18.063-7.025-25.012-0.168l-29.461,29.461v-8.393
	c-0.008-2.787,0.243-5.565,0.755-8.31c4.054-24.249,25.021-42.018,49.605-42.051H499.41z"/>
<path style="fill:#F5D0C7;" d="M499.41,41.967v83.934h-50.361c-23.174,0-41.967-18.793-41.967-41.967V41.967H499.41z"/>
<path style="fill:#454545;" d="M499.41,41.967h-92.328V8.393h58.754C484.377,8.393,499.41,23.426,499.41,41.967z"/>
<g>
	<polygon style="fill:#143252;" points="491.016,318.951 491.016,503.607 432.262,503.607 423.869,318.951 	"/>
	<path style="fill:#143252;" d="M461.555,180.375c6.908,6.925,6.891,18.138-0.034,25.046c-0.042,0.042-0.092,0.092-0.134,0.134
		c-14.101,13.681-37.099,36.008-55.397,53.55c-15.444,14.772-27.614,26.271-28.202,26.271h-79.822v-33.574h67.148l25.18-25.18
		l16.787-16.787l29.461-29.461C443.484,173.551,454.614,173.551,461.555,180.375z"/>
	<path style="fill:#143252;" d="M407.082,193.049l0.755,0.084c-0.512,2.736-0.764,5.523-0.755,8.31v8.393l-16.787,16.787
		l-58.754-58.754l25.18-25.18L407.082,193.049z"/>
</g>
<path style="fill:#FFD173;" d="M324.155,160.483c15.083,31.551,6.547,69.33-20.648,91.321h-95.014
	c-15.486-12.523-25.407-30.653-27.614-50.445c-0.252-2.77-0.42-5.54-0.42-8.31c0.008-41.724,33.834-75.533,75.549-75.533
	C285.1,117.525,311.607,134.236,324.155,160.483z M239.213,226.623h33.574c9.241-0.067,16.72-7.546,16.787-16.787
	c-0.025-9.258-7.529-16.762-16.787-16.787c9.241-0.067,16.72-7.546,16.787-16.787c-0.025-9.258-7.529-16.762-16.787-16.787h-33.574
	V226.623z"/>
<g>
	<path style="fill:#143252;" d="M214.033,251.803v33.574h-79.822c-0.588,0-12.758-11.499-28.202-26.271
		c-18.298-17.542-41.296-39.869-55.397-53.55c-6.95-6.857-7.025-18.063-0.168-25.012c6.857-6.95,18.063-7.025,25.012-0.168
		l4.281,4.281l25.18,25.18l8.393,8.393l25.18,25.18l8.393,8.393H214.033z"/>
	<path style="fill:#143252;" d="M205.639,134.295l1.259,1.427c-16.795,14.311-26.456,35.269-26.439,57.327
		c0,2.77,0.168,5.54,0.42,8.31l-0.42,0.084l-41.967,41.967l-25.18-25.18l67.148-67.148l16.787-16.787H205.639z"/>
</g>
<path style="fill:#168DE2;" d="M106.009,259.106l-1.091,1.091v58.754H12.59V151.082h41.967c27.816,0,50.361,22.545,50.361,50.361
	v8.393l-25.18-25.18l-4.281-4.281c-6.95-6.857-18.155-6.782-25.012,0.168s-6.782,18.155,0.168,25.012
	C64.713,219.237,87.711,241.563,106.009,259.106z"/>
<path style="fill:#F5D0C7;" d="M104.918,41.967v41.967c0,23.174-18.793,41.967-41.967,41.967H12.59V41.967H104.918z"/>
<path style="fill:#454545;" d="M104.918,8.393v33.574H12.59c0-18.541,15.033-33.574,33.574-33.574H104.918z"/>
<polygon style="fill:#143252;" points="88.131,318.951 79.738,503.607 20.984,503.607 20.984,318.951 "/>
<path style="fill:#FE7C26;" d="M308.786,258.325l-10.559-13.043c24.173-19.548,31.761-53.13,18.356-81.173
	c-11.096-23.393-34.698-38.274-60.584-38.207c-37.049,0.084-67.064,30.099-67.148,67.148c0,2.518,0.159,5.036,0.386,7.554
	c1.964,17.551,10.786,33.616,24.542,44.687l-10.576,13.043c-17.232-13.9-28.261-34.052-30.67-56.051
	c-0.294-3.181-0.47-6.211-0.47-9.233c0.067-46.424,37.762-84.002,84.186-83.934c6.035,0.008,12.045,0.671,17.937,1.964
	c38.4,8.561,65.721,42.622,65.746,81.97C339.993,218.406,328.536,242.419,308.786,258.325z"/>
<g>
	<path style="fill:#EDB4A5;" d="M46.164,83.934H29.377V67.148c0-4.633,3.76-8.393,8.393-8.393h16.787v16.787h-8.393V83.934z"/>
	<path style="fill:#EDB4A5;" d="M482.623,83.934h-16.787v-8.393h-8.393V58.754h16.787c4.633,0,8.393,3.76,8.393,8.393V83.934z"/>
</g>
<path style="fill:#FE7C26;" d="M297.967,176.262c-0.042-10.634-6.765-20.094-16.787-23.636v-9.938h-16.787v8.393h-16.787v-8.393
	H230.82v8.393h-8.393v16.787h8.393v50.361h-8.393v16.787h8.393v8.393h16.787v-8.393h16.787v8.393h16.787v-9.913
	c3.508-1.192,6.69-3.189,9.292-5.817c4.826-4.675,7.537-11.121,7.495-17.844c-0.025-6.22-2.367-12.204-6.572-16.787
	C295.625,188.483,297.976,182.49,297.967,176.262z M247.607,167.869h25.18c4.633,0,8.393,3.76,8.393,8.393
	c0,2.258-0.923,4.423-2.568,5.976c-1.528,1.57-3.634,2.442-5.825,2.417h-25.18V167.869z M278.612,215.812
	c-1.528,1.57-3.634,2.443-5.825,2.417h-25.18v-16.787h25.18c4.633,0,8.393,3.76,8.393,8.393
	C281.18,212.094,280.257,214.259,278.612,215.812z"/>
<g>
	<rect x="197.246" y="33.574" style="fill:#168DE2;" width="100.721" height="16.787"/>
	<path style="fill:#168DE2;" d="M278.721,81.475l-11.868-11.868l27.64-27.64l-27.64-27.64l11.868-11.868l33.574,33.574
		c3.273,3.282,3.273,8.586,0,11.868L278.721,81.475z"/>
</g>
<path d="M12.59,134.295h50.361c27.799-0.025,50.335-22.562,50.361-50.361V8.393c0-4.633-3.76-8.393-8.393-8.393H46.164
	C22.998,0.025,4.222,18.801,4.197,41.967v83.934C4.197,130.535,7.957,134.295,12.59,134.295z M46.164,16.787h50.361v16.787H22.528
	C26.07,23.552,35.529,16.829,46.164,16.787z M20.984,50.361h75.541v33.574c0,18.541-15.033,33.574-33.574,33.574H20.984V50.361z"/>
<path d="M29.377,67.148v16.787h16.787v-8.393h8.393V58.754H37.77C33.137,58.754,29.377,62.514,29.377,67.148z"/>
<path d="M12.59,327.344v176.262c0,4.633,3.76,8.393,8.393,8.393h58.754c4.49,0.008,8.192-3.525,8.393-8.016l8.024-176.64h8.763
	c4.633,0,8.393-3.76,8.393-8.393v-41.128c16.888,15.948,18.13,15.948,20.858,15.948h84.774l31.115,31.115
	c3.273,3.273,8.595,3.273,11.868,0l31.123-31.115h84.774c2.728,0,3.97,0,20.858-15.948v41.128c0,4.633,3.76,8.393,8.393,8.393h8.763
	l8.033,176.64c0.201,4.49,3.903,8.024,8.393,8.016h58.754c4.633,0,8.393-3.76,8.393-8.393V327.344c4.633,0,8.393-3.76,8.393-8.393
	V151.082c0-4.633-3.76-8.393-8.393-8.393h-41.967c-23.275,0.042-44.334,13.807-53.718,35.11L337.5,111.574
	c-1.578-1.578-3.727-2.468-5.959-2.459h-58.754v1.679c-23.535-4.818-48.002,0.739-67.148,15.251v-0.143h-8.393
	c-2.224,0-4.365,0.881-5.934,2.459l-78,78v-4.919c-0.034-32.432-26.322-58.721-58.754-58.754H12.59c-4.633,0-8.393,3.76-8.393,8.393
	v167.869C4.197,323.584,7.957,327.344,12.59,327.344z M71.714,495.213H29.377V327.344h49.966L71.714,495.213z M256,307.082
	l-21.705-21.705L256,263.672l21.705,21.705L256,307.082z M222.426,273.509v-13.312h13.312L222.426,273.509z M272.787,201.443
	c4.633,0,8.393,3.76,8.393,8.393s-3.76,8.393-8.393,8.393h-25.18v-16.787H272.787z M247.607,184.656v-16.787h25.18
	c4.633,0,8.393,3.76,8.393,8.393s-3.76,8.393-8.393,8.393H247.607z M264.393,235.016v8.393h-16.787v-8.393H264.393z
	 M289.574,273.509l-13.312-13.312h13.312V273.509z M482.623,495.213h-42.337l-7.63-167.869h49.966V495.213z M457.443,159.475h33.574
	v151.082h-75.541V261.8c12.28-11.835,28.932-28.017,51.788-50.243c10.307-10.047,10.525-26.557,0.47-36.864
	c-0.084-0.084-0.168-0.168-0.243-0.252c-10.19-10.173-26.691-10.173-36.881,0l-12.347,12.347
	C424.347,170.404,439.967,159.517,457.443,159.475z M442.477,186.334c3.634-3.626,9.51-3.626,13.144,0
	c3.626,3.584,3.66,9.426,0.084,13.06c-0.05,0.05-0.101,0.101-0.151,0.143c-50.235,48.85-74.072,71.571-80.686,77.446h-68.507
	v-16.787h58.754c2.224,0,4.365-0.881,5.934-2.459L442.477,186.334z M339.674,187.896l38.753,38.727L361.64,243.41h-38.61
	c10.97-14.495,16.904-32.18,16.904-50.361c0-1.746-0.159-3.458-0.26-5.179V187.896z M398.924,196.784
	c-0.117,1.553-0.235,3.106-0.235,4.684v4.919l-8.393,8.393l-46.886-46.911l13.312-13.312L398.924,196.784z M328.066,125.902
	l16.787,16.787l-13.312,13.312l-0.655-0.655c-5.875-11.591-14.336-21.663-24.744-29.444L328.066,125.902L328.066,125.902z
	 M256,125.902c37.032-0.05,67.097,29.923,67.156,66.954c0.025,19.364-8.318,37.796-22.889,50.554H281.18v-9.938
	c13.018-4.507,19.926-18.709,15.419-31.727c-1.116-3.223-2.879-6.178-5.179-8.696c9.308-10.156,8.612-25.936-1.544-35.244
	c-2.51-2.3-5.473-4.062-8.696-5.179v-9.938h-16.787v8.393h-16.787v-8.393H230.82v8.393h-8.393v16.787h8.393v50.361h-8.393v16.787
	h8.393v8.393h-19.087c-27.866-24.391-30.678-66.761-6.287-94.619C218.204,134.22,236.636,125.876,256,125.902z M188.936,243.41
	h-38.61l25.541-25.541C178.713,227.076,183.128,235.721,188.936,243.41z M176.17,167.248c-2.719,8.335-4.104,17.039-4.104,25.801
	c0,1.57,0.176,3.106,0.26,4.658l-33.834,33.834l-13.312-13.312L176.17,167.248z M107.344,224.164l33.574,33.574
	c1.578,1.586,3.727,2.468,5.968,2.459h58.754v16.787h-68.507c-6.614-5.875-30.451-28.596-80.686-77.463
	c-3.66-3.592-3.718-9.468-0.126-13.127c0.017-0.017,0.042-0.042,0.059-0.059c3.634-3.618,9.51-3.618,13.144,0l4.281,4.281
	L107.344,224.164z M20.984,159.475h33.574c17.475,0.042,33.095,10.928,39.181,27.312l-8.066-8.066l-4.281-4.281
	c-10.19-10.181-26.708-10.181-36.889,0.008c-4.927,4.935-7.68,11.633-7.638,18.6c0.025,6.967,2.862,13.623,7.873,18.466
	c22.855,22.226,39.508,38.408,51.788,50.243v48.799H20.984V159.475z"/>
<path d="M449.049,134.295h50.361c4.633,0,8.393-3.76,8.393-8.393V41.967C507.778,18.801,489.002,0.025,465.836,0h-58.754
	c-4.633,0-8.393,3.76-8.393,8.393v75.541C398.714,111.734,421.25,134.27,449.049,134.295z M415.475,16.787h50.361
	c10.634,0.042,20.094,6.765,23.636,16.787h-73.997V16.787z M415.475,50.361h75.541v67.148h-41.967
	c-18.541,0-33.574-15.033-33.574-33.574V50.361z"/>
<path d="M465.836,83.934h16.787V67.148c0-4.633-3.76-8.393-8.393-8.393h-16.787v16.787h8.393V83.934z"/>
<path d="M266.853,69.607l11.868,11.868l33.574-33.574c3.273-3.282,3.273-8.586,0-11.868L278.721,2.459l-11.868,11.868l19.246,19.246
	h-88.853v16.787h88.853L266.853,69.607z"/>
<g>
</g>
<g>
</g>
<g>
</g>
<g>
</g>
<g>
</g>
<g>
</g>
<g>
</g>
<g>
</g>
<g>
</g>
<g>
</g>
<g>
</g>
<g>
</g>
<g>
</g>
<g>
</g>
<g>
</g>
</svg>
