<?xml version="1.0" encoding="iso-8859-1"?>
<!-- Generator: Adobe Illustrator 19.0.0, SVG Export Plug-In . SVG Version: 6.00 Build 0)  -->
<svg version="1.1" id="Capa_1" xmlns="http://www.w3.org/2000/svg" xmlns:xlink="http://www.w3.org/1999/xlink" x="0px" y="0px"
	 viewBox="0 0 511.977 511.977" style="enable-background:new 0 0 511.977 511.977;" xml:space="preserve">
<path style="fill:#FE7C26;" d="M241.669,342.3v47.404c-23.451,13.642-50.107,20.806-77.236,20.757
	c-85.317,0-154.473-69.155-154.473-154.473s69.156-154.473,154.473-154.473c27.129-0.048,53.785,7.115,77.236,20.757v47.404
	c-47.665-42.683-120.914-38.638-163.596,9.027S39.435,299.617,87.099,342.3C131.095,381.691,197.673,381.691,241.669,342.3z"/>
<g>
	<path style="fill:#FFD200;" d="M183.741,313.916c15.998,0,28.964-12.966,28.964-28.964s-12.966-28.964-28.964-28.964
		c15.998,0,28.964-12.966,28.964-28.964s-12.966-28.964-28.964-28.964h-48.273v115.855H183.741z M241.669,169.677V342.3
		c-47.665,42.683-120.914,38.637-163.596-9.027s-38.638-120.914,9.027-163.596C131.095,130.286,197.673,130.286,241.669,169.677z"/>
	<path style="fill:#FFD200;" d="M183.741,198.061c15.998,0,28.964,12.966,28.964,28.964s-12.966,28.964-28.964,28.964h-48.273
		v-57.927H183.741z"/>
	<path style="fill:#FFD200;" d="M183.741,255.988c15.998,0,28.964,12.966,28.964,28.964s-12.966,28.964-28.964,28.964h-48.273
		v-57.927L183.741,255.988L183.741,255.988z"/>
</g>
<rect x="231.995" y="72.552" style="fill:#00448F;" width="19.309" height="366.873"/>
<g>
	<rect x="270.613" y="101.516" style="fill:#FE7C26;" width="67.582" height="19.309"/>
	<rect x="289.922" y="313.916" style="fill:#FE7C26;" width="67.582" height="19.309"/>
	<rect x="289.922" y="207.716" style="fill:#FE7C26;" width="67.582" height="19.309"/>
	<rect x="444.395" y="410.461" style="fill:#FE7C26;" width="28.964" height="19.309"/>
	<rect x="270.613" y="420.116" style="fill:#FE7C26;" width="28.964" height="19.309"/>
	<rect x="396.122" y="130.479" style="fill:#FE7C26;" width="67.582" height="19.309"/>
	<rect x="444.395" y="72.552" style="fill:#FE7C26;" width="67.582" height="19.309"/>
	<rect x="376.813" y="313.916" style="fill:#FE7C26;" width="19.309" height="19.309"/>
	<rect x="463.704" y="236.679" style="fill:#FE7C26;" width="38.618" height="19.309"/>
	<path style="fill:#FE7C26;" d="M183.741,265.643v-19.309c10.668,0,19.309-8.641,19.309-19.309s-8.641-19.309-19.309-19.309h-38.618
		v48.273h-19.309v-57.927c0-5.329,4.325-9.655,9.655-9.655h48.273c21.327,0,38.618,17.291,38.618,38.618
		S205.068,265.643,183.741,265.643z"/>
	<path style="fill:#FE7C26;" d="M183.741,323.57h-48.273c-5.329,0-9.655-4.325-9.655-9.655v-57.927c0-5.329,4.325-9.655,9.655-9.655
		h48.273c21.327,0,38.618,17.291,38.618,38.618C222.36,306.279,205.068,323.57,183.741,323.57z M145.123,304.261h38.618
		c10.668,0,19.309-8.641,19.309-19.309s-8.641-19.309-19.309-19.309h-38.618V304.261z"/>
	<rect x="135.449" y="169.097" style="fill:#FE7C26;" width="19.309" height="28.964"/>
	<rect x="135.449" y="313.916" style="fill:#FE7C26;" width="19.309" height="28.964"/>
	<rect x="174.068" y="169.097" style="fill:#FE7C26;" width="19.309" height="28.964"/>
	<rect x="174.068" y="313.916" style="fill:#FE7C26;" width="19.309" height="28.964"/>
	<rect x="116.14" y="188.407" style="fill:#FE7C26;" width="19.309" height="19.309"/>
	<rect x="116.14" y="304.261" style="fill:#FE7C26;" width="19.309" height="19.309"/>
</g>
<path d="M232.014,106.546c-82.537-37.469-179.826-0.936-217.295,81.6s-0.936,179.826,81.6,217.295
	c43.117,19.57,92.577,19.57,135.695,0v33.984h19.309V72.552h-19.309L232.014,106.546L232.014,106.546z M232.014,337.762
	c-45.164,37.421-112.109,31.146-149.53-14.018s-31.155-112.109,14.009-149.53c39.304-32.565,96.217-32.565,135.521,0V337.762z
	 M232.014,150.339C173.662,112.927,96.03,129.89,58.609,188.242S38.16,324.227,96.513,361.648
	c41.283,26.473,94.209,26.473,135.492,0v22.312c-70.671,37.45-158.325,10.504-195.765-60.167S25.735,165.467,96.406,128.027
	c42.412-22.466,93.195-22.466,135.598,0v22.312H232.014z"/>
<rect x="270.613" y="101.516" width="67.582" height="19.309"/>
<rect x="289.922" y="313.916" width="67.582" height="19.309"/>
<rect x="289.922" y="207.716" width="67.582" height="19.309"/>
<rect x="444.395" y="410.461" width="28.964" height="19.309"/>
<rect x="270.613" y="420.116" width="28.964" height="19.309"/>
<rect x="396.122" y="130.479" width="67.582" height="19.309"/>
<rect x="444.395" y="72.552" width="67.582" height="19.309"/>
<rect x="376.813" y="313.916" width="19.309" height="19.309"/>
<rect x="463.704" y="236.679" width="38.618" height="19.309"/>
<path d="M154.778,169.097h-19.309v19.309H116.16v19.309h9.655v96.545h-9.655v19.309h19.309v19.309h19.309V323.57h19.309v19.309
	h19.309v-20.68c20.516-5.156,32.97-25.98,27.805-46.496c-1.931-7.675-6.189-14.559-12.184-19.715
	c16.046-13.787,17.88-37.971,4.094-54.027c-5.156-6.005-12.039-10.263-19.715-12.184v-20.68h-19.309v19.309h-19.309V169.097z
	 M183.741,304.261h-38.618v-38.618h38.618c10.668,0,19.309,8.641,19.309,19.309S194.4,304.261,183.741,304.261z M183.741,207.716
	c10.668,0,19.309,8.641,19.309,19.309s-8.641,19.309-19.309,19.309h-38.618v-38.618H183.741z"/>
<g>
</g>
<g>
</g>
<g>
</g>
<g>
</g>
<g>
</g>
<g>
</g>
<g>
</g>
<g>
</g>
<g>
</g>
<g>
</g>
<g>
</g>
<g>
</g>
<g>
</g>
<g>
</g>
<g>
</g>
</svg>
