<?xml version="1.0" encoding="iso-8859-1"?>
<!-- Generator: Adobe Illustrator 19.0.0, SVG Export Plug-In . SVG Version: 6.00 Build 0)  -->
<svg version="1.1" id="Capa_1" xmlns="http://www.w3.org/2000/svg" xmlns:xlink="http://www.w3.org/1999/xlink" x="0px" y="0px"
	 viewBox="0 0 512 512" style="enable-background:new 0 0 512 512;" xml:space="preserve">
<g>
	<path style="fill:#FFD173;" d="M327.092,356.644c9.251,0.025,16.749,7.523,16.774,16.774c-0.067,9.234-7.54,16.707-16.774,16.774
		h-33.548v-33.548H327.092z"/>
	<path style="fill:#FFD173;" d="M327.092,323.096c9.251,0.025,16.749,7.523,16.774,16.774c-0.067,9.234-7.54,16.707-16.774,16.774
		h-33.548v-33.548H327.092z"/>
	<path style="fill:#FFD173;" d="M327.092,390.192c9.234-0.067,16.707-7.54,16.774-16.774c-0.025-9.251-7.523-16.749-16.774-16.774
		c9.234-0.067,16.707-7.54,16.774-16.774c-0.025-9.251-7.523-16.749-16.774-16.774h-33.548v67.096H327.092z M310.318,281.161
		c41.683,0.218,75.307,34.185,75.089,75.869c-0.193,38.178-28.868,70.191-66.786,74.594c-2.751,0.335-5.527,0.503-8.303,0.503
		c-29.472,0.025-56.26-17.101-68.605-43.864l3.523-0.755l2.684-40.761h-12.413C240.446,309.207,272.451,281.144,310.318,281.161z"/>
</g>
<path style="fill:#F5D0C7;" d="M310.318,432.127c2.776,0,5.552-0.168,8.303-0.503l0.084,0.503l-92.257,67.096L83.87,465.674
	L0,400.441V289.548h67.767l46.799,48.98l89.825,8.219h43.528l-2.684,40.761l-3.523,0.755
	C254.058,415.017,280.846,432.143,310.318,432.127z"/>
<path style="fill:#FFD173;" d="M269.893,123.729l-3.523,0.755l-2.684,40.761h12.413c-5.443,41.331-43.352,70.425-84.683,64.991
	s-70.425-43.352-64.991-84.683c4.537-34.462,32.013-61.368,66.559-65.175c2.751-0.335,5.527-0.503,8.303-0.503
	C230.759,79.848,257.547,96.974,269.893,123.729z"/>
<g>
	<path style="fill:#EDB4A5;" d="M16.774,402.864l70.794,55.061l137.06,32.256l89.145-64.84l9.863,13.57l-92.257,67.096
		c-1.434,1.04-3.162,1.602-4.932,1.602c-0.646,0-1.292-0.075-1.921-0.218L81.949,473.843c-1.174-0.285-2.273-0.814-3.229-1.552
		L3.237,413.583C1.199,411.989,0,409.549,0,406.966v-16.774L16.774,402.864z"/>
	<path style="fill:#EDB4A5;" d="M218.061,457.287c-1.065,0-2.13-0.201-3.12-0.595l-41.935-16.774l6.24-15.583l38.438,15.34
		l46.967-23.484l7.498,15.013l-50.322,25.161C220.661,456.96,219.37,457.271,218.061,457.287z"/>
</g>
<g>
	<path style="fill:#FE7C26;" d="M310.318,440.514c-32.718-0.067-62.433-19.072-76.221-48.737l15.231-7.037
		c15.449,33.758,55.337,48.603,89.095,33.154c33.758-15.449,48.603-55.337,33.154-89.095
		c-15.449-33.758-55.337-48.603-89.095-33.154c-20.993,9.611-35.586,29.312-38.656,52.192l-16.64-2.181
		c6.047-45.927,48.175-78.251,94.102-72.204c45.927,6.047,78.251,48.175,72.204,94.102c-5.041,38.287-35.569,68.178-73.948,72.413
		C316.483,440.329,313.405,440.514,310.318,440.514z"/>
	<path style="fill:#FE7C26;" d="M327.092,365.031v-16.774c2.189,0.017,4.286-0.855,5.821-2.407c1.644-1.552,2.575-3.715,2.566-5.98
		c0-4.63-3.757-8.387-8.387-8.387h-25.161v25.161h-16.774v-33.548c0-4.63,3.757-8.387,8.387-8.387h33.548
		c13.897,0,25.161,11.264,25.161,25.161C352.186,353.733,340.956,364.955,327.092,365.031z"/>
	<path style="fill:#FE7C26;" d="M327.092,398.579h-33.548c-4.63,0-8.387-3.757-8.387-8.387v-33.548c0-4.63,3.757-8.387,8.387-8.387
		h33.548c13.897,0,25.161,11.264,25.161,25.161C352.186,387.281,340.956,398.503,327.092,398.579z M301.931,381.805h25.161
		c2.189,0.017,4.286-0.855,5.821-2.407c1.644-1.552,2.575-3.715,2.566-5.98c0-4.63-3.757-8.387-8.387-8.387h-25.161V381.805z"/>
	<path style="fill:#FE7C26;" d="M301.931,406.966h-16.774v-8.387h-8.387v-16.774h16.774c4.63,0,8.387,3.757,8.387,8.387V406.966z"/>
	<path style="fill:#FE7C26;" d="M293.544,331.483H276.77v-16.774h8.387v-8.387h16.774v16.774
		C301.931,327.725,298.174,331.483,293.544,331.483z"/>
	<rect x="318.705" y="306.322" style="fill:#FE7C26;" width="16.774" height="16.774"/>
	<rect x="318.705" y="390.192" style="fill:#FE7C26;" width="16.774" height="16.774"/>
	<path style="fill:#FE7C26;" d="M234.835,140.419v-2.264c-1.082-13.277-11.851-23.685-25.161-24.322v-8.806h-16.774v8.815
		c-13.31,0.637-24.079,11.046-25.161,24.322c0.067,6.458,2.927,12.572,7.833,16.774c4.823,4.185,10.777,6.852,17.109,7.666
		l14.769,2.181c6.643,0.973,10.61,4.747,10.61,7.817c-0.26,1.963-1.367,3.715-3.019,4.797c-3.17,2.122-6.919,3.212-10.735,3.12
		h-6.039c-7.884,0-13.755-4.193-13.755-7.968v-2.264H167.74v2.264c1.082,13.277,11.851,23.685,25.161,24.322v8.806h16.774v-8.781
		c5.527-0.73,10.786-2.81,15.323-6.047c6.005-4.185,9.662-10.979,9.838-18.3c-1.124-13.184-11.733-23.559-24.943-24.398
		l-14.778-2.181c-3.086-0.344-6.005-1.585-8.387-3.573c-1.3-1.023-2.105-2.541-2.239-4.193c0-3.757,5.871-7.968,13.755-7.968h6.039
		c7.867,0,13.755,4.193,13.755,7.968v2.264L234.835,140.419z"/>
</g>
<path style="fill:#EDB4A5;" d="M0,297.935v-8.387c0-4.63,3.757-8.387,8.387-8.387h59.38c2.29,0,4.479,0.939,6.064,2.6l44.636,46.699
	l86.688,7.934h42.774c4.63-0.008,8.395,3.741,8.404,8.37c0,0.193-0.008,0.377-0.017,0.57l-2.684,40.752
	c-0.243,3.741-2.952,6.869-6.617,7.649l-3.523,0.755l-37.431,7.498c-1.149,0.235-2.332,0.235-3.481,0l-46.128-10.341l-43.101,5.2
	l-2.004-16.657l44.535-5.376c0.948-0.109,1.904-0.059,2.835,0.151l45.818,10.266l32.793-6.567l1.677-25.454h-34.613l-90.579-8.253
	c-2.021-0.193-3.9-1.099-5.301-2.566l-44.334-46.455H0z"/>
<path style="fill:#F5D0C7;" d="M201.682,79.873c-2.776,0-5.552,0.168-8.303,0.503l-0.084-0.503l92.257-67.096L428.13,46.325
	L512,111.559v110.893h-67.767l-46.799-48.98l-89.825-8.219h-43.528l2.684-40.761l3.523-0.755
	C257.942,96.974,231.154,79.848,201.682,79.873z"/>
<g>
	<path style="fill:#EDB4A5;" d="M495.226,109.136l-70.803-55.061L287.371,21.819l-89.145,64.84l-9.871-13.57l92.257-67.096
		c1.434-1.04,3.162-1.602,4.94-1.602c0.646,0,1.292,0.075,1.921,0.218l142.579,33.548c1.174,0.277,2.273,0.805,3.221,1.552
		l75.483,58.709c2.046,1.585,3.246,4.026,3.246,6.617v16.774L495.226,109.136z"/>
	<path style="fill:#EDB4A5;" d="M293.939,54.712c1.065,0,2.122,0.201,3.112,0.595l41.935,16.774l-6.232,15.583l-38.438-15.34
		l-46.967,23.484l-7.506-15.013l50.322-25.161C291.33,55.031,292.622,54.721,293.939,54.712z"/>
</g>
<path style="fill:#FE7C26;" d="M201.288,239.226c-46.321-0.176-83.727-37.867-83.551-84.189
	c0.159-42.505,32.097-78.175,74.325-83.006c3.061-0.369,6.139-0.545,9.226-0.545c32.718,0.067,62.433,19.072,76.221,48.737
	l-15.231,7.037c-15.449-33.758-55.337-48.603-89.095-33.154s-48.603,55.337-33.154,89.095s55.337,48.603,89.095,33.154
	c20.993-9.611,35.586-29.312,38.656-52.192l16.64,2.181C278.834,208.001,243.323,239.134,201.288,239.226z"/>
<path style="fill:#EDB4A5;" d="M512,214.065v8.387c0,4.63-3.757,8.387-8.387,8.387h-59.38c-2.298,0-4.487-0.939-6.072-2.6
	l-44.627-46.699l-86.696-7.934h-42.774c-4.63,0.008-8.395-3.741-8.404-8.37c0-0.193,0.008-0.377,0.017-0.57l2.675-40.752
	c0.243-3.741,2.952-6.869,6.617-7.649l3.531-0.755l37.423-7.498c1.149-0.226,2.332-0.21,3.481,0.042l46.204,10.4l43.109-5.2
	l2.004,16.657l-44.535,5.376c-0.948,0.117-1.904,0.059-2.835-0.151l-45.818-10.266l-32.801,6.567l-1.677,25.454h34.571l90.579,8.253
	c2.021,0.193,3.9,1.099,5.301,2.566l44.308,46.355H512z"/>
<path d="M429.657,38.157L287.078,4.609c-2.374-0.545-4.873-0.042-6.852,1.384l-91.519,66.542
	c-45.768,6.97-77.211,49.726-70.241,95.486s49.726,77.211,95.486,70.241c34.177-5.208,61.644-30.856,69.184-64.597h23.333
	l86.696,7.875l44.635,46.699c1.585,1.661,3.774,2.6,6.064,2.6h59.355v-16.774h-55.807l-44.292-46.397
	c-1.401-1.468-3.279-2.382-5.301-2.566l-90.579-8.194h-34.605l1.677-25.488l32.793-6.559l45.785,10.224
	c0.923,0.21,1.879,0.26,2.818,0.151l44.543-5.309l-1.988-16.665l-43.117,5.141l-46.128-10.299c-1.149-0.252-2.332-0.252-3.481,0
	l-31.367,6.273c-4.831-8.664-11.155-16.397-18.678-22.855l38.429-19.198l38.438,15.373l6.24-15.583l-41.935-16.774
	c-2.223-0.881-4.722-0.78-6.869,0.285l-50.322,25.161l0.117,0.243c-7.255-3.757-15.029-6.433-23.064-7.934l70.451-51.244
	l137.06,32.223l74.032,57.577l10.299-13.235l-75.483-58.709C431.929,38.962,430.831,38.433,429.657,38.157z M258.78,121.02
	c-0.419,0.906-0.671,1.879-0.746,2.877l-2.726,40.836c-0.31,4.621,3.187,8.622,7.808,8.932c0.193,0.017,0.386,0.017,0.579,0.017
	h2.114c-10.039,35.745-47.16,56.587-82.905,46.539c-35.745-10.048-56.587-47.16-46.539-82.905
	c10.048-35.745,47.16-56.587,82.905-46.539c16.564,4.655,30.713,15.482,39.536,30.252L258.78,121.02z"/>
<path d="M192.901,105.034v8.815c-13.302,0.637-24.071,11.046-25.161,24.322c1.157,13.168,11.75,23.517,24.943,24.364l14.753,2.181
	c6.651,0.981,10.626,4.73,10.626,7.775c0,3.774-5.871,8.001-13.738,8.001h-6.072c-7.867,0.025-13.738-4.168-13.738-7.984v-2.256
	H167.74v2.256c1.09,13.277,11.859,23.685,25.161,24.322v8.84h16.774v-8.815c13.302-0.637,24.071-11.046,25.161-24.322
	c-1.157-13.168-11.75-23.517-24.943-24.364l-14.753-2.181c-6.651-0.981-10.626-4.722-10.626-7.775c0-3.774,5.871-8.001,13.738-8.001
	h6.072c7.867,0,13.738,4.193,13.738,8.001v2.256h16.774v-2.256c-1.09-13.277-11.859-23.685-25.161-24.322v-8.865h-16.774V105.034z"
	/>
<path d="M310.318,272.774c-39.234,0.084-73.202,27.291-81.849,65.561h-23.333l-86.696-7.859l-44.594-46.715
	c-1.585-1.661-3.774-2.6-6.064-2.6H8.387v16.774h55.807l44.292,46.397c1.401,1.468,3.279,2.382,5.301,2.566l90.579,8.194h34.588
	l-1.677,25.488l-32.793,6.559l-45.785-10.224c-0.923-0.21-1.879-0.268-2.818-0.151l-44.543,5.309l1.988,16.665l43.117-5.141
	l46.128,10.299c0.604,0.134,1.216,0.201,1.837,0.201c0.562,0,1.124-0.05,1.677-0.159l31.367-6.273
	c4.831,8.664,11.155,16.397,18.678,22.855l-38.446,19.156l-38.438-15.373l-6.24,15.583l41.935,16.774
	c2.223,0.881,4.722,0.78,6.869-0.285l50.322-25.161l-0.117-0.243c7.255,3.757,15.029,6.433,23.064,7.934l-70.451,51.244
	l-137.06-32.223l-74.032-57.577L3.237,413.583l75.483,58.709c0.956,0.738,2.055,1.266,3.229,1.552l142.579,33.548
	c0.629,0.143,1.275,0.218,1.921,0.218c1.77,0,3.497-0.562,4.932-1.602l91.519-66.542c45.776-6.877,77.303-49.567,70.425-95.335
	C387.151,303.059,351.842,272.707,310.318,272.774z M310.318,423.74c-23.584-0.084-45.399-12.513-57.493-32.76
	c0.419-0.906,0.671-1.879,0.746-2.877l2.726-40.836c0.31-4.621-3.187-8.622-7.808-8.932c-0.193-0.017-0.386-0.017-0.579-0.017
	h-2.088c10.123-35.645,47.227-56.344,82.872-46.221s56.344,47.227,46.221,82.872C366.712,403.837,340.335,423.756,310.318,423.74z"
	/>
<path d="M335.479,316.252v-9.93h-16.774v8.387h-16.774v-8.387h-16.774v8.387h-8.387v16.774h8.387v50.322h-8.387v16.774h8.387v8.387
	h16.774v-8.387h16.774v8.387h16.774v-9.93c13.008-4.504,19.911-18.695,15.407-31.703c-1.115-3.221-2.877-6.173-5.175-8.689
	c9.301-10.148,8.605-25.916-1.543-35.217C341.652,319.12,338.7,317.359,335.479,316.252z M327.092,381.805h-25.161v-16.774h25.161
	c4.63,0,8.387,3.757,8.387,8.387C335.479,378.047,331.722,381.805,327.092,381.805z M327.092,348.257h-25.161v-16.774h25.161
	c4.63,0,8.387,3.757,8.387,8.387C335.479,344.499,331.722,348.257,327.092,348.257z"/>
<g>
</g>
<g>
</g>
<g>
</g>
<g>
</g>
<g>
</g>
<g>
</g>
<g>
</g>
<g>
</g>
<g>
</g>
<g>
</g>
<g>
</g>
<g>
</g>
<g>
</g>
<g>
</g>
<g>
</g>
</svg>
