<?xml version="1.0" encoding="iso-8859-1"?>
<!-- Generator: Adobe Illustrator 19.0.0, SVG Export Plug-In . SVG Version: 6.00 Build 0)  -->
<svg version="1.1" id="Capa_1" xmlns="http://www.w3.org/2000/svg" xmlns:xlink="http://www.w3.org/1999/xlink" x="0px" y="0px"
	 viewBox="0 0 511.998 511.998" style="enable-background:new 0 0 511.998 511.998;" xml:space="preserve">
<path style="fill:#002874;" d="M503.458,102.412l-0.853,3.328c-8.874,20.053-98.13,36.18-212.388,38.911
	c11.537-2.398,18.943-13.696,16.546-25.232c-2.398-11.537-13.696-18.943-25.232-16.546s-18.943,13.696-16.546,25.232
	c1.8,8.653,8.746,15.3,17.467,16.716c-8.704,0.171-17.493,0.256-26.452,0.256c-132.092,0-239.949-17.834-247.032-40.276
	l-0.427-2.389c0-15.445,47.87-29.012,119.463-36.521l0.427-0.085c3.618,28.04,29.285,47.845,57.334,44.227
	c25.249-3.26,44.269-24.575,44.636-50.029c8.448-0.171,16.981-0.256,25.599-0.256c33.194,0,64.936,1.109,93.864,3.157h0.171
	c1.775,23.5,22.263,41.104,45.763,39.329c17.348-1.314,32.153-13.021,37.434-29.601C476.664,80.312,503.458,90.807,503.458,102.412z
	"/>
<path style="fill:#168DE2;" d="M502.604,105.74l-11.946,47.87L298.664,273.073v25.599l-85.331,34.132v-59.731l-196.26-122.62
	l-8.106-45.652c7.082,22.442,114.94,40.276,247.032,40.276c8.96,0,17.749-0.085,26.452-0.256c1.126,0.171,2.27,0.256,3.413,0.256
	c1.434-0.009,2.859-0.154,4.267-0.427h0.085C404.474,141.92,493.73,125.793,502.604,105.74z"/>
<g>
	<path style="fill:#FFD173;" d="M435.193,59.747c0,4.369-0.657,8.712-1.963,12.885c-7.151,22.45-31.146,34.857-53.596,27.707
		c-16.571-5.282-28.287-20.087-29.601-37.434c-0.145-1.05-0.205-2.099-0.171-3.157c0-23.56,19.105-42.665,42.665-42.665
		S435.193,36.179,435.193,59.747z"/>
	<path style="fill:#FFD173;" d="M238.933,396.802v68.264h34.132c9.395-0.068,16.998-7.671,17.066-17.066
		c-0.026-9.412-7.654-17.041-17.066-17.066c9.395-0.068,16.998-7.671,17.066-17.066c-0.026-9.412-7.654-17.04-17.066-17.066H238.933
		z M255.999,349.871c42.418,0,76.797,34.38,76.797,76.797s-34.38,76.797-76.797,76.797s-76.797-34.38-76.797-76.797
		S213.581,349.871,255.999,349.871z"/>
	<path style="fill:#FFD173;" d="M285.865,102.412c11.784-0.06,21.384,9.446,21.444,21.222c0.051,10.188-7.108,18.986-17.092,21.017
		h-0.085c-2.56,0.085-5.12,0.171-7.68,0.171c-11.639-1.818-19.6-12.731-17.783-24.37
		C266.299,110.024,275.31,102.352,285.865,102.412z"/>
	<path style="fill:#FFD173;" d="M273.065,396.802c9.412,0.026,17.04,7.654,17.066,17.066c-0.068,9.395-7.671,16.998-17.066,17.066
		h-34.132v-34.132H273.065z"/>
	<path style="fill:#FFD173;" d="M273.065,430.934c9.412,0.026,17.04,7.654,17.066,17.066c-0.068,9.395-7.671,16.998-17.066,17.066
		h-34.132v-34.132H273.065z"/>
	<path style="fill:#FFD173;" d="M230.4,59.747v0.256c-0.418,28.27-23.671,50.857-51.941,50.439
		c-25.454-0.375-46.77-19.396-50.029-44.636c-0.316-2.005-0.461-4.028-0.427-6.058c0-28.279,22.92-51.198,51.198-51.198
		S230.4,31.468,230.4,59.747z"/>
	<circle style="fill:#FFD173;" cx="46.94" cy="46.947" r="29.866"/>
</g>
<g>
	<path style="fill:#FE7C26;" d="M255.999,511.998c-47.128,0-85.33-38.202-85.33-85.33s38.202-85.331,85.33-85.331
		s85.33,38.202,85.33,85.331C341.278,473.77,303.102,511.947,255.999,511.998z M255.999,358.404
		c-37.699,0-68.264,30.565-68.264,68.264s30.565,68.264,68.264,68.264s68.264-30.565,68.264-68.264
		C324.221,388.986,293.681,358.446,255.999,358.404z"/>
	<path style="fill:#FE7C26;" d="M392.528,110.945c-26.802-0.026-49.048-20.718-51.011-47.452c-0.162-1.246-0.222-2.492-0.188-3.746
		c0-28.279,22.92-51.198,51.198-51.198c28.279,0,51.198,22.92,51.198,51.198c0,5.231-0.794,10.436-2.347,15.436l0,0
		C434.69,96.516,414.885,111.013,392.528,110.945z M392.528,25.615c-18.85,0-34.132,15.283-34.132,34.132
		c-0.034,0.589-0.017,1.178,0.051,1.758c0.973,18.824,17.015,33.296,35.847,32.332c18.832-0.964,33.296-17.015,32.332-35.847
		C425.687,39.839,410.695,25.615,392.528,25.615z"/>
	<path style="fill:#FE7C26;" d="M285.865,153.61c-1.587,0.009-3.174-0.119-4.744-0.367c-16.281-2.637-27.34-17.979-24.703-34.26
		s17.979-27.34,34.26-24.703c16.281,2.637,27.34,17.979,24.703,34.26c-1.98,12.219-11.289,21.947-23.406,24.464
		c-0.239,0.051-0.486,0.085-0.734,0.119C289.466,153.44,287.665,153.602,285.865,153.61z M285.865,110.945
		c-7.065-0.051-12.842,5.632-12.902,12.697c-0.051,6.34,4.557,11.767,10.828,12.748c1.579,0.213,3.183,0.179,4.753-0.119
		l0.273-0.051c6.886-1.579,11.195-8.448,9.617-15.334C297.086,115.033,291.864,110.903,285.865,110.945z"/>
	<path style="fill:#FE7C26;" d="M179.202,119.478c-30.284,0.06-55.789-22.621-59.253-52.709c-0.358-2.321-0.521-4.676-0.478-7.023
		c0-32.989,26.743-59.731,59.731-59.731s59.731,26.743,59.731,59.731v0.307C238.669,92.881,212.028,119.384,179.202,119.478z
		 M179.202,17.082c-23.551,0.026-42.64,19.114-42.665,42.665c-0.034,1.536,0.068,3.072,0.299,4.591
		c2.765,23.398,23.969,40.131,47.367,37.375c21.239-2.509,37.341-20.351,37.665-41.735v-0.23
		C221.841,36.196,202.753,17.107,179.202,17.082z"/>
	<path style="fill:#FE7C26;" d="M46.94,85.346c-21.205,0-38.399-17.194-38.399-38.399S25.735,8.549,46.94,8.549
		s38.399,17.194,38.399,38.399C85.313,68.143,68.136,85.32,46.94,85.346z M46.94,25.615c-11.784,0-21.333,9.548-21.333,21.333
		S35.155,68.28,46.94,68.28s21.333-9.548,21.333-21.333S58.724,25.615,46.94,25.615z"/>
	<path style="fill:#FE7C26;" d="M187.735,85.346h-25.599V68.28h17.066v-3.413l-12.416-6.314c-2.85-1.459-4.651-4.395-4.651-7.594
		v-16.81c0-4.71,3.823-8.533,8.533-8.533h25.599v17.066h-17.066v3.046l12.416,6.34c2.85,1.459,4.651,4.395,4.651,7.594v17.151
		C196.268,81.523,192.445,85.346,187.735,85.346z"/>
	<rect x="383.986" y="42.664" style="fill:#FE7C26;" width="17.066" height="34.132"/>
	<path style="fill:#FE7C26;" d="M298.664,413.868c-0.043-10.811-6.878-20.428-17.066-24.029v-10.103h-17.066v8.533h-17.066v-8.533
		H230.4v8.533h-8.533v17.066h8.533v51.198h-8.533V473.6h8.533v8.533h17.066V473.6h17.066v8.533h17.066v-10.078
		c3.567-1.212,6.801-3.234,9.455-5.913c4.898-4.761,7.646-11.315,7.611-18.141c-0.026-6.323-2.406-12.407-6.681-17.066
		C296.284,426.293,298.673,420.2,298.664,413.868z M247.466,405.335h25.599c4.71,0,8.533,3.823,8.533,8.533
		c0.009,2.304-0.939,4.505-2.611,6.084c-1.562,1.579-3.695,2.466-5.922,2.449h-25.599V405.335z M278.987,454.085
		c-1.562,1.579-3.695,2.466-5.922,2.449h-25.599v-17.066h25.599c4.71,0,8.533,3.823,8.533,8.533
		C281.607,450.305,280.66,452.506,278.987,454.085z"/>
</g>
<path d="M443.325,65.865c4.301-27.946-14.873-54.091-42.819-58.383c-27.946-4.292-54.091,14.873-58.383,42.819
	c-0.179,1.186-0.324,2.381-0.418,3.575c-27.383-1.741-56.113-2.662-85.697-2.662c-5.973,0-11.844,0.085-17.723,0.154
	c-4.582-32.63-34.755-55.362-67.385-50.78c-28.919,4.062-50.652,28.466-51.343,57.666c-13.892,1.562-26.589,3.302-38.1,5.222
	c2.534-5.145,3.857-10.794,3.891-16.529c0.06-21.205-17.083-38.45-38.288-38.518S8.609,25.495,8.541,46.708
	c-0.043,12.467,5.982,24.183,16.145,31.41C8.276,85.047,0.008,93.154,0.008,102.412c0,0.503,0.179,0.981,0.222,1.476H0.144
	l8.533,47.998c0.418,2.372,1.826,4.463,3.874,5.743l192.25,120.179v54.995c0,4.71,3.814,8.533,8.525,8.542
	c1.092,0,2.167-0.205,3.183-0.614l85.33-34.132c3.243-1.297,5.359-4.437,5.359-7.927v-20.855l187.966-116.962
	c1.886-1.169,3.234-3.029,3.772-5.18l11.946-47.853c0.307-0.879,0.538-1.775,0.674-2.696l0.162-0.649h-0.06
	c0.162-0.683,0.273-1.374,0.333-2.065C511.991,92.352,504.524,77.837,443.325,65.865z M392.528,25.615
	c18.849,0,34.132,15.283,34.132,34.132s-15.283,34.132-34.132,34.132c-18.85,0-34.132-15.283-34.132-34.132
	S373.678,25.615,392.528,25.615z M179.202,17.082c23.56,0,42.665,19.105,42.665,42.665s-19.105,42.665-42.665,42.665
	s-42.665-19.105-42.665-42.665C136.562,36.196,155.651,17.107,179.202,17.082z M46.94,25.615c11.784,0,21.333,9.548,21.333,21.333
	S58.724,68.28,46.94,68.28s-21.333-9.548-21.333-21.333S35.155,25.615,46.94,25.615z M483.217,148.192L294.159,265.829
	c-2.5,1.553-4.028,4.292-4.028,7.245v19.822l-68.264,27.306v-47.128c0-2.944-1.519-5.674-4.011-7.236L24.813,145.188l-3.558-19.993
	c59.817,28.005,226.211,28.415,234.744,28.415c1.903,0,11.682,0,26.29-0.358c1.186,0.188,2.381,0.307,3.575,0.358
	c2.022,0,4.045-0.205,6.024-0.614c53.485-1.562,152.042-7.125,196.84-26.845L483.217,148.192z M273.065,123.745
	c-0.017-7.065,5.692-12.817,12.765-12.834c7.065-0.017,12.817,5.692,12.834,12.765c0.017,5.922-4.036,11.084-9.796,12.475
	c-1.843,0-3.584,0.111-5.461,0.145C277.4,135.119,273.065,129.863,273.065,123.745z M494.583,102.745
	c-5.214,10.718-67.752,28.108-181.225,32.656c6.57-15.163-0.401-32.775-15.564-39.346c-15.163-6.57-32.775,0.401-39.346,15.564
	c-3.456,7.987-3.268,17.092,0.521,24.925c-1.015,0-1.954,0-2.978,0c-150.404,0-233.294-21.572-238.686-33.543l-0.119-0.64
	C19.284,97.787,42.272,84.16,121.57,75.2c8.49,31.828,41.172,50.755,73,42.264c23.048-6.144,40.216-25.428,43.655-49.031
	c5.896-0.068,11.801-0.154,17.774-0.154c29.951,0,59.015,0.947,86.619,2.748c6.195,27.553,33.552,44.867,61.097,38.672
	c15.129-3.405,27.895-13.482,34.712-27.408c46.881,9.002,55.192,18.278,56.318,19.703L494.583,102.745z"/>
<path d="M255.999,341.337c-47.128,0-85.33,38.202-85.33,85.331s38.202,85.33,85.33,85.33s85.33-38.202,85.33-85.33
	C341.278,379.566,303.102,341.389,255.999,341.337z M255.999,494.932c-37.699,0-68.264-30.565-68.264-68.264
	s30.565-68.264,68.264-68.264s68.264,30.565,68.264,68.264C324.221,464.35,293.681,494.89,255.999,494.932z"/>
<path d="M196.268,76.813V59.679c0-3.2-1.792-6.127-4.642-7.586l-12.424-6.383v-3.029h17.066V25.615h-25.599
	c-4.71,0-8.533,3.823-8.533,8.533v16.785c0,3.2,1.792,6.127,4.642,7.586l12.424,6.349v3.413h-17.066v17.066h25.599
	C192.445,85.346,196.268,81.523,196.268,76.813z"/>
<rect x="383.986" y="42.664" width="17.066" height="34.132"/>
<path d="M281.598,389.839v-10.103h-17.066v8.533h-17.066v-8.533H230.4v8.533h-8.533v17.066h8.533v51.198h-8.533V473.6h8.533v8.533
	h17.066V473.6h17.066v8.533h17.066V472.03c13.235-4.582,20.257-19.02,15.675-32.255c-1.135-3.277-2.927-6.28-5.265-8.84
	c9.463-10.325,8.755-26.367-1.57-35.83C287.879,392.766,284.875,390.974,281.598,389.839z M273.065,456.534h-25.599v-17.066h25.599
	c4.71,0,8.533,3.823,8.533,8.533S277.776,456.534,273.065,456.534z M273.065,422.401h-25.599v-17.066h25.599
	c4.71,0,8.533,3.823,8.533,8.533C281.598,418.579,277.776,422.401,273.065,422.401z"/>
<g>
</g>
<g>
</g>
<g>
</g>
<g>
</g>
<g>
</g>
<g>
</g>
<g>
</g>
<g>
</g>
<g>
</g>
<g>
</g>
<g>
</g>
<g>
</g>
<g>
</g>
<g>
</g>
<g>
</g>
</svg>
