<?xml version="1.0" encoding="iso-8859-1"?>
<!-- Generator: Adobe Illustrator 19.0.0, SVG Export Plug-In . SVG Version: 6.00 Build 0)  -->
<svg version="1.1" id="Capa_1" xmlns="http://www.w3.org/2000/svg" xmlns:xlink="http://www.w3.org/1999/xlink" x="0px" y="0px"
	 viewBox="0 0 512.025 512.025" style="enable-background:new 0 0 512.025 512.025;" xml:space="preserve">
<path style="fill:#F5D0C7;" d="M124.207,253.149l43.266-4.554l32.471,5.145v36.013h0.928v1.012h-38.965l-26.736,1.855l-51.278,3.458
	L50.494,348.79H5.963v-115.63l54.399-54.399l115.63-40.82l13.41,14.591l0.169,0.337c-39.446,14.827-65.557,52.569-65.532,94.713
	C124.038,249.43,124.122,251.294,124.207,253.149z"/>
<g>
	<path style="fill:#FFD173;" d="M200.871,253.908l-0.928-0.169v-6.157h37.953c11.647,0,21.085,9.438,21.085,21.085
		c0,11.647-9.438,21.085-21.085,21.085h-37.025V253.908z"/>
	<path style="fill:#FFD173;" d="M199.944,205.413h37.953c11.647,0,21.085,9.438,21.085,21.085s-9.438,21.085-21.085,21.085h-37.953
		V205.413z"/>
	<path style="fill:#FFD173;" d="M199.944,247.583v6.157l-32.471-5.145l-43.266,4.554c-0.084-1.855-0.169-3.711-0.169-5.566
		c-0.008-55.892,45.299-101.216,101.199-101.216c14.557,0,28.945,3.137,42.178,9.201v113.099h-8.434
		c0-11.647-9.438-21.085-21.085-21.085c11.647,0,21.085-9.438,21.085-21.085s-9.438-21.085-21.085-21.085h-37.953L199.944,247.583
		L199.944,247.583z"/>
	<path style="fill:#FFD173;" d="M135.171,292.62l26.736-1.855h38.965v-1.012h37.025c11.605,0.034,21.051-9.345,21.085-20.95
		c0-0.042,0-0.093,0-0.135h8.434v70.93c-49.17,22.51-107.356,2.429-132.16-45.628L135.171,292.62z"/>
</g>
<g>
	<rect x="409.865" y="171.677" style="fill:#FE7C26;" width="85.267" height="16.868"/>
	<rect x="377.984" y="315.021" style="fill:#FE7C26;" width="83.412" height="16.868"/>
	<rect x="267.415" y="289.719" style="fill:#FE7C26;" width="35.591" height="16.868"/>
	<rect x="267.415" y="247.583" style="fill:#FE7C26;" width="67.472" height="16.868"/>
	<rect x="303.007" y="205.413" style="fill:#FE7C26;" width="106.858" height="16.868"/>
	<rect x="267.415" y="171.677" style="fill:#FE7C26;" width="89.063" height="16.868"/>
	<rect x="320.828" y="137.941" style="fill:#FE7C26;" width="89.063" height="16.868"/>
	<rect x="267.415" y="137.941" style="fill:#FE7C26;" width="35.591" height="16.868"/>
	<rect x="332.129" y="348.757" style="fill:#FE7C26;" width="179.896" height="16.868"/>
	<rect x="284.283" y="348.757" style="fill:#FE7C26;" width="16.868" height="16.868"/>
	<rect x="427.66" y="247.583" style="fill:#FE7C26;" width="84.34" height="16.868"/>
	<rect x="432.409" y="281.285" style="fill:#FE7C26;" width="71.183" height="16.868"/>
	<rect x="326.453" y="315.021" style="fill:#FE7C26;" width="15.94" height="16.868"/>
	<rect x="410.793" y="137.941" style="fill:#FE7C26;" width="16.868" height="16.868"/>
	<rect x="444.528" y="137.941" style="fill:#FE7C26;" width="67.472" height="16.868"/>
	<rect x="377.057" y="171.677" style="fill:#FE7C26;" width="16.868" height="16.868"/>
	<rect x="393.925" y="247.583" style="fill:#FE7C26;" width="16.868" height="16.868"/>
	<rect x="385.491" y="281.285" style="fill:#FE7C26;" width="16.868" height="16.868"/>
	<rect x="436.094" y="205.413" style="fill:#FE7C26;" width="16.868" height="16.868"/>
	<rect x="469.83" y="205.413" style="fill:#FE7C26;" width="42.17" height="16.868"/>
	<rect x="199.944" y="188.545" style="fill:#FE7C26;" width="16.868" height="16.868"/>
	<path style="fill:#FE7C26;" d="M124.207,253.234h-8.434c-0.084-1.687-0.169-3.66-0.169-5.651
		c0-60.556,49.077-109.641,109.633-109.65c15.771,0,31.366,3.399,45.704,9.977l-7.051,15.333
		c-46.581-21.346-101.646-0.886-122.984,45.695c-5.558,12.128-8.434,25.302-8.434,38.644c0,1.687,0.076,3.449,0.16,5.178
		L124.207,253.234z"/>
	<path style="fill:#FE7C26;" d="M225.246,357.224c-41.056,0.059-78.689-22.864-97.48-59.375l14.979-7.759
		c22.746,44.042,76.074,62.462,121.145,41.832l7.051,15.316C256.62,353.851,241.026,357.258,225.246,357.224z"/>
	<path style="fill:#FE7C26;" d="M237.897,256.017v-16.868c6.983,0,12.651-5.668,12.651-12.651s-5.668-12.651-12.651-12.651h-29.519
		v33.736H191.51v-42.17c0-4.656,3.778-8.434,8.434-8.434h37.953c16.303,0,29.519,13.216,29.519,29.519
		S254.199,256.017,237.897,256.017z"/>
	<path style="fill:#FE7C26;" d="M237.897,298.187h-37.953c-4.656,0-8.434-3.778-8.434-8.434v-42.17c0-4.656,3.778-8.434,8.434-8.434
		h37.953c16.303,0,29.519,13.216,29.519,29.519S254.199,298.187,237.897,298.187z M208.378,281.319h29.519
		c6.983,0,12.651-5.668,12.651-12.651s-5.668-12.651-12.651-12.651h-29.519V281.319z"/>
	<rect x="183.076" y="196.979" style="fill:#FE7C26;" width="16.868" height="16.868"/>
	<rect x="233.68" y="188.545" style="fill:#FE7C26;" width="16.868" height="16.868"/>
	<rect x="233.68" y="289.719" style="fill:#FE7C26;" width="16.868" height="16.868"/>
	<rect x="199.944" y="289.719" style="fill:#FE7C26;" width="16.868" height="16.868"/>
</g>
<rect x="258.981" y="53.594" style="fill:#454545;" width="16.868" height="404.83"/>
<path d="M65,186.074l108.57-38.324l2.024,2.21c-35.946,18.293-58.945,54.838-59.881,95.16l-30.472-4.816l-2.623,16.665l33.407,5.271
	c0.725,0.11,1.468,0.135,2.201,0.059l49.018-5.162l24.264,3.829v21.414h-30.194l-77.963,5.271c-2.682,0.186-5.119,1.636-6.553,3.905
	l-30.927,48.799H5.963v16.868h44.548c2.893,0,5.583-1.476,7.127-3.922L88.759,304.2l41.031-2.783
	c25.555,45.434,79.608,66.552,129.191,50.469v106.546h16.868V306.621h27.174v-16.868h-27.174v-25.302h59.038v-16.868h-59.038
	v-59.038h80.595v-16.868h-80.595v-16.868h27.174v-16.868h-27.174v-84.34h-16.868v89.678c-21.701-7.042-45.063-7.118-66.814-0.219
	l-9.935-10.829c-2.286-2.488-5.836-3.365-9.016-2.243L57.57,170.825c-1.189,0.422-2.269,1.096-3.154,1.99L0,227.198l11.926,11.951
	L65,186.074z M258.981,333.896c-40.087,15.856-85.799,1.847-110.131-33.736l13.03-0.843h38.062v7.304h16.868v-8.434h16.868v8.434
	h16.868v-11.394c3.137-1.476,5.997-3.5,8.434-5.963V333.896L258.981,333.896z M237.897,239.149h-29.519v-25.302h29.519
	c6.983,0,12.651,5.668,12.651,12.651S244.88,239.149,237.897,239.149z M250.547,268.668c0,6.983-5.668,12.651-12.651,12.651h-28.6
	v-25.302h28.6C244.88,256.017,250.547,261.676,250.547,268.668z M258.981,248.072l-0.489-0.489l0.489-0.489V248.072z
	 M225.246,154.809c11.555,0.017,22.991,2.21,33.736,6.46v44.632c-2.437-2.463-5.297-4.487-8.434-5.963v-11.394H233.68v8.434h-16.868
	v-8.434h-16.868v8.434h-16.868v16.868h8.434v30.05l-22.772-3.593c-0.725-0.101-1.467-0.126-2.201-0.059l-33.904,3.568
	C134.656,194.112,175.511,154.852,225.246,154.809z"/>
<rect x="409.856" y="171.677" width="85.276" height="16.868"/>
<rect x="377.993" y="315.021" width="83.403" height="16.868"/>
<rect x="303.024" y="205.413" width="106.833" height="16.868"/>
<polygon points="394.861,154.809 409.856,154.809 409.856,137.941 394.861,137.941 374.248,137.941 320.828,137.941 
	320.828,154.809 374.248,154.809 "/>
<rect x="332.045" y="348.757" width="179.922" height="16.868"/>
<rect x="284.283" y="348.757" width="16.868" height="16.868"/>
<rect x="427.66" y="247.583" width="84.34" height="16.868"/>
<rect x="432.324" y="281.285" width="71.216" height="16.868"/>
<rect x="326.453" y="315.021" width="15.932" height="16.868"/>
<rect x="410.793" y="137.941" width="16.868" height="16.868"/>
<rect x="444.528" y="137.941" width="67.472" height="16.868"/>
<rect x="377.057" y="171.677" width="16.868" height="16.868"/>
<rect x="393.925" y="247.583" width="16.868" height="16.868"/>
<rect x="385.491" y="281.285" width="16.868" height="16.868"/>
<rect x="436.094" y="205.413" width="16.868" height="16.868"/>
<rect x="469.83" y="205.413" width="42.17" height="16.868"/>
<g>
</g>
<g>
</g>
<g>
</g>
<g>
</g>
<g>
</g>
<g>
</g>
<g>
</g>
<g>
</g>
<g>
</g>
<g>
</g>
<g>
</g>
<g>
</g>
<g>
</g>
<g>
</g>
<g>
</g>
</svg>
