<?xml version="1.0" encoding="iso-8859-1"?>
<!-- Generator: Adobe Illustrator 19.0.0, SVG Export Plug-In . SVG Version: 6.00 Build 0)  -->
<svg version="1.1" id="Capa_1" xmlns="http://www.w3.org/2000/svg" xmlns:xlink="http://www.w3.org/1999/xlink" x="0px" y="0px"
	 viewBox="0 0 512 512" style="enable-background:new 0 0 512 512;" xml:space="preserve">
<polygon style="fill:#FFD173;" points="42.667,409.6 42.667,486.4 25.6,486.4 8.533,486.4 8.533,409.6 25.6,409.6 "/>
<g>
	<polygon style="fill:#FE7C26;" points="196.267,315.733 196.267,358.4 179.2,358.4 162.133,358.4 162.133,315.733 179.2,315.733 	
		"/>
	<polygon style="fill:#FE7C26;" points="426.667,213.333 426.667,290.133 409.6,290.133 392.533,290.133 392.533,213.333 
		409.6,213.333 	"/>
</g>
<g>
	<polygon style="fill:#168DE2;" points="349.867,290.133 349.867,324.267 332.8,324.267 315.733,324.267 315.733,290.133 
		332.8,290.133 	"/>
	<polygon style="fill:#168DE2;" points="273.067,307.2 273.067,384 256,384 238.933,384 238.933,307.2 256,307.2 	"/>
	<polygon style="fill:#168DE2;" points="119.467,332.8 119.467,392.533 102.4,392.533 85.333,392.533 85.333,332.8 102.4,332.8 	"/>
</g>
<g>
	<polygon style="fill:#FFD173;" points="503.467,136.533 503.467,213.333 486.4,213.333 469.333,213.333 469.333,136.533 
		486.4,136.533 	"/>
	<path style="fill:#FFD173;" d="M273.067,59.733c9.412,0.026,17.041,7.654,17.067,17.067c-0.068,9.395-7.671,16.998-17.067,17.067
		h-34.133V59.733H273.067z"/>
	<path style="fill:#FFD173;" d="M273.067,93.867c9.412,0.026,17.041,7.654,17.067,17.067c-0.068,9.395-7.671,16.998-17.067,17.067
		h-34.133V93.867H273.067z"/>
	<path style="fill:#FFD173;" d="M238.933,59.733V128h34.133c9.395-0.068,16.998-7.671,17.067-17.067
		c-0.026-9.412-7.654-17.041-17.067-17.067c9.395-0.068,16.998-7.671,17.067-17.067c-0.026-9.412-7.654-17.041-17.067-17.067
		H238.933z M256,8.533c47.13,0,85.333,38.204,85.333,85.333S303.13,179.2,256,179.2s-85.333-38.204-85.333-85.333
		S208.87,8.533,256,8.533z"/>
</g>
<g>
	<path style="fill:#FE7C26;" d="M273.067,102.4V85.333c2.227,0.026,4.369-0.862,5.922-2.458c1.673-1.579,2.62-3.78,2.611-6.076
		c0-4.71-3.823-8.533-8.533-8.533h-25.6v25.6H230.4V59.733c0-4.71,3.823-8.533,8.533-8.533h34.133c14.14,0,25.6,11.46,25.6,25.6
		C298.598,90.906,287.172,102.332,273.067,102.4z"/>
	<path style="fill:#FE7C26;" d="M273.067,136.533h-34.133c-4.71,0-8.533-3.823-8.533-8.533V93.867c0-4.71,3.823-8.533,8.533-8.533
		h34.133c14.14,0,25.6,11.46,25.6,25.6C298.598,125.039,287.172,136.465,273.067,136.533z M247.467,119.467h25.6
		c2.227,0.026,4.369-0.862,5.922-2.458c1.673-1.579,2.62-3.78,2.611-6.076c0-4.71-3.823-8.533-8.533-8.533h-25.6V119.467z"/>
	<path style="fill:#FE7C26;" d="M247.467,145.067H230.4v-8.533h-8.533v-17.067h17.067c4.71,0,8.533,3.823,8.533,8.533V145.067z"/>
	<path style="fill:#FE7C26;" d="M238.933,68.267h-17.067V51.2h8.533v-8.533h17.067v17.067
		C247.467,64.444,243.644,68.267,238.933,68.267z"/>
	<rect x="264.533" y="42.667" style="fill:#FE7C26;" width="17.067" height="17.067"/>
	<rect x="264.533" y="128" style="fill:#FE7C26;" width="17.067" height="17.067"/>
	<path style="fill:#FE7C26;" d="M256,187.733c-51.84,0-93.867-42.027-93.867-93.867S204.16,0,256,0s93.867,42.027,93.867,93.867
		C349.807,145.681,307.814,187.674,256,187.733z M256,17.067c-42.419,0-76.8,34.381-76.8,76.8s34.381,76.8,76.8,76.8
		s76.8-34.381,76.8-76.8C332.749,51.473,298.394,17.118,256,17.067z"/>
</g>
<g>
	<path style="fill:#454545;" d="M42.667,494.933H8.533C3.823,494.933,0,491.11,0,486.4v-76.8c0-4.71,3.823-8.533,8.533-8.533h34.133
		c4.71,0,8.533,3.823,8.533,8.533v76.8C51.2,491.11,47.377,494.933,42.667,494.933z M17.067,477.867h17.067v-59.733H17.067V477.867z
		"/>
	<path style="fill:#454545;" d="M119.467,401.067H85.333c-4.71,0-8.533-3.823-8.533-8.533V332.8c0-4.71,3.823-8.533,8.533-8.533
		h34.133c4.71,0,8.533,3.823,8.533,8.533v59.733C128,397.244,124.177,401.067,119.467,401.067z M93.867,384h17.067v-42.667H93.867
		V384z"/>
	<path style="fill:#454545;" d="M196.267,366.933h-34.133c-4.71,0-8.533-3.823-8.533-8.533v-42.667c0-4.71,3.823-8.533,8.533-8.533
		h34.133c4.71,0,8.533,3.823,8.533,8.533V358.4C204.8,363.11,200.977,366.933,196.267,366.933z M170.667,349.867h17.067v-25.6
		h-17.067V349.867z"/>
	<path style="fill:#454545;" d="M273.067,392.533h-34.133c-4.71,0-8.533-3.823-8.533-8.533v-76.8c0-4.71,3.823-8.533,8.533-8.533
		h34.133c4.71,0,8.533,3.823,8.533,8.533V384C281.6,388.71,277.777,392.533,273.067,392.533z M247.467,375.467h17.067v-59.733
		h-17.067V375.467z"/>
	<path style="fill:#454545;" d="M349.867,332.8h-34.133c-4.71,0-8.533-3.823-8.533-8.533v-34.133c0-4.71,3.823-8.533,8.533-8.533
		h34.133c4.71,0,8.533,3.823,8.533,8.533v34.133C358.4,328.977,354.577,332.8,349.867,332.8z M324.267,315.733h17.067v-17.067
		h-17.067V315.733z"/>
	<path style="fill:#454545;" d="M426.667,298.667h-34.133c-4.71,0-8.533-3.823-8.533-8.533v-76.8c0-4.71,3.823-8.533,8.533-8.533
		h34.133c4.71,0,8.533,3.823,8.533,8.533v76.8C435.2,294.844,431.377,298.667,426.667,298.667z M401.067,281.6h17.067v-59.733
		h-17.067V281.6z"/>
	<path style="fill:#454545;" d="M503.467,221.867h-34.133c-4.71,0-8.533-3.823-8.533-8.533v-76.8c0-4.71,3.823-8.533,8.533-8.533
		h34.133c4.71,0,8.533,3.823,8.533,8.533v76.8C512,218.044,508.177,221.867,503.467,221.867z M477.867,204.8h17.067v-59.733h-17.067
		V204.8z"/>
	<rect x="17.067" y="384" style="fill:#454545;" width="17.067" height="25.6"/>
	<rect x="93.867" y="307.2" style="fill:#454545;" width="17.067" height="25.6"/>
	<rect x="17.067" y="486.4" style="fill:#454545;" width="17.067" height="25.6"/>
	<rect x="93.867" y="392.533" style="fill:#454545;" width="17.067" height="25.6"/>
	<rect x="170.667" y="290.133" style="fill:#454545;" width="17.067" height="25.6"/>
	<rect x="247.467" y="281.6" style="fill:#454545;" width="17.067" height="25.6"/>
	<rect x="247.467" y="384" style="fill:#454545;" width="17.067" height="25.6"/>
	<rect x="324.267" y="264.533" style="fill:#454545;" width="17.067" height="25.6"/>
	<rect x="324.267" y="324.267" style="fill:#454545;" width="17.067" height="68.267"/>
	<rect x="401.067" y="187.733" style="fill:#454545;" width="17.067" height="25.6"/>
	<rect x="401.067" y="290.133" style="fill:#454545;" width="17.067" height="25.6"/>
	<rect x="477.867" y="110.933" style="fill:#454545;" width="17.067" height="25.6"/>
	<rect x="477.867" y="213.333" style="fill:#454545;" width="17.067" height="25.6"/>
	<rect x="170.667" y="358.4" style="fill:#454545;" width="17.067" height="102.4"/>
</g>
<path d="M230.4,145.067h17.067v-8.533h17.067v8.533H281.6v-10.103c13.235-4.582,20.258-19.021,15.676-32.256
	c-1.135-3.277-2.927-6.281-5.265-8.841c9.464-10.325,8.755-26.368-1.57-35.831c-2.56-2.338-5.564-4.13-8.841-5.265V42.667h-17.067
	V51.2h-17.067v-8.533H230.4V51.2h-8.533v17.067h8.533v51.2h-8.533v17.067h8.533V145.067z M247.467,68.267h25.6
	c4.71,0,8.533,3.823,8.533,8.533s-3.823,8.533-8.533,8.533h-25.6V68.267z M247.467,102.4h25.6c4.71,0,8.533,3.823,8.533,8.533
	c0,4.71-3.823,8.533-8.533,8.533h-25.6V102.4z"/>
<path d="M256,187.733c51.84,0,93.867-42.027,93.867-93.867S307.84,0,256,0s-93.867,42.027-93.867,93.867
	C162.193,145.681,204.186,187.674,256,187.733z M256,17.067c42.419,0,76.8,34.381,76.8,76.8s-34.381,76.8-76.8,76.8
	s-76.8-34.381-76.8-76.8C179.251,51.473,213.606,17.118,256,17.067z"/>
<path d="M8.533,494.933h8.533V512h17.067v-17.067h8.533c4.71,0,8.533-3.823,8.533-8.533v-76.8c0-4.71-3.823-8.533-8.533-8.533
	h-8.533V384H17.067v17.067H8.533C3.823,401.067,0,404.89,0,409.6v76.8C0,491.11,3.823,494.933,8.533,494.933z M17.067,418.133
	h17.067v59.733H17.067V418.133z"/>
<path d="M153.6,315.733V358.4c0,4.71,3.823,8.533,8.533,8.533h8.533V460.8h17.067v-93.867h8.533c4.71,0,8.533-3.823,8.533-8.533
	v-42.667c0-4.71-3.823-8.533-8.533-8.533h-8.533v-17.067h-17.067V307.2h-8.533C157.423,307.2,153.6,311.023,153.6,315.733z
	 M170.667,324.267h17.067v25.6h-17.067V324.267z"/>
<path d="M281.6,384v-76.8c0-4.71-3.823-8.533-8.533-8.533h-8.533V281.6h-17.067v17.067h-8.533c-4.71,0-8.533,3.823-8.533,8.533V384
	c0,4.71,3.823,8.533,8.533,8.533h8.533V409.6h17.067v-17.067h8.533C277.777,392.533,281.6,388.71,281.6,384z M264.533,375.467
	h-17.067v-59.733h17.067V375.467z"/>
<path d="M384,290.133c0,4.71,3.823,8.533,8.533,8.533h8.533v17.067h17.067v-17.067h8.533c4.71,0,8.533-3.823,8.533-8.533v-76.8
	c0-4.71-3.823-8.533-8.533-8.533h-8.533v-17.067h-17.067V204.8h-8.533c-4.71,0-8.533,3.823-8.533,8.533V290.133z M401.067,221.867
	h17.067V281.6h-17.067V221.867z"/>
<path d="M93.867,324.267h-8.533c-4.71,0-8.533,3.823-8.533,8.533v59.733c0,4.71,3.823,8.533,8.533,8.533h8.533v17.067h17.067
	v-17.067h8.533c4.71,0,8.533-3.823,8.533-8.533V332.8c0-4.71-3.823-8.533-8.533-8.533h-8.533V307.2H93.867V324.267z M110.933,384
	H93.867v-42.667h17.067V384z"/>
<path d="M324.267,264.533V281.6h-8.533c-4.71,0-8.533,3.823-8.533,8.533v34.133c0,4.71,3.823,8.533,8.533,8.533h8.533v59.733h17.067
	V332.8h8.533c4.71,0,8.533-3.823,8.533-8.533v-34.133c0-4.71-3.823-8.533-8.533-8.533h-8.533v-17.067H324.267z M341.333,315.733
	h-17.067v-17.067h17.067V315.733z"/>
<path d="M477.867,110.933V128h-8.533c-4.71,0-8.533,3.823-8.533,8.533v76.8c0,4.71,3.823,8.533,8.533,8.533h8.533v17.067h17.067
	v-17.067h8.533c4.71,0,8.533-3.823,8.533-8.533v-76.8c0-4.71-3.823-8.533-8.533-8.533h-8.533v-17.067H477.867z M494.933,204.8
	h-17.067v-59.733h17.067V204.8z"/>
<g>
</g>
<g>
</g>
<g>
</g>
<g>
</g>
<g>
</g>
<g>
</g>
<g>
</g>
<g>
</g>
<g>
</g>
<g>
</g>
<g>
</g>
<g>
</g>
<g>
</g>
<g>
</g>
<g>
</g>
</svg>
