<?xml version="1.0" encoding="iso-8859-1"?>
<!-- Generator: Adobe Illustrator 19.0.0, SVG Export Plug-In . SVG Version: 6.00 Build 0)  -->
<svg version="1.1" id="Capa_1" xmlns="http://www.w3.org/2000/svg" xmlns:xlink="http://www.w3.org/1999/xlink" x="0px" y="0px"
	 viewBox="0 0 512 512" style="enable-background:new 0 0 512 512;" xml:space="preserve">
<g>
	<rect x="469.333" y="460.8" style="fill:#FFD173;" width="34.133" height="42.667"/>
	<rect x="469.333" y="418.133" style="fill:#FFD173;" width="34.133" height="42.667"/>
	<rect x="469.333" y="375.467" style="fill:#FFD173;" width="34.133" height="42.667"/>
	<rect x="469.333" y="332.8" style="fill:#FFD173;" width="34.133" height="42.667"/>
	<rect x="469.333" y="292.608" style="fill:#FFD173;" width="34.133" height="40.192"/>
	<rect x="469.333" y="249.941" style="fill:#FFD173;" width="34.133" height="40.192"/>
	<rect x="435.2" y="460.8" style="fill:#FFD173;" width="34.133" height="42.667"/>
	<rect x="435.2" y="418.133" style="fill:#FFD173;" width="34.133" height="42.667"/>
	<rect x="435.2" y="375.467" style="fill:#FFD173;" width="34.133" height="42.667"/>
	<rect x="435.2" y="332.8" style="fill:#FFD173;" width="34.133" height="42.667"/>
	<rect x="435.2" y="292.608" style="fill:#FFD173;" width="34.133" height="40.192"/>
	<rect x="435.2" y="249.941" style="fill:#FFD173;" width="34.133" height="40.192"/>
	<rect x="401.067" y="460.8" style="fill:#FFD173;" width="34.133" height="42.667"/>
	<rect x="401.067" y="418.133" style="fill:#FFD173;" width="34.133" height="42.667"/>
	<rect x="401.067" y="375.467" style="fill:#FFD173;" width="34.133" height="42.667"/>
	<rect x="401.067" y="332.8" style="fill:#FFD173;" width="34.133" height="42.667"/>
	<rect x="401.067" y="292.608" style="fill:#FFD173;" width="34.133" height="40.192"/>
	<rect x="401.067" y="249.941" style="fill:#FFD173;" width="34.133" height="40.192"/>
	<rect x="366.933" y="460.8" style="fill:#FFD173;" width="34.133" height="42.667"/>
	<rect x="366.933" y="418.133" style="fill:#FFD173;" width="34.133" height="42.667"/>
	<rect x="366.933" y="375.467" style="fill:#FFD173;" width="34.133" height="42.667"/>
	<rect x="366.933" y="332.8" style="fill:#FFD173;" width="34.133" height="42.667"/>
	<rect x="366.933" y="292.608" style="fill:#FFD173;" width="34.133" height="40.192"/>
	<rect x="366.933" y="249.941" style="fill:#FFD173;" width="34.133" height="40.192"/>
	<rect x="290.133" y="460.8" style="fill:#FFD173;" width="34.133" height="42.667"/>
	<rect x="290.133" y="418.133" style="fill:#FFD173;" width="34.133" height="42.667"/>
	<rect x="290.133" y="375.467" style="fill:#FFD173;" width="34.133" height="42.667"/>
	<rect x="290.133" y="332.8" style="fill:#FFD173;" width="34.133" height="42.667"/>
	<path style="fill:#FFD173;" d="M273.067,51.2h-34.133v68.267h34.133c9.395-0.068,16.998-7.671,17.067-17.067
		c-0.026-9.412-7.654-17.041-17.067-17.067c9.395-0.068,16.998-7.671,17.067-17.067C290.108,58.854,282.479,51.226,273.067,51.2z
		 M256,8.533c42.419,0,76.8,34.381,76.8,76.8s-34.381,76.8-76.8,76.8s-76.8-34.381-76.8-76.8S213.581,8.533,256,8.533z"/>
	<rect x="256" y="460.8" style="fill:#FFD173;" width="34.133" height="42.667"/>
	<rect x="256" y="418.133" style="fill:#FFD173;" width="34.133" height="42.667"/>
	<rect x="256" y="375.467" style="fill:#FFD173;" width="34.133" height="42.667"/>
	<rect x="256" y="332.8" style="fill:#FFD173;" width="34.133" height="42.667"/>
	<path style="fill:#FFD173;" d="M273.067,51.2c9.412,0.026,17.041,7.654,17.067,17.067c-0.068,9.395-7.671,16.998-17.067,17.067
		h-34.133V51.2H273.067z"/>
	<path style="fill:#FFD173;" d="M273.067,85.333c9.412,0.026,17.041,7.654,17.067,17.067c-0.068,9.395-7.671,16.998-17.067,17.067
		h-34.133V85.333H273.067z"/>
	<rect x="221.867" y="460.8" style="fill:#FFD173;" width="34.133" height="42.667"/>
	<rect x="221.867" y="418.133" style="fill:#FFD173;" width="34.133" height="42.667"/>
	<rect x="221.867" y="375.467" style="fill:#FFD173;" width="34.133" height="42.667"/>
	<rect x="221.867" y="332.8" style="fill:#FFD173;" width="34.133" height="42.667"/>
	<rect x="187.733" y="460.8" style="fill:#FFD173;" width="34.133" height="42.667"/>
	<rect x="187.733" y="418.133" style="fill:#FFD173;" width="34.133" height="42.667"/>
	<rect x="187.733" y="375.467" style="fill:#FFD173;" width="34.133" height="42.667"/>
	<rect x="187.733" y="332.8" style="fill:#FFD173;" width="34.133" height="42.667"/>
	<rect x="110.933" y="460.8" style="fill:#FFD173;" width="34.133" height="42.667"/>
	<rect x="110.933" y="413.867" style="fill:#FFD173;" width="34.133" height="42.667"/>
	<rect x="76.8" y="460.8" style="fill:#FFD173;" width="34.133" height="42.667"/>
	<rect x="76.8" y="413.867" style="fill:#FFD173;" width="34.133" height="42.667"/>
	<rect x="42.667" y="460.8" style="fill:#FFD173;" width="34.133" height="42.667"/>
	<rect x="42.667" y="413.867" style="fill:#FFD173;" width="34.133" height="42.667"/>
	<rect x="8.533" y="460.8" style="fill:#FFD173;" width="34.133" height="42.667"/>
	<rect x="8.533" y="413.867" style="fill:#FFD173;" width="34.133" height="42.667"/>
</g>
<g>
	<path style="fill:#FE7C26;" d="M145.067,512H8.533C3.823,512,0,508.177,0,503.467V460.8c0-4.71,3.823-8.533,8.533-8.533h136.533
		c4.71,0,8.533,3.823,8.533,8.533v42.667C153.6,508.177,149.777,512,145.067,512z M17.067,494.933h119.467v-25.6H17.067V494.933z"/>
	<rect x="102.4" y="460.8" style="fill:#FE7C26;" width="17.067" height="42.667"/>
	<rect x="68.267" y="460.8" style="fill:#FE7C26;" width="17.067" height="42.667"/>
	<rect x="34.133" y="460.8" style="fill:#FE7C26;" width="17.067" height="42.667"/>
	<path style="fill:#FE7C26;" d="M145.067,465.067H8.533c-4.71,0-8.533-3.823-8.533-8.533v-42.667c0-4.71,3.823-8.533,8.533-8.533
		h136.533c4.71,0,8.533,3.823,8.533,8.533v42.667C153.6,461.244,149.777,465.067,145.067,465.067z M17.067,448h119.467v-25.6H17.067
		V448z"/>
	<rect x="102.4" y="413.867" style="fill:#FE7C26;" width="17.067" height="42.667"/>
	<rect x="68.267" y="413.867" style="fill:#FE7C26;" width="17.067" height="42.667"/>
	<rect x="34.133" y="413.867" style="fill:#FE7C26;" width="17.067" height="42.667"/>
	<rect x="315.733" y="418.133" style="fill:#FE7C26;" width="17.067" height="42.667"/>
	<rect x="179.2" y="418.133" style="fill:#FE7C26;" width="17.067" height="42.667"/>
	<rect x="281.6" y="418.133" style="fill:#FE7C26;" width="17.067" height="42.667"/>
	<rect x="247.467" y="418.133" style="fill:#FE7C26;" width="17.067" height="42.667"/>
	<rect x="213.333" y="418.133" style="fill:#FE7C26;" width="17.067" height="42.667"/>
	<path style="fill:#FE7C26;" d="M324.267,426.667H187.733c-4.71,0-8.533-3.823-8.533-8.533v-42.667h17.067V409.6h119.467v-34.133
		H332.8v42.667C332.8,422.844,328.977,426.667,324.267,426.667z"/>
	<rect x="281.6" y="375.467" style="fill:#FE7C26;" width="17.067" height="42.667"/>
	<rect x="247.467" y="375.467" style="fill:#FE7C26;" width="17.067" height="42.667"/>
	<rect x="213.333" y="375.467" style="fill:#FE7C26;" width="17.067" height="42.667"/>
	<path style="fill:#FE7C26;" d="M324.267,384H187.733c-4.71,0-8.533-3.823-8.533-8.533V332.8c0-4.71,3.823-8.533,8.533-8.533
		h136.533c4.71,0,8.533,3.823,8.533,8.533v42.667C332.8,380.177,328.977,384,324.267,384z M196.267,366.933h119.467v-25.6H196.267
		V366.933z"/>
	<rect x="281.6" y="332.8" style="fill:#FE7C26;" width="17.067" height="42.667"/>
	<rect x="247.467" y="332.8" style="fill:#FE7C26;" width="17.067" height="42.667"/>
	<rect x="213.333" y="332.8" style="fill:#FE7C26;" width="17.067" height="42.667"/>
	<path style="fill:#FE7C26;" d="M324.267,512H187.733c-4.71,0-8.533-3.823-8.533-8.533V460.8c0-4.71,3.823-8.533,8.533-8.533
		h136.533c4.71,0,8.533,3.823,8.533,8.533v42.667C332.8,508.177,328.977,512,324.267,512z M196.267,494.933h119.467v-25.6H196.267
		V494.933z"/>
	<rect x="281.6" y="460.8" style="fill:#FE7C26;" width="17.067" height="42.667"/>
	<rect x="247.467" y="460.8" style="fill:#FE7C26;" width="17.067" height="42.667"/>
	<rect x="213.333" y="460.8" style="fill:#FE7C26;" width="17.067" height="42.667"/>
	<rect x="494.933" y="375.467" style="fill:#FE7C26;" width="17.067" height="42.667"/>
	<rect x="358.4" y="375.467" style="fill:#FE7C26;" width="17.067" height="42.667"/>
	<rect x="460.8" y="375.467" style="fill:#FE7C26;" width="17.067" height="42.667"/>
	<rect x="426.667" y="375.467" style="fill:#FE7C26;" width="17.067" height="42.667"/>
	<rect x="392.533" y="375.467" style="fill:#FE7C26;" width="17.067" height="42.667"/>
	<path style="fill:#FE7C26;" d="M503.467,384H366.933c-4.71,0-8.533-3.823-8.533-8.533V332.8h17.067v34.133h119.467V332.8H512
		v42.667C512,380.177,508.177,384,503.467,384z"/>
	<rect x="460.8" y="332.8" style="fill:#FE7C26;" width="17.067" height="42.667"/>
	<rect x="426.667" y="332.8" style="fill:#FE7C26;" width="17.067" height="42.667"/>
	<rect x="392.533" y="332.8" style="fill:#FE7C26;" width="17.067" height="42.667"/>
	<path style="fill:#FE7C26;" d="M503.467,341.333H366.933c-4.71,0-8.533-3.823-8.533-8.533v-40.192h17.067v31.659h119.467v-31.659
		H512V332.8C512,337.51,508.177,341.333,503.467,341.333z"/>
	<rect x="366.933" y="281.6" style="fill:#FE7C26;" width="136.533" height="17.067"/>
	<rect x="460.8" y="292.608" style="fill:#FE7C26;" width="17.067" height="40.192"/>
	<rect x="426.667" y="292.608" style="fill:#FE7C26;" width="17.067" height="40.192"/>
	<rect x="392.533" y="292.608" style="fill:#FE7C26;" width="17.067" height="40.192"/>
	<path style="fill:#FE7C26;" d="M503.467,301.141H366.933c-4.71,0-8.533-3.823-8.533-8.533v-42.667c0-4.71,3.823-8.533,8.533-8.533
		h136.533c4.71,0,8.533,3.823,8.533,8.533v42.667C512,297.318,508.177,301.141,503.467,301.141z M375.467,284.075h119.467v-25.6
		H375.467V284.075z"/>
	<rect x="460.8" y="249.941" style="fill:#FE7C26;" width="17.067" height="42.667"/>
	<rect x="426.667" y="249.941" style="fill:#FE7C26;" width="17.067" height="42.667"/>
	<rect x="392.533" y="249.941" style="fill:#FE7C26;" width="17.067" height="42.667"/>
	<path style="fill:#FE7C26;" d="M512,460.8h-17.067v-34.133H375.467V460.8H358.4v-42.667c0-4.71,3.823-8.533,8.533-8.533h136.533
		c4.71,0,8.533,3.823,8.533,8.533V460.8z"/>
	<rect x="460.8" y="418.133" style="fill:#FE7C26;" width="17.067" height="42.667"/>
	<rect x="426.667" y="418.133" style="fill:#FE7C26;" width="17.067" height="42.667"/>
	<rect x="392.533" y="418.133" style="fill:#FE7C26;" width="17.067" height="42.667"/>
	<path style="fill:#FE7C26;" d="M503.467,512H366.933c-4.71,0-8.533-3.823-8.533-8.533V460.8c0-4.71,3.823-8.533,8.533-8.533
		h136.533c4.71,0,8.533,3.823,8.533,8.533v42.667C512,508.177,508.177,512,503.467,512z M375.467,494.933h119.467v-25.6H375.467
		V494.933z"/>
	<rect x="460.8" y="460.8" style="fill:#FE7C26;" width="17.067" height="42.667"/>
	<rect x="426.667" y="460.8" style="fill:#FE7C26;" width="17.067" height="42.667"/>
	<rect x="392.533" y="460.8" style="fill:#FE7C26;" width="17.067" height="42.667"/>
	<path style="fill:#FE7C26;" d="M367.932,173.227l-12.092-12.092l92.894-92.868h-22.067V51.2h42.667c4.71,0,8.533,3.823,8.533,8.533
		c0,2.261-0.896,4.429-2.5,6.033L367.932,173.227z"/>
	
		<rect x="243.271" y="221.868" transform="matrix(-0.7071 0.7071 -0.7071 -0.7071 672.7629 182.1359)" style="fill:#FE7C26;" width="110.779" height="17.067"/>
	
		<rect x="196.26" y="195.596" transform="matrix(-0.7071 0.7071 -0.7071 -0.7071 518.5455 263.0508)" style="fill:#FE7C26;" width="17.067" height="86.647"/>
	
		<rect x="76.137" y="230.395" transform="matrix(-0.7071 0.7071 -0.7071 -0.7071 372.8784 323.4052)" style="fill:#FE7C26;" width="86.647" height="17.067"/>
	<rect x="460.8" y="59.733" style="fill:#FE7C26;" width="17.067" height="42.667"/>
</g>
<g>
	<path style="fill:#002874;" d="M76.8,307.2c-14.14,0-25.6-11.46-25.6-25.6c0-14.14,11.46-25.6,25.6-25.6
		c14.106,0.077,25.523,11.494,25.6,25.6C102.4,295.74,90.94,307.2,76.8,307.2z M76.8,273.067c-4.71,0-8.533,3.823-8.533,8.533
		s3.823,8.533,8.533,8.533s8.533-3.823,8.533-8.533c0.026-2.227-0.862-4.369-2.458-5.922
		C81.297,274.005,79.095,273.067,76.8,273.067z"/>
	<path style="fill:#002874;" d="M162.133,221.867c-14.114-0.06-25.54-11.486-25.6-25.6c0-14.14,11.46-25.6,25.6-25.6
		c14.14,0,25.6,11.46,25.6,25.6C187.665,210.372,176.239,221.798,162.133,221.867z M162.133,187.733
		c-4.71,0-8.533,3.823-8.533,8.533c-0.026,2.227,0.862,4.369,2.458,5.922l0.154,0.162c3.319,3.149,8.525,3.149,11.844,0
		c1.673-1.579,2.62-3.78,2.611-6.084C170.667,191.556,166.844,187.733,162.133,187.733z"/>
	<path style="fill:#002874;" d="M349.867,204.8c-14.106-0.077-25.523-11.494-25.6-25.6c0-14.14,11.46-25.6,25.6-25.6
		c14.114,0.06,25.54,11.486,25.6,25.6C375.467,193.34,364.006,204.8,349.867,204.8z M349.867,170.667
		c-4.71,0-8.533,3.823-8.533,8.533c-0.026,2.227,0.862,4.369,2.458,5.922c1.579,1.673,3.78,2.611,6.076,2.611
		c4.71,0,8.533-3.823,8.533-8.533c0.026-2.227-0.862-4.369-2.458-5.922l-0.154-0.162
		C354.227,171.537,352.094,170.65,349.867,170.667z"/>
	<path style="fill:#002874;" d="M247.467,307.2c-14.14,0-25.6-11.46-25.6-25.6c-0.034-6.827,2.714-13.38,7.612-18.142
		c10.121-9.591,25.984-9.557,36.062,0.077c4.847,4.753,7.561,11.272,7.526,18.065C273.067,295.74,261.606,307.2,247.467,307.2z
		 M247.467,273.067c-2.227-0.017-4.361,0.87-5.922,2.449c-1.673,1.579-2.62,3.78-2.611,6.084c0,4.71,3.823,8.533,8.533,8.533
		S256,286.31,256,281.6c0.026-2.227-0.862-4.369-2.458-5.922l-0.154-0.162C251.827,273.937,249.694,273.05,247.467,273.067z"/>
</g>
<g>
	<path style="fill:#FE7C26;" d="M256,170.667c-47.13,0-85.333-38.204-85.333-85.333S208.87,0,256,0s85.333,38.204,85.333,85.333
		C341.282,132.437,303.104,170.615,256,170.667z M256,17.067c-37.7,0-68.267,30.566-68.267,68.267S218.3,153.6,256,153.6
		s68.267-30.566,68.267-68.267C324.224,47.65,293.683,17.109,256,17.067z"/>
	<path style="fill:#FE7C26;" d="M273.067,93.867V76.8c2.227,0.017,4.361-0.87,5.922-2.449c1.673-1.579,2.62-3.78,2.611-6.084
		c0-4.71-3.823-8.533-8.533-8.533h-25.6v25.6H230.4V51.2c0-4.71,3.823-8.533,8.533-8.533h34.133c14.14,0,25.6,11.46,25.6,25.6
		C298.598,82.372,287.172,93.798,273.067,93.867z"/>
	<path style="fill:#FE7C26;" d="M273.067,128h-34.133c-4.71,0-8.533-3.823-8.533-8.533V85.333c0-4.71,3.823-8.533,8.533-8.533
		h34.133c14.14,0,25.6,11.46,25.6,25.6C298.598,116.506,287.172,127.932,273.067,128z M247.467,110.933h25.6
		c2.227,0.017,4.361-0.87,5.922-2.449c1.673-1.579,2.62-3.78,2.611-6.084c0-4.71-3.823-8.533-8.533-8.533h-25.6V110.933z"/>
	<path style="fill:#FE7C26;" d="M247.467,136.533H230.4V128h-8.533v-17.067h17.067c4.71,0,8.533,3.823,8.533,8.533V136.533z"/>
	<path style="fill:#FE7C26;" d="M238.933,59.733h-17.067V42.667h8.533v-8.533h17.067V51.2
		C247.467,55.91,243.644,59.733,238.933,59.733z"/>
	<rect x="264.533" y="34.133" style="fill:#FE7C26;" width="17.067" height="17.067"/>
	<rect x="264.533" y="119.467" style="fill:#FE7C26;" width="17.067" height="17.067"/>
</g>
<g>
	<path style="fill:#26B6FF;" d="M162.133,179.2c9.412,0.026,17.041,7.654,17.067,17.067c0,9.429-7.637,17.067-17.067,17.067
		c-9.429,0-17.067-7.637-17.067-17.067C145.092,186.854,152.721,179.226,162.133,179.2z"/>
	<path style="fill:#26B6FF;" d="M259.499,269.568c3.243,3.157,5.06,7.501,5.035,12.032c0,9.429-7.637,17.067-17.067,17.067
		S230.4,291.029,230.4,281.6c-0.026-9.395,7.569-17.041,16.964-17.067C251.921,264.516,256.29,266.334,259.499,269.568z"/>
	<path style="fill:#26B6FF;" d="M361.899,167.168c3.243,3.157,5.06,7.501,5.035,12.032c-0.026,9.412-7.654,17.041-17.067,17.067
		c-9.395-0.068-16.998-7.671-17.067-17.067c0.026-9.412,7.654-17.041,17.067-17.067
		C354.398,162.108,358.741,163.925,361.899,167.168z"/>
	<path style="fill:#26B6FF;" d="M88.832,269.568c3.243,3.157,5.06,7.501,5.035,12.032c0,9.429-7.637,17.067-17.067,17.067
		s-17.067-7.637-17.067-17.067c0-9.429,7.637-17.067,17.067-17.067C81.331,264.508,85.675,266.325,88.832,269.568z"/>
</g>
<path d="M153.6,503.467V460.8c-0.051-0.725-0.196-1.442-0.427-2.133c0.23-0.691,0.375-1.408,0.427-2.133v-42.667
	c0-4.71-3.823-8.533-8.533-8.533H8.533c-4.71,0-8.533,3.823-8.533,8.533v42.667c0.051,0.725,0.196,1.442,0.427,2.133
	c-0.23,0.691-0.375,1.408-0.427,2.133v42.667C0,508.177,3.823,512,8.533,512h136.533C149.777,512,153.6,508.177,153.6,503.467z
	 M34.133,494.933H17.067v-25.6h17.067V494.933z M34.133,448H17.067v-25.6h17.067V448z M68.267,494.933H51.2v-25.6h17.067V494.933z
	 M68.267,448H51.2v-25.6h17.067V448z M102.4,494.933H85.333v-25.6H102.4V494.933z M102.4,448H85.333v-25.6H102.4V448z
	 M136.533,494.933h-17.067v-25.6h17.067V494.933z M136.533,448h-17.067v-25.6h17.067V448z"/>
<path d="M332.8,503.467V332.8c0-4.71-3.823-8.533-8.533-8.533H187.733c-4.71,0-8.533,3.823-8.533,8.533v170.667
	c0,4.71,3.823,8.533,8.533,8.533h136.533C328.977,512,332.8,508.177,332.8,503.467z M213.333,494.933h-17.067v-25.6h17.067V494.933z
	 M213.333,452.267h-17.067v-25.6h17.067V452.267z M213.333,409.6h-17.067V384h17.067V409.6z M213.333,366.933h-17.067v-25.6h17.067
	V366.933z M247.467,494.933H230.4v-25.6h17.067V494.933z M247.467,452.267H230.4v-25.6h17.067V452.267z M247.467,409.6H230.4V384
	h17.067V409.6z M247.467,366.933H230.4v-25.6h17.067V366.933z M281.6,494.933h-17.067v-25.6H281.6V494.933z M281.6,452.267h-17.067
	v-25.6H281.6V452.267z M281.6,409.6h-17.067V384H281.6V409.6z M281.6,366.933h-17.067v-25.6H281.6V366.933z M315.733,494.933
	h-17.067v-25.6h17.067V494.933z M315.733,452.267h-17.067v-25.6h17.067V452.267z M315.733,409.6h-17.067V384h17.067V409.6z
	 M315.733,366.933h-17.067v-25.6h17.067V366.933z"/>
<path d="M512,503.467v-253.5c0-4.71-3.823-8.533-8.533-8.533H366.933c-4.71,0-8.533,3.823-8.533,8.533v253.5
	c0,4.71,3.823,8.533,8.533,8.533h136.533C508.177,512,512,508.177,512,503.467z M392.533,494.933h-17.067v-25.6h17.067V494.933z
	 M392.533,452.267h-17.067v-25.6h17.067V452.267z M392.533,409.6h-17.067V384h17.067V409.6z M392.533,366.933h-17.067v-25.6h17.067
	V366.933z M392.533,324.267h-17.067v-23.1h17.067V324.267z M392.533,281.6h-17.067v-23.1h17.067V281.6z M426.667,494.933H409.6
	v-25.6h17.067V494.933z M426.667,452.267H409.6v-25.6h17.067V452.267z M426.667,409.6H409.6V384h17.067V409.6z M426.667,366.933
	H409.6v-25.6h17.067V366.933z M426.667,324.267H409.6v-23.1h17.067V324.267z M426.667,281.6H409.6v-23.1h17.067V281.6z
	 M460.8,494.933h-17.067v-25.6H460.8V494.933z M460.8,452.267h-17.067v-25.6H460.8V452.267z M460.8,409.6h-17.067V384H460.8V409.6z
	 M460.8,366.933h-17.067v-25.6H460.8V366.933z M460.8,324.267h-17.067v-23.1H460.8V324.267z M460.8,281.6h-17.067v-23.1H460.8V281.6
	z M494.933,494.933h-17.067v-25.6h17.067V494.933z M494.933,452.267h-17.067v-25.6h17.067V452.267z M494.933,409.6h-17.067V384
	h17.067V409.6z M494.933,366.933h-17.067v-25.6h17.067V366.933z M494.933,324.267h-17.067v-23.1h17.067V324.267z M494.933,281.6
	h-17.067v-23.1h17.067V281.6z"/>
<path d="M477.867,102.4V59.733h-0.077c0.128-4.582-3.482-8.405-8.064-8.533c-0.137,0-0.265,0-0.393,0h-42.667v17.067h22.067
	l-87.893,87.893c-3.422-1.673-7.168-2.543-10.974-2.56c-14.14,0-25.6,11.46-25.6,25.6c0.017,3.797,0.887,7.552,2.56,10.965
	l-68.395,68.395c-6.912-3.422-15.019-3.422-21.931,0l-51.328-51.328c1.664-3.413,2.543-7.168,2.56-10.965
	c0-14.14-11.46-25.6-25.6-25.6c-14.14,0-25.6,11.46-25.6,25.6c0.017,3.806,0.896,7.552,2.56,10.974L87.765,258.56
	c-3.413-1.664-7.168-2.543-10.965-2.56c-14.14,0-25.6,11.46-25.6,25.6s11.46,25.6,25.6,25.6s25.6-11.46,25.6-25.6
	c-0.017-3.806-0.896-7.552-2.56-10.974l51.328-51.319c6.912,3.422,15.027,3.422,21.939,0l51.319,51.328
	c-1.673,3.413-2.543,7.168-2.56,10.965c0,14.14,11.46,25.6,25.6,25.6c14.14,0,25.6-11.46,25.6-25.6
	c-0.017-3.797-0.887-7.552-2.56-10.965l68.395-68.395c3.413,1.673,7.168,2.543,10.965,2.56c14.14,0,25.6-11.46,25.6-25.6
	c-0.017-3.797-0.887-7.552-2.56-10.965L460.8,80.333V102.4H477.867z M76.8,290.133c-4.71,0-8.533-3.823-8.533-8.533
	s3.823-8.533,8.533-8.533s8.533,3.823,8.533,8.533S81.51,290.133,76.8,290.133z M162.133,204.8c-4.71,0-8.533-3.823-8.533-8.533
	s3.823-8.533,8.533-8.533s8.533,3.823,8.533,8.533S166.844,204.8,162.133,204.8z M247.467,290.133c-4.71,0-8.533-3.823-8.533-8.533
	s3.823-8.533,8.533-8.533S256,276.89,256,281.6S252.177,290.133,247.467,290.133z M349.867,187.733c-4.71,0-8.533-3.823-8.533-8.533
	s3.823-8.533,8.533-8.533c4.71,0,8.533,3.823,8.533,8.533S354.577,187.733,349.867,187.733z"/>
<path d="M256,170.667c47.13,0,85.333-38.204,85.333-85.333S303.13,0,256,0s-85.333,38.204-85.333,85.333
	C170.718,132.437,208.896,170.615,256,170.667z M256,17.067c37.7,0,68.267,30.566,68.267,68.267S293.7,153.6,256,153.6
	s-68.267-30.566-68.267-68.267C187.776,47.65,218.317,17.109,256,17.067z"/>
<path d="M230.4,136.533h17.067V128h17.067v8.533H281.6V126.43c13.235-4.582,20.258-19.021,15.676-32.256
	c-1.135-3.277-2.927-6.281-5.265-8.841c9.464-10.325,8.755-26.368-1.57-35.831c-2.56-2.338-5.564-4.13-8.841-5.265V34.133h-17.067
	v8.533h-17.067v-8.533H230.4v8.533h-8.533v17.067h8.533v51.2h-8.533V128h8.533V136.533z M247.467,59.733h25.6
	c4.71,0,8.533,3.823,8.533,8.533s-3.823,8.533-8.533,8.533h-25.6V59.733z M247.467,93.867h25.6c4.71,0,8.533,3.823,8.533,8.533
	c0,4.71-3.823,8.533-8.533,8.533h-25.6V93.867z"/>
<g>
</g>
<g>
</g>
<g>
</g>
<g>
</g>
<g>
</g>
<g>
</g>
<g>
</g>
<g>
</g>
<g>
</g>
<g>
</g>
<g>
</g>
<g>
</g>
<g>
</g>
<g>
</g>
<g>
</g>
</svg>
