<?xml version="1.0" encoding="iso-8859-1"?>
<!-- Generator: Adobe Illustrator 19.0.0, SVG Export Plug-In . SVG Version: 6.00 Build 0)  -->
<svg version="1.1" id="Capa_1" xmlns="http://www.w3.org/2000/svg" xmlns:xlink="http://www.w3.org/1999/xlink" x="0px" y="0px"
	 viewBox="0 0 511.991 511.991" style="enable-background:new 0 0 511.991 511.991;" xml:space="preserve">
<g>
	<circle style="fill:#FFD173;" cx="51.267" cy="187.679" r="17.062"/>
	<circle style="fill:#FFD173;" cx="153.641" cy="460.678" r="17.062"/>
	<circle style="fill:#FFD173;" cx="418.109" cy="486.271" r="17.062"/>
	<circle style="fill:#FFD173;" cx="486.358" cy="255.929" r="17.062"/>
	<circle style="fill:#FFD173;" cx="443.702" cy="68.243" r="17.062"/>
	<circle style="fill:#FFD173;" cx="119.517" cy="25.587" r="17.062"/>
	<circle style="fill:#FFD173;" cx="230.422" cy="76.774" r="17.062"/>
	<path style="fill:#FFD173;" d="M238.928,204.759h34.125c14.136,0,25.594,11.457,25.594,25.594s-11.457,25.594-25.594,25.594
		h-42.656v-51.187H238.928z"/>
	<path style="fill:#FFD173;" d="M273.053,255.946c14.136,0,25.594,11.457,25.594,25.594c0,14.136-11.457,25.594-25.594,25.594
		h-42.656v-51.187L273.053,255.946L273.053,255.946z"/>
	<path style="fill:#FFD173;" d="M276.636,155.619c55.41,11.44,91.053,65.631,79.613,121.041
		c-8.267,40.054-39.568,71.346-79.613,79.613l-3.583-23.546v-25.594c14.136,0,25.594-11.457,25.594-25.594
		c0-14.136-11.457-25.594-25.594-25.594c14.136,0,25.594-11.457,25.594-25.594s-11.457-25.594-25.594-25.594v-25.594
		L276.636,155.619z"/>
	<path style="fill:#FFD173;" d="M273.053,307.133v25.594l3.583,23.546c-55.41,11.253-109.447-24.544-120.699-79.954
		c-11.253-55.41,24.544-109.447,79.954-120.699c13.445-2.73,27.3-2.73,40.745,0l-3.583,23.546v25.594h-42.656v102.374H273.053z"/>
</g>
<g>
	<path style="fill:#D3D3D3;" d="M324.24,136.509h-17.062V68.26c0-4.709,3.822-8.531,8.531-8.531h110.906v17.062H324.24V136.509z"/>
	<rect x="221.891" y="93.836" style="fill:#D3D3D3;" width="17.062" height="34.125"/>
	<path style="fill:#D3D3D3;" d="M162.147,443.633h-17.062v-25.594H85.366c-4.709,0-8.531-3.822-8.531-8.531v-76.781
		c0-4.709,3.822-8.531,8.531-8.531h76.781v17.062h-68.25v59.718h59.718c4.709,0,8.531,3.822,8.531,8.531V443.633z"/>
	<path style="fill:#D3D3D3;" d="M426.614,469.226h-17.062V358.321h-73.94v-17.062h82.471c4.709,0,8.531,3.822,8.531,8.531V469.226z"
		/>
	<path style="fill:#D3D3D3;" d="M119.491,264.477h-68.25c-4.709,0-8.531-3.822-8.531-8.531v-51.187h17.062v42.656h59.718V264.477z"
		/>
	<rect x="392.515" y="247.398" style="fill:#D3D3D3;" width="85.312" height="17.062"/>
	<path style="fill:#D3D3D3;" d="M511.926,170.634h-68.25c-4.709,0-8.531-3.822-8.531-8.531V85.322h17.062v68.25h59.718V170.634z"/>
	<path style="fill:#D3D3D3;" d="M213.334,85.322h-93.843c-4.709,0-8.531-3.822-8.531-8.531V42.666h17.062V68.26h85.312V85.322z"/>
	<rect x="0.054" y="452.147" style="fill:#D3D3D3;" width="136.499" height="17.062"/>
	<path style="fill:#D3D3D3;" d="M59.773,170.634H42.71v-51.187H0.054v-17.062h51.187c4.709,0,8.531,3.822,8.531,8.531V170.634z"/>
	<path style="fill:#D3D3D3;" d="M341.302,511.882H324.24v-42.656h-68.25c-4.709,0-8.531-3.822-8.531-8.531v-68.25h17.062v59.718
		h68.25c4.709,0,8.531,3.822,8.531,8.531V511.882z"/>
	<path style="fill:#D3D3D3;" d="M238.928,59.729h-17.062V8.541c0-4.709,3.822-8.531,8.531-8.531h281.53v17.062H238.928V59.729z"/>
	<path style="fill:#D3D3D3;" d="M511.926,400.977h-25.594c-4.709,0-8.531-3.822-8.531-8.531V273.009h17.062v110.906h17.062V400.977z
		"/>
	<rect x="0.054" y="17.055" style="fill:#D3D3D3;" width="102.374" height="17.062"/>
	<rect x="0.054" y="375.366" style="fill:#D3D3D3;" width="85.312" height="17.062"/>
	<rect x="0.054" y="341.241" style="fill:#D3D3D3;" width="51.187" height="17.062"/>
	<rect x="401.046" y="110.899" style="fill:#D3D3D3;" width="17.062" height="25.594"/>
</g>
<g>
	<path style="fill:#FE7C26;" d="M273.053,264.477v-17.062c9.427,0,17.062-7.635,17.062-17.062s-7.635-17.062-17.062-17.062h-34.125
		v42.656h-17.062v-51.187c0-4.709,3.822-8.531,8.531-8.531h42.656c18.845,0,34.125,15.279,34.125,34.125
		S291.898,264.477,273.053,264.477z"/>
	<path style="fill:#FE7C26;" d="M273.053,315.665h-42.656c-4.709,0-8.531-3.822-8.531-8.531v-51.187
		c0-4.709,3.822-8.531,8.531-8.531h42.656c18.845,0,34.125,15.279,34.125,34.125C307.177,300.385,291.898,315.665,273.053,315.665z
		 M238.928,298.602h34.125c9.427,0,17.062-7.635,17.062-17.062s-7.635-17.062-17.062-17.062h-34.125V298.602z"/>
	<rect x="230.422" y="179.148" style="fill:#FE7C26;" width="17.062" height="25.594"/>
	<rect x="230.422" y="307.116" style="fill:#FE7C26;" width="17.062" height="25.594"/>
	<rect x="264.547" y="179.148" style="fill:#FE7C26;" width="17.062" height="25.594"/>
	<rect x="264.547" y="307.116" style="fill:#FE7C26;" width="17.062" height="25.594"/>
	<rect x="213.36" y="196.211" style="fill:#FE7C26;" width="17.062" height="17.062"/>
	<rect x="213.36" y="298.585" style="fill:#FE7C26;" width="17.062" height="17.062"/>
	<path style="fill:#FE7C26;" d="M486.333,281.54c-14.136,0-25.594-11.457-25.594-25.594c0-14.136,11.457-25.594,25.594-25.594
		s25.594,11.457,25.594,25.594C511.926,270.074,500.46,281.54,486.333,281.54z M486.333,247.415c-4.709,0-8.531,3.822-8.531,8.531
		s3.822,8.531,8.531,8.531s8.531-3.822,8.531-8.531S491.042,247.415,486.333,247.415z"/>
	<path style="fill:#FE7C26;" d="M443.677,93.853c-14.136,0-25.594-11.457-25.594-25.594s11.457-25.594,25.594-25.594
		S469.27,54.124,469.27,68.26S457.804,93.853,443.677,93.853z M443.677,59.729c-4.709,0-8.531,3.822-8.531,8.531
		s3.822,8.531,8.531,8.531s8.531-3.822,8.531-8.531S448.386,59.729,443.677,59.729z"/>
	<path style="fill:#FE7C26;" d="M51.241,213.29c-14.136,0-25.594-11.457-25.594-25.594c0-14.136,11.457-25.594,25.594-25.594
		s25.594,11.457,25.594,25.594C76.835,201.833,65.369,213.29,51.241,213.29z M51.241,179.165c-4.709,0-8.531,3.822-8.531,8.531
		c0,4.709,3.822,8.531,8.531,8.531s8.531-3.822,8.531-8.531C59.773,182.987,55.951,179.165,51.241,179.165z"/>
	<path style="fill:#FE7C26;" d="M153.616,486.289c-14.136,0-25.594-11.457-25.594-25.594c0-14.136,11.457-25.594,25.594-25.594
		c14.136,0,25.594,11.457,25.594,25.594C179.209,474.831,167.743,486.289,153.616,486.289z M153.616,452.164
		c-4.709,0-8.531,3.822-8.531,8.531s3.822,8.531,8.531,8.531c4.709,0,8.531-3.822,8.531-8.531S158.325,452.164,153.616,452.164z"/>
	<path style="fill:#FE7C26;" d="M119.491,51.197c-14.136,0-25.594-11.457-25.594-25.594S105.355,0.01,119.491,0.01
		s25.594,11.457,25.594,25.594S133.619,51.197,119.491,51.197z M119.491,17.073c-4.709,0-8.531,3.822-8.531,8.531
		s3.822,8.531,8.531,8.531c4.709,0,8.531-3.822,8.531-8.531S124.2,17.073,119.491,17.073z"/>
	<path style="fill:#FE7C26;" d="M230.397,102.385c-14.136,0-25.594-11.457-25.594-25.594s11.457-25.594,25.594-25.594
		c14.136,0,25.594,11.457,25.594,25.594S244.524,102.385,230.397,102.385z M230.397,68.26c-4.709,0-8.531,3.822-8.531,8.531
		s3.822,8.531,8.531,8.531c4.709,0,8.531-3.822,8.531-8.531S235.106,68.26,230.397,68.26z"/>
	<path style="fill:#FE7C26;" d="M418.083,511.882c-14.136,0-25.594-11.457-25.594-25.594c0-14.136,11.457-25.594,25.594-25.594
		s25.594,11.457,25.594,25.594C443.677,500.425,432.211,511.882,418.083,511.882z M418.083,477.757
		c-4.709,0-8.531,3.822-8.531,8.531c0,4.709,3.822,8.531,8.531,8.531s8.531-3.822,8.531-8.531
		C426.614,481.579,422.792,477.757,418.083,477.757z"/>
</g>
<rect x="281.609" y="418.022" style="fill:#D3D3D3;" width="17.062" height="17.062"/>
<path style="fill:#FE7C26;" d="M230.397,121.921c8.429-1.647,17.003-2.483,25.594-2.474c20.705-0.034,41.137,4.701,59.718,13.821
	c67.78,32.99,95.993,114.685,63.003,182.465s-114.685,95.993-182.465,63.003s-95.993-114.685-63.003-182.465
	C152.08,157.547,188.09,129.983,230.397,121.921z M358.365,255.946c-0.162-56.374-46-101.939-102.374-101.777
	c-56.374,0.162-101.939,46-101.777,102.374c0.162,56.374,46,101.939,102.374,101.777c6.731-0.017,13.445-0.708,20.048-2.048
	C324.231,346.454,358.373,304.54,358.365,255.946z"/>
<path d="M182.05,338.605c45.65,40.839,115.768,36.932,156.599-8.719s36.932-115.768-8.719-156.599s-115.768-36.932-156.599,8.719
	c-18.189,20.338-28.247,46.657-28.247,73.94C145.059,287.503,158.504,317.576,182.05,338.605z M193.431,185.99
	c38.629-34.551,97.955-31.241,132.507,7.388s31.241,97.955-7.388,132.507s-97.955,31.241-132.507-7.388
	c-15.382-17.207-23.896-39.474-23.896-62.551C162.121,229.226,173.502,203.778,193.431,185.99z"/>
<path d="M230.397,332.727h17.062v-17.062h17.062v17.062h17.062v-18.274c18.129-4.556,29.134-22.957,24.57-41.086
	c-1.706-6.782-5.468-12.865-10.766-17.421c14.179-12.183,15.8-33.553,3.617-47.741c-4.556-5.306-10.638-9.069-17.421-10.766v-18.274
	h-17.062v17.062h-17.062v-17.062h-17.062v17.062h-17.062v17.062h8.531v85.312h-8.531v17.062h17.062V332.727z M238.928,213.29h34.125
	c9.427,0,17.062,7.635,17.062,17.062s-7.635,17.062-17.062,17.062h-34.125V213.29z M238.928,264.477h34.125
	c9.427,0,17.062,7.635,17.062,17.062s-7.635,17.062-17.062,17.062h-34.125V264.477z"/>
<path d="M511.926,17.073V0.01h-281.53c-4.709,0-8.531,3.822-8.531,8.531v44.226c-7.226,2.585-12.908,8.267-15.493,15.493h-78.351
	V49.628c13.309-4.675,20.296-19.246,15.621-32.555c-4.675-13.309-19.246-20.296-32.555-15.621
	C103.777,4.02,98.035,9.77,95.467,17.073H0.054v17.062h95.413c2.585,7.226,8.267,12.908,15.493,15.493v27.163
	c0,4.709,3.822,8.531,8.531,8.531h86.882c2.585,7.226,8.267,12.908,15.493,15.493v14.367
	c-61.843,15.075-106.64,68.693-110.471,132.234H59.773V211.72c13.266-4.624,20.279-19.127,15.655-32.393
	c-2.551-7.337-8.318-13.095-15.655-15.655v-52.757c0-4.709-3.822-8.531-8.531-8.531H0.054v17.062H42.71v44.226
	c-13.266,4.624-20.279,19.127-15.655,32.393c2.551,7.337,8.318,13.095,15.655,15.655v44.226c0,4.709,3.822,8.531,8.531,8.531h60.153
	c1.16,20.884,6.859,41.265,16.696,59.718H85.366c-4.709,0-8.531,3.822-8.531,8.531v42.656H0.054v17.062h76.781v17.062
	c0,4.709,3.822,8.531,8.531,8.531h59.718v18.632c-7.226,2.585-12.908,8.267-15.493,15.493H0.054v17.062h129.538
	c4.675,13.309,19.246,20.296,32.555,15.621c13.309-4.675,20.296-19.255,15.621-32.555c-2.568-7.311-8.318-13.053-15.621-15.621
	v-27.163c0-4.709-3.822-8.531-8.531-8.531H93.897v-59.718h45.07c25.483,34.986,65.281,56.741,108.491,59.283v60.153
	c0,4.709,3.822,8.531,8.531,8.531h68.25v42.656h17.062v-51.187c0-4.709-3.822-8.531-8.531-8.531h-68.25v-51.622
	c35.49-2.022,68.992-17.054,94.091-42.221h50.94v103.944c-13.326,4.709-20.313,19.332-15.595,32.657
	c4.709,13.326,19.332,20.313,32.657,15.595c13.326-4.709,20.313-19.332,15.595-32.657c-2.576-7.286-8.309-13.019-15.595-15.595
	V349.789c0-4.709-3.822-8.531-8.531-8.531h-45.07c16.406-22.394,25.977-49.063,27.573-76.781h61.723
	c2.585,7.226,8.267,12.908,15.493,15.493v112.475c0,4.709,3.822,8.531,8.531,8.531h25.594v-17.062h-17.062V279.97
	c13.309-4.675,20.296-19.255,15.621-32.555c-4.675-13.309-19.255-20.296-32.555-15.621c-7.311,2.568-13.053,8.318-15.621,15.621
	h-61.723c-2.969-50.351-31.881-95.558-76.346-119.369V76.791h95.413c2.585,7.226,8.267,12.908,15.493,15.493v69.819
	c0,4.709,3.822,8.531,8.531,8.531h68.25v-17.062h-59.718V92.284c13.309-4.675,20.296-19.246,15.621-32.555
	c-4.675-13.309-19.255-20.296-32.555-15.621c-7.311,2.568-13.053,8.318-15.621,15.621H315.709c-4.709,0-8.531,3.822-8.531,8.531
	v52.16c-16.346-6.253-33.69-9.47-51.187-9.504c-5.707,0.034-11.398,0.392-17.062,1.092v-11.193
	c13.266-4.624,20.279-19.127,15.655-32.393c-2.551-7.337-8.318-13.095-15.655-15.655V17.073H511.926z M119.491,34.135
	c-4.709,0-8.531-3.822-8.531-8.531s3.822-8.531,8.531-8.531c4.709,0,8.531,3.822,8.531,8.531S124.2,34.135,119.491,34.135z
	 M51.241,196.228c-4.709,0-8.531-3.822-8.531-8.531c0-4.709,3.822-8.531,8.531-8.531s8.531,3.822,8.531,8.531
	C59.773,192.406,55.951,196.228,51.241,196.228z M153.616,452.164c4.709,0,8.531,3.822,8.531,8.531s-3.822,8.531-8.531,8.531
	c-4.709,0-8.531-3.822-8.531-8.531S148.898,452.164,153.616,452.164z M418.083,477.757c4.709,0,8.531,3.822,8.531,8.531
	c0,4.709-3.822,8.531-8.531,8.531s-8.531-3.822-8.531-8.531C409.552,481.579,413.365,477.757,418.083,477.757z M486.333,247.415
	c4.709,0,8.531,3.822,8.531,8.531s-3.822,8.531-8.531,8.531s-8.531-3.822-8.531-8.531S481.615,247.415,486.333,247.415z
	 M443.677,59.729c4.709,0,8.531,3.822,8.531,8.531s-3.822,8.531-8.531,8.531s-8.531-3.822-8.531-8.531
	S438.959,59.729,443.677,59.729z M255.99,127.978c70.672,0,127.968,57.296,127.968,127.968S326.663,383.914,255.99,383.914
	s-127.968-57.296-127.968-127.968C128.099,185.299,185.343,128.055,255.99,127.978z M230.397,85.322
	c-4.709,0-8.531-3.822-8.531-8.531s3.822-8.531,8.531-8.531c4.709,0,8.531,3.822,8.531,8.531S235.106,85.322,230.397,85.322z"/>
<rect x="0.054" y="341.241" width="51.187" height="17.062"/>
<rect x="281.609" y="418.022" width="17.062" height="17.062"/>
<rect x="401.046" y="110.899" width="17.062" height="25.594"/>
<g>
</g>
<g>
</g>
<g>
</g>
<g>
</g>
<g>
</g>
<g>
</g>
<g>
</g>
<g>
</g>
<g>
</g>
<g>
</g>
<g>
</g>
<g>
</g>
<g>
</g>
<g>
</g>
<g>
</g>
</svg>
