<?xml version="1.0" encoding="iso-8859-1"?>
<!-- Generator: Adobe Illustrator 19.0.0, SVG Export Plug-In . SVG Version: 6.00 Build 0)  -->
<svg version="1.1" id="Capa_1" xmlns="http://www.w3.org/2000/svg" xmlns:xlink="http://www.w3.org/1999/xlink" x="0px" y="0px"
	 viewBox="0 0 511.999 511.999" style="enable-background:new 0 0 511.999 511.999;" xml:space="preserve">
<circle style="fill:#F9B544;" cx="375.46" cy="170.664" r="127.998"/>
<circle style="fill:#FFD173;" cx="375.46" cy="366.927" r="127.998"/>
<g>
	<path style="fill:#F9B544;" d="M383.994,230.396v0.256c-2.816-0.171-5.632-0.256-8.533-0.256s-5.717,0.085-8.533,0.256V213.33
		h17.066V230.396z"/>
	<path style="fill:#F9B544;" d="M383.994,76.799v17.066h-17.066V76.799h-17.066v17.066h-17.066v17.066h8.533v85.332h-8.533v17.066
		h17.066v17.066h17.066v0.256c-26.589,1.621-52.112,11.025-73.385,27.05h-11.946v-27.306h8.533c4.71,0,8.533-3.823,8.533-8.533
		v-68.266c0-4.71-3.823-8.533-8.533-8.533h-17.066V93.865h3.243c4.71,0,8.533-3.823,8.533-8.533V61.439h8.704l10.24,13.653
		c30.694-22.997,70.552-29.883,107.177-18.517l-9.899,20.224H383.994z"/>
</g>
<g>
	<path style="fill:#FE7C26;" d="M415.054,153.597c14.157,12.373,15.599,33.885,3.226,48.042c-4.54,5.188-10.539,8.875-17.22,10.581
		v-7.424h-8.533c14.14-0.017,25.591-11.486,25.574-25.625c-0.009-8.149-3.9-15.812-10.47-20.625
		C410.327,157.25,412.819,155.586,415.054,153.597z"/>
	<path style="fill:#FE7C26;" d="M418.126,392.527c0.043-8.175-3.866-15.872-10.496-20.65c2.697-1.297,5.188-2.961,7.424-4.949
		c14.157,12.373,15.599,33.885,3.226,48.042c-4.54,5.188-10.539,8.875-17.22,10.581v-7.424h-8.533
		C406.666,418.126,418.126,406.666,418.126,392.527z"/>
</g>
<g>
	<path style="fill:#F9B544;" d="M392.527,110.931c9.412,0.026,17.041,7.654,17.066,17.066c-0.068,9.395-7.671,16.998-17.066,17.066
		h-34.133v-34.133H392.527z"/>
	<path style="fill:#F9B544;" d="M392.527,162.131c9.412,0.026,17.041,7.654,17.066,17.066c-0.068,9.395-7.671,16.998-17.066,17.066
		h-34.133v-34.133H392.527z"/>
</g>
<g>
	<path style="fill:#FFD173;" d="M392.527,324.261c9.412,0.026,17.041,7.654,17.066,17.066c-0.068,9.395-7.671,16.998-17.066,17.066
		h-34.133v-34.133H392.527z"/>
	<path style="fill:#FFD173;" d="M392.527,375.46c9.412,0.026,17.041,7.654,17.066,17.066c-0.068,9.395-7.671,16.998-17.066,17.066
		h-34.133V375.46H392.527z"/>
</g>
<g>
	<path style="fill:#FE7C26;" d="M407.631,158.547c-4.215-3.157-9.327-4.89-14.592-4.949c5.256-0.102,10.359-1.826,14.592-4.949
		c2.697,1.288,5.197,2.952,7.424,4.949C412.819,155.586,410.327,157.25,407.631,158.547z"/>
	<path style="fill:#FE7C26;" d="M407.631,371.876c-4.215-3.157-9.327-4.89-14.592-4.949c5.256-0.102,10.359-1.826,14.592-4.949
		c2.697,1.289,5.197,2.952,7.424,4.949C412.819,368.915,410.327,370.579,407.631,371.876z"/>
	<path style="fill:#FE7C26;" d="M407.631,148.648c-4.232,3.123-9.335,4.847-14.592,4.949h-0.512v-8.533
		C397.775,145.064,402.946,146.293,407.631,148.648z"/>
	<path style="fill:#FE7C26;" d="M407.631,361.978c-4.232,3.123-9.335,4.847-14.592,4.949h-0.512v-8.533
		C397.775,358.394,402.946,359.623,407.631,361.978z"/>
	<path style="fill:#FE7C26;" d="M401.06,308.304v7.424h-17.066v-8.533h8.533C395.411,307.169,398.278,307.545,401.06,308.304z"/>
	<path style="fill:#FE7C26;" d="M401.06,290.128v18.176c-2.782-0.759-5.649-1.135-8.533-1.109h-8.533v-17.066H401.06z"/>
	<path style="fill:#FE7C26;" d="M401.06,94.974v7.424h-17.066v-8.533h8.533C395.411,93.839,398.278,94.215,401.06,94.974z"/>
	<path style="fill:#FE7C26;" d="M401.06,76.799v18.176c-2.782-0.759-5.649-1.135-8.533-1.109h-8.533V76.799H401.06z"/>
	<path style="fill:#FE7C26;" d="M418.126,127.998c0-13.943-11.153-25.318-25.088-25.6h8.021v-7.424
		c18.253,4.71,29.226,23.33,24.516,41.582c-1.519,5.896-4.599,11.281-8.9,15.59c-0.512,0.512-1.109,1.024-1.621,1.451
		c-2.227-1.997-4.727-3.661-7.424-4.949c1.058-0.785,2.057-1.638,2.987-2.56C415.421,141.293,418.126,134.79,418.126,127.998z"/>
	<path style="fill:#FE7C26;" d="M393.039,315.728h8.021v-7.424c18.253,4.71,29.226,23.33,24.516,41.582
		c-1.519,5.896-4.599,11.281-8.9,15.59c-0.512,0.512-1.109,1.024-1.621,1.451c-2.227-1.997-4.727-3.661-7.424-4.949
		c1.058-0.785,2.057-1.638,2.987-2.56c9.992-10.001,9.992-26.205-0.009-36.206C405.932,318.544,399.643,315.865,393.039,315.728z"/>
	<path style="fill:#FE7C26;" d="M393.039,153.597c5.265,0.06,10.376,1.792,14.592,4.949c-4.676,2.398-9.856,3.627-15.104,3.584
		v-8.533H393.039z"/>
	<path style="fill:#FE7C26;" d="M407.631,371.876c-4.676,2.398-9.856,3.627-15.104,3.584v-8.533h0.512
		C398.304,366.987,403.415,368.719,407.631,371.876z"/>
	<path style="fill:#FE7C26;" d="M392.527,426.66h-8.533v-8.533h17.066v7.424C398.278,426.31,395.411,426.677,392.527,426.66z"/>
	<path style="fill:#FE7C26;" d="M392.527,418.126h-42.666v-51.199h42.666v8.533h-34.133v34.133h34.133
		c9.395-0.068,16.998-7.671,17.066-17.066c-0.026-9.412-7.654-17.041-17.066-17.066c5.248,0.043,10.428-1.186,15.104-3.584
		c11.409,8.354,13.875,24.371,5.521,35.78C408.339,414.227,400.676,418.118,392.527,418.126z"/>
	<rect x="358.394" y="358.394" style="fill:#FE7C26;" width="34.133" height="8.533"/>
	<path style="fill:#FE7C26;" d="M392.527,204.797h8.533v7.424c-2.782,0.759-5.649,1.126-8.533,1.109h-8.533v-8.533H392.527z"/>
	<path style="fill:#FE7C26;" d="M392.527,196.263c9.395-0.068,16.998-7.671,17.066-17.066c-0.026-9.412-7.654-17.041-17.066-17.066
		c5.248,0.043,10.428-1.186,15.104-3.584c11.409,8.354,13.875,24.371,5.521,35.78c-4.813,6.571-12.475,10.462-20.625,10.47h-42.666
		v-51.199h42.666v8.533h-34.133v34.133H392.527z"/>
	<rect x="358.394" y="145.064" style="fill:#FE7C26;" width="34.133" height="8.533"/>
	<path style="fill:#FE7C26;" d="M392.527,213.33c2.884,0.017,5.751-0.35,8.533-1.109v18.176h-17.066V213.33H392.527z"/>
	<path style="fill:#FE7C26;" d="M401.06,443.726h-17.066V426.66h8.533c2.884,0.017,5.751-0.35,8.533-1.109V443.726z"/>
	<rect x="366.927" y="307.195" style="fill:#FE7C26;" width="17.066" height="8.533"/>
	<rect x="366.927" y="93.865" style="fill:#FE7C26;" width="17.066" height="8.533"/>
	<rect x="366.927" y="204.797" style="fill:#FE7C26;" width="17.066" height="8.533"/>
	<rect x="366.927" y="418.126" style="fill:#FE7C26;" width="17.066" height="8.533"/>
	<rect x="349.861" y="426.66" style="fill:#FE7C26;" width="17.066" height="17.066"/>
	<rect x="349.861" y="290.128" style="fill:#FE7C26;" width="17.066" height="17.066"/>
	<rect x="349.861" y="76.799" style="fill:#FE7C26;" width="17.066" height="17.066"/>
	<rect x="349.861" y="358.394" style="fill:#FE7C26;" width="8.533" height="8.533"/>
	<path style="fill:#FE7C26;" d="M383.994,315.728h9.045c14.139,0.29,25.361,11.989,25.062,26.12
		c-0.137,6.605-2.816,12.894-7.484,17.57c-0.93,0.922-1.928,1.775-2.987,2.56c-4.685-2.355-9.856-3.584-15.104-3.584
		c9.395-0.068,16.998-7.671,17.066-17.066c-0.026-9.412-7.654-17.041-17.066-17.066h-34.133v34.133h-8.533v-42.666H383.994z"/>
	<rect x="349.861" y="307.195" style="fill:#FE7C26;" width="17.066" height="8.533"/>
	<rect x="349.861" y="145.064" style="fill:#FE7C26;" width="8.533" height="8.533"/>
	<path style="fill:#FE7C26;" d="M393.039,102.398c14.139,0.29,25.361,11.989,25.062,26.12c-0.137,6.605-2.816,12.894-7.484,17.57
		c-0.93,0.922-1.928,1.775-2.987,2.56c-4.685-2.355-9.856-3.584-15.104-3.584c9.395-0.068,16.998-7.671,17.066-17.066
		c-0.026-9.412-7.654-17.041-17.066-17.066h-34.133v34.133h-8.533v-42.666H393.039z"/>
	<rect x="349.861" y="93.865" style="fill:#FE7C26;" width="17.066" height="8.533"/>
	<rect x="349.861" y="204.797" style="fill:#FE7C26;" width="17.066" height="8.533"/>
	<rect x="349.861" y="418.126" style="fill:#FE7C26;" width="17.066" height="8.533"/>
	<rect x="349.861" y="213.33" style="fill:#FE7C26;" width="17.066" height="17.066"/>
	<path style="fill:#FE7C26;" d="M349.861,426.66c-4.71,0-8.533-3.823-8.533-8.533v-8.533h8.533V426.66z"/>
	<rect x="341.328" y="366.927" style="fill:#FE7C26;" width="8.533" height="42.666"/>
	<path style="fill:#FE7C26;" d="M349.861,358.394v8.533h-8.533C341.328,362.217,345.151,358.394,349.861,358.394z"/>
	<path style="fill:#FE7C26;" d="M349.861,324.261v34.133c-4.71,0-8.533,3.823-8.533,8.533v-42.666H349.861z"/>
	<path style="fill:#FE7C26;" d="M341.328,204.797v-8.533h8.533v17.066C345.151,213.33,341.328,209.507,341.328,204.797z"/>
	<rect x="341.328" y="153.597" style="fill:#FE7C26;" width="8.533" height="42.666"/>
	<path style="fill:#FE7C26;" d="M349.861,145.064v8.533h-8.533C341.328,148.887,345.151,145.064,349.861,145.064z"/>
	<path style="fill:#FE7C26;" d="M349.861,110.931v34.133c-4.71,0-8.533,3.823-8.533,8.533v-42.666H349.861z"/>
	<path style="fill:#FE7C26;" d="M341.328,110.931v-8.533c0-4.71,3.823-8.533,8.533-8.533v17.066H341.328z"/>
	<path style="fill:#FE7C26;" d="M349.861,213.33h-17.066v-17.066h8.533v8.533C341.328,209.507,345.151,213.33,349.861,213.33z"/>
	<path style="fill:#FE7C26;" d="M341.328,315.728c0-4.71,3.823-8.533,8.533-8.533v17.066h-8.533V315.728z"/>
	<path style="fill:#FE7C26;" d="M349.861,426.66h-17.066v-17.066h8.533v8.533C341.328,422.837,345.151,426.66,349.861,426.66z"/>
	<path style="fill:#FE7C26;" d="M375.46,34.133c75.408,0,136.531,61.123,136.531,136.531c0,29.542-9.583,58.282-27.306,81.919
		l-13.653-10.24c39.585-52.786,28.893-127.665-23.893-167.251c-42.478-31.854-100.879-31.854-143.358,0l-10.24-13.653
		C317.153,43.673,345.91,34.082,375.46,34.133z"/>
	<path style="fill:#FE7C26;" d="M511.991,366.927c0,75.408-61.123,136.531-136.531,136.531c-29.542,0-58.282-9.583-81.919-27.306
		l10.24-13.653c52.786,39.585,127.665,28.893,167.251-23.893s28.893-127.665-23.893-167.251
		c-42.478-31.854-100.879-31.854-143.358,0l-10.24-13.653c21.273-16.025,46.796-25.429,73.385-27.05
		c2.816-0.171,5.717-0.256,8.533-0.256c2.816,0,5.717,0.085,8.533,0.256C455.894,235.277,511.88,294.881,511.991,366.927z"/>
	<path style="fill:#FE7C26;" d="M341.328,315.728v8.533h-8.533v-17.066h17.066C345.151,307.195,341.328,311.018,341.328,315.728z"/>
	<path style="fill:#FE7C26;" d="M341.328,102.398v8.533h-8.533V93.865h17.066C345.151,93.865,341.328,97.688,341.328,102.398z"/>
	<path style="fill:#FE7C26;" d="M298.662,358.394h-8.533v-8.533h8.533c4.71,0,8.533,3.823,8.533,8.533v68.266
		c0,4.71-3.823,8.533-8.533,8.533h-13.824v-8.533h13.824V358.394z"/>
	<path style="fill:#FE7C26;" d="M290.128,153.597h-17.066v-8.533h17.066c4.71,0,8.533,3.823,8.533,8.533v68.266
		c0,4.71-3.823,8.533-8.533,8.533h-8.533v-8.533h8.533V153.597z"/>
</g>
<polygon style="fill:#FFC959;" points="290.128,366.927 290.128,418.126 276.305,418.126 264.529,418.126 264.529,366.927 "/>
<g>
	<rect x="281.595" y="349.861" style="fill:#FE7C26;" width="8.533" height="8.533"/>
	<rect x="276.305" y="426.66" style="fill:#FE7C26;" width="8.533" height="8.533"/>
	<path style="fill:#FE7C26;" d="M281.595,290.128v-8.533c4.71,0,8.533,3.823,8.533,8.533v59.732h-8.533V290.128z"/>
	<rect x="273.062" y="349.861" style="fill:#FE7C26;" width="8.533" height="8.533"/>
	<rect x="273.062" y="281.595" style="fill:#FE7C26;" width="8.533" height="8.533"/>
	<polygon style="fill:#FE7C26;" points="273.062,264.529 273.062,230.396 281.595,230.396 281.595,257.702 281.595,281.595 
		273.062,281.595 	"/>
</g>
<polygon style="fill:#FFC959;" points="281.595,162.131 281.595,213.33 273.062,213.33 255.996,213.33 255.996,162.131 "/>
<g>
	<rect x="273.062" y="221.863" style="fill:#FE7C26;" width="8.533" height="8.533"/>
	<path style="fill:#FE7C26;" d="M281.595,221.863h-8.533v-8.533C277.772,213.33,281.595,217.153,281.595,221.863z"/>
	<path style="fill:#FE7C26;" d="M276.305,426.66v-8.533c4.71,0,8.533,3.823,8.533,8.533H276.305z"/>
	<rect x="264.529" y="418.126" style="fill:#FE7C26;" width="11.776" height="8.533"/>
</g>
<rect x="247.463" y="298.662" style="fill:#FFC959;" width="25.6" height="51.199"/>
<g>
	<rect x="264.529" y="281.595" style="fill:#FE7C26;" width="8.533" height="8.533"/>
	<rect x="264.529" y="145.064" style="fill:#FE7C26;" width="8.533" height="8.533"/>
	<rect x="264.529" y="93.865" style="fill:#FE7C26;" width="8.533" height="51.199"/>
	<rect x="264.529" y="85.332" style="fill:#FE7C26;" width="8.533" height="8.533"/>
	<rect x="255.996" y="213.33" style="fill:#FE7C26;" width="17.066" height="8.533"/>
	<path style="fill:#FE7C26;" d="M290.128,358.394h8.533v68.266h-13.824c0-4.71-3.823-8.533-8.533-8.533h13.824v-51.199h-25.6v-8.533
		H290.128z"/>
</g>
<g>
	<rect x="242.172" y="435.193" style="fill:#FFC959;" width="25.6" height="51.199"/>
	<rect x="242.172" y="25.6" style="fill:#FFC959;" width="25.6" height="51.199"/>
</g>
<g>
	<rect x="255.996" y="418.126" style="fill:#FE7C26;" width="8.533" height="8.533"/>
	<rect x="255.996" y="366.927" style="fill:#FE7C26;" width="8.533" height="51.199"/>
	<rect x="255.996" y="358.394" style="fill:#FE7C26;" width="8.533" height="8.533"/>
	<polygon style="fill:#FE7C26;" points="264.529,281.595 264.529,290.128 247.463,290.128 238.929,290.128 238.929,281.595 	"/>
</g>
<rect x="238.929" y="230.396" style="fill:#FFC959;" width="25.6" height="51.199"/>
<g>
	<path style="fill:#FE7C26;" d="M273.062,153.597h17.066v68.266h-8.533c0-4.71-3.823-8.533-8.533-8.533h8.533v-51.199h-25.6v-8.533
		H273.062z"/>
	<rect x="255.996" y="145.064" style="fill:#FE7C26;" width="8.533" height="8.533"/>
	<rect x="255.996" y="93.865" style="fill:#FE7C26;" width="8.533" height="51.199"/>
	<rect x="255.996" y="85.332" style="fill:#FE7C26;" width="8.533" height="8.533"/>
	<polygon style="fill:#FE7C26;" points="247.463,290.128 264.529,290.128 273.062,290.128 281.595,290.128 281.595,349.861 
		273.062,349.861 273.062,298.662 247.463,298.662 	"/>
	<rect x="247.463" y="418.126" style="fill:#FE7C26;" width="8.533" height="8.533"/>
	<rect x="247.463" y="366.927" style="fill:#FE7C26;" width="8.533" height="51.199"/>
	<polygon style="fill:#FE7C26;" points="255.996,358.394 247.463,358.394 247.463,349.861 273.062,349.861 273.062,358.394 
		264.529,358.394 	"/>
	<rect x="247.463" y="213.33" style="fill:#FE7C26;" width="8.533" height="8.533"/>
	<rect x="247.463" y="162.131" style="fill:#FE7C26;" width="8.533" height="51.199"/>
</g>
<rect x="230.396" y="93.865" style="fill:#FFC959;" width="25.6" height="51.199"/>
<g>
	<polygon style="fill:#FE7C26;" points="255.996,85.332 242.172,85.332 242.172,76.799 267.772,76.799 267.772,25.6 242.172,25.6 
		242.172,17.066 276.305,17.066 276.305,85.332 273.062,85.332 264.529,85.332 	"/>
	<rect x="247.463" y="153.597" style="fill:#FE7C26;" width="8.533" height="8.533"/>
	<rect x="247.463" y="358.394" style="fill:#FE7C26;" width="8.533" height="8.533"/>
</g>
<rect x="221.863" y="366.927" style="fill:#FFC959;" width="25.6" height="51.199"/>
<g>
	<rect x="238.929" y="349.861" style="fill:#FE7C26;" width="8.533" height="8.533"/>
	<rect x="238.929" y="298.662" style="fill:#FE7C26;" width="8.533" height="51.199"/>
	<rect x="238.929" y="290.128" style="fill:#FE7C26;" width="8.533" height="8.533"/>
	<polygon style="fill:#FE7C26;" points="247.463,221.863 255.996,221.863 273.062,221.863 273.062,230.396 273.062,264.529 
		273.062,281.595 264.529,281.595 264.529,230.396 238.929,230.396 238.929,221.863 	"/>
	<rect x="238.929" y="213.33" style="fill:#FE7C26;" width="8.533" height="8.533"/>
	<rect x="238.929" y="162.131" style="fill:#FE7C26;" width="8.533" height="51.199"/>
	<rect x="238.929" y="153.597" style="fill:#FE7C26;" width="8.533" height="8.533"/>
	<polygon style="fill:#FE7C26;" points="247.463,358.394 247.463,366.927 221.863,366.927 221.863,358.394 230.396,358.394 
		238.929,358.394 	"/>
	<polygon style="fill:#FE7C26;" points="247.463,426.66 255.996,426.66 264.529,426.66 276.305,426.66 276.305,435.193 
		276.305,469.325 276.305,494.925 242.172,494.925 242.172,486.392 267.772,486.392 267.772,435.193 242.172,435.193 
		242.172,426.66 	"/>
	<rect x="233.639" y="486.392" style="fill:#FE7C26;" width="8.533" height="8.533"/>
	<rect x="233.639" y="435.193" style="fill:#FE7C26;" width="8.533" height="51.199"/>
	<rect x="233.639" y="426.66" style="fill:#FE7C26;" width="8.533" height="8.533"/>
	<rect x="233.639" y="76.799" style="fill:#FE7C26;" width="8.533" height="8.533"/>
	<rect x="233.639" y="25.6" style="fill:#FE7C26;" width="8.533" height="51.199"/>
	<rect x="233.639" y="17.066" style="fill:#FE7C26;" width="8.533" height="8.533"/>
	<rect x="230.396" y="349.861" style="fill:#FE7C26;" width="8.533" height="8.533"/>
	<rect x="230.396" y="298.662" style="fill:#FE7C26;" width="8.533" height="51.199"/>
	<rect x="230.396" y="281.595" style="fill:#FE7C26;" width="8.533" height="8.533"/>
	<rect x="230.396" y="230.396" style="fill:#FE7C26;" width="8.533" height="51.199"/>
	<rect x="230.396" y="221.863" style="fill:#FE7C26;" width="8.533" height="8.533"/>
</g>
<rect x="213.33" y="162.131" style="fill:#FFC959;" width="25.6" height="51.199"/>
<g>
	<polygon style="fill:#FE7C26;" points="230.396,145.064 255.996,145.064 255.996,153.597 247.463,153.597 238.929,153.597 
		230.396,153.597 	"/>
	<rect x="230.396" y="290.128" style="fill:#FE7C26;" width="8.533" height="8.533"/>
	<rect x="225.106" y="486.392" style="fill:#FE7C26;" width="8.533" height="8.533"/>
	<rect x="225.106" y="435.193" style="fill:#FE7C26;" width="8.533" height="51.199"/>
	<rect x="225.106" y="426.66" style="fill:#FE7C26;" width="8.533" height="8.533"/>
	<polygon style="fill:#FE7C26;" points="233.639,85.332 230.396,85.332 225.106,85.332 225.106,76.799 233.639,76.799 	"/>
	<rect x="225.106" y="25.6" style="fill:#FE7C26;" width="8.533" height="51.199"/>
	<rect x="225.106" y="17.066" style="fill:#FE7C26;" width="8.533" height="8.533"/>
	<polygon style="fill:#FE7C26;" points="242.172,85.332 255.996,85.332 255.996,93.865 230.396,93.865 230.396,85.332 
		233.639,85.332 	"/>
</g>
<rect x="204.797" y="298.662" style="fill:#FFC959;" width="25.6" height="51.199"/>
<g>
	<rect x="221.863" y="281.595" style="fill:#FE7C26;" width="8.533" height="8.533"/>
	<rect x="221.863" y="230.396" style="fill:#FE7C26;" width="8.533" height="51.199"/>
	<rect x="221.863" y="221.863" style="fill:#FE7C26;" width="8.533" height="8.533"/>
	<rect x="221.863" y="145.064" style="fill:#FE7C26;" width="8.533" height="8.533"/>
	<rect x="221.863" y="93.865" style="fill:#FE7C26;" width="8.533" height="51.199"/>
	<polygon style="fill:#FE7C26;" points="230.396,85.332 230.396,93.865 221.863,93.865 221.863,85.332 225.106,85.332 	"/>
	<polygon style="fill:#FE7C26;" points="230.396,298.662 204.797,298.662 204.797,290.128 221.863,290.128 230.396,290.128 	"/>
	<rect x="199.506" y="486.392" style="fill:#FE7C26;" width="25.6" height="8.533"/>
</g>
<rect x="199.506" y="435.193" style="fill:#FFC959;" width="25.6" height="51.199"/>
<polygon style="fill:#FE7C26;" points="233.639,426.66 225.106,426.66 221.863,426.66 221.863,418.126 247.463,418.126 
	247.463,426.66 242.172,426.66 "/>
<rect x="199.506" y="25.6" style="fill:#FFC959;" width="25.6" height="51.199"/>
<g>
	<rect x="199.506" y="17.066" style="fill:#FE7C26;" width="25.6" height="8.533"/>
	<rect x="213.33" y="418.126" style="fill:#FE7C26;" width="8.533" height="8.533"/>
	<rect x="213.33" y="366.927" style="fill:#FE7C26;" width="8.533" height="51.199"/>
	<rect x="213.33" y="358.394" style="fill:#FE7C26;" width="8.533" height="8.533"/>
	<polygon style="fill:#FE7C26;" points="221.863,281.595 221.863,290.128 204.797,290.128 196.263,290.128 196.263,281.595 	"/>
</g>
<rect x="196.263" y="230.396" style="fill:#FFC959;" width="25.6" height="51.199"/>
<g>
	<polygon style="fill:#FE7C26;" points="221.863,221.863 213.33,221.863 213.33,213.33 238.929,213.33 238.929,221.863 
		230.396,221.863 	"/>
	<rect x="213.33" y="145.064" style="fill:#FE7C26;" width="8.533" height="8.533"/>
	<rect x="213.33" y="93.865" style="fill:#FE7C26;" width="8.533" height="51.199"/>
	<rect x="213.33" y="85.332" style="fill:#FE7C26;" width="8.533" height="8.533"/>
	<polygon style="fill:#FE7C26;" points="238.929,162.131 213.33,162.131 213.33,153.597 221.863,153.597 230.396,153.597 
		238.929,153.597 	"/>
	<polygon style="fill:#FE7C26;" points="221.863,230.396 196.263,230.396 196.263,221.863 204.797,221.863 213.33,221.863 
		221.863,221.863 	"/>
	<rect x="204.797" y="418.126" style="fill:#FE7C26;" width="8.533" height="8.533"/>
	<rect x="204.797" y="366.927" style="fill:#FE7C26;" width="8.533" height="51.199"/>
	<polygon style="fill:#FE7C26;" points="213.33,358.394 204.797,358.394 204.797,349.861 230.396,349.861 230.396,358.394 
		221.863,358.394 	"/>
	<rect x="204.797" y="213.33" style="fill:#FE7C26;" width="8.533" height="8.533"/>
	<rect x="204.797" y="162.131" style="fill:#FE7C26;" width="8.533" height="51.199"/>
	<rect x="204.797" y="153.597" style="fill:#FE7C26;" width="8.533" height="8.533"/>
</g>
<rect x="187.73" y="93.865" style="fill:#FFC959;" width="25.6" height="51.199"/>
<g>
	<polygon style="fill:#FE7C26;" points="213.33,85.332 199.506,85.332 199.506,76.799 225.106,76.799 225.106,85.332 
		221.863,85.332 	"/>
	<rect x="204.797" y="358.394" style="fill:#FE7C26;" width="8.533" height="8.533"/>
</g>
<rect x="179.197" y="366.927" style="fill:#FFC959;" width="25.6" height="51.199"/>
<g>
	<rect x="196.263" y="349.861" style="fill:#FE7C26;" width="8.533" height="8.533"/>
	<rect x="196.263" y="298.662" style="fill:#FE7C26;" width="8.533" height="51.199"/>
	<rect x="196.263" y="290.128" style="fill:#FE7C26;" width="8.533" height="8.533"/>
	<rect x="196.263" y="213.33" style="fill:#FE7C26;" width="8.533" height="8.533"/>
	<rect x="196.263" y="162.131" style="fill:#FE7C26;" width="8.533" height="51.199"/>
	<rect x="196.263" y="153.597" style="fill:#FE7C26;" width="8.533" height="8.533"/>
	<polygon style="fill:#FE7C26;" points="199.506,426.66 204.797,426.66 213.33,426.66 221.863,426.66 225.106,426.66 
		225.106,435.193 199.506,435.193 	"/>
	<rect x="190.973" y="486.392" style="fill:#FE7C26;" width="8.533" height="8.533"/>
	<rect x="190.973" y="435.193" style="fill:#FE7C26;" width="8.533" height="51.199"/>
	<rect x="190.973" y="426.66" style="fill:#FE7C26;" width="8.533" height="8.533"/>
	<rect x="190.973" y="76.799" style="fill:#FE7C26;" width="8.533" height="8.533"/>
	<rect x="190.973" y="25.6" style="fill:#FE7C26;" width="8.533" height="51.199"/>
	<rect x="190.973" y="17.066" style="fill:#FE7C26;" width="8.533" height="8.533"/>
	<rect x="187.73" y="349.861" style="fill:#FE7C26;" width="8.533" height="8.533"/>
	<rect x="187.73" y="298.662" style="fill:#FE7C26;" width="8.533" height="51.199"/>
	<rect x="187.73" y="281.595" style="fill:#FE7C26;" width="8.533" height="8.533"/>
	<rect x="187.73" y="230.396" style="fill:#FE7C26;" width="8.533" height="51.199"/>
	<rect x="187.73" y="221.863" style="fill:#FE7C26;" width="8.533" height="8.533"/>
</g>
<rect x="170.664" y="162.131" style="fill:#FFC959;" width="25.6" height="51.199"/>
<g>
	<polygon style="fill:#FE7C26;" points="187.73,145.064 213.33,145.064 213.33,153.597 204.797,153.597 196.263,153.597 
		187.73,153.597 	"/>
	<polygon style="fill:#FE7C26;" points="196.263,153.597 196.263,162.131 170.664,162.131 170.664,153.597 179.197,153.597 
		187.73,153.597 	"/>
	<rect x="187.73" y="290.128" style="fill:#FE7C26;" width="8.533" height="8.533"/>
	<rect x="182.44" y="486.392" style="fill:#FE7C26;" width="8.533" height="8.533"/>
	<rect x="182.44" y="435.193" style="fill:#FE7C26;" width="8.533" height="51.199"/>
	<rect x="182.44" y="426.66" style="fill:#FE7C26;" width="8.533" height="8.533"/>
	<polygon style="fill:#FE7C26;" points="190.973,85.332 187.73,85.332 182.44,85.332 182.44,76.799 190.973,76.799 	"/>
	<rect x="182.44" y="25.6" style="fill:#FE7C26;" width="8.533" height="51.199"/>
	<rect x="182.44" y="17.066" style="fill:#FE7C26;" width="8.533" height="8.533"/>
	<polygon style="fill:#FE7C26;" points="199.506,85.332 213.33,85.332 213.33,93.865 187.73,93.865 187.73,85.332 190.973,85.332 	
		"/>
</g>
<rect x="162.131" y="298.662" style="fill:#FFC959;" width="25.6" height="51.199"/>
<g>
	<rect x="179.197" y="281.595" style="fill:#FE7C26;" width="8.533" height="8.533"/>
	<rect x="179.197" y="230.396" style="fill:#FE7C26;" width="8.533" height="51.199"/>
	<rect x="179.197" y="221.863" style="fill:#FE7C26;" width="8.533" height="8.533"/>
	<rect x="179.197" y="145.064" style="fill:#FE7C26;" width="8.533" height="8.533"/>
	<rect x="179.197" y="93.865" style="fill:#FE7C26;" width="8.533" height="51.199"/>
	<polygon style="fill:#FE7C26;" points="187.73,85.332 187.73,93.865 179.197,93.865 179.197,85.332 182.44,85.332 	"/>
	<polygon style="fill:#FE7C26;" points="204.797,358.394 204.797,366.927 179.197,366.927 179.197,358.394 187.73,358.394 
		196.263,358.394 	"/>
	<rect x="156.84" y="486.392" style="fill:#FE7C26;" width="25.6" height="8.533"/>
</g>
<rect x="156.84" y="435.193" style="fill:#FFC959;" width="25.6" height="51.199"/>
<polygon style="fill:#FE7C26;" points="182.44,426.66 179.197,426.66 179.197,418.126 204.797,418.126 204.797,426.66 
	199.506,426.66 190.973,426.66 "/>
<rect x="156.84" y="25.6" style="fill:#FFC959;" width="25.6" height="51.199"/>
<g>
	<rect x="156.84" y="17.066" style="fill:#FE7C26;" width="25.6" height="8.533"/>
	<rect x="170.664" y="418.126" style="fill:#FE7C26;" width="8.533" height="8.533"/>
	<rect x="170.664" y="366.927" style="fill:#FE7C26;" width="8.533" height="51.199"/>
	<rect x="170.664" y="358.394" style="fill:#FE7C26;" width="8.533" height="8.533"/>
	<polygon style="fill:#FE7C26;" points="179.197,281.595 179.197,290.128 162.131,290.128 153.597,290.128 153.597,281.595 	"/>
</g>
<rect x="153.597" y="230.396" style="fill:#FFC959;" width="25.6" height="51.199"/>
<g>
	<polygon style="fill:#FE7C26;" points="170.664,213.33 196.263,213.33 196.263,221.863 187.73,221.863 179.197,221.863 
		170.664,221.863 	"/>
	<rect x="170.664" y="145.064" style="fill:#FE7C26;" width="8.533" height="8.533"/>
	<rect x="170.664" y="93.865" style="fill:#FE7C26;" width="8.533" height="51.199"/>
	<rect x="170.664" y="85.332" style="fill:#FE7C26;" width="8.533" height="8.533"/>
	<polygon style="fill:#FE7C26;" points="170.664,221.863 179.197,221.863 179.197,230.396 153.597,230.396 153.597,221.863 
		162.131,221.863 	"/>
	<polygon style="fill:#FE7C26;" points="179.197,290.128 187.73,290.128 187.73,298.662 162.131,298.662 162.131,290.128 	"/>
	<rect x="162.131" y="418.126" style="fill:#FE7C26;" width="8.533" height="8.533"/>
	<rect x="162.131" y="366.927" style="fill:#FE7C26;" width="8.533" height="51.199"/>
	<polygon style="fill:#FE7C26;" points="162.131,349.861 187.73,349.861 187.73,358.394 179.197,358.394 170.664,358.394 
		162.131,358.394 	"/>
	<rect x="162.131" y="213.33" style="fill:#FE7C26;" width="8.533" height="8.533"/>
	<rect x="162.131" y="162.131" style="fill:#FE7C26;" width="8.533" height="51.199"/>
	<rect x="162.131" y="153.597" style="fill:#FE7C26;" width="8.533" height="8.533"/>
</g>
<rect x="145.064" y="93.865" style="fill:#FFC959;" width="25.6" height="51.199"/>
<g>
	<polygon style="fill:#FE7C26;" points="179.197,85.332 170.664,85.332 156.84,85.332 156.84,76.799 182.44,76.799 182.44,85.332 	
		"/>
	<rect x="162.131" y="358.394" style="fill:#FE7C26;" width="8.533" height="8.533"/>
</g>
<rect x="136.531" y="366.927" style="fill:#FFC959;" width="25.6" height="51.199"/>
<g>
	<rect x="153.597" y="349.861" style="fill:#FE7C26;" width="8.533" height="8.533"/>
	<rect x="153.597" y="298.662" style="fill:#FE7C26;" width="8.533" height="51.199"/>
	<rect x="153.597" y="290.128" style="fill:#FE7C26;" width="8.533" height="8.533"/>
	<rect x="153.597" y="213.33" style="fill:#FE7C26;" width="8.533" height="8.533"/>
	<rect x="153.597" y="162.131" style="fill:#FE7C26;" width="8.533" height="51.199"/>
	<rect x="153.597" y="153.597" style="fill:#FE7C26;" width="8.533" height="8.533"/>
	<polygon style="fill:#FE7C26;" points="162.131,366.927 136.531,366.927 136.531,358.394 145.064,358.394 153.597,358.394 
		162.131,358.394 	"/>
	<polygon style="fill:#FE7C26;" points="179.197,426.66 182.44,426.66 182.44,435.193 156.84,435.193 156.84,426.66 162.131,426.66 
		170.664,426.66 	"/>
	<rect x="148.307" y="486.392" style="fill:#FE7C26;" width="8.533" height="8.533"/>
	<rect x="148.307" y="435.193" style="fill:#FE7C26;" width="8.533" height="51.199"/>
	<rect x="148.307" y="426.66" style="fill:#FE7C26;" width="8.533" height="8.533"/>
	<rect x="148.307" y="76.799" style="fill:#FE7C26;" width="8.533" height="8.533"/>
	<rect x="148.307" y="25.6" style="fill:#FE7C26;" width="8.533" height="51.199"/>
	<rect x="148.307" y="17.066" style="fill:#FE7C26;" width="8.533" height="8.533"/>
	<rect x="145.064" y="349.861" style="fill:#FE7C26;" width="8.533" height="8.533"/>
	<rect x="145.064" y="298.662" style="fill:#FE7C26;" width="8.533" height="51.199"/>
	<rect x="145.064" y="281.595" style="fill:#FE7C26;" width="8.533" height="8.533"/>
	<rect x="145.064" y="230.396" style="fill:#FE7C26;" width="8.533" height="51.199"/>
	<rect x="145.064" y="221.863" style="fill:#FE7C26;" width="8.533" height="8.533"/>
</g>
<rect x="127.998" y="162.131" style="fill:#FFC959;" width="25.6" height="51.199"/>
<g>
	<polygon style="fill:#FE7C26;" points="153.597,153.597 145.064,153.597 145.064,145.064 170.664,145.064 170.664,153.597 
		162.131,153.597 	"/>
	<rect x="145.064" y="290.128" style="fill:#FE7C26;" width="8.533" height="8.533"/>
	<rect x="139.774" y="486.392" style="fill:#FE7C26;" width="8.533" height="8.533"/>
	<rect x="139.774" y="435.193" style="fill:#FE7C26;" width="8.533" height="51.199"/>
	<rect x="139.774" y="426.66" style="fill:#FE7C26;" width="8.533" height="8.533"/>
	<polygon style="fill:#FE7C26;" points="148.307,85.332 145.064,85.332 139.774,85.332 139.774,76.799 148.307,76.799 	"/>
	<rect x="139.774" y="25.6" style="fill:#FE7C26;" width="8.533" height="51.199"/>
	<rect x="139.774" y="17.066" style="fill:#FE7C26;" width="8.533" height="8.533"/>
	<polygon style="fill:#FE7C26;" points="170.664,93.865 145.064,93.865 145.064,85.332 148.307,85.332 156.84,85.332 
		170.664,85.332 	"/>
</g>
<rect x="119.465" y="298.662" style="fill:#FFC959;" width="25.6" height="51.199"/>
<g>
	<rect x="136.531" y="281.595" style="fill:#FE7C26;" width="8.533" height="8.533"/>
	<rect x="136.531" y="230.396" style="fill:#FE7C26;" width="8.533" height="51.199"/>
	<rect x="136.531" y="221.863" style="fill:#FE7C26;" width="8.533" height="8.533"/>
	<rect x="136.531" y="145.064" style="fill:#FE7C26;" width="8.533" height="8.533"/>
	<rect x="136.531" y="93.865" style="fill:#FE7C26;" width="8.533" height="51.199"/>
	<polygon style="fill:#FE7C26;" points="145.064,85.332 145.064,93.865 136.531,93.865 136.531,85.332 139.774,85.332 	"/>
	<rect x="114.174" y="486.392" style="fill:#FE7C26;" width="25.6" height="8.533"/>
</g>
<rect x="114.174" y="435.193" style="fill:#FFC959;" width="25.6" height="51.199"/>
<polygon style="fill:#FE7C26;" points="139.774,426.66 136.531,426.66 136.531,418.126 162.131,418.126 162.131,426.66 
	156.84,426.66 148.307,426.66 "/>
<rect x="114.174" y="25.6" style="fill:#FFC959;" width="25.6" height="51.199"/>
<g>
	<rect x="114.174" y="17.066" style="fill:#FE7C26;" width="25.6" height="8.533"/>
	<rect x="127.998" y="418.126" style="fill:#FE7C26;" width="8.533" height="8.533"/>
	<rect x="127.998" y="366.927" style="fill:#FE7C26;" width="8.533" height="51.199"/>
	<rect x="127.998" y="358.394" style="fill:#FE7C26;" width="8.533" height="8.533"/>
	<polygon style="fill:#FE7C26;" points="136.531,281.595 136.531,290.128 119.465,290.128 110.931,290.128 110.931,281.595 	"/>
</g>
<rect x="110.931" y="230.396" style="fill:#FFC959;" width="25.6" height="51.199"/>
<g>
	<polygon style="fill:#FE7C26;" points="127.998,213.33 153.597,213.33 153.597,221.863 145.064,221.863 136.531,221.863 
		127.998,221.863 	"/>
	<polygon style="fill:#FE7C26;" points="153.597,162.131 127.998,162.131 127.998,153.597 136.531,153.597 145.064,153.597 
		153.597,153.597 	"/>
	<rect x="127.998" y="145.064" style="fill:#FE7C26;" width="8.533" height="8.533"/>
	<rect x="127.998" y="93.865" style="fill:#FE7C26;" width="8.533" height="51.199"/>
	<rect x="127.998" y="85.332" style="fill:#FE7C26;" width="8.533" height="8.533"/>
	<polygon style="fill:#FE7C26;" points="136.531,290.128 145.064,290.128 145.064,298.662 119.465,298.662 119.465,290.128 	"/>
	<rect x="119.465" y="418.126" style="fill:#FE7C26;" width="8.533" height="8.533"/>
	<rect x="119.465" y="366.927" style="fill:#FE7C26;" width="8.533" height="51.199"/>
	<polygon style="fill:#FE7C26;" points="127.998,358.394 119.465,358.394 119.465,349.861 145.064,349.861 145.064,358.394 
		136.531,358.394 	"/>
	<rect x="119.465" y="213.33" style="fill:#FE7C26;" width="8.533" height="8.533"/>
	<rect x="119.465" y="162.131" style="fill:#FE7C26;" width="8.533" height="51.199"/>
	<rect x="119.465" y="153.597" style="fill:#FE7C26;" width="8.533" height="8.533"/>
</g>
<rect x="102.398" y="93.865" style="fill:#FFC959;" width="25.6" height="51.199"/>
<g>
	<polygon style="fill:#FE7C26;" points="114.174,76.799 139.774,76.799 139.774,85.332 136.531,85.332 127.998,85.332 
		114.174,85.332 	"/>
	<rect x="119.465" y="358.394" style="fill:#FE7C26;" width="8.533" height="8.533"/>
</g>
<rect x="93.865" y="366.927" style="fill:#FFC959;" width="25.6" height="51.199"/>
<g>
	<rect x="110.931" y="349.861" style="fill:#FE7C26;" width="8.533" height="8.533"/>
	<rect x="110.931" y="298.662" style="fill:#FE7C26;" width="8.533" height="51.199"/>
	<rect x="110.931" y="290.128" style="fill:#FE7C26;" width="8.533" height="8.533"/>
	<polygon style="fill:#FE7C26;" points="136.531,221.863 136.531,230.396 110.931,230.396 110.931,221.863 119.465,221.863 
		127.998,221.863 	"/>
	<rect x="110.931" y="213.33" style="fill:#FE7C26;" width="8.533" height="8.533"/>
	<rect x="110.931" y="162.131" style="fill:#FE7C26;" width="8.533" height="51.199"/>
	<rect x="110.931" y="153.597" style="fill:#FE7C26;" width="8.533" height="8.533"/>
	<polygon style="fill:#FE7C26;" points="136.531,426.66 139.774,426.66 139.774,435.193 114.174,435.193 114.174,426.66 
		119.465,426.66 127.998,426.66 	"/>
	<rect x="105.641" y="486.392" style="fill:#FE7C26;" width="8.533" height="8.533"/>
	<rect x="105.641" y="435.193" style="fill:#FE7C26;" width="8.533" height="51.199"/>
	<rect x="105.641" y="426.66" style="fill:#FE7C26;" width="8.533" height="8.533"/>
	<rect x="105.641" y="76.799" style="fill:#FE7C26;" width="8.533" height="8.533"/>
	<rect x="105.641" y="25.6" style="fill:#FE7C26;" width="8.533" height="51.199"/>
	<rect x="105.641" y="17.066" style="fill:#FE7C26;" width="8.533" height="8.533"/>
	<rect x="102.398" y="349.861" style="fill:#FE7C26;" width="8.533" height="8.533"/>
	<rect x="102.398" y="298.662" style="fill:#FE7C26;" width="8.533" height="51.199"/>
	<rect x="102.398" y="281.595" style="fill:#FE7C26;" width="8.533" height="8.533"/>
	<rect x="102.398" y="230.396" style="fill:#FE7C26;" width="8.533" height="51.199"/>
	<rect x="102.398" y="221.863" style="fill:#FE7C26;" width="8.533" height="8.533"/>
</g>
<rect x="85.332" y="162.131" style="fill:#FFC959;" width="25.6" height="51.199"/>
<g>
	<polygon style="fill:#FE7C26;" points="110.931,153.597 102.398,153.597 102.398,145.064 127.998,145.064 127.998,153.597 
		119.465,153.597 	"/>
	<polygon style="fill:#FE7C26;" points="110.931,162.131 85.332,162.131 85.332,153.597 93.865,153.597 102.398,153.597 
		110.931,153.597 	"/>
	<rect x="102.398" y="290.128" style="fill:#FE7C26;" width="8.533" height="8.533"/>
	<rect x="97.108" y="486.392" style="fill:#FE7C26;" width="8.533" height="8.533"/>
	<rect x="97.108" y="435.193" style="fill:#FE7C26;" width="8.533" height="51.199"/>
	<rect x="97.108" y="426.66" style="fill:#FE7C26;" width="8.533" height="8.533"/>
	<polygon style="fill:#FE7C26;" points="105.641,76.799 105.641,85.332 102.398,85.332 97.108,85.332 97.108,76.799 	"/>
	<rect x="97.108" y="25.6" style="fill:#FE7C26;" width="8.533" height="51.199"/>
	<rect x="97.108" y="17.066" style="fill:#FE7C26;" width="8.533" height="8.533"/>
	<polygon style="fill:#FE7C26;" points="127.998,85.332 127.998,93.865 102.398,93.865 102.398,85.332 105.641,85.332 
		114.174,85.332 	"/>
</g>
<rect x="76.799" y="298.662" style="fill:#FFC959;" width="25.6" height="51.199"/>
<g>
	<rect x="93.865" y="281.595" style="fill:#FE7C26;" width="8.533" height="8.533"/>
	<rect x="93.865" y="230.396" style="fill:#FE7C26;" width="8.533" height="51.199"/>
	<rect x="93.865" y="221.863" style="fill:#FE7C26;" width="8.533" height="8.533"/>
	<rect x="93.865" y="145.064" style="fill:#FE7C26;" width="8.533" height="8.533"/>
	<rect x="93.865" y="93.865" style="fill:#FE7C26;" width="8.533" height="51.199"/>
	<polygon style="fill:#FE7C26;" points="102.398,85.332 102.398,93.865 93.865,93.865 93.865,85.332 97.108,85.332 	"/>
	<polygon style="fill:#FE7C26;" points="93.865,358.394 102.398,358.394 110.931,358.394 119.465,358.394 119.465,366.927 
		93.865,366.927 	"/>
	<rect x="71.508" y="486.392" style="fill:#FE7C26;" width="25.6" height="8.533"/>
</g>
<rect x="71.508" y="435.193" style="fill:#FFC959;" width="25.6" height="51.199"/>
<polygon style="fill:#FE7C26;" points="97.108,426.66 93.865,426.66 93.865,418.126 119.465,418.126 119.465,426.66 114.174,426.66 
	105.641,426.66 "/>
<rect x="71.508" y="25.6" style="fill:#FFC959;" width="25.6" height="51.199"/>
<g>
	<rect x="71.508" y="17.066" style="fill:#FE7C26;" width="25.6" height="8.533"/>
	<rect x="85.332" y="418.126" style="fill:#FE7C26;" width="8.533" height="8.533"/>
	<rect x="85.332" y="366.927" style="fill:#FE7C26;" width="8.533" height="51.199"/>
	<rect x="85.332" y="358.394" style="fill:#FE7C26;" width="8.533" height="8.533"/>
	<polygon style="fill:#FE7C26;" points="93.865,281.595 93.865,290.128 76.799,290.128 68.266,290.128 68.266,281.595 	"/>
</g>
<rect x="68.266" y="230.396" style="fill:#FFC959;" width="25.6" height="51.199"/>
<g>
	<polygon style="fill:#FE7C26;" points="93.865,221.863 85.332,221.863 85.332,213.33 110.931,213.33 110.931,221.863 
		102.398,221.863 	"/>
	<rect x="85.332" y="145.064" style="fill:#FE7C26;" width="8.533" height="8.533"/>
	<rect x="85.332" y="93.865" style="fill:#FE7C26;" width="8.533" height="51.199"/>
	<rect x="85.332" y="85.332" style="fill:#FE7C26;" width="8.533" height="8.533"/>
	<polygon style="fill:#FE7C26;" points="76.799,290.128 93.865,290.128 102.398,290.128 102.398,298.662 76.799,298.662 	"/>
	<rect x="76.799" y="418.126" style="fill:#FE7C26;" width="8.533" height="8.533"/>
	<rect x="76.799" y="366.927" style="fill:#FE7C26;" width="8.533" height="51.199"/>
	<polygon style="fill:#FE7C26;" points="76.799,349.861 102.398,349.861 102.398,358.394 93.865,358.394 85.332,358.394 
		76.799,358.394 	"/>
	<rect x="76.799" y="213.33" style="fill:#FE7C26;" width="8.533" height="8.533"/>
	<rect x="76.799" y="162.131" style="fill:#FE7C26;" width="8.533" height="51.199"/>
	<rect x="76.799" y="153.597" style="fill:#FE7C26;" width="8.533" height="8.533"/>
</g>
<rect x="59.732" y="93.865" style="fill:#FFC959;" width="25.6" height="51.199"/>
<g>
	<polygon style="fill:#FE7C26;" points="71.508,76.799 97.108,76.799 97.108,85.332 93.865,85.332 85.332,85.332 71.508,85.332 	"/>
	<rect x="76.799" y="358.394" style="fill:#FE7C26;" width="8.533" height="8.533"/>
</g>
<rect x="51.199" y="366.927" style="fill:#FFC959;" width="25.6" height="51.199"/>
<g>
	<rect x="68.266" y="349.861" style="fill:#FE7C26;" width="8.533" height="8.533"/>
	<rect x="68.266" y="298.662" style="fill:#FE7C26;" width="8.533" height="51.199"/>
	<rect x="68.266" y="290.128" style="fill:#FE7C26;" width="8.533" height="8.533"/>
	<polygon style="fill:#FE7C26;" points="76.799,221.863 85.332,221.863 93.865,221.863 93.865,230.396 68.266,230.396 
		68.266,221.863 	"/>
	<rect x="68.266" y="213.33" style="fill:#FE7C26;" width="8.533" height="8.533"/>
	<rect x="68.266" y="162.131" style="fill:#FE7C26;" width="8.533" height="51.199"/>
	<rect x="68.266" y="153.597" style="fill:#FE7C26;" width="8.533" height="8.533"/>
	<polygon style="fill:#FE7C26;" points="76.799,426.66 85.332,426.66 93.865,426.66 97.108,426.66 97.108,435.193 71.508,435.193 
		71.508,426.66 	"/>
	<rect x="62.975" y="486.392" style="fill:#FE7C26;" width="8.533" height="8.533"/>
	<rect x="62.975" y="435.193" style="fill:#FE7C26;" width="8.533" height="51.199"/>
	<rect x="62.975" y="426.66" style="fill:#FE7C26;" width="8.533" height="8.533"/>
	<rect x="62.975" y="76.799" style="fill:#FE7C26;" width="8.533" height="8.533"/>
	<rect x="62.975" y="25.6" style="fill:#FE7C26;" width="8.533" height="51.199"/>
	<rect x="62.975" y="17.066" style="fill:#FE7C26;" width="8.533" height="8.533"/>
	<rect x="59.732" y="349.861" style="fill:#FE7C26;" width="8.533" height="8.533"/>
	<rect x="59.732" y="298.662" style="fill:#FE7C26;" width="8.533" height="51.199"/>
	<rect x="59.732" y="281.595" style="fill:#FE7C26;" width="8.533" height="8.533"/>
	<rect x="59.732" y="230.396" style="fill:#FE7C26;" width="8.533" height="51.199"/>
	<rect x="59.732" y="221.863" style="fill:#FE7C26;" width="8.533" height="8.533"/>
</g>
<rect x="42.666" y="162.131" style="fill:#FFC959;" width="25.6" height="51.199"/>
<g>
	<polygon style="fill:#FE7C26;" points="59.732,145.064 85.332,145.064 85.332,153.597 76.799,153.597 68.266,153.597 
		59.732,153.597 	"/>
	<rect x="59.732" y="290.128" style="fill:#FE7C26;" width="8.533" height="8.533"/>
	<rect x="54.442" y="486.392" style="fill:#FE7C26;" width="8.533" height="8.533"/>
	<rect x="54.442" y="435.193" style="fill:#FE7C26;" width="8.533" height="51.199"/>
	<rect x="54.442" y="426.66" style="fill:#FE7C26;" width="8.533" height="8.533"/>
	<polygon style="fill:#FE7C26;" points="62.975,85.332 59.732,85.332 54.442,85.332 54.442,76.799 62.975,76.799 	"/>
	<rect x="54.442" y="25.6" style="fill:#FE7C26;" width="8.533" height="51.199"/>
	<rect x="54.442" y="17.066" style="fill:#FE7C26;" width="8.533" height="8.533"/>
	<polygon style="fill:#FE7C26;" points="85.332,85.332 85.332,93.865 59.732,93.865 59.732,85.332 62.975,85.332 71.508,85.332 	"/>
</g>
<polygon style="fill:#FFC959;" points="59.732,298.662 59.732,349.861 42.666,349.861 34.133,349.861 34.133,298.662 "/>
<g>
	<rect x="51.199" y="281.595" style="fill:#FE7C26;" width="8.533" height="8.533"/>
	<rect x="51.199" y="230.396" style="fill:#FE7C26;" width="8.533" height="51.199"/>
	<rect x="51.199" y="221.863" style="fill:#FE7C26;" width="8.533" height="8.533"/>
	<rect x="51.199" y="145.064" style="fill:#FE7C26;" width="8.533" height="8.533"/>
	<rect x="51.199" y="93.865" style="fill:#FE7C26;" width="8.533" height="51.199"/>
	<polygon style="fill:#FE7C26;" points="59.732,85.332 59.732,93.865 51.199,93.865 51.199,85.332 54.442,85.332 	"/>
	<rect x="42.666" y="349.861" style="fill:#FE7C26;" width="17.066" height="8.533"/>
</g>
<rect x="28.842" y="435.193" style="fill:#FFC959;" width="25.6" height="51.199"/>
<polygon style="fill:#FE7C26;" points="54.442,426.66 51.199,426.66 51.199,418.126 76.799,418.126 76.799,426.66 71.508,426.66 
	62.975,426.66 "/>
<rect x="28.842" y="25.6" style="fill:#FFC959;" width="25.6" height="51.199"/>
<g>
	<rect x="42.666" y="418.126" style="fill:#FE7C26;" width="8.533" height="8.533"/>
	<rect x="25.6" y="281.595" style="fill:#FE7C26;" width="25.6" height="8.533"/>
</g>
<rect x="25.6" y="230.396" style="fill:#FFC959;" width="25.6" height="51.199"/>
<g>
	<polygon style="fill:#FE7C26;" points="59.732,221.863 51.199,221.863 42.666,221.863 42.666,213.33 68.266,213.33 68.266,221.863 
			"/>
	<rect x="42.666" y="145.064" style="fill:#FE7C26;" width="8.533" height="8.533"/>
	<rect x="42.666" y="93.865" style="fill:#FE7C26;" width="8.533" height="51.199"/>
	<rect x="42.666" y="85.332" style="fill:#FE7C26;" width="8.533" height="8.533"/>
	<polygon style="fill:#FE7C26;" points="76.799,358.394 76.799,366.927 51.199,366.927 51.199,418.126 42.666,418.126 
		42.666,366.927 42.666,358.394 59.732,358.394 68.266,358.394 	"/>
	<rect x="34.133" y="418.126" style="fill:#FE7C26;" width="8.533" height="8.533"/>
	<rect x="34.133" y="366.927" style="fill:#FE7C26;" width="8.533" height="51.199"/>
	<path style="fill:#FE7C26;" d="M42.666,349.861v8.533h-8.533C34.133,353.684,37.956,349.861,42.666,349.861z"/>
	<rect x="34.133" y="213.33" style="fill:#FE7C26;" width="8.533" height="8.533"/>
</g>
<polygon style="fill:#FFC959;" points="42.666,93.865 42.666,145.064 34.133,145.064 17.066,145.064 17.066,93.865 20.309,93.865 
	"/>
<g>
	<rect x="20.309" y="85.332" style="fill:#FE7C26;" width="22.357" height="8.533"/>
	<rect x="34.133" y="145.064" style="fill:#FE7C26;" width="8.533" height="8.533"/>
	<polygon style="fill:#FE7C26;" points="42.666,162.131 42.666,213.33 34.133,213.33 34.133,162.131 34.133,153.597 42.666,153.597 
		51.199,153.597 59.732,153.597 68.266,153.597 68.266,162.131 	"/>
	<rect x="34.133" y="358.394" style="fill:#FE7C26;" width="8.533" height="8.533"/>
	<path style="fill:#FE7C26;" d="M25.6,290.128h34.133v8.533h-25.6v51.199h8.533c-4.71,0-8.533,3.823-8.533,8.533H25.6V290.128z"/>
	<rect x="25.6" y="213.33" style="fill:#FE7C26;" width="8.533" height="8.533"/>
	<rect x="25.6" y="162.131" style="fill:#FE7C26;" width="8.533" height="51.199"/>
	<path style="fill:#FE7C26;" d="M34.133,145.064v8.533H25.6C25.6,148.887,29.422,145.064,34.133,145.064z"/>
	<rect x="25.6" y="153.597" style="fill:#FE7C26;" width="8.533" height="8.533"/>
	<polygon style="fill:#FE7C26;" points="28.842,435.193 28.842,486.392 54.442,486.392 54.442,494.925 20.309,494.925 
		20.309,426.66 34.133,426.66 42.666,426.66 51.199,426.66 54.442,426.66 54.442,435.193 	"/>
	<polygon style="fill:#FE7C26;" points="28.842,25.6 28.842,76.799 54.442,76.799 54.442,85.332 51.199,85.332 42.666,85.332 
		20.309,85.332 20.309,76.799 20.309,17.066 54.442,17.066 54.442,25.6 	"/>
	<path style="fill:#FE7C26;" d="M25.6,358.394h8.533v8.533H25.6c-4.71,0-8.533-3.823-8.533-8.533v-59.732H25.6V358.394z"/>
	<rect x="17.066" y="290.128" style="fill:#FE7C26;" width="8.533" height="8.533"/>
	<path style="fill:#FE7C26;" d="M25.6,281.595v8.533h-8.533C17.066,285.418,20.889,281.595,25.6,281.595z"/>
	<path style="fill:#FE7C26;" d="M34.133,221.863h17.066v8.533H25.6v51.199c-4.71,0-8.533,3.823-8.533,8.533v-68.266H34.133z"/>
	<path style="fill:#FE7C26;" d="M276.305,503.458H20.309c-4.71,0-8.533-3.823-8.533-8.533V426.66c0-4.71,3.823-8.533,8.533-8.533
		h13.824v8.533H20.309v68.266h255.996v-59.732h8.533v59.732C284.838,499.635,281.015,503.458,276.305,503.458z"/>
	<rect x="11.776" y="76.799" style="fill:#FE7C26;" width="8.533" height="8.533"/>
	<path style="fill:#FE7C26;" d="M97.108,17.066H20.309v59.732h-8.533V17.066c0-4.71,3.823-8.533,8.533-8.533h255.996
		c4.71,0,8.533,3.823,8.533,8.533v68.266c0,4.71-3.823,8.533-8.533,8.533h-3.243v-8.533h3.243V17.066H97.108z"/>
	<path style="fill:#FE7C26;" d="M20.309,85.332v8.533c-4.71,0-8.533-3.823-8.533-8.533H20.309z"/>
	<path style="fill:#FE7C26;" d="M17.066,93.865v51.199h17.066c-4.71,0-8.533,3.823-8.533,8.533H8.533V85.332h3.243
		c0,4.71,3.823,8.533,8.533,8.533H17.066z"/>
	<path style="fill:#FE7C26;" d="M17.066,290.128v8.533c-4.71,0-8.533-3.823-8.533-8.533v-68.266c0-4.71,3.823-8.533,8.533-8.533
		H25.6v8.533h-8.533V290.128z"/>
	<path style="fill:#FE7C26;" d="M11.776,76.799v8.533H8.533v68.266H25.6v8.533H8.533c-4.71,0-8.533-3.823-8.533-8.533V85.332
		c0-4.71,3.823-8.533,8.533-8.533H11.776z"/>
</g>
<path d="M284.795,494.925v-59.732h13.866c4.71,0,8.533-3.823,8.533-8.533v-68.266c0-4.71-3.823-8.533-8.533-8.533h-8.533v-59.732
	c0-4.71-3.823-8.533-8.533-8.533v-51.199h8.533c4.71,0,8.533-3.823,8.533-8.533v-68.266c0-4.71-3.823-8.533-8.533-8.533h-17.066
	V93.865h3.2c4.71,0,8.533-3.823,8.533-8.533V17.066c0-4.71-3.823-8.533-8.533-8.533H20.266c-4.71,0-8.533,3.823-8.533,8.533v59.732
	h-3.2C3.823,76.799,0,80.622,0,85.332v68.266c0,4.71,3.823,8.533,8.533,8.533H25.6v51.199h-8.533c-4.71,0-8.533,3.823-8.533,8.533
	v68.266c0,4.71,3.823,8.533,8.533,8.533v59.732c0,4.71,3.823,8.533,8.533,8.533h8.533v51.199H20.266
	c-4.71,0-8.533,3.823-8.533,8.533v68.266c0,4.71,3.823,8.533,8.533,8.533h255.996C280.972,503.458,284.795,499.635,284.795,494.925z
	 M290.128,366.927v51.199h-25.6v-51.199H290.128z M51.199,366.927h25.6v51.199h-25.6V366.927z M42.666,349.861h-8.533v-51.199h25.6
	v51.199H42.666z M68.266,281.595v-51.199h25.6v51.199H68.266z M42.666,213.33v-51.199h25.6v51.199H42.666z M85.332,213.33v-51.199
	h25.6v51.199H85.332z M76.799,298.662h25.6v51.199h-25.6V298.662z M93.865,366.927h25.6v51.199h-25.6V366.927z M110.931,281.595
	v-51.199h25.6v51.199H110.931z M127.998,213.33v-51.199h25.6v51.199H127.998z M119.465,298.662h25.6v51.199h-25.6V298.662z
	 M136.531,366.927h25.6v51.199h-25.6V366.927z M153.597,281.595v-51.199h25.6v51.199H153.597z M170.664,213.33v-51.199h25.6v51.199
	H170.664z M162.131,298.662h25.6v51.199h-25.6V298.662z M179.197,366.927h25.6v51.199h-25.6V366.927z M196.263,281.595v-51.199h25.6
	v51.199H196.263z M213.33,213.33v-51.199h25.6v51.199H213.33z M204.797,298.662h25.6v51.199h-25.6V298.662z M221.863,366.927h25.6
	v51.199h-25.6V366.927z M238.929,281.595v-51.199h25.6v51.199H238.929z M247.463,298.662h25.6v51.199h-25.6V298.662z
	 M281.595,162.131v51.199h-25.6v-51.199H281.595z M242.129,25.6h25.6v51.199h-25.6V25.6z M230.396,93.865h25.6v51.199h-25.6V93.865z
	 M199.463,25.6h25.6v51.199h-25.6V25.6z M187.73,93.865h25.6v51.199h-25.6V93.865z M156.797,25.6h25.6v51.199h-25.6V25.6z
	 M145.064,93.865h25.6v51.199h-25.6V93.865z M114.131,25.6h25.6v51.199h-25.6V25.6z M102.398,93.865h25.6v51.199h-25.6V93.865z
	 M71.465,25.6h25.6v51.199h-25.6V25.6z M59.732,93.865h25.6v51.199h-25.6V93.865z M28.8,25.6h25.6v51.199H28.8V25.6z
	 M17.066,145.064V93.865h25.6v51.199H17.066z M25.6,281.595v-51.199h25.6v51.199H25.6z M54.399,486.392H28.8v-51.199h25.6V486.392z
	 M97.065,486.392h-25.6v-51.199h25.6V486.392z M139.731,486.392h-25.6v-51.199h25.6V486.392z M182.397,486.392h-25.6v-51.199h25.6
	V486.392z M225.063,486.392h-25.6v-51.199h25.6V486.392z M267.729,486.392h-25.6v-51.199h25.6V486.392z"/>
<path d="M375.46,230.396c-29.559-0.085-58.324,9.506-81.919,27.306l10.24,13.653c52.786-39.585,127.665-28.893,167.251,23.893
	s28.893,127.665-23.893,167.251c-42.478,31.854-100.879,31.854-143.358,0l-10.24,13.653c60.321,45.243,145.9,33.015,191.143-27.306
	s33.015-145.901-27.306-191.143C433.742,239.979,405.002,230.396,375.46,230.396z"/>
<path d="M375.46,34.133c-29.559-0.085-58.324,9.506-81.919,27.306l10.24,13.653c52.786-39.585,127.665-28.893,167.251,23.893
	c31.854,42.478,31.854,100.879,0,143.358l13.653,10.24c17.8-23.594,27.392-52.36,27.306-81.919
	C511.906,95.299,450.826,34.218,375.46,34.133z"/>
<path d="M341.328,196.263h-8.533v17.066h17.066v17.066h17.066V213.33h17.066v17.066h17.066v-18.278
	c18.133-4.557,29.141-22.963,24.576-41.096c-1.707-6.784-5.47-12.868-10.769-17.425c14.182-12.185,15.803-33.561,3.618-47.752
	c-4.557-5.308-10.641-9.071-17.425-10.769V76.799h-17.066v17.066h-17.066V76.799h-17.066v17.066h-17.066v17.066h8.533V196.263z
	 M358.394,110.931h34.133c9.429,0,17.066,7.637,17.066,17.066s-7.637,17.066-17.066,17.066h-34.133V110.931z M358.394,162.131
	h34.133c9.429,0,17.066,7.637,17.066,17.066c0,9.429-7.637,17.066-17.066,17.066h-34.133V162.131z"/>
<path d="M341.328,409.593h-8.533v17.066h17.066v17.066h17.066V426.66h17.066v17.066h17.066v-18.278
	c18.133-4.557,29.141-22.963,24.576-41.096c-1.707-6.784-5.47-12.868-10.769-17.425c14.182-12.185,15.803-33.561,3.618-47.752
	c-4.557-5.308-10.641-9.071-17.425-10.769v-18.278h-17.066v17.066h-17.066v-17.066h-17.066v17.066h-17.066v17.066h8.533V409.593z
	 M358.394,324.261h34.133c9.429,0,17.066,7.637,17.066,17.066c0,9.429-7.637,17.066-17.066,17.066h-34.133V324.261z M358.394,375.46
	h34.133c9.429,0,17.066,7.637,17.066,17.066s-7.637,17.066-17.066,17.066h-34.133V375.46z"/>
<g>
</g>
<g>
</g>
<g>
</g>
<g>
</g>
<g>
</g>
<g>
</g>
<g>
</g>
<g>
</g>
<g>
</g>
<g>
</g>
<g>
</g>
<g>
</g>
<g>
</g>
<g>
</g>
<g>
</g>
</svg>
