<?xml version="1.0" encoding="iso-8859-1"?>
<!-- Generator: Adobe Illustrator 19.0.0, SVG Export Plug-In . SVG Version: 6.00 Build 0)  -->
<svg version="1.1" id="Capa_1" xmlns="http://www.w3.org/2000/svg" xmlns:xlink="http://www.w3.org/1999/xlink" x="0px" y="0px"
	 viewBox="0 0 511.993 511.993" style="enable-background:new 0 0 511.993 511.993;" xml:space="preserve">
<path style="fill:#FE7C26;" d="M435.207,494.93c9.41,0.026,17.037,7.653,17.063,17.063h-34.125
	C418.178,502.583,425.797,494.956,435.207,494.93z"/>
<path style="fill:#B5B5B5;" d="M409.613,511.993c0-14.136,11.458-25.594,25.594-25.594c14.136,0,25.594,11.458,25.594,25.594
	H409.613z M435.207,503.462c-4.709,0-8.531,3.822-8.531,8.531h17.063C443.738,507.284,439.925,503.462,435.207,503.462z"/>
<path style="fill:#FE7C26;" d="M494.926,300.16c0.026-9.41,7.653-17.037,17.063-17.063v34.125
	C502.579,317.197,494.961,309.57,494.926,300.16z"/>
<path style="fill:#B5B5B5;" d="M511.989,325.754c-14.136,0-25.594-11.458-25.594-25.594c0-14.136,11.458-25.594,25.594-25.594
	V325.754z M503.458,300.16c0,4.709,3.822,8.531,8.531,8.531v-17.063C507.28,291.629,503.458,295.451,503.458,300.16z"/>
<g>
	<circle style="fill:#FE7C26;" cx="25.677" cy="25.673" r="17.063"/>
	<circle style="fill:#FE7C26;" cx="136.584" cy="153.643" r="17.063"/>
	<circle style="fill:#FE7C26;" cx="25.677" cy="315.738" r="17.063"/>
	<circle style="fill:#FE7C26;" cx="25.677" cy="435.177" r="17.063"/>
	<circle style="fill:#FE7C26;" cx="162.178" cy="469.302" r="17.063"/>
	<circle style="fill:#FE7C26;" cx="162.178" cy="392.52" r="17.063"/>
	<circle style="fill:#FE7C26;" cx="256.023" cy="392.52" r="17.063"/>
	<circle style="fill:#FE7C26;" cx="341.337" cy="469.302" r="17.063"/>
	<path style="fill:#FE7C26;" d="M85.422,0.113h34.125c0,9.427-7.636,17.063-17.063,17.063S85.422,9.531,85.422,0.113z"/>
	<circle style="fill:#FE7C26;" cx="179.241" cy="85.392" r="17.063"/>
	<circle style="fill:#FE7C26;" cx="256.023" cy="119.517" r="17.063"/>
	<path style="fill:#FE7C26;" d="M337.864,37.736c-3.242-3.157-5.059-7.499-5.034-12.029c0-9.427,7.636-17.063,17.063-17.063
		s17.063,7.636,17.063,17.063s-7.636,17.063-17.063,17.063C345.372,42.795,341.03,40.978,337.864,37.736z"/>
	<circle style="fill:#FE7C26;" cx="460.775" cy="51.267" r="17.063"/>
	<circle style="fill:#FE7C26;" cx="349.868" cy="119.517" r="17.063"/>
	<path style="fill:#FE7C26;" d="M503.458,170.739c-0.026,9.41-7.653,17.037-17.063,17.063c-9.393-0.068-16.994-7.67-17.063-17.063
		c0-9.427,7.636-17.063,17.063-17.063C495.822,153.677,503.458,161.312,503.458,170.739z"/>
	<path style="fill:#FE7C26;" d="M438.705,218.43c3.242,3.157,5.059,7.499,5.033,12.029c0,9.427-7.636,17.063-17.063,17.063
		c-9.427,0-17.063-7.636-17.063-17.063s7.636-17.063,17.063-17.063C431.206,213.371,435.548,215.188,438.705,218.43z"/>
	<circle style="fill:#FE7C26;" cx="383.993" cy="298.675" r="17.063"/>
	<path style="fill:#FE7C26;" d="M353.391,387.521c-3.157,3.242-7.499,5.059-12.029,5.033c-9.427,0-17.063-7.636-17.063-17.063
		s7.636-17.063,17.063-17.063s17.063,7.636,17.063,17.063C358.451,380.013,356.633,384.356,353.391,387.521z"/>
	<circle style="fill:#FE7C26;" cx="486.369" cy="426.646" r="17.063"/>
</g>
<g>
	<path style="fill:#FFD173;" d="M273.112,256.053c9.41,0.026,17.037,7.653,17.063,17.063c-0.068,9.393-7.67,16.994-17.063,17.063
		h-34.125v-34.125H273.112z"/>
	<path style="fill:#FFD173;" d="M273.112,221.928c9.41,0.026,17.037,7.653,17.063,17.063c-0.068,9.393-7.67,16.994-17.063,17.063
		h-34.125v-34.125H273.112z"/>
	<path style="fill:#FFD173;" d="M273.112,290.178c9.393-0.068,16.994-7.67,17.063-17.063c-0.026-9.41-7.653-17.037-17.063-17.063
		c9.393-0.068,16.994-7.67,17.063-17.063c-0.026-9.41-7.653-17.037-17.063-17.063h-34.125v68.251H273.112z M256.049,179.271
		c42.409,0,76.782,34.373,76.782,76.782s-34.373,76.782-76.782,76.782s-76.782-34.373-76.782-76.782
		S213.648,179.271,256.049,179.271z"/>
</g>
<g>
	<circle style="fill:#FE7C26;" cx="110.99" cy="247.487" r="17.063"/>
	<path style="fill:#FE7C26;" d="M256.049,341.366c-47.119,0-85.313-38.195-85.313-85.313s38.195-85.313,85.313-85.313
		s85.313,38.195,85.313,85.313C341.311,303.146,303.15,341.315,256.049,341.366z M256.049,187.802
		c-37.691,0-68.251,30.559-68.251,68.251c0,37.691,30.559,68.251,68.251,68.251s68.251-30.559,68.251-68.251
		C324.257,218.378,293.723,187.845,256.049,187.802z"/>
	<path style="fill:#FE7C26;" d="M298.706,238.99c-0.043-10.809-6.876-20.424-17.063-24.024v-10.101H264.58v8.531h-17.063v-8.531
		h-17.063v8.531h-8.531v17.063h8.531v51.188h-8.531v17.063h8.531v8.531h17.063v-8.531h17.063v8.531h17.063v-10.076
		c3.566-1.211,6.799-3.233,9.444-5.904c4.906-4.76,7.661-11.313,7.618-18.146c-0.026-6.322-2.406-12.405-6.68-17.063
		C296.325,251.412,298.714,245.312,298.706,238.99z M247.517,230.459h25.594c4.709,0,8.531,3.822,8.531,8.531
		c0.009,2.303-0.947,4.505-2.619,6.083c-1.553,1.587-3.694,2.466-5.912,2.449h-25.594V230.459z M279.024,279.198
		c-1.553,1.587-3.694,2.466-5.912,2.448h-25.594v-17.063h25.594c4.709,0,8.531,3.822,8.531,8.531
		C281.651,275.419,280.704,277.62,279.024,279.198z"/>
</g>
<g>
	<path style="fill:#B5B5B5;" d="M486.395,452.274c-14.136,0-25.594-11.458-25.594-25.594s11.458-25.594,25.594-25.594
		c14.136,0,25.594,11.458,25.594,25.594S500.531,452.274,486.395,452.274z M486.395,418.148c-4.709,0-8.531,3.822-8.531,8.531
		s3.822,8.531,8.531,8.531c4.709,0,8.531-3.822,8.531-8.531S491.113,418.148,486.395,418.148z"/>
	<path style="fill:#B5B5B5;" d="M486.395,196.334c-14.102-0.068-25.526-11.492-25.594-25.594c0-14.136,11.458-25.594,25.594-25.594
		c14.136,0,25.594,11.458,25.594,25.594C511.989,184.876,500.531,196.334,486.395,196.334z M486.395,162.208
		c-4.709,0-8.531,3.822-8.531,8.531c-0.017,2.218,0.862,4.36,2.448,5.912c1.578,1.672,3.779,2.628,6.083,2.619
		c4.709,0,8.531-3.822,8.531-8.531C494.926,166.03,491.113,162.208,486.395,162.208z"/>
	<path style="fill:#B5B5B5;" d="M426.676,256.053c-14.136,0-25.594-11.458-25.594-25.594s11.458-25.594,25.594-25.594
		c14.102,0.068,25.526,11.492,25.594,25.594C452.27,244.595,440.812,256.053,426.676,256.053L426.676,256.053z M426.676,221.928
		c-4.709,0-8.531,3.822-8.531,8.531s3.822,8.531,8.531,8.531c4.709,0,8.531-3.822,8.531-8.531c0.017-2.218-0.862-4.36-2.448-5.912
		C431.18,222.866,428.979,221.919,426.676,221.928z"/>
	<path style="fill:#B5B5B5;" d="M384.019,324.304c-14.136,0-25.594-11.458-25.594-25.594s11.458-25.594,25.594-25.594
		s25.594,11.458,25.594,25.594S398.155,324.304,384.019,324.304z M384.019,290.178c-4.709,0-8.531,3.822-8.531,8.531
		s3.822,8.531,8.531,8.531s8.531-3.822,8.531-8.531S388.737,290.178,384.019,290.178z"/>
	<path style="fill:#B5B5B5;" d="M341.362,401.086c-14.136,0-25.594-11.458-25.594-25.594s11.458-25.594,25.594-25.594
		s25.594,11.458,25.594,25.594C366.888,389.594,355.473,401.017,341.362,401.086z M341.362,366.96c-4.709,0-8.531,3.822-8.531,8.531
		s3.822,8.531,8.531,8.531c2.218,0.017,4.36-0.862,5.912-2.448c1.672-1.578,2.628-3.779,2.619-6.083
		C349.894,370.782,346.08,366.96,341.362,366.96z"/>
	<path style="fill:#B5B5B5;" d="M162.204,418.148c-14.136,0-25.594-11.458-25.594-25.594s11.458-25.594,25.594-25.594
		s25.594,11.458,25.594,25.594S176.34,418.148,162.204,418.148z M162.204,384.023c-4.709,0-8.531,3.822-8.531,8.531
		s3.822,8.531,8.531,8.531s8.531-3.822,8.531-8.531S166.922,384.023,162.204,384.023z"/>
	<path style="fill:#B5B5B5;" d="M256.049,418.148c-14.136,0-25.594-11.458-25.594-25.594s11.458-25.594,25.594-25.594
		c14.136,0,25.594,11.458,25.594,25.594S270.185,418.148,256.049,418.148z M256.049,384.023c-4.709,0-8.531,3.822-8.531,8.531
		s3.822,8.531,8.531,8.531c4.709,0,8.531-3.822,8.531-8.531S260.767,384.023,256.049,384.023z"/>
	<path style="fill:#B5B5B5;" d="M111.016,273.116c-14.136,0-25.594-11.458-25.594-25.594s11.458-25.594,25.594-25.594
		s25.594,11.458,25.594,25.594S125.152,273.116,111.016,273.116z M111.016,238.99c-4.709,0-8.531,3.822-8.531,8.531
		s3.822,8.531,8.531,8.531c4.709,0,8.531-3.822,8.531-8.531S115.734,238.99,111.016,238.99z"/>
	<path style="fill:#B5B5B5;" d="M136.61,179.271c-14.136,0-25.594-11.458-25.594-25.594s11.458-25.594,25.594-25.594
		s25.594,11.458,25.594,25.594S150.746,179.271,136.61,179.271z M136.61,145.145c-4.709,0-8.531,3.822-8.531,8.531
		c0,4.709,3.822,8.531,8.531,8.531c4.709,0,8.531-3.822,8.531-8.531C145.141,148.967,141.328,145.145,136.61,145.145z"/>
	<path style="fill:#B5B5B5;" d="M179.267,111.02c-14.136,0-25.594-11.458-25.594-25.594s11.458-25.594,25.594-25.594
		s25.594,11.458,25.594,25.594S193.403,111.02,179.267,111.02z M179.267,76.895c-4.709,0-8.531,3.822-8.531,8.531
		c0,4.709,3.822,8.531,8.531,8.531s8.531-3.822,8.531-8.531C187.798,80.717,183.985,76.895,179.267,76.895z"/>
	<path style="fill:#B5B5B5;" d="M25.703,51.301c-14.136,0-25.594-11.458-25.594-25.594S11.566,0.113,25.703,0.113
		S51.297,11.57,51.297,25.707S39.839,51.301,25.703,51.301z M25.703,17.175c-4.709,0-8.531,3.822-8.531,8.531
		s3.822,8.531,8.531,8.531s8.531-3.822,8.531-8.531S30.42,17.175,25.703,17.175z"/>
	<path style="fill:#B5B5B5;" d="M256.049,145.145c-14.136,0-25.594-11.458-25.594-25.594s11.458-25.594,25.594-25.594
		c14.136,0,25.594,11.458,25.594,25.594S270.185,145.145,256.049,145.145z M256.049,111.02c-4.709,0-8.531,3.822-8.531,8.531
		c0,4.709,3.822,8.531,8.531,8.531c4.709,0,8.531-3.822,8.531-8.531C264.58,114.842,260.767,111.02,256.049,111.02z"/>
	<path style="fill:#B5B5B5;" d="M349.894,51.301c-14.102-0.068-25.526-11.492-25.594-25.594c0-14.136,11.458-25.594,25.594-25.594
		s25.594,11.458,25.594,25.594S364.03,51.301,349.894,51.301z M349.894,17.175c-4.709,0-8.531,3.822-8.531,8.531
		c-0.017,2.218,0.862,4.36,2.448,5.912c1.578,1.672,3.779,2.628,6.083,2.619c4.709,0,8.531-3.822,8.531-8.531
		S354.611,17.175,349.894,17.175z"/>
	<path style="fill:#B5B5B5;" d="M349.894,145.145c-14.136,0-25.594-11.458-25.594-25.594s11.458-25.594,25.594-25.594
		s25.594,11.458,25.594,25.594S364.03,145.145,349.894,145.145z M349.894,111.02c-4.709,0-8.531,3.822-8.531,8.531
		c0,4.709,3.822,8.531,8.531,8.531s8.531-3.822,8.531-8.531C358.425,114.842,354.611,111.02,349.894,111.02z"/>
	<path style="fill:#B5B5B5;" d="M460.801,76.895c-14.136,0-25.594-11.458-25.594-25.594s11.458-25.594,25.594-25.594
		c14.136,0,25.594,11.458,25.594,25.594S474.937,76.895,460.801,76.895z M460.801,42.769c-4.709,0-8.531,3.822-8.531,8.531
		s3.822,8.531,8.531,8.531c4.709,0,8.531-3.822,8.531-8.531S465.519,42.769,460.801,42.769z"/>
	<path style="fill:#B5B5B5;" d="M341.362,494.93c-14.136,0-25.594-11.458-25.594-25.594s11.458-25.594,25.594-25.594
		s25.594,11.458,25.594,25.594S355.499,494.93,341.362,494.93z M341.362,460.805c-4.709,0-8.531,3.822-8.531,8.531
		s3.822,8.531,8.531,8.531s8.531-3.822,8.531-8.531S346.08,460.805,341.362,460.805z"/>
	<path style="fill:#B5B5B5;" d="M162.204,494.93c-14.136,0-25.594-11.458-25.594-25.594s11.458-25.594,25.594-25.594
		s25.594,11.458,25.594,25.594S176.34,494.93,162.204,494.93z M162.204,460.805c-4.709,0-8.531,3.822-8.531,8.531
		s3.822,8.531,8.531,8.531s8.531-3.822,8.531-8.531S166.922,460.805,162.204,460.805z"/>
	<path style="fill:#B5B5B5;" d="M25.703,460.805c-14.136,0-25.594-11.458-25.594-25.594s11.458-25.594,25.594-25.594
		s25.594,11.458,25.594,25.594S39.839,460.805,25.703,460.805z M25.703,426.68c-4.709,0-8.531,3.822-8.531,8.531
		s3.822,8.531,8.531,8.531s8.531-3.822,8.531-8.531S30.42,426.68,25.703,426.68z"/>
	<path style="fill:#B5B5B5;" d="M25.703,341.366c-14.136,0-25.594-11.458-25.594-25.594s11.458-25.594,25.594-25.594
		s25.594,11.458,25.594,25.594S39.839,341.366,25.703,341.366z M25.703,307.241c-4.709,0-8.531,3.822-8.531,8.531
		s3.822,8.531,8.531,8.531s8.531-3.822,8.531-8.531S30.42,307.241,25.703,307.241z"/>
	<path style="fill:#B5B5B5;" d="M469.332,435.211H392.55c-2.261,0-4.436-0.896-6.032-2.5l-42.657-42.657l12.063-12.063
		l40.157,40.157h73.25V435.211z"/>
	<path style="fill:#B5B5B5;" d="M44.531,428.446l-12.063-12.063l29.86-29.86c1.595-1.604,3.771-2.5,6.032-2.5h76.782v17.063h-73.25
		L44.531,428.446z"/>
	<path style="fill:#B5B5B5;" d="M111.016,324.304H42.765v-17.063h59.719v-42.657h17.063v51.188
		C119.547,320.482,115.734,324.304,111.016,324.304z"/>
	<path style="fill:#B5B5B5;" d="M256.049,477.868h-76.782v-17.063h68.251v-51.188h17.063v59.719
		C264.58,474.046,260.767,477.868,256.049,477.868z"/>
	<path style="fill:#B5B5B5;" d="M264.58,102.489h-17.063V64.098c0-4.709,3.822-8.531,8.531-8.531h51.922l27.36-27.36l12.063,12.063
		l-29.86,29.86c-1.595,1.604-3.771,2.5-6.032,2.5H264.58V102.489z"/>
	<path style="fill:#B5B5B5;" d="M471.832,159.708l-31.626-31.626h-73.25V111.02h76.782c2.261,0,4.436,0.896,6.032,2.5l34.125,34.125
		L471.832,159.708z"/>
	
		<rect x="426.37" y="192.071" transform="matrix(-0.7071 0.7071 -0.7071 -0.7071 921.1888 19.6366)" style="fill:#B5B5B5;" width="60.316" height="17.063"/>
	<rect x="401.056" y="290.144" style="fill:#B5B5B5;" width="93.845" height="17.063"/>
	<path style="fill:#B5B5B5;" d="M119.547,162.208H76.891c-2.261,0-4.436-0.896-6.032-2.5L19.671,108.52
		c-1.604-1.595-2.5-3.771-2.5-6.032V42.769h17.063v56.187l46.189,46.189h39.125C119.547,145.145,119.547,162.208,119.547,162.208z"
		/>
	
		<rect x="128.738" y="6.591" transform="matrix(-0.7071 0.7071 -0.7071 -0.7071 264.5869 -24.026)" style="fill:#B5B5B5;" width="17.063" height="72.388"/>
	<rect x="452.244" y="0.113" style="fill:#B5B5B5;" width="17.063" height="34.125"/>
	<path style="fill:#B5B5B5;" d="M443.738,494.93h-17.063v-17.063h-68.251v-17.063h76.782c4.709,0,8.531,3.822,8.531,8.531V494.93z"
		/>
</g>
<path style="fill:#FE7C26;" d="M102.485,17.175c-9.41-0.026-17.037-7.653-17.063-17.063h34.125
	C119.522,9.523,111.895,17.15,102.485,17.175z"/>
<path style="fill:#B5B5B5;" d="M128.079,0.113c0,14.136-11.458,25.594-25.594,25.594S76.891,14.249,76.891,0.113
	C76.891,0.113,128.079,0.113,128.079,0.113z M102.485,8.644c4.709,0,8.531-3.822,8.531-8.531H93.953
	C93.953,4.822,97.775,8.644,102.485,8.644z"/>
<path d="M341.362,256.053c0-47.119-38.195-85.313-85.313-85.313s-85.313,38.195-85.313,85.313s38.195,85.313,85.313,85.313
	C303.15,341.315,341.311,303.146,341.362,256.053z M256.049,324.304c-37.691,0-68.251-30.559-68.251-68.251
	c0-37.691,30.559-68.251,68.251-68.251s68.251,30.559,68.251,68.251C324.257,293.727,293.723,324.261,256.049,324.304z"/>
<path d="M281.643,214.966v-10.101H264.58v8.531h-17.063v-8.531h-17.063v8.531h-8.531v17.063h8.531v51.188h-8.531v17.063h8.531v8.531
	h17.063v-8.531h17.063v8.531h17.063V297.14c13.232-4.581,20.253-19.016,15.672-32.248c-1.135-3.276-2.926-6.279-5.264-8.838
	c9.461-10.323,8.753-26.362-1.57-35.823C287.922,217.892,284.919,216.101,281.643,214.966z M273.112,281.647h-25.594v-17.063h25.594
	c4.709,0,8.531,3.822,8.531,8.531S277.829,281.647,273.112,281.647z M273.112,247.522h-25.594v-17.063h25.594
	c4.709,0,8.531,3.822,8.531,8.531S277.829,247.522,273.112,247.522z"/>
<path d="M486.395,401.086c-10.809,0.043-20.424,6.876-24.024,17.063h-66.289l-31.685-31.694c1.672-3.413,2.542-7.166,2.559-10.963
	c0-14.136-11.458-25.594-25.594-25.594s-25.594,11.458-25.594,25.594s11.458,25.594,25.594,25.594
	c3.796-0.017,7.55-0.887,10.963-2.559l34.194,34.194c1.604,1.595,3.771,2.491,6.032,2.491h69.821
	c4.735,13.292,19.349,20.228,32.641,15.493c13.292-4.735,20.228-19.349,15.493-32.641
	C506.879,407.868,497.221,401.069,486.395,401.086z M341.362,384.023c-4.709,0-8.531-3.822-8.531-8.531s3.822-8.531,8.531-8.531
	s8.531,3.822,8.531,8.531S346.08,384.023,341.362,384.023z M486.395,435.211c-4.709,0-8.531-3.822-8.531-8.531
	s3.822-8.531,8.531-8.531c4.709,0,8.531,3.822,8.531,8.531S491.113,435.211,486.395,435.211z"/>
<path d="M486.395,145.145c-1.527,0.017-3.046,0.171-4.539,0.461L449.77,113.52c-1.595-1.604-3.771-2.5-6.032-2.5h-69.821
	c-4.709-13.326-19.332-20.313-32.658-15.595c-13.326,4.709-20.313,19.332-15.595,32.658c4.709,13.326,19.332,20.313,32.658,15.595
	c7.286-2.576,13.019-8.31,15.595-15.595h66.289l26.498,26.498c-6.407,7.567-7.721,18.223-3.336,27.121l-25.731,25.722
	c-3.413-1.672-7.166-2.542-10.963-2.559c-14.136,0-25.594,11.458-25.594,25.594s11.458,25.594,25.594,25.594
	s25.594-11.458,25.594-25.594l0,0c-0.017-3.796-0.887-7.55-2.559-10.963l25.722-25.722c3.413,1.672,7.166,2.542,10.963,2.559
	c14.136,0,25.594-11.458,25.594-25.594C511.989,156.603,500.531,145.145,486.395,145.145z M349.894,128.083
	c-4.709,0-8.531-3.822-8.531-8.531c0-4.709,3.822-8.531,8.531-8.531s8.531,3.822,8.531,8.531
	C358.425,124.261,354.611,128.083,349.894,128.083z M426.676,238.99c-4.709,0-8.531-3.822-8.531-8.531s3.822-8.531,8.531-8.531
	c4.709,0,8.531,3.822,8.531,8.531S431.394,238.99,426.676,238.99z M486.395,179.271c-4.709,0-8.531-3.822-8.531-8.531
	c0-4.709,3.822-8.531,8.531-8.531c4.709,0,8.531,3.822,8.531,8.531C494.926,175.449,491.113,179.271,486.395,179.271z"/>
<path d="M162.204,153.677c0.026-14.102-11.381-25.56-25.483-25.585c-10.852-0.017-20.526,6.817-24.135,17.054H80.423L34.234,98.957
	V49.731c13.326-4.709,20.313-19.332,15.595-32.658S30.497-3.24,17.171,1.469S-3.142,20.801,1.576,34.127
	c2.576,7.294,8.31,13.027,15.595,15.604v52.758c0,2.261,0.896,4.436,2.5,6.032l51.188,51.188c1.595,1.604,3.771,2.5,6.032,2.5
	h35.695c4.684,13.3,19.264,20.288,32.564,15.604C155.388,174.203,162.23,164.529,162.204,153.677z M25.703,34.238
	c-4.709,0-8.531-3.822-8.531-8.531s3.822-8.531,8.531-8.531s8.531,3.822,8.531,8.531S30.42,34.238,25.703,34.238z M128.079,153.677
	c0-4.709,3.822-8.531,8.531-8.531c4.709,0,8.531,3.822,8.531,8.531c0,4.709-3.822,8.531-8.531,8.531
	C131.901,162.208,128.079,158.386,128.079,153.677z"/>
<path d="M204.861,85.426c0.06-14.077-11.304-25.534-25.389-25.594c-3.694-0.017-7.354,0.776-10.715,2.312l-46.265-46.265
	c3.592-4.47,5.562-10.033,5.588-15.766h-17.063c0,4.709-3.822,8.531-8.531,8.531c-4.709,0-8.531-3.822-8.531-8.531H76.891
	c0,14.136,11.458,25.594,25.594,25.594c1.74,0,3.472-0.179,5.179-0.529l48.825,48.825c-1.826,3.532-2.79,7.448-2.815,11.423
	c0,14.136,11.458,25.594,25.594,25.594S204.861,99.562,204.861,85.426z M170.735,85.426c0-4.709,3.822-8.531,8.531-8.531
	s8.531,3.822,8.531,8.531c0,4.709-3.822,8.531-8.531,8.531S170.735,90.135,170.735,85.426z"/>
<path d="M488.408,290.178h-80.365c-4.709-13.326-19.332-20.313-32.658-15.595c-13.326,4.709-20.313,19.332-15.595,32.658
	c4.709,13.326,19.332,20.313,32.658,15.595c7.286-2.576,13.019-8.31,15.595-15.595h79.478c3.157,10.912,13.113,18.436,24.468,18.487
	v-17.063c-4.709,0-8.531-3.822-8.531-8.531s3.822-8.531,8.531-8.531V274.54C501.7,274.54,492.41,280.7,488.408,290.178z
	 M384.019,307.241c-4.709,0-8.531-3.822-8.531-8.531s3.822-8.531,8.531-8.531s8.531,3.822,8.531,8.531
	S388.737,307.241,384.019,307.241z"/>
<path d="M349.894,51.301c14.136,0,25.594-11.458,25.594-25.594S364.03,0.113,349.894,0.113S324.3,11.57,324.3,25.707
	c0.017,3.796,0.887,7.55,2.559,10.963l-18.888,18.897h-51.922c-4.709,0-8.531,3.822-8.531,8.531v31.429
	c-13.326,4.709-20.313,19.332-15.595,32.658c4.709,13.326,19.332,20.313,32.658,15.595c13.326-4.709,20.313-19.332,15.595-32.658
	c-2.576-7.286-8.31-13.019-15.595-15.595V72.629h46.922c2.261,0,4.436-0.896,6.032-2.5l21.397-21.388
	C342.343,50.413,346.097,51.284,349.894,51.301z M349.894,17.175c4.709,0,8.531,3.822,8.531,8.531s-3.822,8.531-8.531,8.531
	s-8.531-3.822-8.531-8.531S345.184,17.175,349.894,17.175z M256.049,128.083c-4.709,0-8.531-3.822-8.531-8.531
	c0-4.709,3.822-8.531,8.531-8.531c4.709,0,8.531,3.822,8.531,8.531C264.58,124.261,260.767,128.083,256.049,128.083z"/>
<path d="M460.801,76.895c14.102,0.026,25.56-11.381,25.586-25.483c0.017-10.852-6.817-20.526-17.054-24.135V0.113H452.27v27.164
	c-13.3,4.684-20.288,19.264-15.604,32.564C440.275,70.078,449.949,76.912,460.801,76.895z M460.801,42.769
	c4.709,0,8.531,3.822,8.531,8.531s-3.822,8.531-8.531,8.531c-4.709,0-8.531-3.822-8.531-8.531S456.092,42.769,460.801,42.769z"/>
<path d="M443.738,487.969v-18.632c0-4.709-3.822-8.531-8.531-8.531h-69.82c-4.709-13.326-19.332-20.313-32.658-15.595
	c-13.326,4.709-20.313,19.332-15.595,32.658c4.709,13.326,19.332,20.313,32.658,15.595c7.286-2.576,13.019-8.31,15.595-15.595
	h61.289v10.101c-10.186,3.6-17.02,13.215-17.063,24.024h17.063c0-4.709,3.822-8.531,8.531-8.531c4.709,0,8.531,3.822,8.531,8.531
	h17.063C460.758,501.184,453.933,491.569,443.738,487.969z M341.362,477.868c-4.709,0-8.531-3.822-8.531-8.531
	s3.822-8.531,8.531-8.531s8.531,3.822,8.531,8.531S346.08,477.868,341.362,477.868z"/>
<path d="M138.18,401.086c4.709,13.326,19.332,20.313,32.658,15.595c13.326-4.709,20.313-19.332,15.595-32.658
	c-4.718-13.326-19.332-20.313-32.658-15.595c-7.286,2.576-13.019,8.31-15.595,15.595H68.359c-2.261,0-4.436,0.896-6.032,2.5
	l-25.662,25.654c-3.413-1.672-7.166-2.542-10.963-2.559c-14.136,0-25.594,11.458-25.594,25.594s11.458,25.594,25.594,25.594
	s25.594-11.458,25.594-25.594c-0.017-3.796-0.887-7.55-2.559-10.963l23.154-23.163H138.18z M162.204,384.023
	c4.709,0,8.531,3.822,8.531,8.531s-3.822,8.531-8.531,8.531s-8.531-3.822-8.531-8.531S157.495,384.023,162.204,384.023z
	 M25.703,443.742c-4.709,0-8.531-3.822-8.531-8.531s3.822-8.531,8.531-8.531s8.531,3.822,8.531,8.531S30.42,443.742,25.703,443.742z
	"/>
<path d="M49.727,307.241c-4.709-13.326-19.332-20.313-32.658-15.595c-13.326,4.718-20.313,19.332-15.595,32.658
	s19.332,20.313,32.658,15.595c7.286-2.576,13.019-8.31,15.595-15.595h61.289c4.709,0,8.531-3.822,8.531-8.531v-44.227
	c13.326-4.709,20.313-19.332,15.595-32.658c-4.709-13.326-19.332-20.313-32.658-15.595c-13.326,4.718-20.313,19.332-15.595,32.658
	c2.576,7.286,8.31,13.019,15.595,15.595v35.695H49.727z M25.703,324.304c-4.709,0-8.531-3.822-8.531-8.531s3.822-8.531,8.531-8.531
	s8.531,3.822,8.531,8.531S30.42,324.304,25.703,324.304z M111.016,238.99c4.709,0,8.531,3.822,8.531,8.531s-3.822,8.531-8.531,8.531
	c-4.709,0-8.531-3.822-8.531-8.531S106.307,238.99,111.016,238.99z"/>
<path d="M186.228,460.805c-4.709-13.326-19.332-20.313-32.658-15.595c-13.326,4.709-20.313,19.332-15.595,32.658
	s19.332,20.313,32.658,15.595c7.286-2.576,13.019-8.31,15.595-15.595h69.82c4.709,0,8.531-3.822,8.531-8.531v-52.758
	c13.326-4.709,20.313-19.332,15.595-32.658c-4.709-13.326-19.332-20.313-32.658-15.595c-13.326,4.709-20.313,19.332-15.595,32.658
	c2.576,7.286,8.31,13.019,15.595,15.595v44.226H186.228z M162.204,477.868c-4.709,0-8.531-3.822-8.531-8.531
	s3.822-8.531,8.531-8.531s8.531,3.822,8.531,8.531S166.922,477.868,162.204,477.868z M256.049,384.023
	c4.709,0,8.531,3.822,8.531,8.531s-3.822,8.531-8.531,8.531c-4.709,0-8.531-3.822-8.531-8.531S251.34,384.023,256.049,384.023z"/>
<g>
</g>
<g>
</g>
<g>
</g>
<g>
</g>
<g>
</g>
<g>
</g>
<g>
</g>
<g>
</g>
<g>
</g>
<g>
</g>
<g>
</g>
<g>
</g>
<g>
</g>
<g>
</g>
<g>
</g>
</svg>
