<?xml version="1.0" encoding="iso-8859-1"?>
<!-- Generator: Adobe Illustrator 19.0.0, SVG Export Plug-In . SVG Version: 6.00 Build 0)  -->
<svg version="1.1" id="Capa_1" xmlns="http://www.w3.org/2000/svg" xmlns:xlink="http://www.w3.org/1999/xlink" x="0px" y="0px"
	 viewBox="0 0 512.004 512.004" style="enable-background:new 0 0 512.004 512.004;" xml:space="preserve">
<g>
	<path style="fill:#FFD173;" d="M357.778,154.244c-16.02-15.978-25.02-37.679-24.994-60.311c0-2.9,0.171-5.715,0.427-8.53
		c4.7-46.875,46.517-81.065,93.392-76.365s81.065,46.517,76.365,93.392s-46.517,81.065-93.392,76.365
		C389.989,176.832,371.691,168.157,357.778,154.244z M435.15,128.055c9.392-0.068,16.993-7.669,17.061-17.061
		c-0.026-9.409-7.652-17.035-17.061-17.061c9.392-0.068,16.993-7.669,17.061-17.061c-0.026-9.409-7.652-17.035-17.061-17.061
		h-34.122v68.244H435.15z"/>
	<path style="fill:#FFD173;" d="M401.028,383.97v68.244h34.122c9.392-0.068,16.993-7.669,17.061-17.061
		c-0.026-9.409-7.652-17.035-17.061-17.061c9.392-0.068,16.993-7.669,17.061-17.061c-0.026-9.409-7.652-17.035-17.061-17.061
		H401.028z M357.778,357.781c33.32-33.312,87.327-33.303,120.638,0.017s33.303,87.327-0.017,120.638s-87.327,33.303-120.638-0.017
		c-15.995-16.003-24.977-37.705-24.977-60.328C332.758,395.46,341.749,373.759,357.778,357.781z"/>
	<path style="fill:#FFD173;" d="M435.15,59.811c9.409,0.026,17.035,7.652,17.061,17.061c-0.068,9.392-7.669,16.993-17.061,17.061
		h-34.122V59.811C401.028,59.811,435.15,59.811,435.15,59.811z"/>
	<path style="fill:#FFD173;" d="M435.15,93.933c9.409,0.026,17.035,7.652,17.061,17.061c-0.068,9.392-7.669,16.993-17.061,17.061
		h-34.122V93.933H435.15z"/>
	<path style="fill:#FFD173;" d="M435.15,383.97c9.409,0.026,17.035,7.652,17.061,17.061c-0.068,9.392-7.669,16.993-17.061,17.061
		h-34.122V383.97H435.15z"/>
	<path style="fill:#FFD173;" d="M435.15,418.092c9.409,0.026,17.035,7.652,17.061,17.061c-0.068,9.392-7.669,16.993-17.061,17.061
		h-34.122v-34.122H435.15z"/>
	<path style="fill:#FFD173;" d="M191.604,191.607c35.572-30.795,89.374-26.931,120.169,8.641s26.931,89.374-8.641,120.169
		s-89.374,26.931-120.169-8.641c-13.41-15.483-20.789-35.282-20.789-55.764C162.08,231.265,172.837,207.73,191.604,191.607z
		 M230.418,290.134h34.122c9.392-0.068,16.993-7.669,17.061-17.061c-0.026-9.409-7.652-17.035-17.061-17.061
		c9.392-0.068,16.993-7.669,17.061-17.061c-0.026-9.409-7.652-17.035-17.061-17.061h-34.122L230.418,290.134L230.418,290.134z"/>
	<path style="fill:#FFD173;" d="M264.54,221.89c9.409,0.026,17.035,7.652,17.061,17.061c-0.068,9.392-7.669,16.993-17.061,17.061
		h-34.122V221.89H264.54z"/>
	<path style="fill:#FFD173;" d="M264.54,256.012c9.409,0.026,17.035,7.652,17.061,17.061c-0.068,9.392-7.669,16.993-17.061,17.061
		h-34.122v-34.122L264.54,256.012L264.54,256.012z"/>
	<path style="fill:#FFD173;" d="M154.241,154.244c-33.32,33.312-87.327,33.303-120.638-0.017S0.3,66.891,33.62,33.588
		s87.327-33.303,120.638,0.017c13.913,13.913,22.589,32.22,24.551,51.797c0.256,2.815,0.427,5.63,0.427,8.53
		C179.261,116.556,170.261,138.266,154.241,154.244z M110.991,59.811H76.869v68.244h34.122c9.392-0.068,16.993-7.669,17.061-17.061
		c-0.026-9.409-7.652-17.035-17.061-17.061c9.392-0.068,16.993-7.669,17.061-17.061C128.018,67.463,120.4,59.837,110.991,59.811z"/>
	<path style="fill:#FFD173;" d="M154.241,357.781c33.312,33.32,33.303,87.327-0.017,120.638s-87.335,33.303-120.647-0.017
		s-33.295-87.335,0.026-120.638c16.003-15.995,37.705-24.977,60.328-24.977C116.553,332.761,138.263,341.752,154.241,357.781z
		 M76.869,383.97v68.244h34.122c9.392-0.068,16.993-7.669,17.061-17.061c-0.026-9.409-7.652-17.035-17.061-17.061
		c9.392-0.068,16.993-7.669,17.061-17.061c-0.026-9.409-7.652-17.035-17.061-17.061H76.869z"/>
	<path style="fill:#FFD173;" d="M110.991,59.811c9.409,0.026,17.035,7.652,17.061,17.061c-0.068,9.392-7.669,16.993-17.061,17.061
		H76.869V59.811C76.869,59.811,110.991,59.811,110.991,59.811z"/>
	<path style="fill:#FFD173;" d="M110.991,93.933c9.409,0.026,17.035,7.652,17.061,17.061c-0.068,9.392-7.669,16.993-17.061,17.061
		H76.869V93.933H110.991z"/>
	<path style="fill:#FFD173;" d="M110.991,383.97c9.409,0.026,17.035,7.652,17.061,17.061c-0.068,9.392-7.669,16.993-17.061,17.061
		H76.869V383.97H110.991z"/>
	<path style="fill:#FFD173;" d="M110.991,418.092c9.409,0.026,17.035,7.652,17.061,17.061c-0.068,9.392-7.669,16.993-17.061,17.061
		H76.869v-34.122H110.991z"/>
</g>
<g>
	<polygon style="fill:#454545;" points="352.344,364.409 309.692,321.757 321.754,309.695 363.809,351.75 	"/>
	<polygon style="fill:#454545;" points="321.754,202.33 309.692,190.268 351.747,148.213 364.406,159.678 	"/>
	<polygon style="fill:#454545;" points="186,198.065 148.21,160.275 159.675,147.615 197.635,185.576 	"/>
	<polygon style="fill:#454545;" points="160.272,363.812 147.613,352.347 181.735,318.225 193.797,330.287 	"/>
	<rect x="179.227" y="409.553" style="fill:#454545;" width="153.549" height="17.061"/>
	<rect x="179.227" y="76.864" style="fill:#454545;" width="153.549" height="17.061"/>
	<rect x="409.55" y="179.229" style="fill:#454545;" width="17.061" height="153.549"/>
	<rect x="85.391" y="179.229" style="fill:#454545;" width="17.061" height="153.549"/>
</g>
<g>
	<path style="fill:#FE7C26;" d="M110.991,102.464V85.403c2.226,0.026,4.368-0.862,5.92-2.457c1.672-1.578,2.619-3.779,2.61-6.074
		c0-4.709-3.822-8.53-8.53-8.53H85.4v25.591H68.339V59.811c0-4.709,3.822-8.53,8.53-8.53h34.122
		c14.135,0,25.591,11.456,25.591,25.591C136.514,90.973,125.092,102.395,110.991,102.464z"/>
	<path style="fill:#FE7C26;" d="M110.991,136.586H76.869c-4.709,0-8.53-3.822-8.53-8.531V93.933c0-4.709,3.822-8.53,8.53-8.53
		h34.122c14.135,0,25.591,11.456,25.591,25.591C136.514,125.095,125.092,136.517,110.991,136.586z M85.4,119.525h25.591
		c2.226,0.026,4.368-0.862,5.92-2.457c1.672-1.578,2.619-3.779,2.61-6.074c0-4.709-3.822-8.53-8.53-8.53H85.4V119.525z"/>
	<path style="fill:#FE7C26;" d="M85.4,145.116H68.339v-8.53h-8.53v-17.061h17.061c4.709,0,8.53,3.822,8.53,8.53V145.116z"/>
	<path style="fill:#FE7C26;" d="M76.869,68.342H59.808V51.281h8.53v-8.53H85.4v17.061C85.4,64.52,81.578,68.342,76.869,68.342z"/>
	<rect x="102.452" y="42.742" style="fill:#FE7C26;" width="17.061" height="17.061"/>
	<rect x="102.452" y="128.047" style="fill:#FE7C26;" width="17.061" height="17.061"/>
	<path style="fill:#FE7C26;" d="M93.93,187.769c-51.823,0-93.835-42.013-93.835-93.835S42.108,0.098,93.93,0.098
		c48.189,0,88.546,36.502,93.366,84.452v0.077c0.282,3.071,0.461,6.133,0.461,9.298C187.757,145.747,145.753,187.76,93.93,187.769
		L93.93,187.769z M93.93,17.159c-42.405,0-76.774,34.369-76.774,76.774s34.369,76.774,76.774,76.774s76.774-34.369,76.774-76.774
		c0-2.627-0.162-5.178-0.384-7.729C166.491,46.922,133.392,17.005,93.93,17.159z"/>
	<path style="fill:#FE7C26;" d="M435.15,426.622v-17.061c2.226,0.026,4.368-0.862,5.92-2.457c1.672-1.578,2.619-3.779,2.61-6.074
		c0-4.709-3.822-8.53-8.53-8.53h-25.591v25.591h-17.061V383.97c0-4.709,3.822-8.53,8.53-8.53h34.122
		c14.135,0,25.591,11.456,25.591,25.591C460.673,415.132,449.251,426.554,435.15,426.622z"/>
	<path style="fill:#FE7C26;" d="M435.15,460.744h-34.122c-4.709,0-8.53-3.822-8.53-8.53v-34.122c0-4.709,3.822-8.53,8.53-8.53
		h34.122c14.135,0,25.591,11.456,25.591,25.591C460.673,449.254,449.251,460.676,435.15,460.744z M409.558,443.683h25.591
		c2.226,0.026,4.368-0.862,5.92-2.457c1.672-1.578,2.619-3.779,2.61-6.074c0-4.709-3.822-8.531-8.53-8.531h-25.591V443.683z"/>
	<path style="fill:#FE7C26;" d="M409.558,469.275h-17.061v-8.53h-8.531v-17.061h17.061c4.709,0,8.53,3.822,8.53,8.53V469.275z"/>
	<path style="fill:#FE7C26;" d="M401.028,392.5h-17.061v-17.061h8.531v-8.53h17.061v17.061
		C409.558,388.679,405.737,392.5,401.028,392.5z"/>
	<rect x="426.611" y="366.9" style="fill:#FE7C26;" width="17.061" height="17.061"/>
	<rect x="426.611" y="452.205" style="fill:#FE7C26;" width="17.061" height="17.061"/>
	<path style="fill:#FE7C26;" d="M418.089,511.927c-51.823,0-93.835-42.013-93.835-93.835s42.013-93.835,93.835-93.835
		s93.835,42.013,93.835,93.835l0,0C511.865,469.889,469.886,511.867,418.089,511.927z M418.089,341.317
		c-42.405,0-76.774,34.369-76.774,76.774s34.369,76.774,76.774,76.774s76.774-34.369,76.774-76.774
		c0.256-42.141-33.695-76.518-75.836-76.774C418.712,341.317,418.404,341.317,418.089,341.317z"/>
	<path style="fill:#FE7C26;" d="M264.54,264.543v-17.061c2.226,0.026,4.368-0.862,5.92-2.457c1.672-1.578,2.619-3.779,2.61-6.074
		c0-4.709-3.822-8.53-8.53-8.53h-25.591v25.591h-17.061V221.89c0-4.709,3.822-8.53,8.531-8.53h34.122
		c14.135,0,25.591,11.456,25.591,25.591C290.063,253.052,278.641,264.475,264.54,264.543z"/>
	<path style="fill:#FE7C26;" d="M264.54,298.665h-34.122c-4.709,0-8.53-3.822-8.53-8.53v-34.122c0-4.709,3.822-8.531,8.53-8.531
		h34.122c14.135,0,25.591,11.456,25.591,25.591C290.063,287.174,278.641,298.597,264.54,298.665z M238.949,281.604h25.591
		c2.226,0.026,4.368-0.862,5.92-2.457c1.672-1.578,2.619-3.779,2.61-6.074c0-4.709-3.822-8.53-8.53-8.53h-25.591L238.949,281.604
		L238.949,281.604z"/>
	<path style="fill:#FE7C26;" d="M238.949,307.195h-17.061v-8.53h-8.53v-17.061h17.061c4.709,0,8.531,3.822,8.531,8.53V307.195z"/>
	<path style="fill:#FE7C26;" d="M230.418,230.421h-17.061V213.36h8.53v-8.53h17.061v17.061
		C238.949,226.599,235.127,230.421,230.418,230.421z"/>
	<rect x="256.001" y="204.821" style="fill:#FE7C26;" width="17.061" height="17.061"/>
	<rect x="256.001" y="290.126" style="fill:#FE7C26;" width="17.061" height="17.061"/>
	<path style="fill:#FE7C26;" d="M247.479,349.848c-51.865,0.017-93.921-42.004-93.938-93.87
		c-0.017-51.865,42.004-93.921,93.87-93.938c51.865-0.017,93.921,42.004,93.938,93.87c0.009,23.382-8.71,45.937-24.448,63.228
		C299.165,338.758,273.924,349.916,247.479,349.848z M247.479,179.238c-42.448-0.051-76.902,34.327-76.945,76.774
		s34.327,76.902,76.774,76.945s76.902-34.327,76.945-76.774c0.026-19.125-7.089-37.577-19.944-51.737l0,0
		C289.765,188.408,269.129,179.247,247.479,179.238z"/>
	<path style="fill:#FE7C26;" d="M435.15,102.464V85.403c2.226,0.026,4.368-0.862,5.92-2.457c1.672-1.578,2.619-3.779,2.61-6.074
		c0-4.709-3.822-8.53-8.53-8.53h-25.591v25.591h-17.061V59.811c0-4.709,3.822-8.53,8.53-8.53h34.122
		c14.135,0,25.591,11.456,25.591,25.591C460.673,90.973,449.251,102.395,435.15,102.464z"/>
	<path style="fill:#FE7C26;" d="M435.15,136.586h-34.122c-4.709,0-8.53-3.822-8.53-8.531V93.933c0-4.709,3.822-8.53,8.53-8.53
		h34.122c14.135,0,25.591,11.456,25.591,25.591C460.673,125.095,449.251,136.517,435.15,136.586z M409.558,119.525h25.591
		c2.226,0.026,4.368-0.862,5.92-2.457c1.672-1.578,2.619-3.779,2.61-6.074c0-4.709-3.822-8.53-8.53-8.53h-25.591V119.525z"/>
	<path style="fill:#FE7C26;" d="M409.558,145.116h-17.061v-8.53h-8.531v-17.061h17.061c4.709,0,8.53,3.822,8.53,8.53V145.116z"/>
	<path style="fill:#FE7C26;" d="M401.028,68.342h-17.061V51.281h8.531v-8.53h17.061v17.061
		C409.558,64.52,405.737,68.342,401.028,68.342z"/>
	<rect x="426.611" y="42.742" style="fill:#FE7C26;" width="17.061" height="17.061"/>
	<rect x="426.611" y="128.047" style="fill:#FE7C26;" width="17.061" height="17.061"/>
	<path style="fill:#FE7C26;" d="M418.089,187.769c-51.823,0-93.835-42.013-93.835-93.835c0-3.165,0.179-6.227,0.461-9.298V84.55
		c5.187-51.567,51.183-89.161,102.75-83.983s89.161,51.183,83.983,102.75C506.627,151.258,466.269,187.76,418.089,187.769z
		 M341.698,86.204c-0.222,2.559-0.384,5.118-0.384,7.729c0.034,42.371,34.412,76.689,76.774,76.655
		c42.362-0.034,76.689-34.412,76.655-76.774c-0.034-42.371-34.412-76.689-76.774-76.655
		C378.584,17.184,345.631,47.024,341.698,86.204z"/>
	<path style="fill:#FE7C26;" d="M110.991,426.622v-17.061c2.226,0.026,4.368-0.862,5.92-2.457c1.672-1.578,2.619-3.779,2.61-6.074
		c0-4.709-3.822-8.53-8.53-8.53H85.4v25.591H68.339V383.97c0-4.709,3.822-8.53,8.53-8.53h34.122
		c14.135,0,25.591,11.456,25.591,25.591C136.514,415.132,125.092,426.554,110.991,426.622z"/>
	<path style="fill:#FE7C26;" d="M110.991,460.744H76.869c-4.709,0-8.53-3.822-8.53-8.53v-34.122c0-4.709,3.822-8.53,8.53-8.53
		h34.122c14.135,0,25.591,11.456,25.591,25.591C136.514,449.254,125.092,460.676,110.991,460.744z M85.4,443.683h25.591
		c2.226,0.026,4.368-0.862,5.92-2.457c1.672-1.578,2.619-3.779,2.61-6.074c0-4.709-3.822-8.531-8.53-8.531H85.4V443.683z"/>
	<path style="fill:#FE7C26;" d="M85.4,469.275H68.339v-8.53h-8.53v-17.061h17.061c4.709,0,8.53,3.822,8.53,8.53V469.275z"/>
	<path style="fill:#FE7C26;" d="M76.869,392.5H59.808v-17.061h8.53v-8.53H85.4v17.061C85.4,388.679,81.578,392.5,76.869,392.5z"/>
	<rect x="102.452" y="366.9" style="fill:#FE7C26;" width="17.061" height="17.061"/>
	<rect x="102.452" y="452.205" style="fill:#FE7C26;" width="17.061" height="17.061"/>
	<path style="fill:#FE7C26;" d="M93.93,511.927c-51.823,0-93.835-42.013-93.835-93.835s42.013-93.835,93.835-93.835
		s93.835,42.013,93.835,93.835l0,0C187.706,469.889,145.727,511.867,93.93,511.927z M93.93,341.317
		c-42.405-0.009-76.783,34.352-76.791,76.757s34.361,76.783,76.757,76.791c42.405,0.009,76.783-34.361,76.791-76.757
		c0.009-20.362-8.078-39.897-22.478-54.297C133.81,349.421,114.284,341.326,93.93,341.317z"/>
</g>
<path d="M102.461,145.116h17.061v-10.1c13.231-4.581,20.251-19.014,15.671-32.245c-1.135-3.276-2.926-6.278-5.263-8.838
	c9.46-10.322,8.752-26.359-1.57-35.82c-2.551-2.337-5.562-4.129-8.838-5.263v-10.1h-17.061v8.53H85.4v-8.53H68.339v8.53h-8.53
	v17.061h8.53v51.183h-8.53v17.061h8.53v8.53H85.4v-8.53h17.061V145.116z M85.4,68.342h25.591c4.709,0,8.53,3.822,8.53,8.53
	c0,4.709-3.822,8.53-8.53,8.53H85.4V68.342z M85.4,119.525v-17.061h25.591c4.709,0,8.53,3.822,8.53,8.53s-3.822,8.53-8.53,8.53H85.4
	z"/>
<path d="M409.558,366.909h-17.061v8.53h-8.531V392.5h8.531v51.183h-8.531v17.061h8.531v8.53h17.061v-8.53h17.061v8.53h17.061v-10.1
	c13.231-4.581,20.251-19.014,15.671-32.245c-1.135-3.276-2.926-6.278-5.263-8.838c9.46-10.322,8.752-26.359-1.57-35.82
	c-2.551-2.337-5.562-4.129-8.838-5.263v-10.1h-17.061v8.53h-17.061L409.558,366.909L409.558,366.909z M435.15,443.683h-25.591
	v-17.061h25.591c4.709,0,8.53,3.822,8.53,8.531C443.68,439.862,439.859,443.683,435.15,443.683z M435.15,392.5
	c4.709,0,8.53,3.822,8.53,8.53c0,4.709-3.822,8.53-8.53,8.53h-25.591V392.5H435.15z"/>
<path d="M273.071,214.93v-10.1H256.01v8.53h-17.061v-8.53h-17.061v8.53h-8.53v17.061h8.53v51.183h-8.53v17.061h8.53v8.53h17.061
	v-8.53h17.061v8.53h17.061v-10.1c13.231-4.581,20.251-19.014,15.671-32.245c-1.135-3.276-2.926-6.278-5.263-8.838
	c9.46-10.322,8.752-26.359-1.57-35.82C279.349,217.856,276.338,216.064,273.071,214.93z M264.54,281.604h-25.591v-17.061h25.591
	c4.709,0,8.53,3.822,8.53,8.53C273.071,277.782,269.249,281.604,264.54,281.604z M264.54,247.482h-25.591v-17.061h25.591
	c4.709,0,8.53,3.822,8.53,8.53S269.249,247.482,264.54,247.482z"/>
<path d="M392.497,145.116h17.061v-8.53h17.061v8.53h17.061v-10.1c13.231-4.581,20.251-19.014,15.671-32.245
	c-1.135-3.276-2.926-6.278-5.263-8.838c9.46-10.322,8.752-26.359-1.57-35.82c-2.551-2.337-5.562-4.129-8.838-5.263v-10.1h-17.061
	v8.53h-17.061v-8.53h-17.061v8.53h-8.53v17.061h8.53v51.183h-8.53v17.061h8.53L392.497,145.116L392.497,145.116z M409.558,68.342
	h25.591c4.709,0,8.53,3.822,8.53,8.53c0,4.709-3.822,8.53-8.53,8.53h-25.591V68.342z M409.558,102.464h25.591
	c4.709,0,8.53,3.822,8.53,8.53s-3.822,8.53-8.53,8.53h-25.591V102.464z"/>
<path d="M68.339,469.275H85.4v-8.53h17.061v8.53h17.061v-10.1c13.231-4.581,20.251-19.014,15.671-32.245
	c-1.135-3.276-2.926-6.278-5.263-8.838c9.46-10.322,8.752-26.359-1.57-35.82c-2.551-2.337-5.562-4.129-8.838-5.263v-10.1h-17.061
	v8.53H85.4v-8.53H68.339v8.53h-8.53V392.5h8.53v51.183h-8.53v17.061h8.53V469.275z M85.4,392.5h25.591c4.709,0,8.53,3.822,8.53,8.53
	c0,4.709-3.822,8.53-8.53,8.53H85.4V392.5z M85.4,426.622h25.591c4.709,0,8.53,3.822,8.53,8.531c0,4.709-3.822,8.53-8.53,8.53H85.4
	V426.622z"/>
<path d="M0.095,418.092c0.264,51.823,42.49,93.622,94.313,93.349c48.146-0.247,88.299-36.894,92.923-84.819h137.341
	c4.683,51.609,50.321,89.655,101.931,84.972c51.609-4.683,89.655-50.321,84.972-101.931c-4.095-45.118-39.837-80.869-84.955-84.972
	V187.35c51.609-4.675,89.664-50.296,84.998-101.914S461.313-4.227,409.703,0.439c-41.919,3.796-76.186,35.035-83.821,76.425H186.136
	c-9.392-50.97-58.323-84.665-109.293-75.273S-7.821,59.914,1.571,110.883c7.626,41.398,41.902,72.654,83.829,76.45v137.341
	C37.109,329.119,0.146,369.596,0.095,418.092z M187.331,409.561c-1.706-18.929-9.145-36.886-21.326-51.473l26.325-26.325
	c36.476,26.777,86.909,23.51,119.632-7.746l34.071,34.071c-12.19,14.587-19.637,32.544-21.343,51.473H187.331z M324.253,256.012
	c0,42.405-34.369,76.774-76.774,76.774s-76.774-34.369-76.774-76.774s34.369-76.774,76.774-76.774
	C289.859,179.289,324.202,213.633,324.253,256.012z M323.23,200.854l34.856-34.856c14.587,12.182,32.544,19.629,51.473,21.335
	v137.341c-18.929,1.706-36.886,9.145-51.473,21.326l-34.856-34.83C347.337,278.345,347.337,233.671,323.23,200.854z
	 M153.644,256.012c0.009,24.013,9.256,47.097,25.83,64.473l-25.54,25.54c-14.587-12.182-32.544-19.629-51.473-21.335V187.351
	c18.929-1.706,36.886-9.145,51.473-21.326l25.54,25.54C162.908,208.933,153.652,232.008,153.644,256.012z M494.863,418.092
	c0,42.405-34.369,76.774-76.774,76.774s-76.774-34.369-76.774-76.774s34.369-76.774,76.774-76.774
	C460.468,341.368,494.812,375.712,494.863,418.092z M418.089,17.159c42.405,0,76.774,34.369,76.774,76.774
	s-34.369,76.774-76.774,76.774s-76.774-34.369-76.774-76.774C341.366,51.554,375.709,17.21,418.089,17.159z M187.766,93.933h136.488
	c-0.009,21.94,7.694,43.181,21.77,60.003l-34.071,34.071c-32.723-31.256-83.155-34.523-119.632-7.746l-26.325-26.325
	C180.071,137.106,187.774,115.865,187.766,93.933z M17.156,93.933c0-42.405,34.369-76.774,76.774-76.774
	s76.774,34.369,76.774,76.774s-34.369,76.774-76.774,76.774C51.551,170.656,17.207,136.313,17.156,93.933z M93.93,341.317
	c42.405,0,76.774,34.369,76.774,76.774s-34.369,76.774-76.774,76.774s-76.774-34.369-76.774-76.774
	C17.207,375.712,51.551,341.368,93.93,341.317z"/>
<g>
</g>
<g>
</g>
<g>
</g>
<g>
</g>
<g>
</g>
<g>
</g>
<g>
</g>
<g>
</g>
<g>
</g>
<g>
</g>
<g>
</g>
<g>
</g>
<g>
</g>
<g>
</g>
<g>
</g>
</svg>
