<?xml version="1.0" encoding="iso-8859-1"?>
<!-- Generator: Adobe Illustrator 19.0.0, SVG Export Plug-In . SVG Version: 6.00 Build 0)  -->
<svg version="1.1" id="Capa_1" xmlns="http://www.w3.org/2000/svg" xmlns:xlink="http://www.w3.org/1999/xlink" x="0px" y="0px"
	 viewBox="0 0 512.003 512.003" style="enable-background:new 0 0 512.003 512.003;" xml:space="preserve">
<path style="fill:#F5D0C7;" d="M323.775,121.596c47.004,7.395,88.388,35.072,113.183,75.68l12.274,24.504
	c7.591,19.071,11.48,39.413,11.463,59.935l0,0c0.051,40.573-15.173,79.68-42.646,109.541l0,0v112.219h-59.704l-9.519-67.628
	c-16.206,5.271-33.145,7.941-50.186,7.924h-85.292c-17.238,0.017-34.364-2.712-50.74-8.103l0.554,0.179l-9.519,67.628H93.939
	V391.255l0,0c-27.473-29.861-42.697-68.967-42.646-109.541l0,0c-0.009-79.808,58.075-147.743,136.919-160.119
	C188.212,121.596,323.775,121.596,323.775,121.596z"/>
<circle style="fill:#FFD200;" cx="255.96" cy="85.551" r="76.763"/>
<polygon style="fill:#F5D0C7;" points="60.137,228.774 8.647,239.069 8.647,307.302 55.054,316.582 "/>
<g>
	<path style="fill:#EE9380;" d="M452.166,290.244v-17.058c9.425,0,17.058-7.634,17.058-17.058v-25.588h-17.058
		c-14.133,0-25.588-11.455-25.588-25.588c0-14.133,11.455-25.588,25.588-25.588h8.529c14.133,0,25.588,11.455,25.588,25.588v8.529
		c4.708,0,8.529-3.821,8.529-8.529v-51.175h17.058v51.175c0,14.133-11.455,25.588-25.588,25.588v25.588
		C486.282,274.968,471.007,290.244,452.166,290.244z M452.166,196.423c-4.708,0-8.529,3.821-8.529,8.529
		c0,4.708,3.821,8.529,8.529,8.529h17.058v-8.529c0-4.708-3.821-8.529-8.529-8.529H452.166z"/>
	<rect x="179.197" y="155.909" style="fill:#EE9380;" width="153.526" height="17.058"/>
	<path style="fill:#EE9380;" d="M247.464,307.302h-93.821v-17.058h85.292v-46.911c-1.441-27.208-24.564-48.156-51.781-46.911
		h-33.511v-17.058h33.511c37.955,0,68.839,28.692,68.839,63.969v55.44C255.994,303.481,252.173,307.302,247.464,307.302z"/>
	<rect x="102.434" y="213.49" style="fill:#EE9380;" width="34.117" height="17.058"/>
</g>
<g>
	<path style="fill:#FE7C26;" d="M255.994,170.835c-47.107,0-85.292-38.185-85.292-85.292s38.185-85.292,85.292-85.292
		s85.292,38.185,85.292,85.292C341.235,132.624,303.075,170.784,255.994,170.835z M255.994,17.309
		c-37.682,0-68.234,30.552-68.234,68.234s30.552,68.234,68.234,68.234s68.234-30.552,68.234-68.234
		C324.185,47.878,293.659,17.352,255.994,17.309z"/>
	<path style="fill:#FE7C26;" d="M298.64,68.484c-0.043-10.807-6.875-20.419-17.058-24.018V34.368h-17.058v8.529h-17.058v-8.529
		h-17.058v8.529h-8.529v17.058h8.529v51.175h-8.529v17.058h8.529v8.529h17.058v-8.529h17.058v8.529h17.058V126.62
		c13.229-4.58,20.248-19.012,15.668-32.24c-1.134-3.275-2.926-6.278-5.263-8.836C296.243,80.877,298.614,74.796,298.64,68.484z
		 M247.464,59.955h25.588c4.708,0,8.529,3.821,8.529,8.529s-3.821,8.529-8.529,8.529h-25.588V59.955z M273.052,111.13h-25.588
		V94.072h25.588c4.708,0,8.529,3.821,8.529,8.529C281.581,107.309,277.76,111.13,273.052,111.13z"/>
</g>
<path d="M494.812,204.952c0,4.708-3.821,8.529-8.529,8.529v-8.529c0-14.133-11.455-25.588-25.588-25.588h-8.529
	c-4.99,0.017-9.86,1.501-14.014,4.265c-24.376-34.748-60.873-59.133-102.308-68.345c16.547-44.105-5.783-93.267-49.887-109.822
	s-93.275,5.791-109.822,49.887c-7.25,19.319-7.25,40.616,0,59.935C120.098,127.72,74.134,167.602,53.928,221.319l-46.911,9.382
	c-4.375,0.861-7.352,4.955-6.823,9.382l8.529,68.234c0.435,3.514,2.994,6.388,6.431,7.233l32.948,8.06
	c6.61,26.279,19.404,50.595,37.307,70.937v108.927c0,4.708,3.821,8.529,8.529,8.529h59.704c4.248,0,7.847-3.13,8.444-7.335
	l8.145-57.871c14.082,3.659,28.564,5.51,43.115,5.501h85.292c14.551,0.009,29.033-1.842,43.115-5.501l8.145,57.871
	c0.597,4.205,4.196,7.335,8.444,7.335h59.704c4.708,0,8.529-3.821,8.529-8.529V394.539c26.586-30.151,41.623-68.754,42.45-108.944
	c10.627-6.013,17.212-17.263,17.255-29.468v-25.588c14.133,0,25.588-11.455,25.588-25.588v-51.175h-17.058L494.812,204.952
	L494.812,204.952z M255.994,17.309c37.682,0,68.234,30.552,68.234,68.234s-30.552,68.234-68.234,68.234
	s-68.234-30.552-68.234-68.234C187.803,47.878,218.32,17.352,255.994,17.309z M411.771,385.49c-1.45,1.578-2.252,3.633-2.252,5.774
	v103.681h-43.763l-8.487-60.284c-0.657-4.665-4.964-7.915-9.629-7.258c-0.495,0.068-0.981,0.179-1.459,0.333
	c-15.353,4.99-31.396,7.523-47.542,7.506h-85.292c-16.325,0.009-32.547-2.584-48.062-7.676h-0.128
	c-4.495-1.407-9.28,1.092-10.687,5.587c-0.461,1.458-0.512,3.011-0.171,4.495l-8.069,57.299h-43.763V391.264
	c0-2.235-0.879-4.375-2.439-5.97c-18.261-20.01-30.893-44.514-36.607-70.997c-0.87-3.855-4.333-6.567-8.29-6.482l0,0l-30.193-7.403
	l-6.823-54.527l40.676-8.137c4.085,0.64,8.043-1.748,9.382-5.663c17.647-52.037,61.879-90.597,115.835-100.994
	c6.201,9.8,14.329,18.244,23.882,24.82h-28.658v17.058h153.526v-17.058h-28.658c9.527-6.559,17.63-14.969,23.822-24.735
	c40.991,7.915,76.968,32.24,99.579,67.33c-0.589,2.098-0.896,4.265-0.921,6.448c0.017,10.423,6.354,19.796,16.026,23.694
	C462.614,282.568,450.699,343.159,411.771,385.49z M469.224,256.127c-0.009,2.124-0.418,4.222-1.211,6.192
	c-1.22-10.789-3.471-21.425-6.738-31.78h7.949V256.127z M469.224,213.481h-17.058c-4.708,0-8.529-3.821-8.529-8.529
	c0-4.708,3.821-8.529,8.529-8.529h8.529c4.708,0,8.529,3.821,8.529,8.529V213.481z"/>
<path d="M187.154,179.364h-33.511v17.058h33.511c27.217-1.245,50.339,19.702,51.781,46.911v46.911h-85.292v17.058h93.821
	c4.708,0,8.529-3.821,8.529-8.529v-55.44C255.994,208.056,225.109,179.364,187.154,179.364z"/>
<rect x="102.434" y="213.49" width="34.117" height="17.058"/>
<path d="M230.406,136.718h17.058v-8.529h17.058v8.529h17.058V126.62c13.229-4.58,20.248-19.012,15.668-32.24
	c-1.134-3.275-2.926-6.278-5.263-8.836c9.459-10.32,8.751-26.355-1.569-35.814c-2.55-2.337-5.561-4.128-8.836-5.263V34.368h-17.058
	v8.529h-17.058v-8.529h-17.058v8.529h-8.529v17.058h8.529v51.175h-8.529v17.058h8.529L230.406,136.718L230.406,136.718z
	 M247.464,59.955h25.588c4.708,0,8.529,3.821,8.529,8.529s-3.821,8.529-8.529,8.529h-25.588V59.955z M247.464,94.072h25.588
	c4.708,0,8.529,3.821,8.529,8.529c0,4.708-3.821,8.529-8.529,8.529h-25.588V94.072z"/>
<g>
</g>
<g>
</g>
<g>
</g>
<g>
</g>
<g>
</g>
<g>
</g>
<g>
</g>
<g>
</g>
<g>
</g>
<g>
</g>
<g>
</g>
<g>
</g>
<g>
</g>
<g>
</g>
<g>
</g>
</svg>
