<?xml version="1.0" encoding="iso-8859-1"?>
<!-- Generator: Adobe Illustrator 19.0.0, SVG Export Plug-In . SVG Version: 6.00 Build 0)  -->
<svg version="1.1" id="Capa_1" xmlns="http://www.w3.org/2000/svg" xmlns:xlink="http://www.w3.org/1999/xlink" x="0px" y="0px"
	 viewBox="0 0 512 512" style="enable-background:new 0 0 512 512;" xml:space="preserve">
<g>
	<path style="fill:#FFD173;" d="M273.083,51.216c9.412,0.026,17.04,7.654,17.066,17.066c-0.068,9.395-7.671,16.997-17.066,17.066
		h-34.131V51.216H273.083z"/>
	<path style="fill:#FFD173;" d="M273.083,85.347c9.412,0.026,17.04,7.654,17.066,17.066c-0.068,9.395-7.671,16.997-17.066,17.066
		h-34.131V85.347H273.083z"/>
	<rect x="187.721" y="469.304" style="fill:#FFD173;" width="136.524" height="34.131"/>
	<rect x="8.533" y="469.304" style="fill:#FFD173;" width="179.188" height="34.131"/>
	<rect x="324.245" y="469.304" style="fill:#FFD173;" width="179.188" height="34.131"/>
	<path style="fill:#FFD173;" d="M503.467,145.076H273.083v-25.598c9.395-0.068,16.997-7.671,17.066-17.066
		c-0.026-9.412-7.654-17.04-17.066-17.066c9.395-0.068,16.997-7.671,17.066-17.066c-0.026-9.412-7.654-17.04-17.066-17.066V34.15
		l6.826-12.373L503.467,145.076z"/>
	<polygon style="fill:#FFD173;" points="238.952,51.216 238.952,85.347 238.952,119.478 273.083,119.478 273.083,136.543 
		273.083,145.076 8.567,145.076 256.017,8.552 279.909,21.778 273.083,34.15 273.083,51.216 	"/>
</g>
<g>
	<polygon style="fill:#EC9821;" points="503.467,145.076 503.467,179.207 494.934,179.207 486.402,179.207 426.672,179.207 
		392.541,179.207 324.279,179.207 290.148,179.207 221.886,179.207 187.755,179.207 119.493,179.207 85.362,179.207 17.1,179.207 
		8.567,179.207 8.567,145.076 273.083,145.076 	"/>
	<polygon style="fill:#EC9821;" points="503.467,435.19 503.467,469.321 324.279,469.321 324.279,435.19 392.541,435.19 
		426.672,435.19 494.934,435.19 	"/>
</g>
<g>
	<polygon style="fill:#C7943A;" points="494.934,401.059 494.934,435.19 426.672,435.19 426.672,401.059 443.738,401.059 
		477.869,401.059 	"/>
	<polygon style="fill:#C7943A;" points="494.934,179.207 494.934,213.338 477.869,213.338 443.738,213.338 426.672,213.338 
		426.672,179.207 486.402,179.207 	"/>
</g>
<rect x="443.704" y="213.321" style="fill:#FFBD49;" width="34.131" height="187.721"/>
<g>
	<polygon style="fill:#C7943A;" points="392.541,401.059 392.541,435.19 324.279,435.19 324.279,401.059 341.345,401.059 
		375.476,401.059 	"/>
	<polygon style="fill:#C7943A;" points="392.541,179.207 392.541,213.338 375.476,213.338 341.345,213.338 324.279,213.338 
		324.279,179.207 	"/>
</g>
<rect x="341.311" y="213.321" style="fill:#FFBD49;" width="34.131" height="187.721"/>
<polygon style="fill:#EC9821;" points="324.279,435.19 324.279,469.321 187.755,469.321 187.755,435.19 221.886,435.19 
	290.148,435.19 "/>
<g>
	<polygon style="fill:#C7943A;" points="290.148,401.059 290.148,435.19 221.886,435.19 221.886,401.059 238.952,401.059 
		273.083,401.059 	"/>
	<polygon style="fill:#C7943A;" points="290.148,179.207 290.148,213.338 273.083,213.338 238.952,213.338 221.886,213.338 
		221.886,179.207 	"/>
</g>
<rect x="238.917" y="213.321" style="fill:#FFBD49;" width="34.131" height="187.721"/>
<polygon style="fill:#EC9821;" points="187.755,435.19 187.755,469.321 8.567,469.321 8.567,435.19 17.1,435.19 85.362,435.19 
	119.493,435.19 "/>
<g>
	<polygon style="fill:#C7943A;" points="187.755,401.059 187.755,435.19 119.493,435.19 119.493,401.059 136.558,401.059 
		170.689,401.059 	"/>
	<polygon style="fill:#C7943A;" points="187.755,179.207 187.755,213.338 170.689,213.338 136.558,213.338 119.493,213.338 
		119.493,179.207 	"/>
</g>
<rect x="136.524" y="213.321" style="fill:#FFBD49;" width="34.131" height="187.721"/>
<g>
	<polygon style="fill:#C7943A;" points="85.362,401.059 85.362,435.19 17.1,435.19 17.1,401.059 34.165,401.059 68.296,401.059 	"/>
	<polygon style="fill:#C7943A;" points="85.362,179.207 85.362,213.338 68.296,213.338 34.165,213.338 17.1,213.338 17.1,179.207 	
		"/>
</g>
<rect x="34.131" y="213.321" style="fill:#FFBD49;" width="34.131" height="187.721"/>
<g>
	<path style="fill:#FE7C26;" d="M273.083,93.88V76.814c2.219,0.017,4.36-0.862,5.913-2.449c1.672-1.579,2.628-3.78,2.62-6.084
		c0-4.71-3.823-8.533-8.533-8.533h-25.598v25.598h-17.066V51.216c0-4.71,3.823-8.533,8.533-8.533h34.131
		c14.139,0,25.598,11.46,25.598,25.598C298.613,82.395,287.187,93.811,273.083,93.88z"/>
	<path style="fill:#FE7C26;" d="M273.083,128.011h-34.131c-4.71,0-8.533-3.823-8.533-8.533V85.347c0-4.71,3.823-8.533,8.533-8.533
		h34.131c14.139,0,25.598,11.46,25.598,25.598C298.613,116.526,287.187,127.942,273.083,128.011z M247.484,110.945h25.598
		c2.219,0.017,4.36-0.862,5.913-2.449c1.672-1.579,2.628-3.78,2.62-6.084c0-4.71-3.823-8.533-8.533-8.533h-25.598L247.484,110.945
		L247.484,110.945z"/>
	<path style="fill:#FE7C26;" d="M247.484,136.543h-17.066v-8.533h-8.533v-17.066h17.066c4.71,0,8.533,3.823,8.533,8.533V136.543z"/>
	<path style="fill:#FE7C26;" d="M238.952,59.749h-17.066V42.683h8.533V34.15h17.066v17.066
		C247.484,55.926,243.662,59.749,238.952,59.749z"/>
	<rect x="264.516" y="34.133" style="fill:#FE7C26;" width="17.066" height="17.066"/>
	<rect x="264.516" y="119.461" style="fill:#FE7C26;" width="17.066" height="17.066"/>
</g>
<path d="M494.934,221.871c4.71,0,8.533-3.823,8.533-8.533V187.74c4.71,0,8.533-3.823,8.533-8.533v-34.131
	c0-0.111-0.06-0.196-0.06-0.299c-0.026-0.947-0.213-1.877-0.555-2.765c0-0.094,0-0.196-0.077-0.29
	c-0.418-0.93-0.99-1.783-1.707-2.509c-0.247-0.222-0.503-0.427-0.768-0.614c-0.384-0.375-0.811-0.708-1.263-0.998L260.121,1.077
	c-2.568-1.416-5.674-1.416-8.243,0L4.429,137.602c-0.452,0.29-0.879,0.623-1.263,0.998c-0.265,0.188-0.52,0.393-0.768,0.614
	c-0.717,0.725-1.297,1.579-1.707,2.509c0,0.085,0,0.196-0.068,0.282c-0.341,0.887-0.529,1.826-0.563,2.773
	c0,0.102-0.06,0.196-0.06,0.299v34.131c0,4.71,3.823,8.533,8.533,8.533v25.598c0,4.71,3.823,8.533,8.533,8.533h8.567v170.655H17.1
	c-4.71,0-8.533,3.823-8.533,8.533v25.598c-4.71,0-8.533,3.823-8.533,8.533v68.262c0,4.71,3.823,8.533,8.533,8.533h494.9
	c4.71,0,8.533-3.823,8.533-8.533V435.19c0-4.71-3.823-8.533-8.533-8.533v-25.598c0-4.71-3.823-8.533-8.533-8.533h-8.533V221.871
	L494.934,221.871L494.934,221.871z M256.017,18.305l214.317,118.239H281.615v-10.103c13.234-4.582,20.257-19.02,15.675-32.254
	c-1.135-3.277-2.927-6.28-5.265-8.84c9.463-10.325,8.755-26.366-1.57-35.829c-2.551-2.338-5.563-4.13-8.84-5.265V34.15H264.55v8.533
	h-17.066V34.15h-17.066v8.533h-8.533v17.066h8.533v51.197h-8.533v17.066h8.533v8.533H41.7L256.017,18.305z M247.484,110.945V93.88
	h25.598c4.71,0,8.533,3.823,8.533,8.533c0,4.71-3.823,8.533-8.533,8.533H247.484z M264.55,128.011v8.533h-17.066v-8.533
	C247.484,128.011,264.55,128.011,264.55,128.011z M247.484,76.814V59.749h25.598c4.71,0,8.533,3.823,8.533,8.533
	s-3.823,8.533-8.533,8.533H247.484z M17.1,170.675v-17.066h477.835v17.066H17.1z M477.869,409.592h8.533v17.066h-51.197v-17.066
	H477.869z M452.271,392.526V221.871h17.066v170.655H452.271z M435.205,392.526h-8.533c-4.71,0-8.533,3.823-8.533,8.533v25.598
	h-17.066v-25.598c0-4.71-3.823-8.533-8.533-8.533h-8.533V221.871h8.533c4.71,0,8.533-3.823,8.533-8.533V187.74h17.066v25.598
	c0,4.71,3.823,8.533,8.533,8.533h8.533V392.526z M375.476,409.592h8.533v17.066h-51.197v-17.066H375.476z M349.877,392.526V221.871
	h17.066v170.655H349.877z M375.476,204.806h-42.664V187.74h51.197v17.066H375.476z M273.083,409.592h8.533v17.066h-51.197v-17.066
	H273.083z M247.484,392.526V221.871h17.066v170.655H247.484z M273.083,204.806h-42.664V187.74h51.197v17.066H273.083z
	 M136.558,204.806h-8.533V187.74h51.197v17.066H136.558z M162.157,221.871v170.655h-17.066V221.871L162.157,221.871L162.157,221.871
	z M85.362,392.526h-8.533V221.871h8.533c4.71,0,8.533-3.823,8.533-8.533V187.74h17.066v25.598c0,4.71,3.823,8.533,8.533,8.533h8.533
	v170.655h-8.533c-4.71,0-8.533,3.823-8.533,8.533v25.598H93.895v-25.598C93.895,396.349,90.072,392.526,85.362,392.526z
	 M34.165,204.806h-8.533V187.74h51.197v17.066H34.165z M59.763,221.871v170.655H42.698V221.871L59.763,221.871L59.763,221.871z
	 M25.632,409.592h51.197v17.066H25.632C25.632,426.657,25.632,409.592,25.632,409.592z M179.222,494.92H17.1v-17.066h162.123V494.92
	z M179.222,460.788H17.1v-17.066h162.123V460.788z M179.222,426.657h-51.197v-17.066h51.197V426.657z M187.755,392.526h-8.533
	V221.871h8.533c4.71,0,8.533-3.823,8.533-8.533V187.74h17.066v25.598c0,4.71,3.823,8.533,8.533,8.533h8.533v170.655h-8.533
	c-4.71,0-8.533,3.823-8.533,8.533v25.598h-17.066v-25.598C196.288,396.349,192.465,392.526,187.755,392.526z M315.746,494.92
	H196.288v-17.066h119.459V494.92z M315.746,460.788H196.288v-17.066h119.459V460.788z M315.746,401.059v25.598h-17.066v-25.598
	c0-4.71-3.823-8.533-8.533-8.533h-8.533V221.871h8.533c4.71,0,8.533-3.823,8.533-8.533V187.74h17.066v25.598
	c0,4.71,3.823,8.533,8.533,8.533h8.533v170.655h-8.533C319.569,392.526,315.746,396.349,315.746,401.059z M494.934,494.92H332.812
	v-17.066h162.123V494.92z M494.934,443.723v17.066H332.812v-17.066H494.934z M477.869,204.806h-42.664V187.74h51.197v17.066H477.869
	z"/>
<g>
</g>
<g>
</g>
<g>
</g>
<g>
</g>
<g>
</g>
<g>
</g>
<g>
</g>
<g>
</g>
<g>
</g>
<g>
</g>
<g>
</g>
<g>
</g>
<g>
</g>
<g>
</g>
<g>
</g>
</svg>
