<?xml version="1.0" encoding="iso-8859-1"?>
<!-- Generator: Adobe Illustrator 19.0.0, SVG Export Plug-In . SVG Version: 6.00 Build 0)  -->
<svg version="1.1" id="Capa_1" xmlns="http://www.w3.org/2000/svg" xmlns:xlink="http://www.w3.org/1999/xlink" x="0px" y="0px"
	 viewBox="0 0 511.998 511.998" style="enable-background:new 0 0 511.998 511.998;" xml:space="preserve">
<g>
	<path style="fill:#FFD173;" d="M273.376,416.54c14.379,0,26.034-11.654,26.034-26.034c0-14.379-11.654-26.034-26.034-26.034
		c14.379,0,26.034-11.655,26.034-26.034s-11.654-26.034-26.034-26.034h-43.39V416.54H273.376z M449.452,331.67
		c21.999,69.398-16.427,143.49-85.825,165.489c-12.852,4.079-26.26,6.153-39.745,6.161H188.158
		c-72.765-0.017-131.749-59.019-131.732-131.784c0.009-27.205,8.435-53.743,24.125-75.967l80.011-113.334v-34.712L108.495,8.676
		l60.746,43.39l43.39-43.39l43.39,43.39l43.39-43.39l43.39,43.39l60.746-43.39l-52.068,138.847v34.712l80.011,113.334
		C439.29,306.616,445.347,318.791,449.452,331.67z"/>
	<path style="fill:#FFD173;" d="M273.376,312.404c14.379,0,26.034,11.655,26.034,26.034s-11.654,26.034-26.034,26.034h-43.39
		v-52.068H273.376z"/>
	<path style="fill:#FFD173;" d="M273.376,364.472c14.379,0,26.034,11.654,26.034,26.034c0,14.379-11.654,26.034-26.034,26.034
		h-43.39v-52.068H273.376z"/>
</g>
<g>
	<rect x="186.596" y="138.845" style="fill:#FE7C26;" width="34.712" height="17.356"/>
	<rect x="238.664" y="138.845" style="fill:#FE7C26;" width="34.712" height="17.356"/>
	<rect x="290.732" y="138.845" style="fill:#FE7C26;" width="34.712" height="17.356"/>
	<rect x="186.596" y="173.557" style="fill:#FE7C26;" width="34.712" height="17.356"/>
	<rect x="238.664" y="173.557" style="fill:#FE7C26;" width="34.712" height="17.356"/>
	<rect x="290.732" y="173.557" style="fill:#FE7C26;" width="34.712" height="17.356"/>
	<path style="fill:#FE7C26;" d="M377.512,156.201v-17.356c14.379,0,26.034-11.655,26.034-26.034h17.356
		C420.875,136.762,401.472,156.175,377.512,156.201z"/>
	<path style="fill:#FE7C26;" d="M108.495,216.947H91.139c0.026-23.951,19.439-43.364,43.39-43.39v17.356
		C120.158,190.913,108.495,202.567,108.495,216.947z"/>
	<path style="fill:#FE7C26;" d="M296.095,364.472c0.59-0.521,1.25-0.937,1.814-1.501c13.529-13.477,13.581-35.371,0.104-48.909
		c-4.4-4.417-9.91-7.567-15.959-9.103v-18.588h-17.356v17.356h-17.356v-17.356h-17.356v17.356H212.63v17.356h8.678v86.78h-8.678
		v17.356h17.356v17.356h17.356v-17.356h17.356v17.356h17.356v-18.588c18.441-4.634,29.635-23.352,24.993-41.793
		C305.32,375.294,301.493,369.106,296.095,364.472z M290.732,338.438c0,9.589-7.767,17.356-17.356,17.356h-34.712v-34.712h34.712
		C282.965,321.082,290.732,328.849,290.732,338.438z M285.638,402.768c-3.246,3.272-7.663,5.103-12.262,5.094h-34.712V373.15h34.712
		c9.589,0.009,17.347,7.793,17.339,17.373C290.706,395.114,288.884,399.514,285.638,402.768z"/>
</g>
<path d="M438.596,290.588l-78.44-111.104v-30.373l51.521-137.372c1.684-4.487-0.581-9.494-5.068-11.177
	c-2.708-1.015-5.745-0.616-8.105,1.067l-54.767,39.103L305.554,2.549c-3.384-3.384-8.886-3.384-12.271,0L256.02,39.795L218.766,2.54
	c-3.384-3.384-8.886-3.384-12.271,0l-38.183,38.183L113.537,1.62c-3.896-2.786-9.32-1.892-12.106,2.005
	c-1.684,2.352-2.083,5.389-1.067,8.105l51.521,137.372v30.373l-78.44,111.078c-44.744,63.349-29.661,150.971,33.679,195.714
	c23.708,16.748,52.024,25.739,81.052,25.73h135.689c77.564-0.009,140.436-62.881,140.427-140.444
	C464.291,342.56,455.318,314.279,438.596,290.588z M323.864,494.642H188.176C120.21,494.624,65.131,439.519,65.14,371.554
	c0.009-25.4,7.871-50.185,22.528-70.942l80.02-113.369c1.024-1.467,1.562-3.22,1.553-5.007v-34.712c0-1.041-0.182-2.074-0.547-3.055
	l-42.079-112.18l37.584,26.832c3.454,2.465,8.175,2.074,11.177-0.92l37.255-37.255l37.255,37.255c3.384,3.384,8.886,3.384,12.271,0
	l37.255-37.255l37.255,37.255c3.003,2.994,7.723,3.384,11.177,0.92l37.584-26.832l-42.079,112.18
	c-0.356,0.972-0.547,2.013-0.547,3.055v34.712c0,1.796,0.555,3.541,1.588,5.007l79.985,113.36
	c39.198,55.522,25.964,132.313-29.557,171.511C374.066,486.762,349.282,494.633,323.864,494.642z"/>
<rect x="186.596" y="138.845" width="34.712" height="17.356"/>
<rect x="238.664" y="138.845" width="34.712" height="17.356"/>
<rect x="290.732" y="138.845" width="34.712" height="17.356"/>
<rect x="186.596" y="173.557" width="34.712" height="17.356"/>
<rect x="238.664" y="173.557" width="34.712" height="17.356"/>
<rect x="290.732" y="173.557" width="34.712" height="17.356"/>
<path d="M377.512,138.845v17.356c23.951-0.026,43.364-19.439,43.39-43.39h-17.356C403.546,127.191,391.891,138.845,377.512,138.845z
	"/>
<path d="M134.529,190.913v-17.356c-23.951,0.026-43.364,19.439-43.39,43.39h17.356C108.495,202.567,120.158,190.913,134.529,190.913
	z"/>
<path d="M282.054,304.959v-18.588h-17.356v17.356h-17.356v-17.356h-17.356v17.356H212.63v17.356h8.678v86.78h-8.678v17.356h17.356
	v17.356h17.356v-17.356h17.356v17.356h17.356v-18.588c18.441-4.634,29.635-23.352,24.993-41.793
	c-1.736-6.899-5.563-13.086-10.952-17.72c14.423-12.392,16.072-34.13,3.679-48.562C295.149,310.521,288.953,306.694,282.054,304.959
	z M273.376,407.862h-34.712V373.15h34.712c9.589,0,17.356,7.767,17.356,17.356C290.732,400.095,282.965,407.862,273.376,407.862z
	 M273.376,355.794h-34.712v-34.712h34.712c9.589,0,17.356,7.767,17.356,17.356S282.965,355.794,273.376,355.794z"/>
<g>
</g>
<g>
</g>
<g>
</g>
<g>
</g>
<g>
</g>
<g>
</g>
<g>
</g>
<g>
</g>
<g>
</g>
<g>
</g>
<g>
</g>
<g>
</g>
<g>
</g>
<g>
</g>
<g>
</g>
</svg>
