<?xml version="1.0" encoding="iso-8859-1"?>
<!-- Generator: Adobe Illustrator 19.0.0, SVG Export Plug-In . SVG Version: 6.00 Build 0)  -->
<svg version="1.1" id="Capa_1" xmlns="http://www.w3.org/2000/svg" xmlns:xlink="http://www.w3.org/1999/xlink" x="0px" y="0px"
	 viewBox="0 0 512 512" style="enable-background:new 0 0 512 512;" xml:space="preserve">
<g>
	<path style="fill:#FFCB5A;" d="M273.067,273.067c9.412,0.026,17.041,7.654,17.067,17.067c-0.068,9.395-7.671,16.998-17.067,17.067
		h-34.133v-34.133H273.067z"/>
	<path style="fill:#FFCB5A;" d="M273.067,307.2c9.412,0.026,17.041,7.654,17.067,17.067c-0.068,9.395-7.671,16.998-17.067,17.067
		h-34.133V307.2H273.067z"/>
	<path style="fill:#FFCB5A;" d="M273.067,341.333c9.395-0.068,16.998-7.671,17.067-17.067c-0.026-9.412-7.654-17.041-17.067-17.067
		c9.395-0.068,16.998-7.671,17.067-17.067c-0.026-9.412-7.654-17.041-17.067-17.067h-34.133v68.267H273.067z M256,221.867
		c47.13,0,85.333,38.204,85.333,85.333S303.13,392.533,256,392.533s-85.333-38.204-85.333-85.333S208.87,221.867,256,221.867z"/>
</g>
<g>
	<polygon style="fill:#002E61;" points="443.733,179.2 443.733,221.867 418.133,221.867 375.467,221.867 349.867,221.867 
		349.867,179.2 375.467,179.2 418.133,179.2 	"/>
	<polygon style="fill:#002E61;" points="162.133,179.2 162.133,221.867 136.533,221.867 93.867,221.867 68.267,221.867 
		68.267,179.2 93.867,179.2 136.533,179.2 	"/>
</g>
<path style="fill:#454545;" d="M375.467,76.8v42.667h-34.133V76.8c0-18.85-15.283-34.133-34.133-34.133H204.8
	c-18.85,0-34.133,15.283-34.133,34.133v42.667h-34.133V76.8c0-37.7,30.566-68.267,68.267-68.267h102.4
	C344.9,8.533,375.467,39.1,375.467,76.8z"/>
<g>
	<path style="fill:#00448F;" d="M503.467,119.467v51.2c-28.279,0-51.2-22.921-51.2-51.2H503.467z"/>
	<path style="fill:#00448F;" d="M8.533,119.467h51.2c0.043,13.585-5.367,26.615-15.019,36.181
		c-9.566,9.651-22.596,15.061-36.181,15.019V119.467z"/>
	<path style="fill:#00448F;" d="M59.733,503.467h-51.2v-51.2c13.585-0.043,26.615,5.367,36.181,15.019
		C54.366,476.851,59.776,489.882,59.733,503.467z"/>
	<path style="fill:#00448F;" d="M503.467,452.267v51.2h-51.2C452.309,475.204,475.204,452.309,503.467,452.267z"/>
	<rect x="375.467" y="221.867" style="fill:#00448F;" width="42.667" height="281.6"/>
	<rect x="375.467" y="119.467" style="fill:#00448F;" width="42.667" height="59.733"/>
	<rect x="93.867" y="119.467" style="fill:#00448F;" width="42.667" height="59.733"/>
	<rect x="93.867" y="221.867" style="fill:#00448F;" width="42.667" height="281.6"/>
</g>
<g>
	<path style="fill:#168DE2;" d="M93.867,221.867v281.6H59.733c0.043-13.585-5.367-26.615-15.019-36.181
		c-9.566-9.651-22.596-15.061-36.181-15.019v-281.6c13.585,0.043,26.615-5.367,36.181-15.019
		c9.651-9.566,15.061-22.596,15.019-36.181h34.133V179.2h-25.6v42.667H93.867z"/>
	<path style="fill:#168DE2;" d="M503.467,170.667v281.6c-28.262,0.043-51.157,22.938-51.2,51.2h-34.133v-281.6h25.6V179.2h-25.6
		v-59.733h34.133C452.267,147.746,475.187,170.667,503.467,170.667z"/>
	<path style="fill:#168DE2;" d="M375.467,221.867v281.6H136.533v-281.6h25.6V179.2h-25.6v-59.733h238.933V179.2h-25.6v42.667
		H375.467z M341.333,307.2c0-47.13-38.204-85.333-85.333-85.333s-85.333,38.204-85.333,85.333S208.87,392.533,256,392.533
		S341.333,354.33,341.333,307.2z"/>
</g>
<g>
	<path style="fill:#FE7C26;" d="M298.667,290.133c-0.043-10.812-6.878-20.429-17.067-24.03V256h-17.067v8.533h-17.067V256H230.4
		v8.533h-8.533V281.6h8.533v51.2h-8.533v17.067h8.533v8.533h17.067v-8.533h17.067v8.533H281.6v-10.078
		c3.567-1.212,6.801-3.234,9.446-5.905c4.907-4.762,7.663-11.315,7.62-18.15c-0.026-6.323-2.406-12.407-6.682-17.067
		C296.286,302.558,298.675,296.465,298.667,290.133z M247.467,281.6h25.6c4.71,0,8.533,3.823,8.533,8.533
		c0.009,2.304-0.947,4.506-2.62,6.084c-1.553,1.587-3.695,2.466-5.914,2.449h-25.6V281.6z M278.98,330.351
		c-1.553,1.587-3.695,2.466-5.914,2.449h-25.6v-17.067h25.6c4.71,0,8.533,3.823,8.533,8.533
		C281.609,326.571,280.653,328.772,278.98,330.351z"/>
	<path style="fill:#FE7C26;" d="M256,401.067c-51.84,0-93.867-42.027-93.867-93.867S204.16,213.333,256,213.333
		s93.867,42.027,93.867,93.867C349.807,359.014,307.814,401.007,256,401.067z M256,230.4c-42.419,0-76.8,34.381-76.8,76.8
		S213.581,384,256,384s76.8-34.381,76.8-76.8C332.749,264.806,298.394,230.451,256,230.4z"/>
</g>
<path d="M503.467,110.933H384V76.8C383.949,34.406,349.594,0.051,307.2,0H204.8c-42.394,0.051-76.749,34.406-76.8,76.8v34.133H8.533
	c-4.71,0-8.533,3.823-8.533,8.533v384C0,508.177,3.823,512,8.533,512h494.933c4.71,0,8.533-3.823,8.533-8.533v-384
	C512,114.756,508.177,110.933,503.467,110.933z M384,128h25.6v42.667H384V128z M145.067,76.8
	c0.043-32.973,26.761-59.691,59.733-59.733h102.4c32.973,0.043,59.691,26.761,59.733,59.733v34.133h-17.067V76.8
	c-0.026-23.552-19.115-42.641-42.667-42.667H204.8c-23.552,0.026-42.641,19.115-42.667,42.667v34.133h-17.067V76.8z M332.8,76.8
	v34.133H179.2V76.8c0-14.14,11.46-25.6,25.6-25.6h102.4C321.34,51.2,332.8,62.66,332.8,76.8z M102.4,128H128v42.667h-25.6V128z
	 M17.067,128h33.28c-3.447,16.751-16.529,29.833-33.28,33.28V128z M17.067,494.933v-33.28c16.751,3.447,29.833,16.529,33.28,33.28
	H17.067z M85.333,494.933H67.584c-3.806-26.163-24.354-46.711-50.517-50.517V178.517C43.23,174.711,63.778,154.163,67.584,128
	h17.749v42.667H68.267c-4.71,0-8.533,3.823-8.533,8.533v42.667c0,4.71,3.823,8.533,8.533,8.533h17.067V494.933z M128,494.933h-25.6
	V230.4H128V494.933z M93.867,213.333H76.8v-25.6h76.8v25.6H93.867z M366.933,494.933H145.067V230.4h17.067
	c4.71,0,8.533-3.823,8.533-8.533V179.2c0-4.71-3.823-8.533-8.533-8.533h-17.067V128h221.867v42.667h-17.067
	c-4.71,0-8.533,3.823-8.533,8.533v42.667c0,4.71,3.823,8.533,8.533,8.533h17.067V494.933z M409.6,494.933H384V230.4h25.6V494.933z
	 M375.467,213.333H358.4v-25.6h76.8v25.6H375.467z M494.933,494.933h-33.28c3.447-16.751,16.529-29.833,33.28-33.28V494.933z
	 M494.933,444.416c-26.163,3.806-46.711,24.354-50.517,50.517h-17.749V230.4h17.067c4.71,0,8.533-3.823,8.533-8.533V179.2
	c0-4.71-3.823-8.533-8.533-8.533h-17.067V128h17.749c3.806,26.163,24.354,46.711,50.517,50.517V444.416z M494.933,161.28
	c-16.751-3.447-29.833-16.529-33.28-33.28h33.28V161.28z"/>
<path d="M281.6,266.103V256h-17.067v8.533h-17.067V256H230.4v8.533h-8.533V281.6h8.533v51.2h-8.533v17.067h8.533v8.533h17.067
	v-8.533h17.067v8.533H281.6v-10.103c13.235-4.582,20.258-19.021,15.676-32.256c-1.135-3.277-2.927-6.281-5.265-8.841
	c9.464-10.325,8.755-26.368-1.57-35.831C287.881,269.03,284.877,267.238,281.6,266.103z M273.067,332.8h-25.6v-17.067h25.6
	c4.71,0,8.533,3.823,8.533,8.533S277.777,332.8,273.067,332.8z M273.067,298.667h-25.6V281.6h25.6c4.71,0,8.533,3.823,8.533,8.533
	C281.6,294.844,277.777,298.667,273.067,298.667z"/>
<path d="M256,213.333c-51.84,0-93.867,42.027-93.867,93.867S204.16,401.067,256,401.067s93.867-42.027,93.867-93.867
	C349.807,255.386,307.814,213.393,256,213.333z M256,384c-42.419,0-76.8-34.381-76.8-76.8s34.381-76.8,76.8-76.8
	s76.8,34.381,76.8,76.8C332.749,349.594,298.394,383.949,256,384z"/>
<g>
</g>
<g>
</g>
<g>
</g>
<g>
</g>
<g>
</g>
<g>
</g>
<g>
</g>
<g>
</g>
<g>
</g>
<g>
</g>
<g>
</g>
<g>
</g>
<g>
</g>
<g>
</g>
<g>
</g>
</svg>
