<?xml version="1.0" encoding="iso-8859-1"?>
<!-- Generator: Adobe Illustrator 19.0.0, SVG Export Plug-In . SVG Version: 6.00 Build 0)  -->
<svg version="1.1" id="Capa_1" xmlns="http://www.w3.org/2000/svg" xmlns:xlink="http://www.w3.org/1999/xlink" x="0px" y="0px"
	 viewBox="0 0 512 512" style="enable-background:new 0 0 512 512;" xml:space="preserve">
<g>
	<circle style="fill:#168DE2;" cx="217.6" cy="486.4" r="17.067"/>
	<circle style="fill:#168DE2;" cx="345.6" cy="486.4" r="17.067"/>
</g>
<polygon style="fill:#41BD8C;" points="422.4,221.867 388.267,358.4 200.533,358.4 149.333,221.867 "/>
<g>
	<path style="fill:#FFD173;" d="M294.4,59.733c9.412,0.026,17.041,7.654,17.067,17.067c-0.068,9.395-7.671,16.998-17.067,17.067
		h-34.133V59.733H294.4z"/>
	<path style="fill:#FFD173;" d="M294.4,93.867c9.412,0.026,17.041,7.654,17.067,17.067c-0.068,9.395-7.671,16.998-17.067,17.067
		h-34.133V93.867H294.4z"/>
	<path style="fill:#FFD173;" d="M260.267,59.733V128H294.4c9.395-0.068,16.998-7.671,17.067-17.067
		c-0.026-9.412-7.654-17.041-17.067-17.067c9.395-0.068,16.998-7.671,17.067-17.067c-0.026-9.412-7.654-17.041-17.067-17.067
		H260.267z M277.333,8.533c47.13,0,85.333,38.204,85.333,85.333S324.463,179.2,277.333,179.2S192,140.996,192,93.867
		S230.204,8.533,277.333,8.533z"/>
</g>
<g>
	<path style="fill:#FE7C26;" d="M320,76.8c-0.043-10.812-6.878-20.429-17.067-24.03V42.667h-17.067V51.2H268.8v-8.533h-17.067V51.2
		H243.2v17.067h8.533v51.2H243.2v17.067h8.533v8.533H268.8v-8.533h17.067v8.533h17.067v-10.078c3.567-1.212,6.801-3.234,9.446-5.905
		c4.907-4.762,7.663-11.315,7.62-18.15c-0.026-6.323-2.406-12.407-6.682-17.067C317.619,89.225,320.009,83.132,320,76.8z
		 M268.8,68.267h25.6c4.71,0,8.533,3.823,8.533,8.533c0.009,2.304-0.947,4.506-2.62,6.084c-1.553,1.587-3.686,2.466-5.914,2.449
		h-25.6V68.267z M300.314,117.018c-1.553,1.587-3.686,2.466-5.914,2.449h-25.6V102.4h25.6c4.71,0,8.533,3.823,8.533,8.533
		C302.942,113.237,301.995,115.439,300.314,117.018z"/>
	<path style="fill:#FE7C26;" d="M277.333,187.733c-51.84,0-93.867-42.027-93.867-93.867S225.493,0,277.333,0
		S371.2,42.027,371.2,93.867C371.14,145.681,329.148,187.674,277.333,187.733z M277.333,17.067c-42.419,0-76.8,34.381-76.8,76.8
		s34.381,76.8,76.8,76.8s76.8-34.381,76.8-76.8C354.091,51.473,319.727,17.118,277.333,17.067z"/>
</g>
<g>
	<path style="fill:#308F69;" d="M388.267,366.933H200.533v-17.067h181.069L411.469,230.4H149.333v-17.067H422.4
		c4.71,0,8.533,3.823,8.533,8.533c0,0.691-0.085,1.391-0.256,2.065l-34.133,136.533
		C395.597,364.262,392.183,366.933,388.267,366.933z"/>
	<path style="fill:#308F69;" d="M388.267,452.267H174.933c-4.71,0-8.533-3.823-8.533-8.533c0-0.828,0.119-1.655,0.358-2.449
		l24.747-82.586L117.82,162.133H81.067v-17.067h42.667c3.558,0,6.741,2.202,7.996,5.53l76.8,204.8
		c0.649,1.749,0.717,3.661,0.179,5.453L186.402,435.2h201.865V452.267z"/>
	<rect x="192" y="247.467" style="fill:#308F69;" width="187.733" height="17.067"/>
	<rect x="209.067" y="281.6" style="fill:#308F69;" width="162.133" height="17.067"/>
	<rect x="217.6" y="315.733" style="fill:#308F69;" width="145.067" height="17.067"/>
</g>
<g>
	<path style="fill:#002874;" d="M217.6,512c-14.14,0-25.6-11.46-25.6-25.6s11.46-25.6,25.6-25.6c14.14,0,25.6,11.46,25.6,25.6
		S231.74,512,217.6,512z M217.6,477.867c-4.71,0-8.533,3.823-8.533,8.533s3.823,8.533,8.533,8.533c4.71,0,8.533-3.823,8.533-8.533
		S222.31,477.867,217.6,477.867z"/>
	<path style="fill:#002874;" d="M345.6,512c-14.14,0-25.6-11.46-25.6-25.6s11.46-25.6,25.6-25.6c14.14,0,25.6,11.46,25.6,25.6
		S359.74,512,345.6,512z M345.6,477.867c-4.71,0-8.533,3.823-8.533,8.533s3.823,8.533,8.533,8.533c4.71,0,8.533-3.823,8.533-8.533
		S350.31,477.867,345.6,477.867z"/>
</g>
<path d="M251.733,145.067H268.8v-8.533h17.067v8.533h17.067v-10.103c13.235-4.582,20.258-19.021,15.676-32.256
	c-1.135-3.277-2.927-6.281-5.265-8.841c9.463-10.325,8.755-26.368-1.57-35.831c-2.551-2.338-5.564-4.13-8.841-5.265V42.667h-17.067
	V51.2H268.8v-8.533h-17.067V51.2H243.2v17.067h8.533v51.2H243.2v17.067h8.533L251.733,145.067L251.733,145.067z M268.8,68.267h25.6
	c4.71,0,8.533,3.823,8.533,8.533s-3.823,8.533-8.533,8.533h-25.6V68.267z M268.8,102.4h25.6c4.71,0,8.533,3.823,8.533,8.533
	c0,4.71-3.823,8.533-8.533,8.533h-25.6V102.4z"/>
<path d="M277.333,187.733c51.84,0,93.867-42.027,93.867-93.867S329.173,0,277.333,0s-93.867,42.027-93.867,93.867
	C183.526,145.681,225.519,187.674,277.333,187.733z M277.333,17.067c42.419,0,76.8,34.381,76.8,76.8s-34.381,76.8-76.8,76.8
	s-76.8-34.381-76.8-76.8C200.585,51.473,234.94,17.118,277.333,17.067z"/>
<path d="M429.124,216.619c-1.613-2.074-4.096-3.285-6.724-3.285H155.247l-23.518-62.737c-1.254-3.328-4.437-5.53-7.996-5.53H81.067
	v17.067h36.753l23.518,62.72l0,0l50.193,133.837l-24.747,82.577c-1.365,4.514,1.195,9.276,5.7,10.633
	c0.794,0.239,1.621,0.367,2.449,0.367h213.333V435.2H186.402l20.48-68.267h181.385c3.917,0,7.33-2.671,8.277-6.468l34.133-136.533
	C431.309,221.389,430.737,218.684,429.124,216.619z M381.602,349.867H206.447l-44.8-119.467h249.822L381.602,349.867z"/>
<rect x="192" y="247.467" width="187.733" height="17.067"/>
<rect x="209.067" y="281.6" width="162.133" height="17.067"/>
<rect x="217.6" y="315.733" width="145.067" height="17.067"/>
<path d="M217.6,460.8c-14.14,0-25.6,11.46-25.6,25.6s11.46,25.6,25.6,25.6c14.14,0,25.6-11.46,25.6-25.6S231.74,460.8,217.6,460.8z
	 M217.6,494.933c-4.71,0-8.533-3.823-8.533-8.533s3.823-8.533,8.533-8.533c4.71,0,8.533,3.823,8.533,8.533
	S222.31,494.933,217.6,494.933z"/>
<path d="M345.6,512c14.14,0,25.6-11.46,25.6-25.6s-11.46-25.6-25.6-25.6c-14.14,0-25.6,11.46-25.6,25.6S331.46,512,345.6,512z
	 M345.6,477.867c4.71,0,8.533,3.823,8.533,8.533s-3.823,8.533-8.533,8.533c-4.71,0-8.533-3.823-8.533-8.533
	S340.89,477.867,345.6,477.867z"/>
<g>
</g>
<g>
</g>
<g>
</g>
<g>
</g>
<g>
</g>
<g>
</g>
<g>
</g>
<g>
</g>
<g>
</g>
<g>
</g>
<g>
</g>
<g>
</g>
<g>
</g>
<g>
</g>
<g>
</g>
</svg>
