<?xml version="1.0" encoding="iso-8859-1"?>
<!-- Generator: Adobe Illustrator 19.0.0, SVG Export Plug-In . SVG Version: 6.00 Build 0)  -->
<svg version="1.1" id="Capa_1" xmlns="http://www.w3.org/2000/svg" xmlns:xlink="http://www.w3.org/1999/xlink" x="0px" y="0px"
	 viewBox="0 0 512.009 512.009" style="enable-background:new 0 0 512.009 512.009;" xml:space="preserve">
<path style="fill:#168DE2;" d="M166.796,290.142H89.998c-47.128,0-85.33-38.202-85.33-85.331s38.202-85.33,85.33-85.33
	c5.76,0,11.503,0.572,17.151,1.707c0-0.597-0.085-1.109-0.085-1.707c-0.034-47.094,38.117-85.296,85.211-85.33
	c22.101-0.017,43.348,8.55,59.253,23.893c20.053-42.648,70.875-60.969,113.524-40.916c38.535,18.116,57.82,61.865,45.191,102.525
	c1.365,0,2.645-0.171,4.011-0.171c47.128,0.051,85.288,38.305,85.228,85.433c-0.043,33.851-20.087,64.484-51.096,78.06
	c-10.752,4.744-22.382,7.185-34.132,7.168C414.254,290.142,166.796,290.142,166.796,290.142z"/>
<g>
	<path style="fill:#FFD200;" d="M238.925,375.473v68.264h34.132c9.395-0.068,16.998-7.671,17.066-17.066
		c-0.026-9.412-7.654-17.041-17.066-17.066c9.395-0.068,16.998-7.671,17.066-17.066c-0.026-9.412-7.654-17.041-17.066-17.066
		H238.925z M332.789,446.724c-20.531,42.384-71.541,60.09-113.916,39.559c-42.384-20.531-60.09-71.541-39.559-113.916
		s71.541-60.09,113.916-39.559c29.43,14.259,48.118,44.099,48.092,76.797C341.339,422.464,338.421,435.161,332.789,446.724z"/>
	<path style="fill:#FFD200;" d="M273.058,375.473c9.412,0.026,17.041,7.654,17.066,17.066c-0.068,9.395-7.671,16.998-17.066,17.066
		h-34.132v-34.132H273.058z"/>
	<path style="fill:#FFD200;" d="M273.058,409.605c9.412,0.026,17.041,7.654,17.066,17.066c-0.068,9.395-7.671,16.998-17.066,17.066
		h-34.132v-34.132H273.058z"/>
</g>
<g>
	<rect x="162.128" y="290.134" style="fill:#00448F;" width="17.066" height="17.066"/>
	<rect x="443.719" y="281.6" style="fill:#00448F;" width="17.066" height="59.731"/>
	<rect x="255.991" y="290.134" style="fill:#00448F;" width="17.066" height="34.132"/>
	<rect x="349.855" y="298.667" style="fill:#00448F;" width="17.066" height="59.731"/>
	<rect x="418.119" y="392.53" style="fill:#00448F;" width="17.066" height="85.33"/>
	<rect x="486.384" y="418.129" style="fill:#00448F;" width="17.066" height="76.797"/>
	<rect x="324.256" y="443.728" style="fill:#00448F;" width="17.066" height="42.665"/>
	<rect x="119.463" y="298.667" style="fill:#00448F;" width="17.066" height="59.731"/>
	<rect x="25.599" y="315.733" style="fill:#00448F;" width="17.066" height="59.731"/>
	<rect x="93.864" y="383.997" style="fill:#00448F;" width="17.066" height="85.33"/>
	<rect x="145.062" y="452.261" style="fill:#00448F;" width="17.066" height="59.731"/>
	<rect x="25.599" y="392.53" style="fill:#00448F;" width="17.066" height="17.066"/>
	<path style="fill:#00448F;" d="M121.963,407.105l-19.566-19.566L82.83,407.105l-12.066-12.066l25.599-25.599
		c3.336-3.328,8.729-3.328,12.066,0l25.599,25.599L121.963,407.105z"/>
	<path style="fill:#00448F;" d="M426.652,486.402c-2.261,0-4.437-0.896-6.033-2.5l-25.599-25.599l12.066-12.066l19.566,19.566
		l19.566-19.566l12.066,12.066l-25.599,25.599C431.09,485.506,428.914,486.402,426.652,486.402z"/>
	<rect x="418.119" y="358.398" style="fill:#00448F;" width="17.066" height="17.066"/>
</g>
<g>
	<path style="fill:#FE7C26;" d="M273.058,418.138v-17.066c2.227,0.017,4.36-0.87,5.922-2.449c1.672-1.579,2.62-3.78,2.611-6.084
		c0-4.71-3.823-8.533-8.533-8.533h-25.599v25.599h-17.066v-34.132c0-4.71,3.823-8.533,8.533-8.533h34.132
		c14.139,0,25.599,11.46,25.599,25.599C298.588,406.644,287.163,418.07,273.058,418.138z"/>
	<path style="fill:#FE7C26;" d="M273.058,452.27h-34.132c-4.71,0-8.533-3.823-8.533-8.533v-34.132c0-4.71,3.823-8.533,8.533-8.533
		h34.132c14.139,0,25.599,11.46,25.599,25.599C298.588,440.776,287.163,452.202,273.058,452.27z M247.458,435.204h25.599
		c2.227,0.017,4.36-0.87,5.922-2.449c1.672-1.579,2.62-3.78,2.611-6.084c0-4.71-3.823-8.533-8.533-8.533h-25.599V435.204z"/>
	<path style="fill:#FE7C26;" d="M247.458,460.803h-17.066v-8.533h-8.533v-17.066h17.066c4.71,0,8.533,3.823,8.533,8.533V460.803z"/>
	<path style="fill:#FE7C26;" d="M238.925,384.006h-17.066v-17.066h8.533v-8.533h17.066v17.066
		C247.458,380.183,243.636,384.006,238.925,384.006z"/>
	<rect x="264.525" y="358.398" style="fill:#FE7C26;" width="17.066" height="17.066"/>
	<rect x="264.525" y="443.728" style="fill:#FE7C26;" width="17.066" height="17.066"/>
	<path style="fill:#FE7C26;" d="M255.991,503.468c-51.898,0.051-94.017-41.983-94.068-93.881
		c-0.051-51.898,41.983-94.017,93.881-94.068c51.898-0.051,94.017,41.983,94.068,93.881c0.017,14.225-3.2,28.27-9.403,41.07
		C324.776,482.852,291.975,503.434,255.991,503.468z M255.991,332.807c-42.375,0.034-76.695,34.422-76.661,76.797
		c0.034,42.375,34.422,76.695,76.797,76.661c42.324-0.034,76.627-34.337,76.661-76.661
		C332.738,367.213,298.384,332.858,255.991,332.807z"/>
</g>
<g>
	<path style="fill:#00448F;" d="M401.053,260.276h-17.066c0.145-35.224-28.296-63.887-63.52-64.032
		c-7.961-0.034-15.854,1.425-23.278,4.301c-4.395,1.707-9.335-0.478-11.042-4.872c-0.017-0.043-0.034-0.094-0.051-0.137
		c-12.211-33.142-48.98-50.115-82.122-37.904c-25.13,9.258-41.838,33.194-41.846,59.979h-17.066
		c-0.043-44.739,36.197-81.038,80.936-81.072c31.018-0.026,59.322,17.655,72.898,45.541c6.869-1.903,13.969-2.867,21.094-2.867
		C364.737,179.264,401.002,215.529,401.053,260.276z"/>
	<path style="fill:#00448F;" d="M439.452,170.679h-17.066c-0.034-35.327-28.671-63.964-63.998-63.998V89.615
		C403.135,89.667,439.401,125.932,439.452,170.679z"/>
</g>
<rect x="486.384" y="418.129" width="17.066" height="76.797"/>
<rect x="25.599" y="315.733" width="17.066" height="59.731"/>
<path d="M110.93,469.336v-73.265l11.033,11.033l12.066-12.066l-25.599-25.599c-3.336-3.328-8.729-3.328-12.066,0l-25.599,25.599
	l12.066,12.066l11.033-11.033v73.265H110.93z"/>
<rect x="145.062" y="452.261" width="17.066" height="59.731"/>
<rect x="25.599" y="392.53" width="17.066" height="17.066"/>
<path d="M425.04,111.195c9.591-50.917-23.918-99.965-74.835-109.556c-38.22-7.193-76.917,9.932-97.277,43.066
	C211.662,13.381,152.81,21.445,121.485,62.719c-10.718,14.122-17.211,30.992-18.739,48.647c-2.91-0.273-5.913-0.418-8.883-0.418
	C42.025,110.948,0,152.973,0,204.812s42.025,93.864,93.864,93.864h25.599v59.731h17.066v-59.731h25.599v8.533h17.066v-8.533h76.797
	v17.066c-51.838-0.102-93.949,41.829-94.051,93.676s41.829,93.949,93.676,94.051c26,0.051,50.857-10.683,68.648-29.644v12.578
	h17.066v-37.921c21.563-46.974,0.973-102.525-46.002-124.096c-7.1-3.26-14.574-5.615-22.263-7.014v-18.696h76.797v59.731h17.066
	v-59.731h51.198c8.661-0.017,17.279-1.246,25.599-3.635v46.3h17.066v-53.024c46.155-23.534,64.493-80.023,40.959-126.178
	C486.845,132.912,457.755,113.593,425.04,111.195z M332.789,409.605c-0.009,11.852-2.782,23.543-8.106,34.132h-0.427v0.853
	c-19.413,37.631-65.662,52.401-103.284,32.98c-37.631-19.413-52.401-65.662-32.98-103.284s65.662-52.401,103.284-32.98
	C316.824,354.481,332.849,380.857,332.789,409.605z M418.119,281.609H93.864c-42.418,0-76.797-34.38-76.797-76.797
	s34.38-76.797,76.797-76.797c5.188,0,10.359,0.521,15.445,1.553c4.616,0.947,9.122-2.031,10.069-6.656
	c0.128-0.623,0.188-1.246,0.171-1.877c0-0.145-0.077-1.399-0.085-1.544c-0.034-42.384,34.303-76.772,76.687-76.806
	c19.899-0.009,39.03,7.705,53.349,21.52c3.396,3.268,8.798,3.157,12.066-0.239c0.657-0.683,1.195-1.468,1.587-2.321
	c17.501-38.544,62.931-55.601,101.475-38.1c31.965,14.515,49.978,48.886,43.732,83.428c-14.225-11.247-31.837-17.356-49.97-17.356
	v17.066c35.327,0.034,63.964,28.671,63.998,63.998h17.066c-0.009-14.83-4.121-29.371-11.869-42.017
	c42.059,5.495,71.695,44.039,66.199,86.098C488.816,252.818,456.501,281.37,418.119,281.609z"/>
<path d="M247.458,358.406h-17.066v8.533h-8.533v17.066h8.533v51.198h-8.533v17.066h8.533v8.533h17.066v-8.533h17.066v8.533h17.066
	V450.7c13.235-4.582,20.257-19.02,15.675-32.255c-1.135-3.277-2.927-6.28-5.265-8.84c9.463-10.325,8.755-26.367-1.57-35.83
	c-2.551-2.338-5.564-4.13-8.84-5.265v-10.103h-17.066v8.533h-17.066L247.458,358.406L247.458,358.406z M273.058,435.204h-25.599
	v-17.066h25.599c4.71,0,8.533,3.823,8.533,8.533C281.591,431.381,277.768,435.204,273.058,435.204z M273.058,384.006
	c4.71,0,8.533,3.823,8.533,8.533s-3.823,8.533-8.533,8.533h-25.599v-17.066H273.058z"/>
<path d="M446.219,446.237l-11.033,11.033v-64.732h-17.066v64.732l-11.033-11.033l-12.066,12.066l25.599,25.599
	c3.328,3.328,8.738,3.328,12.066,0l25.599-25.599L446.219,446.237z"/>
<rect x="418.119" y="358.398" width="17.066" height="17.066"/>
<path d="M319.989,179.212c-7.125,0-14.225,0.956-21.094,2.842c-19.609-40.216-68.102-56.924-108.319-37.324
	c-27.869,13.585-45.532,41.88-45.515,72.881h17.066c0.102-35.344,28.842-63.913,64.186-63.802
	c26.683,0.077,50.516,16.708,59.808,41.718c1.621,4.42,6.528,6.698,10.948,5.069c0.051-0.017,0.094-0.034,0.145-0.051
	c32.921-12.655,69.869,3.78,82.523,36.701c2.824,7.347,4.267,15.155,4.249,23.031h17.066
	C401.002,215.529,364.737,179.264,319.989,179.212z"/>
<g>
</g>
<g>
</g>
<g>
</g>
<g>
</g>
<g>
</g>
<g>
</g>
<g>
</g>
<g>
</g>
<g>
</g>
<g>
</g>
<g>
</g>
<g>
</g>
<g>
</g>
<g>
</g>
<g>
</g>
</svg>
